<svg width="22" height="28" viewBox="0 0 22 28" fill="none" xmlns="http://www.w3.org/2000/svg">
<path fill-rule="evenodd" clip-rule="evenodd" d="M3.92832 2.69438C4.37771 2.02028 5.13427 1.61538 5.94444 1.61538H11.9892L11.9892 1.61539C11.9892 1.61539 11.9893 1.61539 11.9893 1.6154C11.9916 1.61556 12.0266 1.61809 12.1123 1.65563C12.2089 1.69796 12.3144 1.75877 12.4704 1.85036L12.5186 1.87886C12.772 2.02924 13.2412 2.30767 13.7693 2.30767C14.2973 2.30767 14.7665 2.02924 15.0199 1.87886L15.0681 1.85036C15.2241 1.75877 15.3297 1.69796 15.4263 1.65563C15.5119 1.61809 15.5469 1.61556 15.5492 1.6154L15.5493 1.61539L15.5493 1.61538H16.0556C16.8657 1.61538 17.6223 2.02028 18.0717 2.69438L18.8636 3.88228C19.0976 4.23322 19.4717 4.46131 19.8846 4.51225V6.8158C19.3573 6.93217 18.9408 7.36288 18.8578 7.91601L17.9856 13.7308H4.01442L3.1422 7.91601C3.05923 7.36288 2.64268 6.93217 2.11538 6.81581V4.51225C2.52827 4.46131 2.90242 4.23322 3.13638 3.88228L3.92832 2.69438ZM5.94444 0C4.59417 0 3.33323 0.674831 2.58424 1.79833L1.84253 2.91088C1.09277 2.96052 0.5 3.5844 0.5 4.34673V7.07156C0.5 7.71955 0.963957 8.25919 1.57781 8.3764L3.97313 24.3452C4.26967 26.3221 5.96789 27.7846 7.96691 27.7846H14.0331C16.0321 27.7846 17.7303 26.3221 18.0269 24.3452L20.4222 8.3764C21.0361 8.25919 21.5 7.71955 21.5 7.07155V4.34674C21.5 3.5844 20.9072 2.96052 20.1575 2.91088L19.4158 1.79833C18.6668 0.674831 17.4058 0 16.0556 0H15.5491C15.021 0 14.5518 0.278423 14.2984 0.428809L14.2502 0.457305C14.0942 0.548897 13.9887 0.609705 13.8921 0.65204C13.8075 0.689091 13.7724 0.692034 13.7693 0.692263C13.7661 0.692034 13.731 0.689091 13.6465 0.65204C13.5499 0.609705 13.4443 0.548898 13.2883 0.457305L13.2401 0.42881C12.9867 0.278424 12.5175 0 11.9895 0H5.94444Z" fill="#F0807F"/>
</svg>
