<svg width="22" height="28" viewBox="0 0 22 28" fill="none" xmlns="http://www.w3.org/2000/svg">
<path fill-rule="evenodd" clip-rule="evenodd" d="M3.92831 2.69438C4.37771 2.02028 5.13427 1.61539 5.94443 1.61539H11.9892L11.9892 1.61539L11.9893 1.6154C11.9916 1.61556 12.0266 1.61809 12.1122 1.65563C12.2088 1.69796 12.3144 1.75877 12.4704 1.85036L12.5186 1.87886C12.772 2.02924 13.2412 2.30767 13.7692 2.30767C14.2973 2.30767 14.7665 2.02924 15.0199 1.87886L15.0681 1.85036C15.2241 1.75877 15.3296 1.69796 15.4262 1.65563C15.5119 1.61809 15.5469 1.61556 15.5491 1.6154L15.5493 1.61539L15.5493 1.61539H16.0556C16.8657 1.61539 17.6223 2.02028 18.0717 2.69438L18.8636 3.88228C19.0976 4.23322 19.4717 4.46131 19.8846 4.51225V6.81581C19.5911 6.88058 19.3319 7.04276 19.1454 7.26923H2.85456C2.66811 7.04276 2.4089 6.88058 2.11538 6.81581V4.51225C2.52827 4.46131 2.90242 4.23323 3.13638 3.88228L3.92831 2.69438ZM5.94443 0C4.59416 0 3.33323 0.674831 2.58423 1.79833L1.84253 2.91088C1.09277 2.96052 0.5 3.5844 0.5 4.34673V7.07156C0.5 7.71956 0.963957 8.25919 1.57781 8.3764L3.97313 24.3452C4.26966 26.3222 5.96788 27.7846 7.96691 27.7846H14.0331C16.0321 27.7846 17.7303 26.3221 18.0269 24.3452L20.4222 8.3764C21.036 8.2592 21.5 7.71956 21.5 7.07156V4.34674C21.5 3.58441 20.9072 2.96052 20.1575 2.91088L19.4158 1.79833C18.6668 0.674831 17.4058 0 16.0556 0H15.549C15.021 0 14.5518 0.278423 14.2984 0.428809L14.2502 0.457305C14.0942 0.548898 13.9886 0.609705 13.892 0.65204C13.8075 0.689092 13.7724 0.692034 13.7692 0.692264C13.7661 0.692034 13.731 0.689091 13.6464 0.652041C13.5498 0.609705 13.4443 0.548898 13.2883 0.457306L13.2401 0.428811C12.9867 0.278424 12.5175 0 11.9894 0H5.94443Z" fill="#F0807F"/>
</svg>
