<svg width="22" height="28" viewBox="0 0 22 28" fill="none" xmlns="http://www.w3.org/2000/svg">
<path fill-rule="evenodd" clip-rule="evenodd" d="M5.94443 0C4.59416 0 3.33323 0.67483 2.58423 1.79832L1.84253 2.91088C1.09277 2.96052 0.5 3.5844 0.5 4.34673V7.07155C0.5 7.71955 0.963957 8.25918 1.57781 8.37639L3.97313 24.3452C4.26966 26.3221 5.96788 27.7846 7.96691 27.7846H14.0331C16.0321 27.7846 17.7303 26.3221 18.0269 24.3452L20.4222 8.37639C21.036 8.25918 21.5 7.71955 21.5 7.07155V4.34673C21.5 3.5844 20.9072 2.96052 20.1575 2.91088L19.4158 1.79832C18.6668 0.67483 17.4058 0 16.0556 0H15.549C15.021 0 14.5518 0.278423 14.2984 0.428809L14.2502 0.457305C14.0942 0.548897 13.9886 0.609704 13.892 0.65204C13.8075 0.689091 13.7723 0.692033 13.7692 0.692263C13.7661 0.692033 13.731 0.68909 13.6464 0.65204C13.5498 0.609704 13.4443 0.548897 13.2883 0.457305L13.2401 0.42881C12.9867 0.278424 12.5175 0 11.9894 0H5.94443Z" fill="#909090" fill-opacity="0.2"/>
</svg>
