<svg width="70" height="103" viewBox="0 0 70 103" fill="none" xmlns="http://www.w3.org/2000/svg">
<path d="M9.23888 60.8409C9.23888 60.8409 1 67.6984 1 72.2486C1 76.7988 9.23888 80.4875 9.23888 80.4875" stroke="#4C4C4C" stroke-linecap="round"/>
<g filter="url(#filter0_ii_700_1868)">
<path d="M7.97131 46.1133C7.97131 38.1464 14.4297 31.688 22.3966 31.688H55.5747C63.5415 31.688 70 38.1464 70 46.1133V79.2914C70 87.2582 63.5415 93.7166 55.5747 93.7166H22.3966C14.4297 93.7166 7.97131 87.2582 7.97131 79.2914V46.1133Z" fill="#F9F9F9"/>
</g>
<g filter="url(#filter1_d_700_1868)">
<g filter="url(#filter2_ii_700_1868)">
<path d="M32.0043 91.2464C32.0043 96.855 29.1781 101.402 25.6917 101.402C22.2053 101.402 19.379 96.855 19.379 91.2464C19.379 85.6379 22.2053 81.0913 25.6917 81.0913C29.1781 81.0913 32.0043 85.6379 32.0043 91.2464Z" fill="#202020"/>
</g>
<g filter="url(#filter3_ii_700_1868)">
<path d="M56.157 91.2464C56.157 96.855 53.3308 101.402 49.8444 101.402C46.358 101.402 43.5317 96.855 43.5317 91.2464C43.5317 85.6379 46.358 81.0913 49.8444 81.0913C53.3308 81.0913 56.157 85.6379 56.157 91.2464Z" fill="#202020"/>
</g>
</g>
<g filter="url(#filter4_dii_700_1868)">
<path d="M15.5764 81.1214C15.5764 83.9215 13.3065 86.1914 10.5064 86.1914C7.70623 86.1914 5.43628 83.9215 5.43628 81.1214C5.43628 78.3212 7.70623 76.0513 10.5064 76.0513C13.3065 76.0513 15.5764 78.3212 15.5764 81.1214Z" fill="#202020"/>
</g>
<g filter="url(#filter5_dii_700_1868)">
<path fill-rule="evenodd" clip-rule="evenodd" d="M48.192 71.9118C48.1409 72.1026 48.1949 72.3074 48.3338 72.4477C49.2399 73.3637 49.7995 74.6232 49.7995 76.0134C49.7995 78.8135 47.5295 81.0835 44.7294 81.0835C42.4393 81.0835 40.5039 79.5652 39.8748 77.4803C39.846 77.3851 39.7587 77.3187 39.6593 77.3187C36.8592 77.3187 34.5892 76.1838 34.5892 74.7837C34.5892 73.3836 36.8592 72.2487 39.6593 72.2487C39.8362 72.2487 40.0109 72.2532 40.1831 72.262C40.8294 72.2952 41.4648 72.0806 42.0107 71.7331C42.2045 71.6097 42.4073 71.4992 42.6178 71.4026C42.9505 71.25 43.2 70.9532 43.2947 70.5996C43.7964 68.7274 45.2993 67.5034 46.6517 67.8658C48.0041 68.2282 48.6937 70.0396 48.192 71.9118Z" fill="#202020"/>
</g>
<g filter="url(#filter6_ii_700_1868)">
<path fill-rule="evenodd" clip-rule="evenodd" d="M45.562 17.3103C47.3971 15.4753 48.532 12.9403 48.532 10.1402C48.532 4.5399 43.9921 0 38.3919 0C32.7916 0 28.2517 4.5399 28.2517 10.1402C28.2517 12.9403 29.3867 15.4753 31.2217 17.3103L36.9777 23.0663C37.7587 23.8473 39.025 23.8473 39.8061 23.0663L45.562 17.3103Z" fill="#F9F9F9"/>
</g>
<path d="M39.8255 5.79443L39.5716 13.6622H37.2272L36.9584 5.79443H39.8255ZM38.392 17.3832C37.5856 17.3832 36.9286 16.7052 36.9435 15.8538C36.9286 15.0181 37.5856 14.3402 38.392 14.3402C39.1535 14.3402 39.8404 15.0181 39.8404 15.8538C39.8404 16.7052 39.1535 17.3832 38.392 17.3832Z" fill="#F0807F"/>
<g filter="url(#filter7_ii_700_1868)">
<rect x="36.7748" y="56.9176" width="2.53504" height="0.98" rx="0.49" transform="rotate(75 36.7748 56.9176)" fill="#202020"/>
</g>
<g filter="url(#filter8_ii_700_1868)">
<rect x="42.2231" y="57.1713" width="2.53504" height="0.979837" rx="0.489919" transform="rotate(105 42.2231 57.1713)" fill="#202020"/>
</g>
<g filter="url(#filter9_ii_700_1868)">
<path fill-rule="evenodd" clip-rule="evenodd" d="M25.0689 60.8409C24.833 60.8409 24.6278 61.0056 24.5889 61.2383C24.4985 61.7791 24.4491 62.3649 24.4491 62.9768C24.4491 65.7053 25.4321 67.9171 26.6448 67.9171C27.8575 67.9171 28.8405 65.7053 28.8405 62.9768C28.8405 62.3649 28.7911 61.7791 28.7007 61.2383C28.6618 61.0056 28.4566 60.8409 28.2207 60.8409H25.0689Z" fill="#202020"/>
</g>
<g filter="url(#filter10_ii_700_1868)">
<path fill-rule="evenodd" clip-rule="evenodd" d="M49.1518 60.8409C48.9158 60.8409 48.7107 61.0056 48.6718 61.2383C48.5814 61.7791 48.532 62.3649 48.532 62.9768C48.532 65.7053 49.515 67.9171 50.7277 67.9171C51.9403 67.9171 52.9234 65.7053 52.9234 62.9768C52.9234 62.3649 52.874 61.7791 52.7836 61.2383C52.7447 61.0056 52.5395 60.8409 52.3036 60.8409H49.1518Z" fill="#202020"/>
</g>
<path fill-rule="evenodd" clip-rule="evenodd" d="M67.6142 58.9434C67.2664 58.9051 66.9533 59.156 66.9148 59.5038C66.9148 59.5037 66.9148 59.5038 66.9148 59.5038L66.9142 59.5097L66.9117 59.5309C66.9095 59.5501 66.906 59.5793 66.9012 59.618C66.8915 59.6953 66.8766 59.8106 66.8557 59.9593C66.8138 60.2568 66.7482 60.6878 66.6534 61.2175C66.4637 62.2779 66.1582 63.7282 65.6956 65.2901C64.7577 68.4565 63.2209 71.9142 60.8362 73.636C59.9425 74.2813 58.5871 74.8121 56.9994 75.2367C55.4244 75.6579 53.6761 75.9604 52.0371 76.1761C50.4001 76.3916 48.8836 76.519 47.7757 76.5925C47.2222 76.6292 46.7715 76.6524 46.4599 76.6664C46.3041 76.6734 46.1832 76.6781 46.1015 76.6811L46.0091 76.6842L45.9862 76.685L45.9806 76.6851L45.9792 76.6852L45.9969 77.3187C46.0146 77.9522 46.0148 77.9522 46.0149 77.9522L46.024 77.9519L46.0495 77.9511L46.1471 77.9478C46.2323 77.9447 46.3571 77.9399 46.5168 77.9327C46.8363 77.9183 47.296 77.8946 47.8596 77.8572C48.9862 77.7825 50.5311 77.6528 52.2025 77.4328C53.872 77.2131 55.6793 76.9018 57.3268 76.4612C58.9615 76.0241 60.4956 75.4454 61.5782 74.6637C64.3329 72.6747 65.9648 68.8442 66.9109 65.6501C67.3903 64.0317 67.7056 62.5337 67.9011 61.4408C67.999 60.8938 68.0671 60.447 68.1108 60.1358C68.1327 59.9801 68.1485 59.8583 68.1589 59.7747C68.1642 59.7329 68.168 59.7006 68.1706 59.6785L68.1736 59.6529L68.1744 59.6459L68.1746 59.6439C68.1746 59.6437 68.1747 59.6429 67.5448 59.5734L68.1746 59.6439C68.213 59.296 67.9621 58.9818 67.6142 58.9434Z" fill="#1D1D1D"/>
<defs>
<filter id="filter0_ii_700_1868" x="2.97131" y="26.688" width="72.0287" height="72.0287" filterUnits="userSpaceOnUse" color-interpolation-filters="sRGB">
<feFlood flood-opacity="0" result="BackgroundImageFix"/>
<feBlend mode="normal" in="SourceGraphic" in2="BackgroundImageFix" result="shape"/>
<feColorMatrix in="SourceAlpha" type="matrix" values="0 0 0 0 0 0 0 0 0 0 0 0 0 0 0 0 0 0 127 0" result="hardAlpha"/>
<feOffset dx="-5" dy="-5"/>
<feGaussianBlur stdDeviation="2.5"/>
<feComposite in2="hardAlpha" operator="arithmetic" k2="-1" k3="1"/>
<feColorMatrix type="matrix" values="0 0 0 0 0 0 0 0 0 0 0 0 0 0 0 0 0 0 0.2 0"/>
<feBlend mode="normal" in2="shape" result="effect1_innerShadow_700_1868"/>
<feColorMatrix in="SourceAlpha" type="matrix" values="0 0 0 0 0 0 0 0 0 0 0 0 0 0 0 0 0 0 127 0" result="hardAlpha"/>
<feOffset dx="5" dy="5"/>
<feGaussianBlur stdDeviation="2.5"/>
<feComposite in2="hardAlpha" operator="arithmetic" k2="-1" k3="1"/>
<feColorMatrix type="matrix" values="0 0 0 0 1 0 0 0 0 1 0 0 0 0 1 0 0 0 0.2 0"/>
<feBlend mode="normal" in2="effect1_innerShadow_700_1868" result="effect2_innerShadow_700_1868"/>
</filter>
<filter id="filter1_d_700_1868" x="17.379" y="78.0913" width="40.778" height="24.3103" filterUnits="userSpaceOnUse" color-interpolation-filters="sRGB">
<feFlood flood-opacity="0" result="BackgroundImageFix"/>
<feColorMatrix in="SourceAlpha" type="matrix" values="0 0 0 0 0 0 0 0 0 0 0 0 0 0 0 0 0 0 127 0" result="hardAlpha"/>
<feOffset dy="-1"/>
<feGaussianBlur stdDeviation="1"/>
<feComposite in2="hardAlpha" operator="out"/>
<feColorMatrix type="matrix" values="0 0 0 0 0 0 0 0 0 0 0 0 0 0 0 0 0 0 0.1 0"/>
<feBlend mode="normal" in2="BackgroundImageFix" result="effect1_dropShadow_700_1868"/>
<feBlend mode="normal" in="SourceGraphic" in2="effect1_dropShadow_700_1868" result="shape"/>
</filter>
<filter id="filter2_ii_700_1868" x="17.379" y="79.0913" width="16.6252" height="24.3103" filterUnits="userSpaceOnUse" color-interpolation-filters="sRGB">
<feFlood flood-opacity="0" result="BackgroundImageFix"/>
<feBlend mode="normal" in="SourceGraphic" in2="BackgroundImageFix" result="shape"/>
<feColorMatrix in="SourceAlpha" type="matrix" values="0 0 0 0 0 0 0 0 0 0 0 0 0 0 0 0 0 0 127 0" result="hardAlpha"/>
<feOffset dx="-2" dy="-2"/>
<feGaussianBlur stdDeviation="1"/>
<feComposite in2="hardAlpha" operator="arithmetic" k2="-1" k3="1"/>
<feColorMatrix type="matrix" values="0 0 0 0 0 0 0 0 0 0 0 0 0 0 0 0 0 0 0.2 0"/>
<feBlend mode="normal" in2="shape" result="effect1_innerShadow_700_1868"/>
<feColorMatrix in="SourceAlpha" type="matrix" values="0 0 0 0 0 0 0 0 0 0 0 0 0 0 0 0 0 0 127 0" result="hardAlpha"/>
<feOffset dx="2" dy="2"/>
<feGaussianBlur stdDeviation="1"/>
<feComposite in2="hardAlpha" operator="arithmetic" k2="-1" k3="1"/>
<feColorMatrix type="matrix" values="0 0 0 0 1 0 0 0 0 1 0 0 0 0 1 0 0 0 0.2 0"/>
<feBlend mode="normal" in2="effect1_innerShadow_700_1868" result="effect2_innerShadow_700_1868"/>
</filter>
<filter id="filter3_ii_700_1868" x="41.5317" y="79.0913" width="16.6252" height="24.3103" filterUnits="userSpaceOnUse" color-interpolation-filters="sRGB">
<feFlood flood-opacity="0" result="BackgroundImageFix"/>
<feBlend mode="normal" in="SourceGraphic" in2="BackgroundImageFix" result="shape"/>
<feColorMatrix in="SourceAlpha" type="matrix" values="0 0 0 0 0 0 0 0 0 0 0 0 0 0 0 0 0 0 127 0" result="hardAlpha"/>
<feOffset dx="-2" dy="-2"/>
<feGaussianBlur stdDeviation="1"/>
<feComposite in2="hardAlpha" operator="arithmetic" k2="-1" k3="1"/>
<feColorMatrix type="matrix" values="0 0 0 0 0 0 0 0 0 0 0 0 0 0 0 0 0 0 0.2 0"/>
<feBlend mode="normal" in2="shape" result="effect1_innerShadow_700_1868"/>
<feColorMatrix in="SourceAlpha" type="matrix" values="0 0 0 0 0 0 0 0 0 0 0 0 0 0 0 0 0 0 127 0" result="hardAlpha"/>
<feOffset dx="2" dy="2"/>
<feGaussianBlur stdDeviation="1"/>
<feComposite in2="hardAlpha" operator="arithmetic" k2="-1" k3="1"/>
<feColorMatrix type="matrix" values="0 0 0 0 1 0 0 0 0 1 0 0 0 0 1 0 0 0 0.2 0"/>
<feBlend mode="normal" in2="effect1_innerShadow_700_1868" result="effect2_innerShadow_700_1868"/>
</filter>
<filter id="filter4_dii_700_1868" x="4.43628" y="75.0513" width="15.1401" height="14.1401" filterUnits="userSpaceOnUse" color-interpolation-filters="sRGB">
<feFlood flood-opacity="0" result="BackgroundImageFix"/>
<feColorMatrix in="SourceAlpha" type="matrix" values="0 0 0 0 0 0 0 0 0 0 0 0 0 0 0 0 0 0 127 0" result="hardAlpha"/>
<feOffset dx="2" dy="1"/>
<feGaussianBlur stdDeviation="1"/>
<feComposite in2="hardAlpha" operator="out"/>
<feColorMatrix type="matrix" values="0 0 0 0 0 0 0 0 0 0 0 0 0 0 0 0 0 0 0.1 0"/>
<feBlend mode="normal" in2="BackgroundImageFix" result="effect1_dropShadow_700_1868"/>
<feBlend mode="normal" in="SourceGraphic" in2="effect1_dropShadow_700_1868" result="shape"/>
<feColorMatrix in="SourceAlpha" type="matrix" values="0 0 0 0 0 0 0 0 0 0 0 0 0 0 0 0 0 0 127 0" result="hardAlpha"/>
<feOffset dx="-1" dy="-1"/>
<feGaussianBlur stdDeviation="0.5"/>
<feComposite in2="hardAlpha" operator="arithmetic" k2="-1" k3="1"/>
<feColorMatrix type="matrix" values="0 0 0 0 0 0 0 0 0 0 0 0 0 0 0 0 0 0 0.2 0"/>
<feBlend mode="normal" in2="shape" result="effect2_innerShadow_700_1868"/>
<feColorMatrix in="SourceAlpha" type="matrix" values="0 0 0 0 0 0 0 0 0 0 0 0 0 0 0 0 0 0 127 0" result="hardAlpha"/>
<feOffset dx="1" dy="1"/>
<feGaussianBlur stdDeviation="0.5"/>
<feComposite in2="hardAlpha" operator="arithmetic" k2="-1" k3="1"/>
<feColorMatrix type="matrix" values="0 0 0 0 1 0 0 0 0 1 0 0 0 0 1 0 0 0 0.2 0"/>
<feBlend mode="normal" in2="effect2_innerShadow_700_1868" result="effect3_innerShadow_700_1868"/>
</filter>
<filter id="filter5_dii_700_1868" x="33.5892" y="66.8022" width="20.2102" height="17.2812" filterUnits="userSpaceOnUse" color-interpolation-filters="sRGB">
<feFlood flood-opacity="0" result="BackgroundImageFix"/>
<feColorMatrix in="SourceAlpha" type="matrix" values="0 0 0 0 0 0 0 0 0 0 0 0 0 0 0 0 0 0 127 0" result="hardAlpha"/>
<feOffset dx="2" dy="1"/>
<feGaussianBlur stdDeviation="1"/>
<feComposite in2="hardAlpha" operator="out"/>
<feColorMatrix type="matrix" values="0 0 0 0 0 0 0 0 0 0 0 0 0 0 0 0 0 0 0.1 0"/>
<feBlend mode="normal" in2="BackgroundImageFix" result="effect1_dropShadow_700_1868"/>
<feBlend mode="normal" in="SourceGraphic" in2="effect1_dropShadow_700_1868" result="shape"/>
<feColorMatrix in="SourceAlpha" type="matrix" values="0 0 0 0 0 0 0 0 0 0 0 0 0 0 0 0 0 0 127 0" result="hardAlpha"/>
<feOffset dx="-1" dy="-1"/>
<feGaussianBlur stdDeviation="0.5"/>
<feComposite in2="hardAlpha" operator="arithmetic" k2="-1" k3="1"/>
<feColorMatrix type="matrix" values="0 0 0 0 0 0 0 0 0 0 0 0 0 0 0 0 0 0 0.2 0"/>
<feBlend mode="normal" in2="shape" result="effect2_innerShadow_700_1868"/>
<feColorMatrix in="SourceAlpha" type="matrix" values="0 0 0 0 0 0 0 0 0 0 0 0 0 0 0 0 0 0 127 0" result="hardAlpha"/>
<feOffset dx="1" dy="1"/>
<feGaussianBlur stdDeviation="0.5"/>
<feComposite in2="hardAlpha" operator="arithmetic" k2="-1" k3="1"/>
<feColorMatrix type="matrix" values="0 0 0 0 1 0 0 0 0 1 0 0 0 0 1 0 0 0 0.2 0"/>
<feBlend mode="normal" in2="effect2_innerShadow_700_1868" result="effect3_innerShadow_700_1868"/>
</filter>
<filter id="filter6_ii_700_1868" x="27.2517" y="-1" width="22.2803" height="25.6521" filterUnits="userSpaceOnUse" color-interpolation-filters="sRGB">
<feFlood flood-opacity="0" result="BackgroundImageFix"/>
<feBlend mode="normal" in="SourceGraphic" in2="BackgroundImageFix" result="shape"/>
<feColorMatrix in="SourceAlpha" type="matrix" values="0 0 0 0 0 0 0 0 0 0 0 0 0 0 0 0 0 0 127 0" result="hardAlpha"/>
<feOffset dx="-1" dy="-1"/>
<feGaussianBlur stdDeviation="0.5"/>
<feComposite in2="hardAlpha" operator="arithmetic" k2="-1" k3="1"/>
<feColorMatrix type="matrix" values="0 0 0 0 0 0 0 0 0 0 0 0 0 0 0 0 0 0 0.2 0"/>
<feBlend mode="normal" in2="shape" result="effect1_innerShadow_700_1868"/>
<feColorMatrix in="SourceAlpha" type="matrix" values="0 0 0 0 0 0 0 0 0 0 0 0 0 0 0 0 0 0 127 0" result="hardAlpha"/>
<feOffset dx="1" dy="1"/>
<feGaussianBlur stdDeviation="0.5"/>
<feComposite in2="hardAlpha" operator="arithmetic" k2="-1" k3="1"/>
<feColorMatrix type="matrix" values="0 0 0 0 1 0 0 0 0 1 0 0 0 0 1 0 0 0 0.2 0"/>
<feBlend mode="normal" in2="effect1_innerShadow_700_1868" result="effect2_innerShadow_700_1868"/>
</filter>
<filter id="filter7_ii_700_1868" x="34.9382" y="56.0276" width="3.38269" height="4.4823" filterUnits="userSpaceOnUse" color-interpolation-filters="sRGB">
<feFlood flood-opacity="0" result="BackgroundImageFix"/>
<feBlend mode="normal" in="SourceGraphic" in2="BackgroundImageFix" result="shape"/>
<feColorMatrix in="SourceAlpha" type="matrix" values="0 0 0 0 0 0 0 0 0 0 0 0 0 0 0 0 0 0 127 0" result="hardAlpha"/>
<feOffset dx="-1" dy="-1"/>
<feGaussianBlur stdDeviation="0.5"/>
<feComposite in2="hardAlpha" operator="arithmetic" k2="-1" k3="1"/>
<feColorMatrix type="matrix" values="0 0 0 0 1 0 0 0 0 1 0 0 0 0 1 0 0 0 0.2 0"/>
<feBlend mode="normal" in2="shape" result="effect1_innerShadow_700_1868"/>
<feColorMatrix in="SourceAlpha" type="matrix" values="0 0 0 0 0 0 0 0 0 0 0 0 0 0 0 0 0 0 127 0" result="hardAlpha"/>
<feOffset dx="1" dy="1"/>
<feGaussianBlur stdDeviation="0.5"/>
<feComposite in2="hardAlpha" operator="arithmetic" k2="-1" k3="1"/>
<feColorMatrix type="matrix" values="0 0 0 0 0 0 0 0 0 0 0 0 0 0 0 0 0 0 0.2 0"/>
<feBlend mode="normal" in2="effect1_innerShadow_700_1868" result="effect2_innerShadow_700_1868"/>
</filter>
<filter id="filter8_ii_700_1868" x="39.7306" y="56.0277" width="3.38257" height="4.48218" filterUnits="userSpaceOnUse" color-interpolation-filters="sRGB">
<feFlood flood-opacity="0" result="BackgroundImageFix"/>
<feBlend mode="normal" in="SourceGraphic" in2="BackgroundImageFix" result="shape"/>
<feColorMatrix in="SourceAlpha" type="matrix" values="0 0 0 0 0 0 0 0 0 0 0 0 0 0 0 0 0 0 127 0" result="hardAlpha"/>
<feOffset dx="-1" dy="-1"/>
<feGaussianBlur stdDeviation="0.5"/>
<feComposite in2="hardAlpha" operator="arithmetic" k2="-1" k3="1"/>
<feColorMatrix type="matrix" values="0 0 0 0 1 0 0 0 0 1 0 0 0 0 1 0 0 0 0.2 0"/>
<feBlend mode="normal" in2="shape" result="effect1_innerShadow_700_1868"/>
<feColorMatrix in="SourceAlpha" type="matrix" values="0 0 0 0 0 0 0 0 0 0 0 0 0 0 0 0 0 0 127 0" result="hardAlpha"/>
<feOffset dx="1" dy="1"/>
<feGaussianBlur stdDeviation="0.5"/>
<feComposite in2="hardAlpha" operator="arithmetic" k2="-1" k3="1"/>
<feColorMatrix type="matrix" values="0 0 0 0 0 0 0 0 0 0 0 0 0 0 0 0 0 0 0.2 0"/>
<feBlend mode="normal" in2="effect1_innerShadow_700_1868" result="effect2_innerShadow_700_1868"/>
</filter>
<filter id="filter9_ii_700_1868" x="23.4491" y="59.8409" width="6.39136" height="9.07617" filterUnits="userSpaceOnUse" color-interpolation-filters="sRGB">
<feFlood flood-opacity="0" result="BackgroundImageFix"/>
<feBlend mode="normal" in="SourceGraphic" in2="BackgroundImageFix" result="shape"/>
<feColorMatrix in="SourceAlpha" type="matrix" values="0 0 0 0 0 0 0 0 0 0 0 0 0 0 0 0 0 0 127 0" result="hardAlpha"/>
<feOffset dx="-1" dy="-1"/>
<feGaussianBlur stdDeviation="0.5"/>
<feComposite in2="hardAlpha" operator="arithmetic" k2="-1" k3="1"/>
<feColorMatrix type="matrix" values="0 0 0 0 1 0 0 0 0 1 0 0 0 0 1 0 0 0 0.2 0"/>
<feBlend mode="normal" in2="shape" result="effect1_innerShadow_700_1868"/>
<feColorMatrix in="SourceAlpha" type="matrix" values="0 0 0 0 0 0 0 0 0 0 0 0 0 0 0 0 0 0 127 0" result="hardAlpha"/>
<feOffset dx="1" dy="1"/>
<feGaussianBlur stdDeviation="0.5"/>
<feComposite in2="hardAlpha" operator="arithmetic" k2="-1" k3="1"/>
<feColorMatrix type="matrix" values="0 0 0 0 0 0 0 0 0 0 0 0 0 0 0 0 0 0 0.2 0"/>
<feBlend mode="normal" in2="effect1_innerShadow_700_1868" result="effect2_innerShadow_700_1868"/>
</filter>
<filter id="filter10_ii_700_1868" x="47.532" y="59.8409" width="6.39136" height="9.07617" filterUnits="userSpaceOnUse" color-interpolation-filters="sRGB">
<feFlood flood-opacity="0" result="BackgroundImageFix"/>
<feBlend mode="normal" in="SourceGraphic" in2="BackgroundImageFix" result="shape"/>
<feColorMatrix in="SourceAlpha" type="matrix" values="0 0 0 0 0 0 0 0 0 0 0 0 0 0 0 0 0 0 127 0" result="hardAlpha"/>
<feOffset dx="-1" dy="-1"/>
<feGaussianBlur stdDeviation="0.5"/>
<feComposite in2="hardAlpha" operator="arithmetic" k2="-1" k3="1"/>
<feColorMatrix type="matrix" values="0 0 0 0 1 0 0 0 0 1 0 0 0 0 1 0 0 0 0.2 0"/>
<feBlend mode="normal" in2="shape" result="effect1_innerShadow_700_1868"/>
<feColorMatrix in="SourceAlpha" type="matrix" values="0 0 0 0 0 0 0 0 0 0 0 0 0 0 0 0 0 0 127 0" result="hardAlpha"/>
<feOffset dx="1" dy="1"/>
<feGaussianBlur stdDeviation="0.5"/>
<feComposite in2="hardAlpha" operator="arithmetic" k2="-1" k3="1"/>
<feColorMatrix type="matrix" values="0 0 0 0 0 0 0 0 0 0 0 0 0 0 0 0 0 0 0.2 0"/>
<feBlend mode="normal" in2="effect1_innerShadow_700_1868" result="effect2_innerShadow_700_1868"/>
</filter>
</defs>
</svg>
