<svg width="96" height="97" viewBox="0 0 96 97" fill="none" xmlns="http://www.w3.org/2000/svg">
<g filter="url(#filter0_dii_700_1897)">
<path fill-rule="evenodd" clip-rule="evenodd" d="M9.37592 47.9317C11.2623 46.5046 11.8342 43.8624 10.6209 41.7609C9.30692 39.485 6.39675 38.7053 4.12086 40.0193C1.84497 41.3332 1.06519 44.2434 2.37918 46.5193C3.59245 48.6207 6.16658 49.4466 8.34571 48.5265L17.8808 65.0418C18.0451 65.3263 18.4088 65.4238 18.6933 65.2595C18.9778 65.0953 19.0753 64.7315 18.911 64.447L9.37592 47.9317Z" fill="#202020"/>
</g>
<g filter="url(#filter1_ii_700_1897)">
<path d="M17.3551 43.2781C17.3551 35.8011 23.4164 29.7397 30.8935 29.7397H62.0317C69.5087 29.7397 75.5701 35.8011 75.5701 43.2781V74.4164C75.5701 81.8934 69.5087 87.9547 62.0317 87.9547H30.8935C23.4164 87.9547 17.3551 81.8934 17.3551 74.4164V43.2781Z" fill="#F9F9F9"/>
</g>
<g filter="url(#filter2_d_700_1897)">
<g filter="url(#filter3_ii_700_1897)">
<path d="M41.1 85.6365C41.1 90.9002 38.4475 95.1673 35.1755 95.1673C31.9035 95.1673 29.251 90.9002 29.251 85.6365C29.251 80.3728 31.9035 76.1057 35.1755 76.1057C38.4475 76.1057 41.1 80.3728 41.1 85.6365Z" fill="#202020"/>
</g>
<g filter="url(#filter4_ii_700_1897)">
<path d="M63.7678 85.6365C63.7678 90.9002 61.1153 95.1673 57.8432 95.1673C54.5712 95.1673 51.9187 90.9002 51.9187 85.6365C51.9187 80.3728 54.5712 76.1057 57.8432 76.1057C61.1153 76.1057 63.7678 80.3728 63.7678 85.6365Z" fill="#202020"/>
</g>
</g>
<g filter="url(#filter5_ii_700_1897)">
<path d="M36.9411 59.1049C36.9411 61.6656 36.0185 63.7414 34.8804 63.7414C33.7423 63.7414 32.8197 61.6656 32.8197 59.1049C32.8197 56.5441 33.7423 54.4683 34.8804 54.4683C36.0185 54.4683 36.9411 56.5441 36.9411 59.1049Z" fill="#202020"/>
</g>
<g filter="url(#filter6_ii_700_1897)">
<path d="M59.5433 59.1049C59.5433 61.6656 58.6207 63.7414 57.4826 63.7414C56.3445 63.7414 55.4219 61.6656 55.4219 59.1049C55.4219 56.5441 56.3445 54.4683 57.4826 54.4683C58.6207 54.4683 59.5433 56.5441 59.5433 59.1049Z" fill="#202020"/>
</g>
<g filter="url(#filter7_ii_700_1897)">
<rect x="34.6041" y="46.394" width="4.75836" height="1.18959" rx="0.594795" transform="rotate(30 34.6041 46.394)" fill="#202020"/>
</g>
<g filter="url(#filter8_ii_700_1897)">
<rect width="4.75836" height="1.18959" rx="0.594795" transform="matrix(-0.866025 0.5 0.5 0.866025 58.3959 46.394)" fill="#202020"/>
</g>
<g filter="url(#filter9_ii_700_1897)">
<path fill-rule="evenodd" clip-rule="evenodd" d="M52.6276 16.2531C54.3539 14.5303 55.422 12.1483 55.422 9.51672C55.422 4.26078 51.1612 0 45.9053 0C40.6493 0 36.3885 4.26078 36.3885 9.51672C36.3885 12.1447 37.4537 14.5239 39.1759 16.2461L44.491 21.5612C45.2721 22.3422 46.5384 22.3422 47.3195 21.5612L52.6276 16.2531Z" fill="#F9F9F9"/>
</g>
<path fill-rule="evenodd" clip-rule="evenodd" d="M43.4298 4.57807C44.797 5.94523 47.0136 5.94523 48.3807 4.57807C48.6808 4.27799 49.2651 4.41455 49.0882 4.8003C48.9195 5.16816 48.6837 5.51281 48.3808 5.81574C47.0136 7.18291 44.797 7.18291 43.4298 5.81574C43.1269 5.51281 42.891 5.16816 42.7224 4.8003C42.5455 4.41455 43.1297 4.27799 43.4298 4.57807Z" fill="#F0807F"/>
<path fill-rule="evenodd" clip-rule="evenodd" d="M50.8439 7.04125C49.4767 8.40842 49.4768 10.625 50.8439 11.9922C51.144 12.2923 51.0074 12.8765 50.6217 12.6997C50.2538 12.531 49.9091 12.2951 49.6062 11.9922C48.239 10.625 48.239 8.40842 49.6062 7.04125C49.9091 6.7383 50.2538 6.50248 50.6217 6.3338C51.0074 6.15691 51.144 6.74117 50.8439 7.04125Z" fill="#F0807F"/>
<path fill-rule="evenodd" clip-rule="evenodd" d="M48.3809 14.4553C47.0137 13.0881 44.7971 13.0881 43.4299 14.4553C43.1298 14.7553 42.5456 14.6188 42.7225 14.233C42.8912 13.8652 43.127 13.5205 43.4299 13.2176C44.7971 11.8504 47.0137 11.8504 48.3809 13.2176C48.6838 13.5205 48.9196 13.8652 49.0883 14.233C49.2652 14.6188 48.6809 14.7553 48.3809 14.4553Z" fill="#F0807F"/>
<path fill-rule="evenodd" clip-rule="evenodd" d="M40.9667 11.9922C42.3338 10.625 42.3338 8.40842 40.9667 7.04125C40.6666 6.74116 40.8031 6.15688 41.1889 6.33376C41.5568 6.50245 41.9015 6.73828 42.2045 7.04125C43.5716 8.40842 43.5716 10.625 42.2045 11.9922C41.9015 12.2952 41.5568 12.531 41.1889 12.6997C40.8031 12.8766 40.6666 12.2923 40.9667 11.9922Z" fill="#F0807F"/>
<g filter="url(#filter10_dii_700_1897)">
<path fill-rule="evenodd" clip-rule="evenodd" d="M84.6543 48.5264C86.8334 49.4466 89.4076 48.6207 90.6208 46.5192C91.9348 44.2433 91.155 41.3332 88.8792 40.0192C86.6033 38.7052 83.6931 39.485 82.3791 41.7609C81.1659 43.8623 81.7377 46.5045 83.6241 47.9316L74.089 64.447C73.9247 64.7314 74.0222 65.0952 74.3067 65.2595C74.5912 65.4237 74.9549 65.3262 75.1192 65.0417L84.6543 48.5264Z" fill="#202020"/>
</g>
<defs>
<filter id="filter0_dii_700_1897" x="0.740845" y="38.381" width="22.25" height="29.9584" filterUnits="userSpaceOnUse" color-interpolation-filters="sRGB">
<feFlood flood-opacity="0" result="BackgroundImageFix"/>
<feColorMatrix in="SourceAlpha" type="matrix" values="0 0 0 0 0 0 0 0 0 0 0 0 0 0 0 0 0 0 127 0" result="hardAlpha"/>
<feOffset dx="2" dy="1"/>
<feGaussianBlur stdDeviation="1"/>
<feComposite in2="hardAlpha" operator="out"/>
<feColorMatrix type="matrix" values="0 0 0 0 0 0 0 0 0 0 0 0 0 0 0 0 0 0 0.1 0"/>
<feBlend mode="normal" in2="BackgroundImageFix" result="effect1_dropShadow_700_1897"/>
<feBlend mode="normal" in="SourceGraphic" in2="effect1_dropShadow_700_1897" result="shape"/>
<feColorMatrix in="SourceAlpha" type="matrix" values="0 0 0 0 0 0 0 0 0 0 0 0 0 0 0 0 0 0 127 0" result="hardAlpha"/>
<feOffset dx="-1" dy="-1"/>
<feGaussianBlur stdDeviation="0.5"/>
<feComposite in2="hardAlpha" operator="arithmetic" k2="-1" k3="1"/>
<feColorMatrix type="matrix" values="0 0 0 0 0 0 0 0 0 0 0 0 0 0 0 0 0 0 0.2 0"/>
<feBlend mode="normal" in2="shape" result="effect2_innerShadow_700_1897"/>
<feColorMatrix in="SourceAlpha" type="matrix" values="0 0 0 0 0 0 0 0 0 0 0 0 0 0 0 0 0 0 127 0" result="hardAlpha"/>
<feOffset dx="1" dy="1"/>
<feGaussianBlur stdDeviation="0.5"/>
<feComposite in2="hardAlpha" operator="arithmetic" k2="-1" k3="1"/>
<feColorMatrix type="matrix" values="0 0 0 0 1 0 0 0 0 1 0 0 0 0 1 0 0 0 0.2 0"/>
<feBlend mode="normal" in2="effect2_innerShadow_700_1897" result="effect3_innerShadow_700_1897"/>
</filter>
<filter id="filter1_ii_700_1897" x="12.3551" y="24.7397" width="68.215" height="68.215" filterUnits="userSpaceOnUse" color-interpolation-filters="sRGB">
<feFlood flood-opacity="0" result="BackgroundImageFix"/>
<feBlend mode="normal" in="SourceGraphic" in2="BackgroundImageFix" result="shape"/>
<feColorMatrix in="SourceAlpha" type="matrix" values="0 0 0 0 0 0 0 0 0 0 0 0 0 0 0 0 0 0 127 0" result="hardAlpha"/>
<feOffset dx="-5" dy="-5"/>
<feGaussianBlur stdDeviation="2.5"/>
<feComposite in2="hardAlpha" operator="arithmetic" k2="-1" k3="1"/>
<feColorMatrix type="matrix" values="0 0 0 0 0 0 0 0 0 0 0 0 0 0 0 0 0 0 0.2 0"/>
<feBlend mode="normal" in2="shape" result="effect1_innerShadow_700_1897"/>
<feColorMatrix in="SourceAlpha" type="matrix" values="0 0 0 0 0 0 0 0 0 0 0 0 0 0 0 0 0 0 127 0" result="hardAlpha"/>
<feOffset dx="5" dy="5"/>
<feGaussianBlur stdDeviation="2.5"/>
<feComposite in2="hardAlpha" operator="arithmetic" k2="-1" k3="1"/>
<feColorMatrix type="matrix" values="0 0 0 0 1 0 0 0 0 1 0 0 0 0 1 0 0 0 0.2 0"/>
<feBlend mode="normal" in2="effect1_innerShadow_700_1897" result="effect2_innerShadow_700_1897"/>
</filter>
<filter id="filter2_d_700_1897" x="27.251" y="73.1057" width="38.5168" height="23.0615" filterUnits="userSpaceOnUse" color-interpolation-filters="sRGB">
<feFlood flood-opacity="0" result="BackgroundImageFix"/>
<feColorMatrix in="SourceAlpha" type="matrix" values="0 0 0 0 0 0 0 0 0 0 0 0 0 0 0 0 0 0 127 0" result="hardAlpha"/>
<feOffset dy="-1"/>
<feGaussianBlur stdDeviation="1"/>
<feComposite in2="hardAlpha" operator="out"/>
<feColorMatrix type="matrix" values="0 0 0 0 0 0 0 0 0 0 0 0 0 0 0 0 0 0 0.1 0"/>
<feBlend mode="normal" in2="BackgroundImageFix" result="effect1_dropShadow_700_1897"/>
<feBlend mode="normal" in="SourceGraphic" in2="effect1_dropShadow_700_1897" result="shape"/>
</filter>
<filter id="filter3_ii_700_1897" x="27.251" y="74.1057" width="15.8491" height="23.0615" filterUnits="userSpaceOnUse" color-interpolation-filters="sRGB">
<feFlood flood-opacity="0" result="BackgroundImageFix"/>
<feBlend mode="normal" in="SourceGraphic" in2="BackgroundImageFix" result="shape"/>
<feColorMatrix in="SourceAlpha" type="matrix" values="0 0 0 0 0 0 0 0 0 0 0 0 0 0 0 0 0 0 127 0" result="hardAlpha"/>
<feOffset dx="-2" dy="-2"/>
<feGaussianBlur stdDeviation="1"/>
<feComposite in2="hardAlpha" operator="arithmetic" k2="-1" k3="1"/>
<feColorMatrix type="matrix" values="0 0 0 0 0 0 0 0 0 0 0 0 0 0 0 0 0 0 0.2 0"/>
<feBlend mode="normal" in2="shape" result="effect1_innerShadow_700_1897"/>
<feColorMatrix in="SourceAlpha" type="matrix" values="0 0 0 0 0 0 0 0 0 0 0 0 0 0 0 0 0 0 127 0" result="hardAlpha"/>
<feOffset dx="2" dy="2"/>
<feGaussianBlur stdDeviation="1"/>
<feComposite in2="hardAlpha" operator="arithmetic" k2="-1" k3="1"/>
<feColorMatrix type="matrix" values="0 0 0 0 1 0 0 0 0 1 0 0 0 0 1 0 0 0 0.2 0"/>
<feBlend mode="normal" in2="effect1_innerShadow_700_1897" result="effect2_innerShadow_700_1897"/>
</filter>
<filter id="filter4_ii_700_1897" x="49.9187" y="74.1057" width="15.8491" height="23.0615" filterUnits="userSpaceOnUse" color-interpolation-filters="sRGB">
<feFlood flood-opacity="0" result="BackgroundImageFix"/>
<feBlend mode="normal" in="SourceGraphic" in2="BackgroundImageFix" result="shape"/>
<feColorMatrix in="SourceAlpha" type="matrix" values="0 0 0 0 0 0 0 0 0 0 0 0 0 0 0 0 0 0 127 0" result="hardAlpha"/>
<feOffset dx="-2" dy="-2"/>
<feGaussianBlur stdDeviation="1"/>
<feComposite in2="hardAlpha" operator="arithmetic" k2="-1" k3="1"/>
<feColorMatrix type="matrix" values="0 0 0 0 0 0 0 0 0 0 0 0 0 0 0 0 0 0 0.2 0"/>
<feBlend mode="normal" in2="shape" result="effect1_innerShadow_700_1897"/>
<feColorMatrix in="SourceAlpha" type="matrix" values="0 0 0 0 0 0 0 0 0 0 0 0 0 0 0 0 0 0 127 0" result="hardAlpha"/>
<feOffset dx="2" dy="2"/>
<feGaussianBlur stdDeviation="1"/>
<feComposite in2="hardAlpha" operator="arithmetic" k2="-1" k3="1"/>
<feColorMatrix type="matrix" values="0 0 0 0 1 0 0 0 0 1 0 0 0 0 1 0 0 0 0.2 0"/>
<feBlend mode="normal" in2="effect1_innerShadow_700_1897" result="effect2_innerShadow_700_1897"/>
</filter>
<filter id="filter5_ii_700_1897" x="31.8197" y="53.4683" width="6.12146" height="11.2732" filterUnits="userSpaceOnUse" color-interpolation-filters="sRGB">
<feFlood flood-opacity="0" result="BackgroundImageFix"/>
<feBlend mode="normal" in="SourceGraphic" in2="BackgroundImageFix" result="shape"/>
<feColorMatrix in="SourceAlpha" type="matrix" values="0 0 0 0 0 0 0 0 0 0 0 0 0 0 0 0 0 0 127 0" result="hardAlpha"/>
<feOffset dx="-1" dy="-1"/>
<feGaussianBlur stdDeviation="0.5"/>
<feComposite in2="hardAlpha" operator="arithmetic" k2="-1" k3="1"/>
<feColorMatrix type="matrix" values="0 0 0 0 1 0 0 0 0 1 0 0 0 0 1 0 0 0 0.2 0"/>
<feBlend mode="normal" in2="shape" result="effect1_innerShadow_700_1897"/>
<feColorMatrix in="SourceAlpha" type="matrix" values="0 0 0 0 0 0 0 0 0 0 0 0 0 0 0 0 0 0 127 0" result="hardAlpha"/>
<feOffset dx="1" dy="1"/>
<feGaussianBlur stdDeviation="0.5"/>
<feComposite in2="hardAlpha" operator="arithmetic" k2="-1" k3="1"/>
<feColorMatrix type="matrix" values="0 0 0 0 0 0 0 0 0 0 0 0 0 0 0 0 0 0 0.2 0"/>
<feBlend mode="normal" in2="effect1_innerShadow_700_1897" result="effect2_innerShadow_700_1897"/>
</filter>
<filter id="filter6_ii_700_1897" x="54.4219" y="53.4683" width="6.12146" height="11.2732" filterUnits="userSpaceOnUse" color-interpolation-filters="sRGB">
<feFlood flood-opacity="0" result="BackgroundImageFix"/>
<feBlend mode="normal" in="SourceGraphic" in2="BackgroundImageFix" result="shape"/>
<feColorMatrix in="SourceAlpha" type="matrix" values="0 0 0 0 0 0 0 0 0 0 0 0 0 0 0 0 0 0 127 0" result="hardAlpha"/>
<feOffset dx="-1" dy="-1"/>
<feGaussianBlur stdDeviation="0.5"/>
<feComposite in2="hardAlpha" operator="arithmetic" k2="-1" k3="1"/>
<feColorMatrix type="matrix" values="0 0 0 0 1 0 0 0 0 1 0 0 0 0 1 0 0 0 0.2 0"/>
<feBlend mode="normal" in2="shape" result="effect1_innerShadow_700_1897"/>
<feColorMatrix in="SourceAlpha" type="matrix" values="0 0 0 0 0 0 0 0 0 0 0 0 0 0 0 0 0 0 127 0" result="hardAlpha"/>
<feOffset dx="1" dy="1"/>
<feGaussianBlur stdDeviation="0.5"/>
<feComposite in2="hardAlpha" operator="arithmetic" k2="-1" k3="1"/>
<feColorMatrix type="matrix" values="0 0 0 0 0 0 0 0 0 0 0 0 0 0 0 0 0 0 0.2 0"/>
<feBlend mode="normal" in2="effect1_innerShadow_700_1897" result="effect2_innerShadow_700_1897"/>
</filter>
<filter id="filter7_ii_700_1897" x="33.2269" y="45.6117" width="6.2804" height="4.97412" filterUnits="userSpaceOnUse" color-interpolation-filters="sRGB">
<feFlood flood-opacity="0" result="BackgroundImageFix"/>
<feBlend mode="normal" in="SourceGraphic" in2="BackgroundImageFix" result="shape"/>
<feColorMatrix in="SourceAlpha" type="matrix" values="0 0 0 0 0 0 0 0 0 0 0 0 0 0 0 0 0 0 127 0" result="hardAlpha"/>
<feOffset dx="-1" dy="-1"/>
<feGaussianBlur stdDeviation="0.5"/>
<feComposite in2="hardAlpha" operator="arithmetic" k2="-1" k3="1"/>
<feColorMatrix type="matrix" values="0 0 0 0 1 0 0 0 0 1 0 0 0 0 1 0 0 0 0.2 0"/>
<feBlend mode="normal" in2="shape" result="effect1_innerShadow_700_1897"/>
<feColorMatrix in="SourceAlpha" type="matrix" values="0 0 0 0 0 0 0 0 0 0 0 0 0 0 0 0 0 0 127 0" result="hardAlpha"/>
<feOffset dx="1" dy="1"/>
<feGaussianBlur stdDeviation="0.5"/>
<feComposite in2="hardAlpha" operator="arithmetic" k2="-1" k3="1"/>
<feColorMatrix type="matrix" values="0 0 0 0 0 0 0 0 0 0 0 0 0 0 0 0 0 0 0.2 0"/>
<feBlend mode="normal" in2="effect1_innerShadow_700_1897" result="effect2_innerShadow_700_1897"/>
</filter>
<filter id="filter8_ii_700_1897" x="53.4927" y="45.6117" width="6.2804" height="4.97412" filterUnits="userSpaceOnUse" color-interpolation-filters="sRGB">
<feFlood flood-opacity="0" result="BackgroundImageFix"/>
<feBlend mode="normal" in="SourceGraphic" in2="BackgroundImageFix" result="shape"/>
<feColorMatrix in="SourceAlpha" type="matrix" values="0 0 0 0 0 0 0 0 0 0 0 0 0 0 0 0 0 0 127 0" result="hardAlpha"/>
<feOffset dx="-1" dy="-1"/>
<feGaussianBlur stdDeviation="0.5"/>
<feComposite in2="hardAlpha" operator="arithmetic" k2="-1" k3="1"/>
<feColorMatrix type="matrix" values="0 0 0 0 1 0 0 0 0 1 0 0 0 0 1 0 0 0 0.2 0"/>
<feBlend mode="normal" in2="shape" result="effect1_innerShadow_700_1897"/>
<feColorMatrix in="SourceAlpha" type="matrix" values="0 0 0 0 0 0 0 0 0 0 0 0 0 0 0 0 0 0 127 0" result="hardAlpha"/>
<feOffset dx="1" dy="1"/>
<feGaussianBlur stdDeviation="0.5"/>
<feComposite in2="hardAlpha" operator="arithmetic" k2="-1" k3="1"/>
<feColorMatrix type="matrix" values="0 0 0 0 0 0 0 0 0 0 0 0 0 0 0 0 0 0 0.2 0"/>
<feBlend mode="normal" in2="effect1_innerShadow_700_1897" result="effect2_innerShadow_700_1897"/>
</filter>
<filter id="filter9_ii_700_1897" x="35.3885" y="-1" width="21.0334" height="24.147" filterUnits="userSpaceOnUse" color-interpolation-filters="sRGB">
<feFlood flood-opacity="0" result="BackgroundImageFix"/>
<feBlend mode="normal" in="SourceGraphic" in2="BackgroundImageFix" result="shape"/>
<feColorMatrix in="SourceAlpha" type="matrix" values="0 0 0 0 0 0 0 0 0 0 0 0 0 0 0 0 0 0 127 0" result="hardAlpha"/>
<feOffset dx="-1" dy="-1"/>
<feGaussianBlur stdDeviation="0.5"/>
<feComposite in2="hardAlpha" operator="arithmetic" k2="-1" k3="1"/>
<feColorMatrix type="matrix" values="0 0 0 0 0 0 0 0 0 0 0 0 0 0 0 0 0 0 0.2 0"/>
<feBlend mode="normal" in2="shape" result="effect1_innerShadow_700_1897"/>
<feColorMatrix in="SourceAlpha" type="matrix" values="0 0 0 0 0 0 0 0 0 0 0 0 0 0 0 0 0 0 127 0" result="hardAlpha"/>
<feOffset dx="1" dy="1"/>
<feGaussianBlur stdDeviation="0.5"/>
<feComposite in2="hardAlpha" operator="arithmetic" k2="-1" k3="1"/>
<feColorMatrix type="matrix" values="0 0 0 0 1 0 0 0 0 1 0 0 0 0 1 0 0 0 0.2 0"/>
<feBlend mode="normal" in2="effect1_innerShadow_700_1897" result="effect2_innerShadow_700_1897"/>
</filter>
<filter id="filter10_dii_700_1897" x="73.0092" y="38.3809" width="22.25" height="29.9584" filterUnits="userSpaceOnUse" color-interpolation-filters="sRGB">
<feFlood flood-opacity="0" result="BackgroundImageFix"/>
<feColorMatrix in="SourceAlpha" type="matrix" values="0 0 0 0 0 0 0 0 0 0 0 0 0 0 0 0 0 0 127 0" result="hardAlpha"/>
<feOffset dx="2" dy="1"/>
<feGaussianBlur stdDeviation="1"/>
<feComposite in2="hardAlpha" operator="out"/>
<feColorMatrix type="matrix" values="0 0 0 0 0 0 0 0 0 0 0 0 0 0 0 0 0 0 0.1 0"/>
<feBlend mode="normal" in2="BackgroundImageFix" result="effect1_dropShadow_700_1897"/>
<feBlend mode="normal" in="SourceGraphic" in2="effect1_dropShadow_700_1897" result="shape"/>
<feColorMatrix in="SourceAlpha" type="matrix" values="0 0 0 0 0 0 0 0 0 0 0 0 0 0 0 0 0 0 127 0" result="hardAlpha"/>
<feOffset dx="-1" dy="-1"/>
<feGaussianBlur stdDeviation="0.5"/>
<feComposite in2="hardAlpha" operator="arithmetic" k2="-1" k3="1"/>
<feColorMatrix type="matrix" values="0 0 0 0 0 0 0 0 0 0 0 0 0 0 0 0 0 0 0.2 0"/>
<feBlend mode="normal" in2="shape" result="effect2_innerShadow_700_1897"/>
<feColorMatrix in="SourceAlpha" type="matrix" values="0 0 0 0 0 0 0 0 0 0 0 0 0 0 0 0 0 0 127 0" result="hardAlpha"/>
<feOffset dx="1" dy="1"/>
<feGaussianBlur stdDeviation="0.5"/>
<feComposite in2="hardAlpha" operator="arithmetic" k2="-1" k3="1"/>
<feColorMatrix type="matrix" values="0 0 0 0 1 0 0 0 0 1 0 0 0 0 1 0 0 0 0.2 0"/>
<feBlend mode="normal" in2="effect2_innerShadow_700_1897" result="effect3_innerShadow_700_1897"/>
</filter>
</defs>
</svg>
