<svg width="241" height="29" viewBox="0 0 241 29" fill="none" xmlns="http://www.w3.org/2000/svg">
<path d="M230.58 28.1114C228.724 28.1114 227.186 27.7427 225.965 27.0052C224.744 26.2423 223.829 25.2506 223.219 24.03C222.608 22.784 222.303 21.4489 222.303 20.0249C222.303 18.6772 222.558 17.3294 223.066 15.9817C223.6 14.6085 224.363 13.3625 225.355 12.2436C226.372 11.1247 227.592 10.222 229.017 9.53537C230.466 8.84879 232.093 8.50549 233.899 8.50549C236.137 8.50549 237.764 9.01408 238.781 10.0312C239.824 11.023 240.345 12.2309 240.345 13.6549C240.345 14.8755 240.015 16.0071 239.353 17.0497C238.718 18.0669 237.866 18.8933 236.798 19.529C235.73 20.1393 234.56 20.4445 233.289 20.4445C232.627 20.4445 231.954 20.3428 231.267 20.1393C230.58 19.9359 229.907 19.618 229.245 19.1857C229.373 20.7624 229.83 21.9067 230.619 22.6187C231.407 23.3307 232.348 23.6867 233.441 23.6867C234.204 23.6867 234.967 23.5468 235.73 23.2671C236.493 22.962 237.192 22.5805 237.828 22.1228C238.489 21.6397 238.997 21.1311 239.353 20.5971L239.62 20.7878C239.62 22.1101 239.341 23.2417 238.781 24.1826C238.247 25.098 237.535 25.8482 236.645 26.4331C235.755 27.0179 234.776 27.4502 233.708 27.7299C232.666 27.9842 231.623 28.1114 230.58 28.1114ZM231.458 17.8126C232.271 17.8126 232.933 17.5837 233.441 17.126C233.95 16.6428 234.331 16.0834 234.586 15.4477C234.84 14.8119 234.967 14.2525 234.967 13.7693C234.967 13.1845 234.802 12.7013 234.471 12.3199C234.141 11.913 233.683 11.7096 233.098 11.7096C232.64 11.7096 232.132 11.8749 231.572 12.2054C231.038 12.536 230.555 13.1082 230.123 13.9219C229.69 14.7102 229.411 15.8164 229.284 17.2404C230.097 17.6218 230.822 17.8126 231.458 17.8126Z" fill="white"/>
<path d="M212.032 28.1114C210.354 28.1114 208.93 27.7299 207.76 26.9671C206.616 26.2042 205.751 25.2125 205.166 23.9919C204.581 22.7458 204.289 21.4108 204.289 19.9868C204.289 18.639 204.543 17.2913 205.052 15.9435C205.586 14.5958 206.362 13.3625 207.379 12.2436C208.396 11.0993 209.629 10.1965 211.079 9.53537C212.554 8.84879 214.245 8.50549 216.152 8.50549C218.034 8.50549 219.432 8.88693 220.348 9.64981C221.263 10.3873 221.721 11.201 221.721 12.091C221.721 13.0319 221.25 13.8965 220.309 14.6848C219.369 15.4731 217.995 15.8672 216.19 15.8672C216.292 15.4858 216.368 15.1044 216.419 14.7229C216.495 14.3161 216.533 13.9346 216.533 13.5786C216.533 13.0446 216.419 12.5996 216.19 12.2436C215.961 11.8621 215.554 11.6714 214.969 11.6714C214.435 11.6714 213.863 11.913 213.253 12.3962C212.668 12.8793 212.159 13.5913 211.727 14.5322C211.32 15.4731 211.117 16.6301 211.117 18.0033C211.117 19.351 211.333 20.4445 211.765 21.2836C212.223 22.1228 212.808 22.7331 213.52 23.1145C214.232 23.4706 214.982 23.6486 215.77 23.6486C216.813 23.6486 217.817 23.3816 218.784 22.8475C219.75 22.2881 220.449 21.5252 220.882 20.5589L221.263 20.7115C221.263 22.0338 220.958 23.1654 220.348 24.1063C219.763 25.0217 219 25.7846 218.059 26.3949C217.118 26.9798 216.114 27.4121 215.046 27.6918C213.978 27.9715 212.973 28.1114 212.032 28.1114Z" fill="white"/>
<path d="M187.625 27.9597C186.684 27.9597 185.832 27.591 185.07 26.8536C184.307 26.0907 183.925 25.0354 183.925 23.6876C183.925 23.0265 184.014 22.2763 184.192 21.4371C184.37 20.598 184.561 19.7461 184.764 18.8815C184.993 18.0169 185.197 17.2032 185.375 16.4403C185.553 15.6774 185.642 15.0544 185.642 14.5713C185.642 14.0627 185.54 13.6685 185.337 13.3888C185.133 13.0837 184.866 12.9311 184.536 12.9311C184.103 12.9311 183.633 13.1854 183.124 13.694L182.895 13.5414C182.87 13.1345 182.959 12.6514 183.162 12.0919C183.366 11.5325 183.671 10.9985 184.078 10.4899C184.51 9.95588 185.057 9.51087 185.718 9.15486C186.379 8.79885 187.167 8.62085 188.083 8.62085C189.431 8.62085 190.422 9.015 191.058 9.80331C191.719 10.5662 192.05 11.5071 192.05 12.6259C192.05 13.0328 192.012 13.427 191.935 13.8084C192.469 13.0201 193.131 12.2318 193.919 11.4435C194.707 10.6298 195.572 9.95588 196.513 9.42187C197.479 8.88786 198.471 8.62085 199.488 8.62085C200.683 8.62085 201.497 9.00229 201.929 9.76516C202.361 10.528 202.578 11.4816 202.578 12.6259C202.578 13.694 202.463 14.8383 202.234 16.0589C202.005 17.2795 201.777 18.4619 201.548 19.6062C201.319 20.7251 201.204 21.666 201.204 22.4289C201.204 23.4461 201.497 23.9546 202.082 23.9546C202.387 23.9546 202.654 23.8656 202.883 23.6876C203.112 23.4842 203.264 23.2935 203.34 23.1155L203.607 23.2299C203.607 24.1708 203.34 24.9972 202.806 25.7092C202.298 26.4213 201.649 26.9807 200.861 27.3876C200.073 27.769 199.272 27.9597 198.458 27.9597C197.466 27.9597 196.589 27.6164 195.826 26.9298C195.063 26.2433 194.682 25.1244 194.682 23.5732C194.682 22.6577 194.796 21.666 195.025 20.598C195.279 19.53 195.521 18.5001 195.75 17.5083C195.979 16.5166 196.093 15.7029 196.093 15.0671C196.093 14.6857 196.017 14.3933 195.864 14.1898C195.737 13.961 195.496 13.8465 195.139 13.8465C194.555 13.8465 193.906 14.1135 193.194 14.6476C192.508 15.1816 191.91 15.8936 191.401 16.7836C190.918 17.6736 190.677 18.6527 190.677 19.7207C190.677 20.4073 190.753 21.0684 190.906 21.7042C191.084 22.3399 191.173 23.0265 191.173 23.7639C191.173 25.1371 190.817 26.1797 190.105 26.8917C189.393 27.6037 188.566 27.9597 187.625 27.9597Z" fill="white"/>
<path d="M176.47 28.0347C175.58 28.0347 174.805 27.7422 174.143 27.1574C173.482 26.5725 173.152 25.6189 173.152 24.2966C173.152 24.1694 173.152 24.0423 173.152 23.9151C173.152 23.788 173.164 23.6609 173.19 23.5337C172.427 25.0595 171.562 26.1911 170.596 26.9285C169.655 27.6405 168.702 27.9965 167.735 27.9965C166.845 27.9965 166.006 27.6914 165.218 27.0811C164.43 26.4453 163.794 25.5172 163.311 24.2966C162.828 23.076 162.586 21.6011 162.586 19.8719C162.586 18.0919 162.828 16.5025 163.311 15.1039C163.819 13.7053 164.48 12.5229 165.294 11.5566C166.108 10.5903 166.998 9.86553 167.964 9.38238C168.931 8.8738 169.871 8.6195 170.787 8.6195C171.804 8.6195 172.719 8.93737 173.533 9.5731C174.347 10.1834 174.906 11.1624 175.212 12.5102C175.288 12.0779 175.339 11.6837 175.364 11.3277C175.415 10.9717 175.44 10.7301 175.44 10.603C175.466 9.91639 175.809 9.40781 176.47 9.07723C177.157 8.74665 177.907 8.58136 178.721 8.58136C179.433 8.58136 180.107 8.72122 180.742 9.00094C181.378 9.28066 181.81 9.7511 182.039 10.4123L182.116 10.6411C181.81 11.3277 181.505 12.1542 181.2 13.1205C180.895 14.0868 180.615 15.1039 180.361 16.172C180.107 17.2146 179.903 18.2444 179.751 19.2616C179.598 20.2533 179.522 21.1307 179.522 21.8935C179.522 22.7327 179.611 23.3176 179.789 23.6481C179.967 23.9533 180.183 24.1059 180.437 24.1059C180.87 24.1059 181.264 23.8007 181.62 23.1904L181.925 23.343C181.925 24.2076 181.645 24.9959 181.086 25.7079C180.526 26.4199 179.827 26.9921 178.988 27.4244C178.149 27.8312 177.309 28.0347 176.47 28.0347ZM170.253 23.1904C170.914 23.1904 171.639 22.6055 172.427 21.4358C173.241 20.2406 173.94 18.5369 174.525 16.3245C174.576 16.0957 174.627 15.8795 174.678 15.6761C174.728 15.4472 174.767 15.2311 174.792 15.0277C174.385 14.0868 173.953 13.4256 173.495 13.0442C173.063 12.6373 172.63 12.4339 172.198 12.4339C171.562 12.4339 170.965 12.7772 170.405 13.4638C169.871 14.1249 169.426 14.9641 169.07 15.9812C168.74 16.9984 168.575 18.0156 168.575 19.0327C168.575 20.4313 168.727 21.4739 169.032 22.1605C169.363 22.8471 169.77 23.1904 170.253 23.1904Z" fill="white"/>
<path d="M156.415 27.9968C155.728 27.9968 155.054 27.8315 154.393 27.5009C153.757 27.1449 153.236 26.5855 152.829 25.8226C152.422 25.0597 152.219 24.0807 152.219 22.8855C152.219 21.8175 152.359 20.5715 152.638 19.1475C152.943 17.698 153.274 16.1977 153.63 14.6465C154.012 13.0953 154.342 11.5823 154.622 10.1074C154.902 8.6325 155.029 7.3229 155.003 6.17859C155.003 5.08514 154.876 4.30955 154.622 3.85182L154.584 3.73739C154.863 2.92366 155.359 2.28793 156.071 1.8302C156.783 1.37248 157.533 1.14362 158.322 1.14362C159.212 1.14362 160 1.48691 160.687 2.1735C161.399 2.83466 161.755 3.95354 161.755 5.53015C161.755 6.36931 161.653 7.37376 161.45 8.5435C161.246 9.68781 161.005 10.9211 160.725 12.2434C160.445 13.5403 160.153 14.8245 159.848 16.096C159.568 17.3674 159.326 18.5372 159.123 19.6052C158.919 20.6732 158.818 21.5505 158.818 22.2371C158.818 22.9491 158.919 23.445 159.123 23.7247C159.326 23.979 159.555 24.1061 159.809 24.1061C160.089 24.1061 160.356 24.0044 160.61 23.801C160.865 23.5721 161.03 23.3687 161.106 23.1907L161.411 23.267C161.386 24.1824 161.119 24.9962 160.61 25.7082C160.127 26.4202 159.504 26.9796 158.741 27.3865C158.004 27.7934 157.228 27.9968 156.415 27.9968Z" fill="white"/>
<path d="M145.374 28.0347C144.484 28.0347 143.708 27.7422 143.047 27.1574C142.386 26.5725 142.055 25.6189 142.055 24.2966C142.055 24.1694 142.055 24.0423 142.055 23.9151C142.055 23.788 142.068 23.6609 142.093 23.5337C141.33 25.0595 140.466 26.1911 139.499 26.9285C138.559 27.6405 137.605 27.9965 136.639 27.9965C135.749 27.9965 134.909 27.6914 134.121 27.0811C133.333 26.4453 132.697 25.5172 132.214 24.2966C131.731 23.076 131.489 21.6011 131.489 19.8719C131.489 18.0919 131.731 16.5025 132.214 15.1039C132.723 13.7053 133.384 12.5229 134.197 11.5566C135.011 10.5903 135.901 9.86553 136.868 9.38238C137.834 8.8738 138.775 8.6195 139.69 8.6195C140.707 8.6195 141.623 8.93737 142.437 9.5731C143.25 10.1834 143.81 11.1624 144.115 12.5102C144.191 12.0779 144.242 11.6837 144.267 11.3277C144.318 10.9717 144.344 10.7301 144.344 10.603C144.369 9.91639 144.712 9.40781 145.374 9.07723C146.06 8.74665 146.81 8.58136 147.624 8.58136C148.336 8.58136 149.01 8.72122 149.646 9.00094C150.281 9.28066 150.714 9.7511 150.943 10.4123L151.019 10.6411C150.714 11.3277 150.409 12.1542 150.103 13.1205C149.798 14.0868 149.519 15.1039 149.264 16.172C149.01 17.2146 148.807 18.2444 148.654 19.2616C148.501 20.2533 148.425 21.1307 148.425 21.8935C148.425 22.7327 148.514 23.3176 148.692 23.6481C148.87 23.9533 149.086 24.1059 149.341 24.1059C149.773 24.1059 150.167 23.8007 150.523 23.1904L150.828 23.343C150.828 24.2076 150.548 24.9959 149.989 25.7079C149.43 26.4199 148.73 26.9921 147.891 27.4244C147.052 27.8312 146.213 28.0347 145.374 28.0347ZM139.156 23.1904C139.817 23.1904 140.542 22.6055 141.33 21.4358C142.144 20.2406 142.843 18.5369 143.428 16.3245C143.479 16.0957 143.53 15.8795 143.581 15.6761C143.632 15.4472 143.67 15.2311 143.695 15.0277C143.288 14.0868 142.856 13.4256 142.398 13.0442C141.966 12.6373 141.534 12.4339 141.101 12.4339C140.466 12.4339 139.868 12.7772 139.309 13.4638C138.775 14.1249 138.33 14.9641 137.974 15.9812C137.643 16.9984 137.478 18.0156 137.478 19.0327C137.478 20.4313 137.63 21.4739 137.936 22.1605C138.266 22.8471 138.673 23.1904 139.156 23.1904Z" fill="white"/>
<path d="M116.489 28.1119C114.175 28.1119 112.281 27.6796 110.806 26.8151C109.331 25.9505 108.593 24.5391 108.593 22.5811C108.593 22.3777 108.593 22.1997 108.593 22.0471C108.619 21.8691 108.644 21.7292 108.67 21.6275C108.771 20.9155 108.987 20.0382 109.318 18.9956C109.649 17.953 110.03 16.8468 110.462 15.6771C110.895 14.4819 111.314 13.3122 111.721 12.1679C112.128 11.0235 112.471 9.98095 112.751 9.04007C113.031 8.07376 113.171 7.29817 113.171 6.7133C113.171 6.05214 112.954 5.72156 112.522 5.72156C112.039 5.72156 111.441 6.09028 110.729 6.82773C110.017 7.53975 109.267 8.5442 108.479 9.84109L108.25 9.72665C108.25 8.04833 108.581 6.59887 109.242 5.37827C109.903 4.15767 110.78 3.15322 111.874 2.36491C112.967 1.55118 114.188 0.953594 115.535 0.572157C116.883 0.19072 118.244 0 119.617 0C121.321 0 122.923 0.279721 124.423 0.839163C125.923 1.37317 127.144 2.14876 128.085 3.16593C129.051 4.1831 129.534 5.42913 129.534 6.90402C129.534 9.54865 127.919 11.6084 124.69 13.0833C126.597 13.5156 127.996 14.2403 128.886 15.2575C129.776 16.2747 130.221 17.4063 130.221 18.6523C130.221 19.7457 129.89 20.8519 129.229 21.9708C128.593 23.0643 127.678 24.0814 126.483 25.0223C125.288 25.9377 123.838 26.6879 122.134 27.2728C120.456 27.8322 118.574 28.1119 116.489 28.1119ZM117.977 11.939C119.146 11.9644 120.164 11.7864 121.028 11.405C121.918 10.9981 122.605 10.4895 123.088 9.87923C123.597 9.2435 123.851 8.59506 123.851 7.9339C123.851 7.06931 123.393 6.30643 122.478 5.64527C121.562 4.95869 120.125 4.61539 118.167 4.61539C118.269 5.09855 118.333 5.5817 118.358 6.06485C118.409 6.54801 118.434 7.01845 118.434 7.47617C118.434 8.21362 118.384 8.95107 118.282 9.68851C118.206 10.426 118.104 11.1761 117.977 11.939ZM117.557 23.4584C118.651 23.4584 119.617 23.2423 120.456 22.81C121.295 22.3522 121.956 21.7801 122.439 21.0935C122.923 20.3815 123.164 19.6567 123.164 18.9193C123.164 17.9021 122.681 16.9613 121.715 16.0967C120.748 15.2321 119.235 14.6981 117.176 14.4946C117.074 15.2829 116.858 16.1221 116.527 17.0121C116.222 17.9021 115.93 18.754 115.65 19.5677C115.37 20.3815 115.23 21.0935 115.23 21.7038C115.23 22.2378 115.396 22.6701 115.726 23.0007C116.057 23.3058 116.667 23.4584 117.557 23.4584Z" fill="white"/>
<path d="M94.4715 27.9975C93.6577 27.9975 92.8821 27.8195 92.1447 27.4634C91.4327 27.082 90.8478 26.4971 90.3901 25.7088C89.9578 24.9205 89.7416 23.9161 89.7416 22.6955C89.7416 22.0343 89.8052 21.1697 89.9324 20.1017C90.0595 19.0337 90.2248 17.8639 90.4282 16.5925C90.6571 15.321 90.8859 14.0496 91.1148 12.7781C90.6062 12.8035 90.1104 12.8544 89.6272 12.9307C89.1695 13.007 88.7117 13.096 88.254 13.1977L88.1777 12.9307C88.6863 12.3204 89.2203 11.7991 89.7798 11.3668C90.3392 10.9345 90.9241 10.5785 91.5344 10.2988C91.865 8.62043 92.1447 7.17097 92.3736 5.95037C92.6024 4.70434 92.7168 3.9669 92.7168 3.73803C92.7168 3.30574 93.0474 2.94973 93.7086 2.67001C94.3952 2.39029 95.158 2.25043 95.9972 2.25043C96.7346 2.25043 97.4212 2.39029 98.057 2.67001C98.7181 2.94973 99.1631 3.42017 99.392 4.08133C99.2394 4.2339 99.0233 4.80606 98.7436 5.7978C98.4638 6.7641 98.1714 7.94656 97.8662 9.34516C98.3494 9.37059 98.8453 9.39602 99.3539 9.42145C99.8624 9.44688 100.384 9.48502 100.918 9.53588C100.969 9.68846 101.007 9.85374 101.032 10.0317C101.058 10.2098 101.07 10.4005 101.07 10.6039C101.07 10.9853 101.007 11.4049 100.88 11.8626C100.778 12.2949 100.651 12.6891 100.498 13.0451C99.8879 12.9942 99.3157 12.9434 98.7817 12.8925C98.2477 12.8162 97.7264 12.7654 97.2178 12.74C97.0144 13.8334 96.8237 14.9269 96.6456 16.0203C96.4931 17.1138 96.3659 18.1055 96.2642 18.9955C96.1879 19.8856 96.1498 20.5849 96.1498 21.0934C96.1498 22.1615 96.3405 22.8735 96.7219 23.2295C97.1288 23.5855 97.612 23.7635 98.1714 23.7635C98.68 23.7635 99.1377 23.6618 99.5446 23.4583C99.9514 23.2549 100.244 23.0133 100.422 22.7336L100.803 22.848C100.651 23.8906 100.244 24.8061 99.5827 25.5944C98.9216 26.3573 98.1333 26.9549 97.2178 27.3872C96.3024 27.794 95.3869 27.9975 94.4715 27.9975Z" fill="white"/>
<path d="M78.1312 28.1114C76.2749 28.1114 74.7364 27.7427 73.5158 27.0052C72.2952 26.2423 71.3798 25.2506 70.7695 24.03C70.1592 22.784 69.854 21.4489 69.854 20.0249C69.854 18.6772 70.1083 17.3294 70.6169 15.9817C71.1509 14.6085 71.9138 13.3625 72.9055 12.2436C73.9227 11.1247 75.1433 10.222 76.5673 9.53537C78.0168 8.84879 79.6442 8.50549 81.4497 8.50549C83.6875 8.50549 85.3149 9.01408 86.3321 10.0312C87.3747 11.023 87.896 12.2309 87.896 13.6549C87.896 14.8755 87.5654 16.0071 86.9043 17.0497C86.2685 18.0669 85.4166 18.8933 84.3486 19.529C83.2806 20.1393 82.1109 20.4445 80.8394 20.4445C80.1782 20.4445 79.5044 20.3428 78.8178 20.1393C78.1312 19.9359 77.4573 19.618 76.7962 19.1857C76.9233 20.7624 77.381 21.9067 78.1693 22.6187C78.9576 23.3307 79.8985 23.6867 80.992 23.6867C81.7549 23.6867 82.5177 23.5468 83.2806 23.2671C84.0435 22.962 84.7428 22.5805 85.3785 22.1228C86.0397 21.6397 86.5482 21.1311 86.9043 20.5971L87.1713 20.7878C87.1713 22.1101 86.8915 23.2417 86.3321 24.1826C85.7981 25.098 85.0861 25.8482 84.196 26.4331C83.306 27.0179 82.327 27.4502 81.259 27.7299C80.2164 27.9842 79.1738 28.1114 78.1312 28.1114ZM79.0085 17.8126C79.8222 17.8126 80.4834 17.5837 80.992 17.126C81.5006 16.6428 81.882 16.0834 82.1363 15.4477C82.3906 14.8119 82.5177 14.2525 82.5177 13.7693C82.5177 13.1845 82.3524 12.7013 82.0219 12.3199C81.6913 11.913 81.2336 11.7096 80.6487 11.7096C80.191 11.7096 79.6824 11.8749 79.1229 12.2054C78.5889 12.536 78.1058 13.1082 77.6735 13.9219C77.2412 14.7102 76.9615 15.8164 76.8343 17.2404C77.648 17.6218 78.3728 17.8126 79.0085 17.8126Z" fill="white"/>
<path d="M59.1937 28.1114C57.3374 28.1114 55.7989 27.7427 54.5783 27.0052C53.3577 26.2423 52.4423 25.2506 51.832 24.03C51.2217 22.784 50.9165 21.4489 50.9165 20.0249C50.9165 18.6772 51.1708 17.3294 51.6794 15.9817C52.2134 14.6085 52.9763 13.3625 53.968 12.2436C54.9852 11.1247 56.2058 10.222 57.6298 9.53537C59.0793 8.84879 60.7067 8.50549 62.5122 8.50549C64.75 8.50549 66.3774 9.01408 67.3946 10.0312C68.4372 11.023 68.9585 12.2309 68.9585 13.6549C68.9585 14.8755 68.6279 16.0071 67.9668 17.0497C67.331 18.0669 66.4792 18.8933 65.4111 19.529C64.3431 20.1393 63.1734 20.4445 61.9019 20.4445C61.2407 20.4445 60.5669 20.3428 59.8803 20.1393C59.1937 19.9359 58.5198 19.618 57.8587 19.1857C57.9858 20.7624 58.4435 21.9067 59.2318 22.6187C60.0201 23.3307 60.961 23.6867 62.0545 23.6867C62.8174 23.6867 63.5802 23.5468 64.3431 23.2671C65.106 22.962 65.8053 22.5805 66.441 22.1228C67.1022 21.6397 67.6108 21.1311 67.9668 20.5971L68.2338 20.7878C68.2338 22.1101 67.954 23.2417 67.3946 24.1826C66.8606 25.098 66.1486 25.8482 65.2586 26.4331C64.3685 27.0179 63.3895 27.4502 62.3215 27.7299C61.2789 27.9842 60.2363 28.1114 59.1937 28.1114ZM60.071 17.8126C60.8847 17.8126 61.5459 17.5837 62.0545 17.126C62.5631 16.6428 62.9445 16.0834 63.1988 15.4477C63.4531 14.8119 63.5802 14.2525 63.5802 13.7693C63.5802 13.1845 63.4149 12.7013 63.0844 12.3199C62.7538 11.913 62.2961 11.7096 61.7112 11.7096C61.2535 11.7096 60.7449 11.8749 60.1854 12.2054C59.6514 12.536 59.1683 13.1082 58.736 13.9219C58.3037 14.7102 58.024 15.8164 57.8968 17.2404C58.7105 17.6218 59.4353 17.8126 60.071 17.8126Z" fill="white"/>
<path d="M25.9977 27.9966C24.6754 27.9966 23.5947 27.6152 22.7555 26.8523C21.9418 26.064 21.5349 24.8561 21.5349 23.2287C21.5349 22.4149 21.6239 21.5631 21.8019 20.673C22.0053 19.7576 22.2215 18.8676 22.4504 18.003C22.7046 17.113 22.9208 16.3119 23.0988 15.5999C23.2768 14.8879 23.3658 14.3157 23.3658 13.8835C23.3658 13.4512 23.2768 13.146 23.0988 12.968C22.9208 12.7646 22.7046 12.6629 22.4504 12.6629C22.1961 12.6629 21.9418 12.7519 21.6875 12.9299C21.4332 13.0824 21.217 13.324 21.039 13.6546L20.7339 13.5402C20.7847 12.4976 21.0772 11.6075 21.6112 10.8701C22.1452 10.1326 22.8064 9.57321 23.5947 9.19177C24.4084 8.81034 25.2221 8.61961 26.0359 8.61961C26.697 8.61961 27.3328 8.75948 27.9431 9.0392C28.5534 9.29349 29.0365 9.70035 29.3925 10.2598C29.774 10.7938 29.952 11.4804 29.9265 12.3196C29.9011 12.879 29.7994 13.5656 29.6214 14.3793C29.4434 15.1931 29.2272 16.0704 28.9729 17.0112C28.7441 17.9267 28.5406 18.8167 28.3626 19.6813C28.1846 20.5459 28.0956 21.3088 28.0956 21.9699C28.0956 22.5294 28.1719 22.9744 28.3245 23.305C28.5025 23.6355 28.7949 23.8008 29.2018 23.8008C29.6341 23.8008 30.2063 23.572 30.9183 23.1142C31.6303 22.6565 32.3423 21.9954 33.0543 21.1308C32.9017 19.7067 32.8255 18.448 32.8255 17.3545C32.8255 14.5573 33.2323 12.5357 34.0461 11.2897C34.8852 10.0436 35.9278 9.42063 37.1738 9.42063C38.0893 9.42063 38.7123 9.72578 39.0429 10.3361C39.3735 10.9464 39.5388 11.7601 39.5388 12.7773C39.5388 14.2776 39.2845 15.6889 38.7759 17.0112C38.2673 18.3336 37.6697 19.3889 36.9831 20.1772C37.034 21.3215 37.2628 22.2115 37.6697 22.8472C38.102 23.483 38.6106 23.8008 39.1955 23.8008C39.7803 23.8008 40.3779 23.4702 40.9882 22.8091C41.6239 22.1479 42.1707 21.1308 42.6284 19.7576C43.0861 18.3844 43.3531 16.6425 43.4294 14.5319C43.4548 12.8281 43.3404 11.5821 43.0861 10.7938V10.6031C43.4421 10.0182 44.0016 9.52235 44.7644 9.11548C45.5527 8.68319 46.3411 8.46704 47.1294 8.46704C47.6888 8.46704 48.1974 8.63233 48.6551 8.96291C49.1383 9.26806 49.5197 9.85293 49.7994 10.7175C50.0791 11.5567 50.1809 12.7773 50.1046 14.3793C50.0283 16.6171 49.6596 18.5878 48.9984 20.2916C48.3372 21.9699 47.4854 23.3812 46.4428 24.5256C45.4256 25.6699 44.3194 26.5345 43.1243 27.1193C41.9291 27.7042 40.7466 27.9966 39.5769 27.9966C38.2546 27.9966 37.0467 27.6406 35.9532 26.9286C34.8598 26.1912 34.0333 25.1613 33.4739 23.839C32.3296 25.0341 31.1471 26.0259 29.9265 26.8142C28.7314 27.6025 27.4218 27.9966 25.9977 27.9966Z" fill="white"/>
<path d="M8.13145 28.0724C6.42769 28.0724 5.01637 27.78 3.89749 27.1951C2.80404 26.6102 1.9903 25.8601 1.45629 24.9446C0.92228 24.0292 0.655273 23.0883 0.655273 22.122C0.655273 21.1811 0.884136 20.2911 1.34186 19.4519C1.79959 18.5873 2.44803 17.8753 3.28719 17.3159C4.15178 16.7564 5.16895 16.4767 6.33869 16.4767C6.31326 16.7056 6.30055 16.9217 6.30055 17.1251C6.30055 17.3032 6.30055 17.3922 6.30055 17.3922C6.30055 19.0959 6.46584 20.4437 6.79642 21.4354C7.127 22.4017 7.54658 23.101 8.05516 23.5333C8.56374 23.9402 9.08504 24.1436 9.61905 24.1436C10.4328 24.1436 11.1575 23.8257 11.7932 23.19C12.429 22.5288 12.7468 21.766 12.7468 20.9014C12.7468 19.9351 12.3273 19.0832 11.4881 18.3457C10.6744 17.6083 9.63177 16.7946 8.36031 15.9045C7.64829 15.3705 6.88542 14.773 6.07168 14.1118C5.28338 13.4252 4.60951 12.6242 4.05007 11.7087C3.49062 10.7679 3.2109 9.66169 3.2109 8.39023C3.2109 7.06791 3.51605 5.89817 4.12635 4.88101C4.76208 3.86384 5.58853 3.01196 6.6057 2.32538C7.64829 1.61336 8.77989 1.07935 10.0005 0.723339C11.2465 0.341902 12.4798 0.151184 13.7004 0.151184C15.2008 0.151184 16.4341 0.39276 17.4004 0.875914C18.3667 1.35907 19.0914 1.98208 19.5746 2.74496C20.0577 3.50783 20.2993 4.29614 20.2993 5.10987C20.2993 5.87274 20.0832 6.61019 19.6509 7.32221C19.244 8.00879 18.6337 8.56824 17.82 9.00053C17.0062 9.43283 16.0018 9.64897 14.8066 9.64897C14.8829 9.29297 14.9337 8.9751 14.9592 8.69538C14.9846 8.39023 14.9973 8.12323 14.9973 7.89436C14.9973 6.6229 14.7176 5.72017 14.1582 5.18616C13.6241 4.62671 13.0266 4.34699 12.3654 4.34699C11.7297 4.34699 11.1194 4.58857 10.5345 5.07173C9.94963 5.52945 9.6572 6.27961 9.6572 7.32221C9.6572 8.21223 9.88606 8.9751 10.3438 9.61083C10.8269 10.2466 11.4372 10.806 12.1747 11.2892C12.9376 11.7723 13.7386 12.2427 14.5777 12.7005C15.4423 13.1582 16.2688 13.6668 17.0571 14.2262C17.8708 14.7602 18.5447 15.396 19.0787 16.1334C19.6127 16.8709 19.8797 17.799 19.8797 18.9179C19.8797 20.0876 19.5619 21.232 18.9261 22.3508C18.2904 23.4443 17.4258 24.4233 16.3323 25.2879C15.2389 26.1271 13.9802 26.8009 12.5561 27.3095C11.1575 27.8181 9.68263 28.0724 8.13145 28.0724Z" fill="white"/>
</svg>
