<svg width="90" height="32" viewBox="0 0 90 32" fill="none" xmlns="http://www.w3.org/2000/svg">
<path d="M16.6609 25.232C15.8655 25.232 14.9596 25.0884 13.9432 24.8011C12.9489 24.5139 11.8994 24.2046 10.7946 23.8731C9.71198 23.5196 8.62931 23.2655 7.54664 23.1109C6.7954 23.8179 6.08836 24.3261 5.4255 24.6354C4.78474 24.9227 4.21026 25.0663 3.70207 25.0663C3.06131 25.0663 2.51998 24.8785 2.07807 24.5029C1.63617 24.1272 1.30474 23.6522 1.08378 23.0777C0.862832 22.4811 0.752356 21.8735 0.752356 21.2549C0.752356 20.6141 0.862832 20.0065 1.08378 19.432C1.32683 18.8575 1.6914 18.3935 2.1775 18.04C2.66359 17.6644 3.28226 17.4766 4.0335 17.4766C4.18817 17.4766 4.35388 17.4876 4.53064 17.5097C4.7074 17.5318 4.89521 17.565 5.09407 17.6091C5.51388 16.3276 5.87845 14.9135 6.18778 13.3669C6.51921 11.7981 6.77331 10.2625 6.95007 8.76C7.14893 7.25752 7.24836 5.9539 7.24836 4.84914C7.24836 4.40724 7.22626 4.0979 7.18207 3.92114C7.13788 3.72228 7.06055 3.52343 6.95007 3.32457L6.91693 3.22514C7.18207 2.5181 7.62398 1.96571 8.24264 1.568C8.86131 1.17029 9.51312 0.971428 10.1981 0.971428C10.9493 0.971428 11.568 1.24762 12.0541 1.8C12.5402 2.33028 12.7832 3.22514 12.7832 4.48457C12.7832 5.28 12.6838 6.27429 12.4849 7.46743C12.3082 8.63848 12.0541 9.90895 11.7226 11.2789C11.3912 12.6267 11.0266 13.9634 10.6289 15.2891C10.2312 16.6149 9.8335 17.797 9.43579 18.8354C10.408 19.0564 11.3802 19.3105 12.3524 19.5977C13.3466 19.885 14.3188 20.0286 15.2689 20.0286C15.9981 20.0286 16.6941 19.896 17.3569 19.6309C18.0419 19.3657 18.6826 18.8796 19.2792 18.1726C19.7211 18.4598 20.0415 18.8686 20.2404 19.3989C20.4613 19.9291 20.5718 20.4926 20.5718 21.0891C20.5718 21.752 20.4282 22.4038 20.1409 23.0446C19.8758 23.6632 19.456 24.1825 18.8815 24.6023C18.307 25.0221 17.5668 25.232 16.6609 25.232ZM28.4059 25.232C26.7488 25.232 25.3789 24.9006 24.2962 24.2377C23.2135 23.5749 22.4071 22.7021 21.8768 21.6194C21.3686 20.5147 21.1145 19.3436 21.1145 18.1063C21.1145 16.9352 21.3244 15.7642 21.7442 14.5931C22.1861 13.4221 22.8158 12.3615 23.6334 11.4114C24.473 10.4392 25.4894 9.6659 26.6825 9.09143C27.8756 8.49486 29.2455 8.19657 30.7922 8.19657C32.4494 8.19657 33.8082 8.53905 34.8688 9.224C35.9515 9.88686 36.7469 10.7707 37.2551 11.8754C37.7854 12.9802 38.0505 14.1623 38.0505 15.4217C38.0505 16.5707 37.8406 17.7307 37.4208 18.9017C37.001 20.0507 36.3713 21.1112 35.5316 22.0834C34.7141 23.0335 33.7088 23.7958 32.5156 24.3703C31.3225 24.9448 29.9526 25.232 28.4059 25.232ZM29.3008 22.4149C29.8974 22.4149 30.3945 22.1055 30.7922 21.4869C31.1899 20.8682 31.4882 20.0838 31.6871 19.1337C31.8859 18.1615 31.9854 17.1783 31.9854 16.184C31.9854 15.3002 31.897 14.4716 31.7202 13.6983C31.5655 12.9029 31.3225 12.2621 30.9911 11.776C30.6596 11.2678 30.2288 11.0137 29.6985 11.0137C29.124 11.0137 28.6269 11.323 28.2071 11.9417C27.8094 12.5604 27.5111 13.3448 27.3122 14.2949C27.1134 15.245 27.0139 16.2282 27.0139 17.2446C27.0139 18.1284 27.0913 18.968 27.2459 19.7634C27.4227 20.5368 27.6768 21.1775 28.0082 21.6857C28.3396 22.1718 28.7705 22.4149 29.3008 22.4149ZM47.1135 31.6286C46.0308 31.6286 45.136 31.3082 44.4289 30.6674C43.7219 30.0267 43.3684 29.1208 43.3684 27.9497C43.3684 26.6903 43.8103 25.2099 44.6941 23.5086C44.5394 23.5528 44.3848 23.5859 44.2301 23.608C44.0754 23.6301 43.9208 23.6411 43.7661 23.6411C42.4846 23.6411 41.4019 23.0888 40.5181 21.984C39.6564 20.8571 39.2255 19.2994 39.2255 17.3109C39.2255 15.5211 39.568 13.9413 40.2529 12.5714C40.96 11.2015 41.8548 10.1299 42.9375 9.35657C44.0202 8.58324 45.147 8.19657 46.3181 8.19657C47.1356 8.19657 47.8758 8.40648 48.5387 8.82628C49.2015 9.224 49.7428 9.87581 50.1627 10.7817C50.1848 10.5608 50.1958 10.3619 50.1958 10.1851C50.1958 10.0084 50.1958 9.84267 50.1958 9.688C50.1958 9.31238 50.483 9.00305 51.0575 8.76C51.632 8.51695 52.2728 8.39543 52.9798 8.39543C53.6206 8.39543 54.2171 8.51695 54.7695 8.76C55.3219 9.00305 55.6865 9.41181 55.8632 9.98629L55.9295 10.1851C55.7307 10.3619 55.5539 10.9364 55.3992 11.9086C55.2667 12.8808 55.1009 14.2286 54.9021 15.952C54.7695 17.0347 54.6038 18.272 54.4049 19.664C54.2061 21.0339 53.9299 22.4259 53.5764 23.84C53.2449 25.232 52.803 26.5135 52.2507 27.6846C51.6983 28.8777 51.0023 29.8278 50.1627 30.5349C49.323 31.264 48.3067 31.6286 47.1135 31.6286ZM46.0198 19.8297C46.6606 19.8297 47.3676 19.3105 48.1409 18.272C48.9364 17.2114 49.5661 15.6979 50.0301 13.7314C49.6324 12.8697 49.2236 12.2621 48.8038 11.9086C48.4061 11.533 47.9973 11.3451 47.5775 11.3451C47.0251 11.3451 46.5059 11.6213 46.0198 12.1737C45.5337 12.7261 45.136 13.4331 44.8267 14.2949C44.5394 15.1345 44.3958 16.0072 44.3958 16.9131C44.3958 17.8411 44.5505 18.5592 44.8598 19.0674C45.1691 19.5756 45.5558 19.8297 46.0198 19.8297ZM45.6221 27.8171C46.3733 27.8171 47.1356 27.077 47.9089 25.5966C48.7044 24.1383 49.2568 22.0724 49.5661 19.3989C47.8868 21.6747 46.7158 23.4312 46.0529 24.6686C45.4122 25.8838 45.0918 26.7455 45.0918 27.2537C45.0918 27.6293 45.2686 27.8171 45.6221 27.8171ZM68.0375 7.26857C67.1537 7.26857 66.4246 7.00343 65.8501 6.47314C65.2977 5.92076 65.0215 5.23581 65.0215 4.41828C65.0215 3.53448 65.353 2.77219 66.0158 2.13143C66.6787 1.49067 67.4852 1.17028 68.4352 1.17028C69.3191 1.17028 70.0372 1.44648 70.5895 1.99886C71.164 2.55124 71.4512 3.23619 71.4512 4.05371C71.4512 4.93752 71.1198 5.69981 70.457 6.34057C69.7941 6.95924 68.9876 7.26857 68.0375 7.26857ZM65.7175 25.1326C64.8558 25.1326 64.0825 24.8343 63.3975 24.2377C62.7126 23.619 62.3701 22.6358 62.3701 21.288C62.3701 20.5147 62.4695 19.7966 62.6684 19.1337C62.8893 18.4488 63.1324 17.7859 63.3975 17.1451C63.6848 16.5044 63.9278 15.8857 64.1267 15.2891C64.3476 14.6705 64.4581 14.0629 64.4581 13.4663C64.4581 12.936 64.3697 12.5604 64.193 12.3394C64.0162 12.0964 63.8063 11.9749 63.5632 11.9749C63.1876 11.9749 62.8231 12.2179 62.4695 12.704L62.2375 12.5714C62.3259 11.6876 62.6021 10.9364 63.0661 10.3177C63.5522 9.67695 64.1377 9.17981 64.8227 8.82628C65.5297 8.47276 66.2257 8.296 66.9107 8.296C67.7503 8.296 68.4794 8.57219 69.0981 9.12457C69.7168 9.65486 70.0261 10.5276 70.0261 11.7429C70.0261 12.472 69.9156 13.2453 69.6947 14.0629C69.4958 14.8583 69.2528 15.6537 68.9655 16.4491C68.7004 17.2446 68.4573 17.9848 68.2364 18.6697C68.0375 19.3547 67.9381 19.9402 67.9381 20.4263C67.9381 20.8461 68.0154 21.1444 68.1701 21.3211C68.3469 21.4979 68.5347 21.5863 68.7335 21.5863C68.9324 21.5863 69.1202 21.531 69.297 21.4206C69.4958 21.288 69.6394 21.1444 69.7278 20.9897L69.9598 21.056C69.9598 21.8735 69.7389 22.5916 69.297 23.2103C68.8772 23.8069 68.3469 24.2819 67.7061 24.6354C67.0653 24.9669 66.4025 25.1326 65.7175 25.1326ZM75.5366 25.0994C74.7191 25.0994 73.9789 24.779 73.316 24.1383C72.6532 23.4754 72.3218 22.5585 72.3218 21.3874C72.3218 20.813 72.3991 20.1611 72.5538 19.432C72.7084 18.7029 72.8741 17.9627 73.0509 17.2114C73.2498 16.4602 73.4265 15.7531 73.5812 15.0903C73.7359 14.4274 73.8132 13.8861 73.8132 13.4663C73.8132 13.0244 73.7248 12.6819 73.548 12.4389C73.3713 12.1737 73.1393 12.0411 72.852 12.0411C72.4764 12.0411 72.0677 12.2621 71.6258 12.704L71.4269 12.5714C71.4048 12.2179 71.4821 11.7981 71.6589 11.312C71.8357 10.8259 72.1008 10.3619 72.4543 9.92C72.83 9.456 73.305 9.06933 73.8795 8.76C74.454 8.45067 75.1389 8.296 75.9343 8.296C77.1054 8.296 77.9671 8.63848 78.5195 9.32343C79.094 9.98629 79.3812 10.8038 79.3812 11.776C79.3812 12.1295 79.348 12.472 79.2818 12.8034C79.7458 12.1185 80.3202 11.4335 81.0052 10.7486C81.6901 10.0415 82.4414 9.456 83.2589 8.992C84.0985 8.528 84.9602 8.296 85.844 8.296C86.8825 8.296 87.5896 8.62743 87.9652 9.29028C88.3408 9.95314 88.5286 10.7817 88.5286 11.776C88.5286 12.704 88.4292 13.6983 88.2303 14.7589C88.0315 15.8194 87.8326 16.8469 87.6338 17.8411C87.4349 18.8133 87.3355 19.6309 87.3355 20.2937C87.3355 21.1775 87.5896 21.6194 88.0978 21.6194C88.3629 21.6194 88.5949 21.5421 88.7938 21.3874C88.9926 21.2107 89.1252 21.045 89.1915 20.8903L89.4235 20.9897C89.4235 21.8072 89.1915 22.5253 88.7275 23.144C88.2856 23.7627 87.7221 24.2488 87.0372 24.6023C86.3522 24.9337 85.6562 25.0994 84.9492 25.0994C84.0875 25.0994 83.3252 24.8011 82.6623 24.2046C81.9995 23.608 81.668 22.6358 81.668 21.288C81.668 20.4926 81.7675 19.6309 81.9663 18.7029C82.1873 17.7749 82.3972 16.88 82.596 16.0183C82.7949 15.1566 82.8943 14.4495 82.8943 13.8971C82.8943 13.5657 82.828 13.3116 82.6955 13.1349C82.585 12.936 82.3751 12.8366 82.0658 12.8366C81.5576 12.8366 80.9941 13.0686 80.3755 13.5326C79.7789 13.9966 79.2597 14.6152 78.8178 15.3886C78.398 16.1619 78.188 17.0126 78.188 17.9406C78.188 18.5371 78.2543 19.1116 78.3869 19.664C78.5416 20.2164 78.6189 20.813 78.6189 21.4537C78.6189 22.6469 78.3096 23.5528 77.6909 24.1714C77.0722 24.7901 76.3541 25.0994 75.5366 25.0994Z" fill="#722A2A"/>
</svg>
