<svg
  width="393"
  height="163"
  viewBox="0 0 393 163"
  fill="none"
  xmlns="http://www.w3.org/2000/svg"
>
  <path
    d="M306.58 88.1114C304.724 88.1114 303.185 87.7426 301.965 87.0052C300.744 86.2423 299.829 85.2506 299.218 84.03C298.608 82.784 298.303 81.4489 298.303 80.0249C298.303 78.6771 298.557 77.3294 299.066 75.9817C299.6 74.6085 300.363 73.3625 301.354 72.2436C302.372 71.1247 303.592 70.2219 305.016 69.5354C306.466 68.8488 308.093 68.5055 309.899 68.5055C312.136 68.5055 313.764 69.0141 314.781 70.0312C315.824 71.023 316.345 72.2309 316.345 73.6549C316.345 74.8755 316.014 76.0071 315.353 77.0497C314.718 78.0668 313.866 78.8933 312.798 79.529C311.73 80.1393 310.56 80.4445 309.288 80.4445C308.627 80.4445 307.953 80.3428 307.267 80.1393C306.58 79.9359 305.906 79.618 305.245 79.1857C305.372 80.7623 305.83 81.9066 306.618 82.6187C307.407 83.3307 308.348 83.6867 309.441 83.6867C310.204 83.6867 310.967 83.5468 311.73 83.2671C312.492 82.962 313.192 82.5805 313.827 82.1228C314.489 81.6396 314.997 81.1311 315.353 80.597L315.62 80.7878C315.62 82.1101 315.341 83.2417 314.781 84.1826C314.247 85.098 313.535 85.8482 312.645 86.433C311.755 87.0179 310.776 87.4502 309.708 87.7299C308.665 87.9842 307.623 88.1114 306.58 88.1114ZM307.457 77.8126C308.271 77.8126 308.932 77.5837 309.441 77.126C309.95 76.6428 310.331 76.0834 310.585 75.4476C310.84 74.8119 310.967 74.2525 310.967 73.7693C310.967 73.1844 310.801 72.7013 310.471 72.3199C310.14 71.913 309.683 71.7096 309.098 71.7096C308.64 71.7096 308.131 71.8748 307.572 72.2054C307.038 72.536 306.555 73.1082 306.122 73.9219C305.69 74.7102 305.41 75.8164 305.283 77.2404C306.097 77.6218 306.822 77.8126 307.457 77.8126Z"
    fill="#722A2A"
  />
  <path
    d="M288.032 88.1114C286.354 88.1114 284.93 87.7299 283.76 86.9671C282.616 86.2042 281.751 85.2124 281.166 83.9918C280.581 82.7458 280.289 81.4108 280.289 79.9867C280.289 78.639 280.543 77.2913 281.052 75.9435C281.586 74.5958 282.362 73.3625 283.379 72.2436C284.396 71.0993 285.629 70.1965 287.079 69.5354C288.554 68.8488 290.245 68.5055 292.152 68.5055C294.034 68.5055 295.432 68.8869 296.348 69.6498C297.263 70.3872 297.721 71.201 297.721 72.091C297.721 73.0319 297.25 73.8965 296.309 74.6848C295.369 75.4731 293.995 75.8672 292.19 75.8672C292.292 75.4858 292.368 75.1043 292.419 74.7229C292.495 74.316 292.533 73.9346 292.533 73.5786C292.533 73.0446 292.419 72.5996 292.19 72.2436C291.961 71.8621 291.554 71.6714 290.969 71.6714C290.435 71.6714 289.863 71.913 289.253 72.3961C288.668 72.8793 288.159 73.5913 287.727 74.5322C287.32 75.4731 287.117 76.6301 287.117 78.0033C287.117 79.351 287.333 80.4445 287.765 81.2836C288.223 82.1228 288.808 82.7331 289.52 83.1145C290.232 83.4705 290.982 83.6485 291.77 83.6485C292.813 83.6485 293.817 83.3815 294.784 82.8475C295.75 82.2881 296.449 81.5252 296.882 80.5589L297.263 80.7115C297.263 82.0338 296.958 83.1654 296.348 84.1063C295.763 85.0217 295 85.7846 294.059 86.3949C293.118 86.9798 292.114 87.4121 291.046 87.6918C289.978 87.9715 288.973 88.1114 288.032 88.1114Z"
    fill="#722A2A"
  />
  <path
    d="M263.625 87.9597C262.684 87.9597 261.832 87.591 261.069 86.8536C260.307 86.0907 259.925 85.0354 259.925 83.6876C259.925 83.0265 260.014 82.2763 260.192 81.4372C260.37 80.598 260.561 79.7461 260.764 78.8815C260.993 78.0169 261.197 77.2032 261.375 76.4403C261.553 75.6774 261.642 75.0544 261.642 74.5713C261.642 74.0627 261.54 73.6685 261.336 73.3888C261.133 73.0837 260.866 72.9311 260.535 72.9311C260.103 72.9311 259.633 73.1854 259.124 73.694L258.895 73.5414C258.87 73.1345 258.959 72.6514 259.162 72.0919C259.366 71.5325 259.671 70.9985 260.078 70.4899C260.51 69.9559 261.057 69.5109 261.718 69.1549C262.379 68.7989 263.167 68.6209 264.083 68.6209C265.431 68.6209 266.422 69.015 267.058 69.8033C267.719 70.5662 268.05 71.5071 268.05 72.626C268.05 73.0328 268.012 73.427 267.935 73.8084C268.469 73.0201 269.13 72.2318 269.919 71.4435C270.707 70.6298 271.572 69.9559 272.513 69.4219C273.479 68.8879 274.471 68.6209 275.488 68.6209C276.683 68.6209 277.497 69.0023 277.929 69.7652C278.361 70.528 278.577 71.4816 278.577 72.626C278.577 73.694 278.463 74.8383 278.234 76.0589C278.005 77.2795 277.776 78.4619 277.548 79.6063C277.319 80.7251 277.204 81.666 277.204 82.4289C277.204 83.4461 277.497 83.9546 278.082 83.9546C278.387 83.9546 278.654 83.8656 278.883 83.6876C279.111 83.4842 279.264 83.2935 279.34 83.1155L279.607 83.2299C279.607 84.1708 279.34 84.9972 278.806 85.7093C278.298 86.4213 277.649 86.9807 276.861 87.3876C276.073 87.769 275.272 87.9597 274.458 87.9597C273.466 87.9597 272.589 87.6164 271.826 86.9299C271.063 86.2433 270.682 85.1244 270.682 83.5732C270.682 82.6578 270.796 81.666 271.025 80.598C271.279 79.53 271.521 78.5001 271.75 77.5084C271.979 76.5166 272.093 75.7029 272.093 75.0672C272.093 74.6857 272.017 74.3933 271.864 74.1898C271.737 73.961 271.495 73.8466 271.139 73.8466C270.555 73.8466 269.906 74.1136 269.194 74.6476C268.507 75.1816 267.91 75.8936 267.401 76.7836C266.918 77.6736 266.677 78.6527 266.677 79.7207C266.677 80.4073 266.753 81.0684 266.905 81.7042C267.083 82.3399 267.172 83.0265 267.172 83.7639C267.172 85.1371 266.816 86.1797 266.104 86.8917C265.392 87.6037 264.566 87.9597 263.625 87.9597Z"
    fill="#722A2A"
  />
  <path
    d="M252.47 88.0346C251.58 88.0346 250.804 87.7422 250.143 87.1573C249.482 86.5725 249.151 85.6189 249.151 84.2966C249.151 84.1694 249.151 84.0423 249.151 83.9151C249.151 83.788 249.164 83.6608 249.19 83.5337C248.427 85.0594 247.562 86.191 246.596 86.9285C245.655 87.6405 244.701 87.9965 243.735 87.9965C242.845 87.9965 242.006 87.6913 241.217 87.081C240.429 86.4453 239.793 85.5172 239.31 84.2966C238.827 83.076 238.586 81.6011 238.586 79.8719C238.586 78.0918 238.827 76.5025 239.31 75.1039C239.819 73.7053 240.48 72.5228 241.294 71.5565C242.108 70.5902 242.998 69.8655 243.964 69.3823C244.93 68.8738 245.871 68.6195 246.786 68.6195C247.804 68.6195 248.719 68.9373 249.533 69.5731C250.347 70.1834 250.906 71.1624 251.211 72.5101C251.287 72.0778 251.338 71.6837 251.364 71.3277C251.415 70.9717 251.44 70.7301 251.44 70.6029C251.465 69.9164 251.809 69.4078 252.47 69.0772C253.156 68.7466 253.907 68.5813 254.72 68.5813C255.432 68.5813 256.106 68.7212 256.742 69.0009C257.378 69.2806 257.81 69.7511 258.039 70.4122L258.115 70.6411C257.81 71.3277 257.505 72.1541 257.2 73.1204C256.895 74.0867 256.615 75.1039 256.361 76.1719C256.106 77.2145 255.903 78.2444 255.75 79.2616C255.598 80.2533 255.521 81.1306 255.521 81.8935C255.521 82.7327 255.61 83.3175 255.788 83.6481C255.966 83.9533 256.183 84.1058 256.437 84.1058C256.869 84.1058 257.263 83.8007 257.619 83.1904L257.924 83.343C257.924 84.2075 257.645 84.9959 257.085 85.7079C256.526 86.4199 255.827 86.992 254.987 87.4243C254.148 87.8312 253.309 88.0346 252.47 88.0346ZM246.252 83.1904C246.914 83.1904 247.638 82.6055 248.427 81.4358C249.24 80.2406 249.94 78.5368 250.525 76.3245C250.575 76.0956 250.626 75.8795 250.677 75.6761C250.728 75.4472 250.766 75.2311 250.792 75.0276C250.385 74.0867 249.952 73.4256 249.495 73.0441C249.062 72.6373 248.63 72.4338 248.198 72.4338C247.562 72.4338 246.964 72.7771 246.405 73.4637C245.871 74.1249 245.426 74.964 245.07 75.9812C244.739 76.9984 244.574 78.0155 244.574 79.0327C244.574 80.4313 244.727 81.4739 245.032 82.1605C245.362 82.8471 245.769 83.1904 246.252 83.1904Z"
    fill="#722A2A"
  />
  <path
    d="M232.414 87.9968C231.728 87.9968 231.054 87.8315 230.393 87.501C229.757 87.145 229.236 86.5855 228.829 85.8226C228.422 85.0598 228.219 84.0807 228.219 82.8856C228.219 81.8176 228.358 80.5715 228.638 79.1475C228.943 77.698 229.274 76.1977 229.63 74.6465C230.011 73.0953 230.342 71.5823 230.622 70.1074C230.901 68.6325 231.029 67.3229 231.003 66.1786C231.003 65.0852 230.876 64.3096 230.622 63.8519L230.584 63.7374C230.863 62.9237 231.359 62.288 232.071 61.8302C232.783 61.3725 233.533 61.1436 234.322 61.1436C235.212 61.1436 236 61.4869 236.687 62.1735C237.399 62.8347 237.755 63.9536 237.755 65.5302C237.755 66.3693 237.653 67.3738 237.449 68.5435C237.246 69.6878 237.004 70.9212 236.725 72.2435C236.445 73.5404 236.153 74.8245 235.847 76.096C235.568 77.3674 235.326 78.5372 235.123 79.6052C234.919 80.6732 234.818 81.5505 234.818 82.2371C234.818 82.9491 234.919 83.445 235.123 83.7247C235.326 83.979 235.555 84.1062 235.809 84.1062C236.089 84.1062 236.356 84.0045 236.61 83.801C236.865 83.5722 237.03 83.3687 237.106 83.1907L237.411 83.267C237.386 84.1825 237.119 84.9962 236.61 85.7082C236.127 86.4202 235.504 86.9797 234.741 87.3865C234.004 87.7934 233.228 87.9968 232.414 87.9968Z"
    fill="#722A2A"
  />
  <path
    d="M221.374 88.0346C220.484 88.0346 219.708 87.7422 219.047 87.1573C218.386 86.5725 218.055 85.6189 218.055 84.2966C218.055 84.1694 218.055 84.0423 218.055 83.9151C218.055 83.788 218.068 83.6608 218.093 83.5337C217.33 85.0594 216.466 86.191 215.499 86.9285C214.559 87.6405 213.605 87.9965 212.639 87.9965C211.749 87.9965 210.909 87.6913 210.121 87.081C209.333 86.4453 208.697 85.5172 208.214 84.2966C207.731 83.076 207.489 81.6011 207.489 79.8719C207.489 78.0918 207.731 76.5025 208.214 75.1039C208.723 73.7053 209.384 72.5228 210.197 71.5565C211.011 70.5902 211.901 69.8655 212.868 69.3823C213.834 68.8738 214.775 68.6195 215.69 68.6195C216.707 68.6195 217.623 68.9373 218.437 69.5731C219.25 70.1834 219.81 71.1624 220.115 72.5101C220.191 72.0778 220.242 71.6837 220.267 71.3277C220.318 70.9717 220.344 70.7301 220.344 70.6029C220.369 69.9164 220.712 69.4078 221.374 69.0772C222.06 68.7466 222.81 68.5813 223.624 68.5813C224.336 68.5813 225.01 68.7212 225.646 69.0009C226.281 69.2806 226.714 69.7511 226.943 70.4122L227.019 70.6411C226.714 71.3277 226.409 72.1541 226.103 73.1204C225.798 74.0867 225.519 75.1039 225.264 76.1719C225.01 77.2145 224.807 78.2444 224.654 79.2616C224.501 80.2533 224.425 81.1306 224.425 81.8935C224.425 82.7327 224.514 83.3175 224.692 83.6481C224.87 83.9533 225.086 84.1058 225.341 84.1058C225.773 84.1058 226.167 83.8007 226.523 83.1904L226.828 83.343C226.828 84.2075 226.548 84.9959 225.989 85.7079C225.43 86.4199 224.73 86.992 223.891 87.4243C223.052 87.8312 222.213 88.0346 221.374 88.0346ZM215.156 83.1904C215.817 83.1904 216.542 82.6055 217.33 81.4358C218.144 80.2406 218.843 78.5368 219.428 76.3245C219.479 76.0956 219.53 75.8795 219.581 75.6761C219.632 75.4472 219.67 75.2311 219.695 75.0276C219.288 74.0867 218.856 73.4256 218.398 73.0441C217.966 72.6373 217.534 72.4338 217.101 72.4338C216.466 72.4338 215.868 72.7771 215.309 73.4637C214.775 74.1249 214.33 74.964 213.974 75.9812C213.643 76.9984 213.478 78.0155 213.478 79.0327C213.478 80.4313 213.63 81.4739 213.936 82.1605C214.266 82.8471 214.673 83.1904 215.156 83.1904Z"
    fill="#722A2A"
  />
  <path
    d="M192.489 88.1119C190.175 88.1119 188.28 87.6796 186.805 86.8151C185.33 85.9505 184.593 84.5391 184.593 82.5811C184.593 82.3777 184.593 82.1997 184.593 82.0471C184.618 81.8691 184.644 81.7292 184.669 81.6275C184.771 80.9155 184.987 80.0382 185.318 78.9956C185.648 77.953 186.03 76.8468 186.462 75.6771C186.894 74.4819 187.314 73.3122 187.721 72.1679C188.128 71.0235 188.471 69.9809 188.751 69.0401C189.03 68.0738 189.17 67.2982 189.17 66.7133C189.17 66.0521 188.954 65.7216 188.522 65.7216C188.039 65.7216 187.441 66.0903 186.729 66.8277C186.017 67.5397 185.267 68.5442 184.479 69.8411L184.25 69.7267C184.25 68.0483 184.58 66.5989 185.242 65.3783C185.903 64.1577 186.78 63.1532 187.873 62.3649C188.967 61.5512 190.187 60.9536 191.535 60.5722C192.883 60.1907 194.243 60 195.617 60C197.32 60 198.922 60.2797 200.423 60.8392C201.923 61.3732 203.144 62.1488 204.085 63.1659C205.051 64.1831 205.534 65.4291 205.534 66.904C205.534 69.5486 203.919 71.6084 200.69 73.0833C202.597 73.5156 203.996 74.2403 204.886 75.2575C205.776 76.2747 206.221 77.4063 206.221 78.6523C206.221 79.7457 205.89 80.8519 205.229 81.9708C204.593 83.0643 203.678 84.0814 202.482 85.0223C201.287 85.9377 199.838 86.6879 198.134 87.2728C196.456 87.8322 194.574 88.1119 192.489 88.1119ZM193.976 71.939C195.146 71.9644 196.163 71.7864 197.028 71.405C197.918 70.9981 198.605 70.4895 199.088 69.8792C199.596 69.2435 199.851 68.5951 199.851 67.9339C199.851 67.0693 199.393 66.3064 198.477 65.6453C197.562 64.9587 196.125 64.6154 194.167 64.6154C194.269 65.0985 194.332 65.5817 194.358 66.0649C194.409 66.548 194.434 67.0184 194.434 67.4762C194.434 68.2136 194.383 68.9511 194.282 69.6885C194.205 70.426 194.104 71.1761 193.976 71.939ZM193.557 83.4584C194.65 83.4584 195.617 83.2423 196.456 82.81C197.295 82.3522 197.956 81.7801 198.439 81.0935C198.922 80.3815 199.164 79.6567 199.164 78.9193C199.164 77.9021 198.681 76.9613 197.715 76.0967C196.748 75.2321 195.235 74.6981 193.175 74.4946C193.074 75.2829 192.858 76.1221 192.527 77.0121C192.222 77.9021 191.929 78.754 191.65 79.5677C191.37 80.3815 191.23 81.0935 191.23 81.7038C191.23 82.2378 191.395 82.6701 191.726 83.0007C192.057 83.3058 192.667 83.4584 193.557 83.4584Z"
    fill="#722A2A"
  />
  <path
    d="M170.471 87.9975C169.657 87.9975 168.882 87.8195 168.144 87.4634C167.432 87.082 166.848 86.4971 166.39 85.7088C165.958 84.9205 165.741 83.9161 165.741 82.6955C165.741 82.0343 165.805 81.1697 165.932 80.1017C166.059 79.0337 166.225 77.8639 166.428 76.5925C166.657 75.321 166.886 74.0496 167.115 72.7781C166.606 72.8035 166.11 72.8544 165.627 72.9307C165.169 73.007 164.712 73.096 164.254 73.1977L164.177 72.9307C164.686 72.3204 165.22 71.7991 165.78 71.3668C166.339 70.9345 166.924 70.5785 167.534 70.2988C167.865 68.6204 168.144 67.171 168.373 65.9504C168.602 64.7043 168.717 63.9669 168.717 63.738C168.717 63.3057 169.047 62.9497 169.708 62.67C170.395 62.3903 171.158 62.2504 171.997 62.2504C172.734 62.2504 173.421 62.3903 174.057 62.67C174.718 62.9497 175.163 63.4202 175.392 64.0813C175.239 64.2339 175.023 64.8061 174.743 65.7978C174.464 66.7641 174.171 67.9466 173.866 69.3452C174.349 69.3706 174.845 69.396 175.354 69.4215C175.862 69.4469 176.383 69.485 176.918 69.5359C176.968 69.6885 177.007 69.8537 177.032 70.0318C177.057 70.2098 177.07 70.4005 177.07 70.6039C177.07 70.9853 177.007 71.4049 176.879 71.8627C176.778 72.2949 176.65 72.6891 176.498 73.0451C175.888 72.9943 175.315 72.9434 174.781 72.8925C174.247 72.8162 173.726 72.7654 173.218 72.74C173.014 73.8334 172.823 74.9269 172.645 76.0203C172.493 77.1138 172.366 78.1055 172.264 78.9955C172.188 79.8856 172.15 80.5849 172.15 81.0934C172.15 82.1615 172.34 82.8735 172.722 83.2295C173.129 83.5855 173.612 83.7635 174.171 83.7635C174.68 83.7635 175.137 83.6618 175.544 83.4583C175.951 83.2549 176.244 83.0133 176.422 82.7336L176.803 82.848C176.65 83.8906 176.244 84.8061 175.582 85.5944C174.921 86.3573 174.133 86.9549 173.218 87.3872C172.302 87.794 171.387 87.9975 170.471 87.9975Z"
    fill="#722A2A"
  />
  <path
    d="M154.131 88.1114C152.275 88.1114 150.737 87.7426 149.516 87.0052C148.295 86.2423 147.38 85.2506 146.77 84.03C146.159 82.784 145.854 81.4489 145.854 80.0249C145.854 78.6771 146.108 77.3294 146.617 75.9817C147.151 74.6085 147.914 73.3625 148.906 72.2436C149.923 71.1247 151.143 70.2219 152.567 69.5354C154.017 68.8488 155.644 68.5055 157.45 68.5055C159.688 68.5055 161.315 69.0141 162.332 70.0312C163.375 71.023 163.896 72.2309 163.896 73.6549C163.896 74.8755 163.566 76.0071 162.904 77.0497C162.269 78.0668 161.417 78.8933 160.349 79.529C159.281 80.1393 158.111 80.4445 156.84 80.4445C156.178 80.4445 155.504 80.3428 154.818 80.1393C154.131 79.9359 153.457 79.618 152.796 79.1857C152.923 80.7623 153.381 81.9066 154.169 82.6187C154.958 83.3307 155.899 83.6867 156.992 83.6867C157.755 83.6867 158.518 83.5468 159.281 83.2671C160.044 82.962 160.743 82.5805 161.379 82.1228C162.04 81.6396 162.548 81.1311 162.904 80.597L163.171 80.7878C163.171 82.1101 162.892 83.2417 162.332 84.1826C161.798 85.098 161.086 85.8482 160.196 86.433C159.306 87.0179 158.327 87.4502 157.259 87.7299C156.217 87.9842 155.174 88.1114 154.131 88.1114ZM155.009 77.8126C155.822 77.8126 156.484 77.5837 156.992 77.126C157.501 76.6428 157.882 76.0834 158.136 75.4476C158.391 74.8119 158.518 74.2525 158.518 73.7693C158.518 73.1844 158.353 72.7013 158.022 72.3199C157.691 71.913 157.234 71.7096 156.649 71.7096C156.191 71.7096 155.682 71.8748 155.123 72.2054C154.589 72.536 154.106 73.1082 153.674 73.9219C153.241 74.7102 152.962 75.8164 152.834 77.2404C153.648 77.6218 154.373 77.8126 155.009 77.8126Z"
    fill="#722A2A"
  />
  <path
    d="M135.194 88.1114C133.337 88.1114 131.799 87.7426 130.578 87.0052C129.358 86.2423 128.442 85.2506 127.832 84.03C127.222 82.784 126.916 81.4489 126.916 80.0249C126.916 78.6771 127.171 77.3294 127.679 75.9817C128.213 74.6085 128.976 73.3625 129.968 72.2436C130.985 71.1247 132.206 70.2219 133.63 69.5354C135.079 68.8488 136.707 68.5055 138.512 68.5055C140.75 68.5055 142.377 69.0141 143.394 70.0312C144.437 71.023 144.958 72.2309 144.958 73.6549C144.958 74.8755 144.628 76.0071 143.967 77.0497C143.331 78.0668 142.479 78.8933 141.411 79.529C140.343 80.1393 139.173 80.4445 137.902 80.4445C137.241 80.4445 136.567 80.3428 135.88 80.1393C135.194 79.9359 134.52 79.618 133.859 79.1857C133.986 80.7623 134.443 81.9066 135.232 82.6187C136.02 83.3307 136.961 83.6867 138.054 83.6867C138.817 83.6867 139.58 83.5468 140.343 83.2671C141.106 82.962 141.805 82.5805 142.441 82.1228C143.102 81.6396 143.611 81.1311 143.967 80.597L144.234 80.7878C144.234 82.1101 143.954 83.2417 143.394 84.1826C142.86 85.098 142.148 85.8482 141.258 86.433C140.368 87.0179 139.389 87.4502 138.321 87.7299C137.279 87.9842 136.236 88.1114 135.194 88.1114ZM136.071 77.8126C136.885 77.8126 137.546 77.5837 138.054 77.126C138.563 76.6428 138.944 76.0834 139.199 75.4476C139.453 74.8119 139.58 74.2525 139.58 73.7693C139.58 73.1844 139.415 72.7013 139.084 72.3199C138.754 71.913 138.296 71.7096 137.711 71.7096C137.253 71.7096 136.745 71.8748 136.185 72.2054C135.651 72.536 135.168 73.1082 134.736 73.9219C134.304 74.7102 134.024 75.8164 133.897 77.2404C134.71 77.6218 135.435 77.8126 136.071 77.8126Z"
    fill="#722A2A"
  />
  <path
    d="M101.998 87.9966C100.675 87.9966 99.5945 87.6152 98.7554 86.8523C97.9416 86.064 97.5348 84.8561 97.5348 83.2286C97.5348 82.4149 97.6238 81.563 97.8018 80.673C98.0052 79.7576 98.2214 78.8675 98.4502 78.003C98.7045 77.1129 98.9207 76.3119 99.0987 75.5999C99.2767 74.8879 99.3657 74.3157 99.3657 73.8834C99.3657 73.4511 99.2767 73.146 99.0987 72.968C98.9207 72.7645 98.7045 72.6628 98.4502 72.6628C98.1959 72.6628 97.9416 72.7518 97.6874 72.9298C97.4331 73.0824 97.2169 73.324 97.0389 73.6546L96.7338 73.5401C96.7846 72.4975 97.0771 71.6075 97.6111 70.8701C98.1451 70.1326 98.8062 69.5732 99.5945 69.1917C100.408 68.8103 101.222 68.6196 102.036 68.6196C102.697 68.6196 103.333 68.7595 103.943 69.0392C104.553 69.2935 105.036 69.7003 105.392 70.2598C105.774 70.7938 105.952 71.4804 105.926 72.3195C105.901 72.879 105.799 73.5656 105.621 74.3793C105.443 75.193 105.227 76.0703 104.973 77.0112C104.744 77.9267 104.541 78.8167 104.363 79.6813C104.185 80.5459 104.096 81.3087 104.096 81.9699C104.096 82.5293 104.172 82.9744 104.324 83.3049C104.502 83.6355 104.795 83.8008 105.202 83.8008C105.634 83.8008 106.206 83.5719 106.918 83.1142C107.63 82.6565 108.342 81.9953 109.054 81.1307C108.902 79.7067 108.825 78.448 108.825 77.3545C108.825 74.5573 109.232 72.5357 110.046 71.2897C110.885 70.0436 111.928 69.4206 113.174 69.4206C114.089 69.4206 114.712 69.7258 115.043 70.3361C115.373 70.9464 115.539 71.7601 115.539 72.7773C115.539 74.2776 115.284 75.6889 114.776 77.0112C114.267 78.3335 113.67 79.3888 112.983 80.1771C113.034 81.3215 113.263 82.2115 113.67 82.8472C114.102 83.4829 114.61 83.8008 115.195 83.8008C115.78 83.8008 116.378 83.4702 116.988 82.8091C117.624 82.1479 118.171 81.1307 118.628 79.7576C119.086 78.3844 119.353 76.6425 119.429 74.5319C119.455 72.8281 119.34 71.5821 119.086 70.7938V70.6031C119.442 70.0182 120.001 69.5223 120.764 69.1155C121.553 68.6832 122.341 68.467 123.129 68.467C123.689 68.467 124.197 68.6323 124.655 68.9629C125.138 69.268 125.52 69.8529 125.799 70.7175C126.079 71.5567 126.181 72.7773 126.104 74.3793C126.028 76.6171 125.659 78.5878 124.998 80.2916C124.337 81.9699 123.485 83.3812 122.443 84.5255C121.425 85.6698 120.319 86.5344 119.124 87.1193C117.929 87.7042 116.747 87.9966 115.577 87.9966C114.254 87.9966 113.047 87.6406 111.953 86.9286C110.86 86.1911 110.033 85.1613 109.474 83.8389C108.329 85.0341 107.147 86.0259 105.926 86.8142C104.731 87.6025 103.422 87.9966 101.998 87.9966Z"
    fill="#722A2A"
  />
  <path
    d="M84.1313 88.0724C82.4276 88.0724 81.0163 87.78 79.8974 87.1951C78.8039 86.6102 77.9902 85.8601 77.4562 84.9446C76.9222 84.0292 76.6552 83.0883 76.6552 82.122C76.6552 81.1811 76.884 80.2911 77.3417 79.4519C77.7995 78.5873 78.4479 77.8753 79.2871 77.3159C80.1517 76.7564 81.1688 76.4767 82.3386 76.4767C82.3131 76.7056 82.3004 76.9217 82.3004 77.1251C82.3004 77.3031 82.3004 77.3921 82.3004 77.3921C82.3004 79.0959 82.4657 80.4436 82.7963 81.4354C83.1269 82.4017 83.5465 83.101 84.055 83.5333C84.5636 83.9401 85.0849 84.1436 85.6189 84.1436C86.4327 84.1436 87.1574 83.8257 87.7931 83.19C88.4289 82.5288 88.7467 81.766 88.7467 80.9014C88.7467 79.9351 88.3271 79.0832 87.488 78.3457C86.6742 77.6083 85.6316 76.7946 84.3602 75.9045C83.6482 75.3705 82.8853 74.7729 82.0716 74.1118C81.2833 73.4252 80.6094 72.6242 80.0499 71.7087C79.4905 70.7678 79.2108 69.6617 79.2108 68.3902C79.2108 67.0679 79.5159 65.8982 80.1262 64.881C80.762 63.8638 81.5884 63.0119 82.6056 62.3254C83.6482 61.6133 84.7798 61.0793 86.0004 60.7233C87.2464 60.3419 88.4797 60.1512 89.7003 60.1512C91.2006 60.1512 92.4339 60.3927 93.4003 60.8759C94.3666 61.3591 95.0913 61.9821 95.5744 62.7449C96.0576 63.5078 96.2992 64.2961 96.2992 65.1099C96.2992 65.8727 96.083 66.6102 95.6507 67.3222C95.2439 68.0088 94.6336 68.5682 93.8198 69.0005C93.0061 69.4328 92.0016 69.649 90.8065 69.649C90.8828 69.293 90.9336 68.9751 90.9591 68.6954C90.9845 68.3902 90.9972 68.1232 90.9972 67.8943C90.9972 66.6229 90.7175 65.7202 90.158 65.1861C89.624 64.6267 89.0264 64.347 88.3653 64.347C87.7295 64.347 87.1193 64.5886 86.5344 65.0717C85.9495 65.5294 85.6571 66.2796 85.6571 67.3222C85.6571 68.2122 85.8859 68.9751 86.3437 69.6108C86.8268 70.2465 87.4371 70.806 88.1746 71.2891C88.9374 71.7723 89.7385 72.2427 90.5776 72.7005C91.4422 73.1582 92.2687 73.6668 93.057 74.2262C93.8707 74.7602 94.5446 75.3959 95.0786 76.1334C95.6126 76.8708 95.8796 77.799 95.8796 78.9179C95.8796 80.0876 95.5617 81.2319 94.926 82.3508C94.2903 83.4443 93.4257 84.4233 92.3322 85.2879C91.2388 86.1271 89.98 86.8009 88.556 87.3095C87.1574 87.8181 85.6825 88.0724 84.1313 88.0724Z"
    fill="#722A2A"
  />
  <path
    d="M83.9 110.424C83.9 112.706 86.3375 114.862 89.025 115.346L88.3375 116.581C86.1031 116.096 84.0406 114.628 83.1344 112.659C82.2125 114.612 80.1578 116.081 77.9156 116.581L77.2594 115.346C79.9156 114.846 82.3375 112.706 82.3375 110.424V109.362H83.9V110.424ZM89.6031 119.362V120.596H76.7906V119.362H89.6031ZM97.2969 109.831V118.924H90.75V109.831H97.2969ZM92.2031 111.003V117.721H95.8281V111.003H92.2031ZM101.125 108.44V113.924H103.375V115.174H101.125V122.44H99.6406V108.44H101.125ZM115.006 115.893V117.081H105.256V109.596H114.866V110.799H106.756V112.69H114.569V113.862H106.756V115.893H115.006ZM116.459 119.456V120.674H103.647V119.456H116.459ZM128.075 108.456V112.956H130.106V114.19H128.075V118.924H126.591V108.456H128.075ZM125.434 110.081V111.284H117.091V110.081H120.528V108.44H122.013V110.081H125.434ZM121.263 111.956C123.278 111.956 124.653 113.003 124.653 114.596C124.653 116.19 123.278 117.221 121.263 117.221C119.231 117.221 117.856 116.19 117.856 114.596C117.856 113.003 119.231 111.956 121.263 111.956ZM121.263 113.096C120.075 113.096 119.278 113.674 119.294 114.596C119.278 115.503 120.075 116.065 121.263 116.065C122.45 116.065 123.247 115.503 123.263 114.596C123.247 113.674 122.45 113.096 121.263 113.096ZM128.669 120.94V122.143H119.2V118.096H120.684V120.94H128.669ZM145.025 108.44V111.987H147.041V113.206H145.025V116.706H143.525V108.44H145.025ZM140.494 116.971C143.353 116.971 145.134 117.971 145.134 119.69C145.134 121.409 143.353 122.424 140.494 122.409C137.603 122.424 135.791 121.409 135.791 119.69C135.791 117.971 137.603 116.971 140.494 116.971ZM140.494 118.174C138.463 118.159 137.244 118.721 137.259 119.69C137.244 120.659 138.463 121.221 140.494 121.221C142.478 121.221 143.697 120.659 143.713 119.69C143.697 118.721 142.478 118.159 140.494 118.174ZM140.853 109.471V110.674H136.072V114.487C138.83 114.479 140.384 114.393 142.15 114.034L142.291 115.237C140.416 115.628 138.744 115.69 135.713 115.69H134.603V109.471H140.853ZM158.741 109.503V110.284C158.725 111.221 158.725 112.612 158.381 114.424L156.912 114.284C157.217 112.729 157.264 111.604 157.287 110.721H151.678V109.503H158.741ZM155.162 112.643V115.534C156.662 115.487 158.209 115.378 159.616 115.174L159.709 116.253C156.787 116.768 153.444 116.815 150.975 116.831L150.834 115.628C151.694 115.62 152.67 115.612 153.694 115.581V112.643H155.162ZM162.022 108.44V112.893H163.944V114.143H162.022V118.956H160.506V108.44H162.022ZM162.475 120.94V122.143H152.959V118.003H154.444V120.94H162.475ZM175.997 108.44V122.471H174.513V108.44H175.997ZM171.716 109.706V114.815H166.684V117.878C168.95 117.87 170.934 117.768 173.278 117.378L173.419 118.596C170.934 119.018 168.825 119.112 166.356 119.112H165.169V113.628H170.2V110.909H165.153V109.706H171.716ZM180.316 120.034L179.066 124.346H177.738L178.566 120.034H180.316ZM190.156 112.565C190.156 114.909 191.688 117.331 193.844 118.253L193.031 119.409C191.383 118.682 190.07 117.143 189.422 115.268C188.773 117.268 187.453 118.971 185.828 119.768L184.969 118.596C187.078 117.612 188.641 114.971 188.656 112.565V111.081H185.453V109.846H193.344V111.081H190.156V112.565ZM196.594 108.44V122.44H195.109V108.44H196.594ZM209.616 109.143V110.206C209.616 111.307 209.616 112.557 209.256 114.253H211.241V115.471H198.428V114.253H207.756C208.131 112.62 208.147 111.424 208.147 110.362H200.037V109.143H209.616ZM209.631 117.253V122.268H199.991V117.253H209.631ZM201.444 118.424V121.065H208.162V118.424H201.444ZM226.269 108.44V113.862H228.519V115.112H226.269V122.44H224.784V108.44H226.269ZM217.362 109.612V113.206H221.066V109.612H222.534V119.112H215.894V109.612H217.362ZM217.362 117.893H221.066V114.378H217.362V117.893ZM241.603 119.518V120.768H228.791V119.518H234.431V117.065H230.353V112.612H238.572V110.643H230.322V109.424H240.041V113.799H231.822V115.846H240.369V117.065H235.9V119.518H241.603ZM250.866 112.003C250.85 114.565 252.397 117.128 254.569 118.096L253.678 119.268C252.069 118.503 250.795 116.932 250.147 115.018C249.491 117.065 248.202 118.76 246.522 119.581L245.616 118.331C247.819 117.346 249.366 114.674 249.366 112.003V109.612H250.866V112.003ZM257.319 108.44V122.471H255.834V108.44H257.319ZM264.044 110.956C264.044 112.737 265.278 114.44 267.419 115.159L266.669 116.315C265.083 115.768 263.919 114.674 263.309 113.299C262.7 114.815 261.489 116.003 259.841 116.581L259.044 115.424C261.231 114.674 262.544 112.878 262.559 110.94V110.565H259.481V109.362H267.059V110.565H264.044V110.956ZM270.153 108.44V112.034H272.184V113.284H270.153V116.878H268.669V108.44H270.153ZM270.153 117.565V122.44H268.669V118.768H260.903V117.565H270.153ZM283.487 108.44V114.112H285.737V115.346H283.487V122.44H282.019V108.44H283.487ZM280.8 110.628V111.846H272.503V110.628H275.956V108.628H277.441V110.628H280.8ZM276.706 112.878C278.706 112.878 280.175 114.221 280.191 116.128C280.175 118.049 278.706 119.378 276.706 119.393C274.691 119.378 273.222 118.049 273.222 116.128C273.222 114.221 274.691 112.878 276.706 112.878ZM276.706 114.096C275.519 114.096 274.628 114.924 274.644 116.128C274.628 117.346 275.519 118.159 276.706 118.143C277.894 118.159 278.769 117.346 278.769 116.128C278.769 114.924 277.894 114.096 276.706 114.096ZM290.275 112.268C290.275 114.503 291.212 116.893 293.087 118.034L292.259 119.174C290.947 118.385 290.056 116.987 289.587 115.362C289.064 117.143 288.103 118.659 286.744 119.487L285.822 118.378C287.806 117.19 288.837 114.721 288.837 112.331V109.721H290.275V112.268ZM298.056 108.44V122.44H296.634V108.44H298.056ZM295.15 108.706V121.753H293.744V114.596H291.572V113.362H293.744V108.706H295.15ZM312.25 119.456V120.69H299.438V119.456H302.5V115.799C301.352 115.167 300.656 114.159 300.656 112.909C300.656 110.706 302.812 109.253 305.812 109.253C308.828 109.253 310.984 110.706 310.984 112.909C310.984 114.143 310.312 115.135 309.188 115.768V119.456H312.25ZM305.812 110.44C303.609 110.44 302.094 111.393 302.094 112.909C302.094 114.409 303.609 115.393 305.812 115.393C308 115.393 309.547 114.409 309.547 112.909C309.547 111.393 308 110.44 305.812 110.44ZM303.969 119.456H307.688V116.331C307.117 116.479 306.484 116.549 305.812 116.549C305.156 116.549 304.531 116.479 303.969 116.346V119.456ZM315.444 109.799L315.303 117.846H313.756L313.616 109.799H315.444ZM314.538 121.221C313.928 121.221 313.413 120.721 313.428 120.112C313.413 119.503 313.928 119.003 314.538 119.003C315.131 119.003 315.647 119.503 315.647 120.112C315.647 120.721 315.131 121.221 314.538 121.221Z"
    fill="#722A2A"
  />
</svg>
