<svg width="13" height="10" viewBox="0 0 13 10" fill="none" xmlns="http://www.w3.org/2000/svg">
<path fill-rule="evenodd" clip-rule="evenodd" d="M3.65518 0.588379C3.98005 0.588379 4.24341 0.85174 4.24341 1.17661L4.24341 9.41187C4.24341 9.73674 3.98005 10.0001 3.65518 10.0001C3.3303 10.0001 3.06694 9.73674 3.06694 9.41187L3.06694 1.17661C3.06694 0.85174 3.3303 0.588379 3.65518 0.588379Z" fill="#722A2A"/>
<path fill-rule="evenodd" clip-rule="evenodd" d="M9.34145 9.41162C9.66633 9.41162 9.92969 9.14826 9.92969 8.82339L9.92969 0.588133C9.92969 0.263262 9.66633 -9.91706e-05 9.34145 -9.91564e-05C9.01658 -9.91422e-05 8.75322 0.263262 8.75322 0.588133L8.75322 8.82339C8.75322 9.14826 9.01658 9.41162 9.34145 9.41162Z" fill="#722A2A"/>
<path fill-rule="evenodd" clip-rule="evenodd" d="M3.65524 0C3.82013 0 3.97745 0.0692034 4.08886 0.190749L6.24572 2.54368C6.46524 2.78316 6.44906 3.15526 6.20958 3.37478C5.9701 3.5943 5.598 3.57813 5.37848 3.33865L3.65524 1.45875L1.93201 3.33865C1.71249 3.57813 1.34039 3.5943 1.10091 3.37478C0.861428 3.15526 0.84525 2.78316 1.06477 2.54368L3.22163 0.190749C3.33304 0.0692034 3.49036 0 3.65524 0Z" fill="#722A2A"/>
<path fill-rule="evenodd" clip-rule="evenodd" d="M9.34128 10C9.50617 10 9.66348 9.9308 9.7749 9.80925L11.9318 7.45632C12.1513 7.21684 12.1351 6.84474 11.8956 6.62522C11.6561 6.4057 11.284 6.42187 11.0645 6.66135L9.34128 8.54125L7.61805 6.66135C7.39852 6.42187 7.02642 6.4057 6.78694 6.62522C6.54746 6.84474 6.53129 7.21684 6.75081 7.45632L8.90766 9.80925C9.01908 9.9308 9.17639 10 9.34128 10Z" fill="#722A2A"/>
</svg>
