<svg width="13" height="14" viewBox="0 0 13 14" fill="none" xmlns="http://www.w3.org/2000/svg">
<path fill-rule="evenodd" clip-rule="evenodd" d="M12.0714 6C12.0714 3.53445 10.2869 1.4857 7.93894 1.07498C7.75567 0.453553 7.1808 0 6.5 0C5.81919 0 5.24432 0.453557 5.06106 1.07499C2.71315 1.48572 0.928589 3.53446 0.928589 6V8.67703C0.373478 8.99814 0 9.59832 0 10.2857C0 11.3114 0.831472 12.1429 1.85714 12.1429H5.04277C5.01482 12.2573 5 12.3769 5 12.5C5 13.3284 5.67157 14 6.5 14C7.32843 14 8 13.3284 8 12.5C8 12.3769 7.98518 12.2573 7.95723 12.1429H11.1429C12.1685 12.1429 13 11.3114 13 10.2857C13 9.59833 12.6265 8.99816 12.0714 8.67705V6Z" fill="#722A2A"/>
</svg>
