<svg width="79" height="79" viewBox="0 0 79 79" fill="none" xmlns="http://www.w3.org/2000/svg">
<g filter="url(#filter0_ii_546_1891)">
<path fill-rule="evenodd" clip-rule="evenodd" d="M36.8864 0.482027C29.3944 -1.52546 21.6935 2.92066 19.686 10.4127L11.3257 41.6136C10.2772 45.5267 10.9893 49.4969 12.9763 52.683C12.8606 52.783 12.7442 52.8872 12.627 52.9955C12.4282 53.1793 12.219 53.3719 12.0009 53.5726C7.00018 58.1772 -2.65331 67.0659 1.5207 71.6643C4.06279 74.4649 6.50676 73.4051 9.42601 72.1391C11.3225 71.3167 13.4196 70.4073 15.8745 70.4128C20.463 70.4232 22.2908 72.3906 24.1174 74.3568C25.9464 76.3256 27.7742 78.2931 32.3714 78.2931C36.9679 78.2931 38.4481 75.3027 39.9309 72.3072C40.8366 70.4774 41.7433 68.6458 43.3617 67.4926C46.547 65.2231 47.6393 66.4556 49.2759 68.3022C50.9781 70.2228 53.2692 72.8078 59.1164 72.8078C61.4428 72.8078 64.3163 69.5168 66.4945 67.0221C67.1506 66.2707 67.7436 65.5915 68.2396 65.0962C69.5077 63.8301 71.3325 63.4023 72.9972 63.0121C75.276 62.4779 77.255 62.0139 77.096 59.5664C76.9649 57.5471 74.0858 56.9133 69.7359 56.952L78.018 26.0427C80.0255 18.5507 75.5793 10.8498 68.0873 8.84227L36.8864 0.482027Z" fill="#F9F9F9"/>
</g>
<g filter="url(#filter1_dii_546_1891)">
<path d="M19.0117 39.489C19.0117 42.2151 16.8014 44.4251 14.0749 44.4251C11.3484 44.4251 9.13818 42.2151 9.13818 39.489C9.13818 36.7628 11.3484 34.5529 14.0749 34.5529C16.8014 34.5529 19.0117 36.7628 19.0117 39.489Z" fill="#202020"/>
</g>
<g filter="url(#filter2_dii_546_1891)">
<path d="M63.4355 51.8293C63.4355 54.5555 61.2255 56.7654 58.4994 56.7654C55.7732 56.7654 53.5632 54.5555 53.5632 51.8293C53.5632 49.1032 55.7732 46.8932 58.4994 46.8932C61.2255 46.8932 63.4355 49.1032 63.4355 51.8293Z" fill="#202020"/>
</g>
<g filter="url(#filter3_ii_546_1891)">
<path d="M15.2597 56.78C15.2597 62.2403 12.5081 66.6668 9.11387 66.6668C5.71961 66.6668 2.96802 62.2403 2.96802 56.78C2.96802 51.3197 5.71961 46.8932 9.11387 46.8932C12.5081 46.8932 15.2597 51.3197 15.2597 56.78Z" fill="#202020"/>
</g>
<g filter="url(#filter4_ii_546_1891)">
<path d="M38.7744 56.78C38.7744 62.2403 36.0228 66.6668 32.6285 66.6668C29.2343 66.6668 26.4827 62.2403 26.4827 56.78C26.4827 51.3197 29.2343 46.8932 32.6285 46.8932C36.0228 46.8932 38.7744 51.3197 38.7744 56.78Z" fill="#202020"/>
</g>
<g filter="url(#filter5_ii_546_1891)">
<path d="M31.0178 29.4688C30.3302 32.0346 28.8484 33.867 27.708 33.5614C26.5677 33.2558 26.2005 30.9281 26.8881 28.3622C27.5756 25.7964 29.0574 23.964 30.1978 24.2696C31.3382 24.5751 31.7053 26.9029 31.0178 29.4688Z" fill="#202020"/>
</g>
<g filter="url(#filter6_ii_546_1891)">
<path d="M53.731 35.5548C53.0435 38.1207 51.5617 39.953 50.4213 39.6475C49.2809 39.3419 48.9138 37.0141 49.6013 34.4483C50.2888 31.8824 51.7707 30.0501 52.911 30.3556C54.0514 30.6612 54.4185 32.989 53.731 35.5548Z" fill="#202020"/>
</g>
<defs>
<filter id="filter0_ii_546_1891" x="-4.5" y="-5" width="88" height="88.2931" filterUnits="userSpaceOnUse" color-interpolation-filters="sRGB">
<feFlood flood-opacity="0" result="BackgroundImageFix"/>
<feBlend mode="normal" in="SourceGraphic" in2="BackgroundImageFix" result="shape"/>
<feColorMatrix in="SourceAlpha" type="matrix" values="0 0 0 0 0 0 0 0 0 0 0 0 0 0 0 0 0 0 127 0" result="hardAlpha"/>
<feOffset dx="-5" dy="-5"/>
<feGaussianBlur stdDeviation="2.5"/>
<feComposite in2="hardAlpha" operator="arithmetic" k2="-1" k3="1"/>
<feColorMatrix type="matrix" values="0 0 0 0 0 0 0 0 0 0 0 0 0 0 0 0 0 0 0.2 0"/>
<feBlend mode="normal" in2="shape" result="effect1_innerShadow_546_1891"/>
<feColorMatrix in="SourceAlpha" type="matrix" values="0 0 0 0 0 0 0 0 0 0 0 0 0 0 0 0 0 0 127 0" result="hardAlpha"/>
<feOffset dx="5" dy="5"/>
<feGaussianBlur stdDeviation="2.5"/>
<feComposite in2="hardAlpha" operator="arithmetic" k2="-1" k3="1"/>
<feColorMatrix type="matrix" values="0 0 0 0 1 0 0 0 0 1 0 0 0 0 1 0 0 0 0.2 0"/>
<feBlend mode="normal" in2="effect1_innerShadow_546_1891" result="effect2_innerShadow_546_1891"/>
</filter>
<filter id="filter1_dii_546_1891" x="8.13818" y="33.5529" width="14.8734" height="13.8722" filterUnits="userSpaceOnUse" color-interpolation-filters="sRGB">
<feFlood flood-opacity="0" result="BackgroundImageFix"/>
<feColorMatrix in="SourceAlpha" type="matrix" values="0 0 0 0 0 0 0 0 0 0 0 0 0 0 0 0 0 0 127 0" result="hardAlpha"/>
<feOffset dx="2" dy="1"/>
<feGaussianBlur stdDeviation="1"/>
<feComposite in2="hardAlpha" operator="out"/>
<feColorMatrix type="matrix" values="0 0 0 0 0 0 0 0 0 0 0 0 0 0 0 0 0 0 0.1 0"/>
<feBlend mode="normal" in2="BackgroundImageFix" result="effect1_dropShadow_546_1891"/>
<feBlend mode="normal" in="SourceGraphic" in2="effect1_dropShadow_546_1891" result="shape"/>
<feColorMatrix in="SourceAlpha" type="matrix" values="0 0 0 0 0 0 0 0 0 0 0 0 0 0 0 0 0 0 127 0" result="hardAlpha"/>
<feOffset dx="-1" dy="-1"/>
<feGaussianBlur stdDeviation="0.5"/>
<feComposite in2="hardAlpha" operator="arithmetic" k2="-1" k3="1"/>
<feColorMatrix type="matrix" values="0 0 0 0 0 0 0 0 0 0 0 0 0 0 0 0 0 0 0.2 0"/>
<feBlend mode="normal" in2="shape" result="effect2_innerShadow_546_1891"/>
<feColorMatrix in="SourceAlpha" type="matrix" values="0 0 0 0 0 0 0 0 0 0 0 0 0 0 0 0 0 0 127 0" result="hardAlpha"/>
<feOffset dx="1" dy="1"/>
<feGaussianBlur stdDeviation="0.5"/>
<feComposite in2="hardAlpha" operator="arithmetic" k2="-1" k3="1"/>
<feColorMatrix type="matrix" values="0 0 0 0 1 0 0 0 0 1 0 0 0 0 1 0 0 0 0.2 0"/>
<feBlend mode="normal" in2="effect2_innerShadow_546_1891" result="effect3_innerShadow_546_1891"/>
</filter>
<filter id="filter2_dii_546_1891" x="49.5632" y="45.8932" width="14.8722" height="13.8722" filterUnits="userSpaceOnUse" color-interpolation-filters="sRGB">
<feFlood flood-opacity="0" result="BackgroundImageFix"/>
<feColorMatrix in="SourceAlpha" type="matrix" values="0 0 0 0 0 0 0 0 0 0 0 0 0 0 0 0 0 0 127 0" result="hardAlpha"/>
<feOffset dx="-2" dy="1"/>
<feGaussianBlur stdDeviation="1"/>
<feComposite in2="hardAlpha" operator="out"/>
<feColorMatrix type="matrix" values="0 0 0 0 0 0 0 0 0 0 0 0 0 0 0 0 0 0 0.1 0"/>
<feBlend mode="normal" in2="BackgroundImageFix" result="effect1_dropShadow_546_1891"/>
<feBlend mode="normal" in="SourceGraphic" in2="effect1_dropShadow_546_1891" result="shape"/>
<feColorMatrix in="SourceAlpha" type="matrix" values="0 0 0 0 0 0 0 0 0 0 0 0 0 0 0 0 0 0 127 0" result="hardAlpha"/>
<feOffset dx="-1" dy="-1"/>
<feGaussianBlur stdDeviation="0.5"/>
<feComposite in2="hardAlpha" operator="arithmetic" k2="-1" k3="1"/>
<feColorMatrix type="matrix" values="0 0 0 0 0 0 0 0 0 0 0 0 0 0 0 0 0 0 0.2 0"/>
<feBlend mode="normal" in2="shape" result="effect2_innerShadow_546_1891"/>
<feColorMatrix in="SourceAlpha" type="matrix" values="0 0 0 0 0 0 0 0 0 0 0 0 0 0 0 0 0 0 127 0" result="hardAlpha"/>
<feOffset dx="1" dy="1"/>
<feGaussianBlur stdDeviation="0.5"/>
<feComposite in2="hardAlpha" operator="arithmetic" k2="-1" k3="1"/>
<feColorMatrix type="matrix" values="0 0 0 0 1 0 0 0 0 1 0 0 0 0 1 0 0 0 0.2 0"/>
<feBlend mode="normal" in2="effect2_innerShadow_546_1891" result="effect3_innerShadow_546_1891"/>
</filter>
<filter id="filter3_ii_546_1891" x="0.968018" y="44.8932" width="16.2917" height="23.7737" filterUnits="userSpaceOnUse" color-interpolation-filters="sRGB">
<feFlood flood-opacity="0" result="BackgroundImageFix"/>
<feBlend mode="normal" in="SourceGraphic" in2="BackgroundImageFix" result="shape"/>
<feColorMatrix in="SourceAlpha" type="matrix" values="0 0 0 0 0 0 0 0 0 0 0 0 0 0 0 0 0 0 127 0" result="hardAlpha"/>
<feOffset dx="-2" dy="-2"/>
<feGaussianBlur stdDeviation="1"/>
<feComposite in2="hardAlpha" operator="arithmetic" k2="-1" k3="1"/>
<feColorMatrix type="matrix" values="0 0 0 0 0 0 0 0 0 0 0 0 0 0 0 0 0 0 0.2 0"/>
<feBlend mode="normal" in2="shape" result="effect1_innerShadow_546_1891"/>
<feColorMatrix in="SourceAlpha" type="matrix" values="0 0 0 0 0 0 0 0 0 0 0 0 0 0 0 0 0 0 127 0" result="hardAlpha"/>
<feOffset dx="2" dy="2"/>
<feGaussianBlur stdDeviation="1"/>
<feComposite in2="hardAlpha" operator="arithmetic" k2="-1" k3="1"/>
<feColorMatrix type="matrix" values="0 0 0 0 1 0 0 0 0 1 0 0 0 0 1 0 0 0 0.2 0"/>
<feBlend mode="normal" in2="effect1_innerShadow_546_1891" result="effect2_innerShadow_546_1891"/>
</filter>
<filter id="filter4_ii_546_1891" x="24.4827" y="44.8932" width="16.2917" height="23.7737" filterUnits="userSpaceOnUse" color-interpolation-filters="sRGB">
<feFlood flood-opacity="0" result="BackgroundImageFix"/>
<feBlend mode="normal" in="SourceGraphic" in2="BackgroundImageFix" result="shape"/>
<feColorMatrix in="SourceAlpha" type="matrix" values="0 0 0 0 0 0 0 0 0 0 0 0 0 0 0 0 0 0 127 0" result="hardAlpha"/>
<feOffset dx="-2" dy="-2"/>
<feGaussianBlur stdDeviation="1"/>
<feComposite in2="hardAlpha" operator="arithmetic" k2="-1" k3="1"/>
<feColorMatrix type="matrix" values="0 0 0 0 0 0 0 0 0 0 0 0 0 0 0 0 0 0 0.2 0"/>
<feBlend mode="normal" in2="shape" result="effect1_innerShadow_546_1891"/>
<feColorMatrix in="SourceAlpha" type="matrix" values="0 0 0 0 0 0 0 0 0 0 0 0 0 0 0 0 0 0 127 0" result="hardAlpha"/>
<feOffset dx="2" dy="2"/>
<feGaussianBlur stdDeviation="1"/>
<feComposite in2="hardAlpha" operator="arithmetic" k2="-1" k3="1"/>
<feColorMatrix type="matrix" values="0 0 0 0 1 0 0 0 0 1 0 0 0 0 1 0 0 0 0.2 0"/>
<feBlend mode="normal" in2="effect1_innerShadow_546_1891" result="effect2_innerShadow_546_1891"/>
</filter>
<filter id="filter5_ii_546_1891" x="25.5415" y="23.2363" width="6.82288" height="11.3584" filterUnits="userSpaceOnUse" color-interpolation-filters="sRGB">
<feFlood flood-opacity="0" result="BackgroundImageFix"/>
<feBlend mode="normal" in="SourceGraphic" in2="BackgroundImageFix" result="shape"/>
<feColorMatrix in="SourceAlpha" type="matrix" values="0 0 0 0 0 0 0 0 0 0 0 0 0 0 0 0 0 0 127 0" result="hardAlpha"/>
<feOffset dx="-1" dy="-1"/>
<feGaussianBlur stdDeviation="0.5"/>
<feComposite in2="hardAlpha" operator="arithmetic" k2="-1" k3="1"/>
<feColorMatrix type="matrix" values="0 0 0 0 1 0 0 0 0 1 0 0 0 0 1 0 0 0 0.2 0"/>
<feBlend mode="normal" in2="shape" result="effect1_innerShadow_546_1891"/>
<feColorMatrix in="SourceAlpha" type="matrix" values="0 0 0 0 0 0 0 0 0 0 0 0 0 0 0 0 0 0 127 0" result="hardAlpha"/>
<feOffset dx="1" dy="1"/>
<feGaussianBlur stdDeviation="0.5"/>
<feComposite in2="hardAlpha" operator="arithmetic" k2="-1" k3="1"/>
<feColorMatrix type="matrix" values="0 0 0 0 0 0 0 0 0 0 0 0 0 0 0 0 0 0 0.2 0"/>
<feBlend mode="normal" in2="effect1_innerShadow_546_1891" result="effect2_innerShadow_546_1891"/>
</filter>
<filter id="filter6_ii_546_1891" x="48.2548" y="29.3224" width="6.82288" height="11.3584" filterUnits="userSpaceOnUse" color-interpolation-filters="sRGB">
<feFlood flood-opacity="0" result="BackgroundImageFix"/>
<feBlend mode="normal" in="SourceGraphic" in2="BackgroundImageFix" result="shape"/>
<feColorMatrix in="SourceAlpha" type="matrix" values="0 0 0 0 0 0 0 0 0 0 0 0 0 0 0 0 0 0 127 0" result="hardAlpha"/>
<feOffset dx="-1" dy="-1"/>
<feGaussianBlur stdDeviation="0.5"/>
<feComposite in2="hardAlpha" operator="arithmetic" k2="-1" k3="1"/>
<feColorMatrix type="matrix" values="0 0 0 0 1 0 0 0 0 1 0 0 0 0 1 0 0 0 0.2 0"/>
<feBlend mode="normal" in2="shape" result="effect1_innerShadow_546_1891"/>
<feColorMatrix in="SourceAlpha" type="matrix" values="0 0 0 0 0 0 0 0 0 0 0 0 0 0 0 0 0 0 127 0" result="hardAlpha"/>
<feOffset dx="1" dy="1"/>
<feGaussianBlur stdDeviation="0.5"/>
<feComposite in2="hardAlpha" operator="arithmetic" k2="-1" k3="1"/>
<feColorMatrix type="matrix" values="0 0 0 0 0 0 0 0 0 0 0 0 0 0 0 0 0 0 0.2 0"/>
<feBlend mode="normal" in2="effect1_innerShadow_546_1891" result="effect2_innerShadow_546_1891"/>
</filter>
</defs>
</svg>
