<svg width="14" height="14" viewBox="0 0 14 14" fill="none" xmlns="http://www.w3.org/2000/svg">
<path fill-rule="evenodd" clip-rule="evenodd" d="M10.5 4.5C10.7761 4.22386 10.7761 3.77614 10.5 3.5C10.2239 3.22386 9.77614 3.22386 9.5 3.5L7 6L4.5 3.5C4.22386 3.22386 3.77614 3.22386 3.5 3.5C3.22386 3.77614 3.22386 4.22386 3.5 4.5L6 7L3.5 9.5C3.22386 9.77614 3.22386 10.2239 3.5 10.5C3.77614 10.7761 4.22386 10.7761 4.5 10.5L7 8L9.5 10.5C9.77614 10.7761 10.2239 10.7761 10.5 10.5C10.7761 10.2239 10.7761 9.77614 10.5 9.5L8 7L10.5 4.5Z" fill="#722A2A"/>
</svg>
