<svg width="31" height="34" viewBox="0 0 31 34" fill="none" xmlns="http://www.w3.org/2000/svg">
<path fill-rule="evenodd" clip-rule="evenodd" d="M24.8091 8.13695C24.8091 11.1329 22.3804 13.5616 19.3845 13.5616C16.3886 13.5616 13.9599 11.1329 13.9599 8.13695C13.9599 5.14101 16.3886 2.71232 19.3845 2.71232C22.3804 2.71232 24.8091 5.14101 24.8091 8.13695ZM24.0992 14.7696C22.769 15.7168 21.1418 16.2739 19.3845 16.2739C14.8906 16.2739 11.2476 12.6309 11.2476 8.13695C11.2476 3.64303 14.8906 0 19.3845 0C23.8784 0 27.5215 3.64303 27.5215 8.13695C27.5215 9.89433 26.9643 11.5216 26.0171 12.8518L30.2887 17.1234C30.8183 17.653 30.8183 18.5117 30.2887 19.0413C29.7591 19.5709 28.9004 19.5709 28.3708 19.0413L24.0992 14.7696Z" fill="#909090" fill-opacity="0.2"/>
<path fill-rule="evenodd" clip-rule="evenodd" d="M21.3388 12.1077C20.7494 12.3983 20.086 12.5616 19.3845 12.5616C16.9408 12.5616 14.9599 10.5806 14.9599 8.13695C14.9599 6.28706 16.0951 4.70232 17.7069 4.04141C18.7303 4.19577 19.6525 4.77408 20.236 5.64926L21.1438 7.01104C21.2781 7.21239 21.504 7.33334 21.746 7.33334C22.1458 7.33334 22.4698 7.65738 22.4698 8.0571V11.1808C22.4698 11.2307 22.4637 11.2792 22.4521 11.3255C22.2809 11.4903 22.0964 11.6414 21.9004 11.7772C21.8913 11.7776 21.8821 11.7778 21.8728 11.7778C21.6416 11.7778 21.4376 11.9101 21.3388 12.1077ZM11.2356 4H5.56305C4.32471 4 3.16829 4.61889 2.48138 5.64926L1.57353 7.01104C1.43929 7.21239 1.21331 7.33334 0.97132 7.33334C0.571598 7.33334 0.247559 7.65737 0.247559 8.0571V11.1808C0.247559 11.5105 0.51484 11.7778 0.844548 11.7778C1.14006 11.7778 1.3911 11.994 1.43493 12.2862L4.21886 30.8457C4.49081 32.6587 6.04826 34 7.88158 34H14.8358C16.6691 34 18.2265 32.6587 18.4985 30.8457L20.5452 17.2008C20.165 17.249 19.7776 17.2739 19.3845 17.2739C14.3383 17.2739 10.2476 13.1831 10.2476 8.13695C10.2476 6.64792 10.6037 5.24209 11.2356 4Z" fill="#909090" fill-opacity="0.2"/>
</svg>
