<svg width="17" height="18" viewBox="0 0 17 18" fill="none" xmlns="http://www.w3.org/2000/svg">
<rect x="1" y="1.40674" width="11.6923" height="15.125" rx="3" fill="#722A2A" stroke="white" stroke-width="2"/>
<path fill-rule="evenodd" clip-rule="evenodd" d="M7.87735 8.31641C7.78675 8.40842 7.71849 8.52059 7.67798 8.64404L7.09439 10.4222C6.87933 11.0774 7.49314 11.7008 8.13834 11.4824L9.8891 10.8897C10.0106 10.8486 10.1211 10.7792 10.2117 10.6872L15.3262 5.49281C15.6485 5.16547 15.6485 4.63474 15.3262 4.3074L14.159 3.12199C13.8367 2.79465 13.3142 2.79465 12.9919 3.12199L7.87735 8.31641Z" fill="#722A2A"/>
<path fill-rule="evenodd" clip-rule="evenodd" d="M6.31143 10.1567L6.89501 8.37863C6.97605 8.13173 7.11257 7.90738 7.29377 7.72335L12.4083 2.52894C13.0529 1.87426 14.098 1.87426 14.7426 2.52894L15.9098 3.71435C16.5544 4.36903 16.5544 5.43048 15.9098 6.08516L10.7953 11.2796C10.6141 11.4636 10.3932 11.6023 10.1501 11.6846L8.39933 12.2773C7.10893 12.7141 5.8813 11.4673 6.31143 10.1567ZM7.67798 8.6437C7.71849 8.52025 7.78675 8.40807 7.87735 8.31606L12.9919 3.12164C13.3142 2.7943 13.8367 2.7943 14.159 3.12164L15.3262 4.30705C15.6485 4.63439 15.6485 5.16512 15.3262 5.49246L10.2117 10.6869C10.1211 10.7789 10.0106 10.8482 9.8891 10.8894L8.13834 11.4821C7.49314 11.7005 6.87933 11.0771 7.09439 10.4218L7.67798 8.6437Z" fill="white"/>
</svg>
