<svg width="24" height="24" viewBox="0 0 24 24" fill="none" xmlns="http://www.w3.org/2000/svg">
<rect x="0.35" y="0.35" width="23.3" height="22.6909" rx="11.3455" fill="#722A2A" fill-opacity="0.1"/>
<rect x="0.35" y="0.35" width="23.3" height="22.6909" rx="11.3455" stroke="#722A2A" stroke-width="0.7"/>
<path d="M10.6803 9.06134L12 6.29568L13.3197 9.06134C13.5787 9.60402 14.0946 9.97886 14.6907 10.0574L17.7288 10.4579L15.5064 12.5677L16.1948 13.2929L15.5064 12.5677C15.0703 12.9817 14.8732 13.5882 14.9827 14.1794L15.5406 17.1926L12.8473 15.7308C12.3189 15.444 11.6811 15.444 11.1527 15.7308L8.45938 17.1926L9.01733 14.1794C9.12681 13.5882 8.92975 12.9817 8.49364 12.5677L6.27116 10.4579L9.30927 10.0574C9.90541 9.97886 10.4213 9.60403 10.6803 9.06134ZM18.0688 10.1352L18.0685 10.1355L18.0688 10.1352ZM5.93122 10.1352C5.9313 10.1353 5.93138 10.1354 5.93146 10.1355L5.93122 10.1352Z" fill="#722A2A" stroke="#722A2A" stroke-width="2"/>
</svg>
