<svg width="14" height="14" viewBox="0 0 14 14" fill="none" xmlns="http://www.w3.org/2000/svg">
<path d="M5.68029 4.06134L7 1.29568L8.31971 4.06134C8.57866 4.60402 9.09458 4.97886 9.69073 5.05745L12.7288 5.45793L10.5064 7.56768L11.1948 8.29294L10.5064 7.56768C10.0703 7.98166 9.87319 8.58816 9.98267 9.17942L10.5406 12.1926L7.84734 10.7308C7.31886 10.444 6.68114 10.444 6.15266 10.7308L3.45938 12.1926L4.01733 9.17942C4.12681 8.58816 3.92975 7.98166 3.49364 7.56768L1.27116 5.45793L4.30927 5.05745C4.90541 4.97886 5.42134 4.60403 5.68029 4.06134ZM13.0688 5.13523L13.0685 5.13552L13.0688 5.13523ZM0.93122 5.13523C0.9313 5.13531 0.931379 5.13538 0.931459 5.13546L0.93122 5.13523Z" fill="#722A2A" stroke="#722A2A" stroke-width="2"/>
</svg>
