<svg width="11" height="14" viewBox="0 0 11 14" fill="none" xmlns="http://www.w3.org/2000/svg">
<path fill-rule="evenodd" clip-rule="evenodd" d="M2.96387 7.2526C2.95889 7.29273 2.94595 7.33254 2.92447 7.36976L1.52342 9.79645C1.3849 10.0364 1.29719 10.2917 1.25694 10.5499C1.2972 10.2917 1.38491 10.0364 1.52341 9.79648L2.92446 7.36979C2.94596 7.33256 2.95889 7.29274 2.96387 7.2526ZM7.1469 8.14844C7.13415 7.50881 6.83997 6.88837 6.31513 6.47662C6.23214 6.4115 6.18015 6.31528 6.17222 6.21625C6.18014 6.3153 6.23213 6.41153 6.31513 6.47665C6.83996 6.8884 7.13414 7.50882 7.1469 8.14844ZM7.73878 8.60976C7.68792 8.94601 7.57456 9.27858 7.39425 9.59088L5.83753 12.2872C5.06375 13.6274 3.35002 14.0866 2.00979 13.3128C1.17874 12.833 0.686446 11.9918 0.616824 11.1023C0.686436 11.9918 1.17873 12.8331 2.00979 13.3129C3.35001 14.0867 5.06375 13.6275 5.83753 12.2872L7.39425 9.59092C7.57456 9.27861 7.68792 8.94602 7.73878 8.60976ZM6.58536 9.1239L5.02863 11.8202C4.51278 12.7137 3.37029 13.0198 2.47681 12.504C1.58332 11.9881 1.27719 10.8456 1.79305 9.95216L3.1941 7.52546C3.36605 7.22764 3.264 6.84681 2.96618 6.67485C2.66835 6.5029 2.28752 6.60495 2.11557 6.90277L0.714517 9.32947C-0.145237 10.8186 0.36498 12.7228 1.85412 13.5825C3.34325 14.4423 5.24741 13.9321 6.10716 12.4429L7.66388 9.74659C8.46537 8.35837 8.07633 6.60993 6.8136 5.68243C6.50694 5.45718 6.11009 5.58827 5.94331 5.87713C5.76666 6.18309 5.8877 6.53704 6.12295 6.7216C6.84248 7.28611 7.05591 8.30888 6.58536 9.1239Z" fill="#722A2A"/>
<path fill-rule="evenodd" clip-rule="evenodd" d="M8.33301 6.74755C8.33799 6.70743 8.35093 6.66761 8.37241 6.6304L9.77346 4.2037C9.90677 3.97281 9.99303 3.72765 10.0352 3.47935C9.99303 3.72764 9.90677 3.97278 9.77347 4.20367L8.37242 6.63036C8.35092 6.66759 8.33799 6.70741 8.33301 6.74755ZM4.14997 5.85172C4.16273 6.49135 4.45691 7.11178 4.98175 7.52354C5.06737 7.59071 5.11999 7.691 5.12528 7.79333C5.12 7.69099 5.06738 7.59069 4.98175 7.52351C4.45692 7.11176 4.16274 6.49134 4.14997 5.85172ZM3.55809 5.39039C3.60896 5.05415 3.72232 4.72157 3.90262 4.40927L5.45935 1.71295C6.23313 0.372723 7.94686 -0.0864724 9.28709 0.687307C10.1268 1.17211 10.6207 2.0259 10.6821 2.92563C10.6207 2.02589 10.1268 1.17209 9.28709 0.687275C7.94687 -0.0865041 6.23313 0.372691 5.45935 1.71292L3.90262 4.40924C3.72231 4.72155 3.60895 5.05414 3.55809 5.39039ZM4.71152 4.87626L6.26825 2.17993C6.7841 1.28645 7.92659 0.980319 8.82007 1.49617C9.71356 2.01202 10.0197 3.15452 9.50383 4.048L8.10278 6.47469C7.93083 6.77252 8.03288 7.15335 8.3307 7.3253C8.62853 7.49725 9.00936 7.39521 9.18131 7.09738L10.5824 4.67069C11.4421 3.18155 10.9319 1.2774 9.44276 0.417643C7.95362 -0.442112 6.04947 0.0681048 5.18972 1.55724L3.63299 4.25357C2.8315 5.64179 3.22055 7.39023 4.48328 8.31772C4.78994 8.54297 5.18679 8.41189 5.35357 8.12302C5.53021 7.81706 5.40918 7.46312 5.17393 7.27855C4.45439 6.71405 4.24097 5.69128 4.71152 4.87626Z" fill="#722A2A"/>
</svg>
