<svg width="27" height="29" viewBox="0 0 27 29" fill="none" xmlns="http://www.w3.org/2000/svg">
<circle cx="13.1641" cy="7.38095" r="7.38095" fill="#909090" fill-opacity="0.2"/>
<path d="M24.0809 28.6786C25.1854 28.6786 26.0967 27.778 25.9263 26.6866C25.7686 25.6759 25.4909 24.6851 25.0976 23.7356C24.4485 22.1685 23.4971 20.7446 22.2977 19.5452C21.0982 18.3457 19.6743 17.3943 18.1072 16.7452C16.5401 16.0961 14.8604 15.762 13.1642 15.762C11.468 15.762 9.78832 16.0961 8.2212 16.7452C6.65408 17.3943 5.23015 18.3457 4.03073 19.5452C2.83131 20.7446 1.87987 22.1685 1.23075 23.7356C0.83747 24.6851 0.559825 25.6759 0.40206 26.6866C0.23171 27.778 1.14296 28.6786 2.24753 28.6786H13.1642H24.0809Z" fill="#909090" fill-opacity="0.2"/>
</svg>
