<svg width="18" height="21" viewBox="0 0 18 21" fill="none" xmlns="http://www.w3.org/2000/svg">
<path fill-rule="evenodd" clip-rule="evenodd" d="M11.3311 2.72222C11.3311 1.49492 10.3362 0.5 9.10886 0.5C7.88156 0.5 6.88664 1.49492 6.88664 2.72222C6.88664 2.82933 6.89422 2.93467 6.90886 3.03773C5.85867 3.34685 4.90084 3.87164 4.08663 4.56084C3.68014 4.1139 3.09393 3.83333 2.44219 3.83333C1.21489 3.83333 0.219971 4.82826 0.219971 6.05556C0.219971 7.01994 0.834285 7.84085 1.69294 8.1483C1.45788 8.89022 1.33108 9.6803 1.33108 10.5C1.33108 11.3197 1.45788 12.1098 1.69294 12.8517C0.834286 13.1592 0.219971 13.9801 0.219971 14.9444C0.219971 16.1717 1.21489 17.1667 2.44219 17.1667C3.09393 17.1667 3.68014 16.8861 4.08663 16.4392C4.90084 17.1284 5.85867 17.6531 6.90887 17.9623C6.89422 18.0653 6.88664 18.1707 6.88664 18.2778C6.88664 19.5051 7.88156 20.5 9.10886 20.5C10.3362 20.5 11.3311 19.5051 11.3311 18.2778C11.3311 18.1707 11.3235 18.0653 11.3089 17.9623C12.359 17.6531 13.3169 17.1284 14.1311 16.4392C14.5376 16.8861 15.1238 17.1667 15.7755 17.1667C17.0028 17.1667 17.9977 16.1717 17.9977 14.9444C17.9977 13.9801 17.3834 13.1592 16.5248 12.8517C16.7598 12.1098 16.8866 11.3197 16.8866 10.5C16.8866 9.6803 16.7598 8.89022 16.5248 8.1483C17.3834 7.84085 17.9977 7.01994 17.9977 6.05556C17.9977 4.82826 17.0028 3.83333 15.7755 3.83333C15.1238 3.83333 14.5376 4.1139 14.1311 4.56084C13.3169 3.87164 12.3591 3.34685 11.3089 3.03773C11.3235 2.93467 11.3311 2.82933 11.3311 2.72222ZM5.99775 10.5C5.99775 12.2182 7.39064 13.6111 9.10886 13.6111C10.8271 13.6111 12.22 12.2182 12.22 10.5C12.22 8.78178 10.8271 7.38889 9.10886 7.38889C7.39064 7.38889 5.99775 8.78178 5.99775 10.5Z" fill="#722A2A"/>
</svg>
