<svg width="372" height="150" viewBox="0 0 372 150" fill="none" xmlns="http://www.w3.org/2000/svg">
<g filter="url(#filter0_d_1148_16368)">
<rect x="10" y="10" width="352" height="130" rx="20" fill="white" shape-rendering="crispEdges"/>
<path d="M119.594 59.2441C115.492 59.2441 113.1 55.9482 113.1 50.1621C113.1 44.4248 115.541 41.0801 119.594 41.0801C123.646 41.0801 126.088 44.4248 126.088 50.1621C126.088 55.9482 123.671 59.2441 119.594 59.2441ZM119.594 56.9248C121.986 56.9248 123.402 54.5811 123.402 50.1621C123.402 45.7676 121.962 43.3506 119.594 43.3506C117.226 43.3506 115.785 45.7676 115.785 50.1621C115.785 54.5811 117.201 56.9248 119.594 56.9248ZM128.246 59V57.0469L134.374 50.8701C136.303 48.8438 137.279 47.7207 137.279 46.1826C137.279 44.4492 135.863 43.3262 134.008 43.3262C132.055 43.3262 130.785 44.5713 130.785 46.4512H128.246C128.222 43.2285 130.688 41.0801 134.057 41.0801C137.475 41.0801 139.818 43.2285 139.843 46.1094C139.818 48.0869 138.891 49.6494 135.57 52.9209L131.981 56.5586V56.7051H140.136V59H128.246ZM150.326 49.0391V51.2852H142.489V49.0391H150.326ZM159.54 41.3242V59H156.83V44.0098H156.732L152.509 46.7686V44.2051L156.903 41.3242H159.54ZM163.407 59V57.0469L169.535 50.8701C171.464 48.8438 172.44 47.7207 172.44 46.1826C172.44 44.4492 171.024 43.3262 169.169 43.3262C167.216 43.3262 165.946 44.5713 165.946 46.4512H163.407C163.383 43.2285 165.849 41.0801 169.218 41.0801C172.636 41.0801 174.979 43.2285 175.004 46.1094C174.979 48.0869 174.052 49.6494 170.731 52.9209L167.143 56.5586V56.7051H175.297V59H163.407ZM183.925 59.2441C180.263 59.2441 177.65 57.2666 177.553 54.3857H180.287C180.385 55.9482 181.923 56.9248 183.9 56.9248C186.024 56.9248 187.587 55.7529 187.587 54.0439C187.587 52.3105 186.122 51.041 183.607 51.041H182.094V48.8438H183.607C185.609 48.8438 187.025 47.7207 187.025 46.0361C187.025 44.4248 185.829 43.3262 183.949 43.3262C182.167 43.3262 180.604 44.3027 180.531 45.9141H177.943C178.017 43.0332 180.678 41.0801 183.974 41.0801C187.44 41.0801 189.638 43.2773 189.613 45.8896C189.638 47.8916 188.393 49.3564 186.488 49.8203V49.9424C188.905 50.2842 190.297 51.8955 190.297 54.1416C190.297 57.0957 187.587 59.2441 183.925 59.2441ZM200.463 49.0391V51.2852H192.626V49.0391H200.463ZM202.572 55.5576V53.3848L210.385 41.3242H213.705V53.2871H216.122V55.5576H213.705V59H211.166V55.5576H202.572ZM205.404 53.2871H211.166V44.5225H210.971L205.404 53.1406V53.2871ZM224.213 59.2441C220.868 59.2441 218.354 57.1934 218.231 54.3857H220.844C220.99 55.8994 222.431 56.998 224.213 56.998C226.361 56.998 227.899 55.4355 227.899 53.3359C227.899 51.1875 226.312 49.625 224.091 49.6006C222.675 49.6006 221.601 50.0645 220.99 51.1631H218.451L219.599 41.3242H229.608V43.6191H221.82L221.234 48.5752H221.405C222.138 47.8672 223.383 47.3789 224.726 47.3789C228.046 47.3789 230.512 49.8447 230.512 53.2627C230.512 56.7539 227.899 59.2441 224.213 59.2441ZM239.14 59.2441C235.868 59.2197 232.45 57.291 232.45 50.748C232.45 44.5957 235.111 41.0801 239.359 41.0801C242.606 41.0801 244.877 43.1064 245.292 45.9141H242.631C242.289 44.4736 241.142 43.4238 239.359 43.4238C236.625 43.4238 235.038 45.8164 235.038 49.7959H235.233C236.186 48.3066 237.846 47.4033 239.774 47.4033C242.924 47.4033 245.463 49.8203 245.463 53.2139C245.463 56.6318 242.948 59.2686 239.14 59.2441ZM239.115 56.998C241.264 56.998 242.851 55.3379 242.851 53.2627C242.851 51.2363 241.312 49.6006 239.188 49.6006C237.016 49.6006 235.38 51.3096 235.355 53.2871C235.38 55.2402 236.942 56.998 239.115 56.998ZM248.305 59L256.19 43.7656V43.6191H247.084V41.3242H258.974V43.7168L251.112 59H248.305Z" fill="#121212"/>
<path d="M82.3863 85.1055V86.1582H77.5191V88.5371H76.234V86.1582H71.1754V85.1055H82.3863ZM80.9371 79.4863V83.834H72.6109V79.4863H80.9371ZM73.8824 80.5117V82.8086H79.652V80.5117H73.8824ZM81.1422 89.8496V90.9023H72.5699V87.375H73.8688V89.8496H81.1422ZM86.9309 79.7871C88.8723 79.7734 90.2531 80.9766 90.2668 82.6992C90.2531 84.4219 88.8723 85.625 86.9309 85.625C85.0031 85.625 83.5813 84.4219 83.5949 82.6992C83.5813 80.9766 85.0031 79.7734 86.9309 79.7871ZM86.9309 80.9082C85.7414 80.9082 84.8664 81.6191 84.8801 82.6992C84.8664 83.7793 85.7414 84.4902 86.9309 84.4902C88.1203 84.4902 88.9953 83.7793 88.9953 82.6992C88.9953 81.6191 88.1203 80.9082 86.9309 80.9082ZM93.0695 78.9121V91.1895H91.7707V78.9121H93.0695ZM83.007 87.4707C85.2355 87.4707 88.3254 87.4434 91.0051 87.0605L91.1008 88.0039C88.3254 88.5371 85.3586 88.5508 83.1711 88.5508L83.007 87.4707ZM102.008 82.0293C101.995 84.2031 103.252 86.418 105.084 87.3066L104.278 88.3457C102.945 87.6553 101.913 86.2812 101.379 84.6406C100.826 86.3906 99.7523 87.8535 98.3578 88.5781L97.5512 87.5254C99.4379 86.623 100.709 84.2715 100.709 82.0293V79.9375H102.008V82.0293ZM107.299 78.9121V83.793H109.268V84.9004H107.299V91.1621H106V78.9121H107.299ZM119.131 78.9121V82.2344H120.908V83.3281H119.131V86.7734H117.832V78.9121H119.131ZM115.221 86.8691C117.723 86.8691 119.268 87.6621 119.268 89.0156C119.268 90.3418 117.723 91.1484 115.221 91.1348C112.691 91.1484 111.146 90.3418 111.16 89.0156C111.146 87.6621 112.691 86.8691 115.221 86.8691ZM115.221 87.8672C113.457 87.8672 112.432 88.2637 112.445 89.0156C112.432 89.7266 113.457 90.1504 115.221 90.1504C116.957 90.1504 117.982 89.7266 117.982 89.0156C117.982 88.2637 116.957 87.8672 115.221 87.8672ZM116.82 80.2246V81.25H109.52V80.2246H112.527V78.8164H113.826V80.2246H116.82ZM113.17 81.8105C114.934 81.8105 116.137 82.6855 116.137 83.998C116.137 85.3105 114.934 86.1719 113.17 86.1582C111.379 86.1719 110.189 85.3105 110.189 83.998C110.189 82.6855 111.379 81.8105 113.17 81.8105ZM113.17 82.7812C112.131 82.7812 111.434 83.2461 111.447 83.998C111.434 84.7227 112.131 85.1738 113.17 85.1738C114.209 85.1738 114.906 84.7227 114.92 83.998C114.906 83.2461 114.209 82.7812 113.17 82.7812ZM131.796 78.9121V91.1621H130.552V78.9121H131.796ZM129.308 79.1445V90.5605H128.064V84.6543H126.683C126.574 87.0469 125.548 88.5371 124.031 88.5234C122.431 88.5371 121.392 86.8555 121.392 84.2031C121.392 81.5508 122.431 79.8828 124.031 79.8965C125.521 79.8828 126.533 81.2979 126.683 83.6016H128.064V79.1445H129.308ZM124.031 81.1133C123.142 81.1133 122.595 82.248 122.595 84.2031C122.595 86.1582 123.142 87.293 124.031 87.293C124.933 87.293 125.494 86.1582 125.494 84.2031C125.494 82.248 124.933 81.1133 124.031 81.1133ZM146.587 78.9121V91.1621H145.343V84.832H143.757V90.5332H142.567V79.1582H143.757V83.7656H145.343V78.9121H146.587ZM141.077 80.3887V81.4414H137.782V87.1152C139.286 87.1016 140.421 87.0332 141.733 86.7871L141.829 87.8535C140.352 88.1543 139.095 88.209 137.304 88.2227H136.483V80.3887H141.077ZM153.879 80.9355V81.9883H147.795V80.9355H150.202V79.2676H151.487V80.9355H153.879ZM150.844 82.7266C152.403 82.7266 153.496 83.8887 153.51 85.543C153.496 87.2109 152.403 88.3867 150.844 88.3867C149.313 88.3867 148.178 87.2109 148.192 85.543C148.178 83.8887 149.313 82.7266 150.844 82.7266ZM150.844 83.8066C149.955 83.8066 149.34 84.5312 149.34 85.543C149.34 86.582 149.955 87.2793 150.844 87.2793C151.719 87.2793 152.362 86.582 152.362 85.543C152.362 84.5312 151.719 83.8066 150.844 83.8066ZM158.309 78.9121V91.1621H157.079V85.0781H155.67V90.5879H154.44V79.1855H155.67V84.0117H157.079V78.9121H158.309ZM172.566 78.9121V83.6152H174.097V84.709H172.566V91.1621H171.281V78.9121H172.566ZM163.925 80.0332V83.0957H165.224V80.0332H166.304V88.2363H162.845V80.0332H163.925ZM163.925 87.1562H165.224V84.1348H163.925V87.1562ZM167.986 80.0332V83.0957H169.257V80.0332H170.338V88.2363H166.906V80.0332H167.986ZM167.986 87.1562H169.257V84.1348H167.986V87.1562ZM185.601 88.5918V89.6582H174.39V88.5918H185.601ZM184.234 79.8145V83.6426H177.042V85.4336H184.521V86.4727H175.757V82.5898H182.948V80.8672H175.73V79.8145H184.234ZM196.667 78.9121V91.1621H195.436V78.9121H196.667ZM194.083 79.2266V90.5605H192.852V84.873H190.46C189.728 86.2949 188.566 87.5391 186.837 88.5508L186.098 87.6211C188.696 86.0762 189.947 84.0186 190.173 81.4961H186.673V80.4297H191.458C191.451 81.626 191.287 82.7676 190.911 83.834H192.852V79.2266H194.083ZM210.582 78.9121V81.7148H212.359V82.7949H210.582V85.4473H209.283V78.9121H210.582ZM206.945 79.6914V80.7578H202.789V84.0117C205.175 84.0049 206.521 83.9297 208.053 83.6016L208.203 84.6543C206.549 84.9961 205.1 85.0781 202.475 85.0781H201.504V79.6914H206.945ZM204.02 86.0898V87.4844H209.283V86.0898H210.582V90.9707H202.734V86.0898H204.02ZM204.02 89.918H209.283V88.5098H204.02V89.918ZM222.92 78.9258V87.9766H221.621V84.791H218.941V85.9395H213.295V79.7324H214.593V81.8105H217.656V79.7324H218.941V81.0996H221.621V78.9258H222.92ZM223.193 89.8496V90.9023H214.921V87.0879H216.234V89.8496H223.193ZM214.593 84.8867H217.656V82.8086H214.593V84.8867ZM218.941 83.7383H221.621V82.166H218.941V83.7383ZM237.45 84.7227V85.7891H228.919V80.0059H237.341V81.0723H230.204V84.7227H237.45ZM238.735 88.4688V89.5488H227.524V88.4688H238.735ZM249.446 78.9121V91.1895H248.147V78.9121H249.446ZM245.7 80.0195V84.4902H241.297V87.1699C243.28 87.1631 245.016 87.0742 247.067 86.7324L247.19 87.7988C245.016 88.168 243.17 88.25 241.01 88.25H239.971V83.4512H244.373V81.0723H239.957V80.0195H245.7ZM256.451 79.8008C256.451 80.71 256.301 81.5439 256.014 82.3027H257.75V79.1719H258.98V85.7754H257.75V83.3555H255.467C254.688 84.5654 253.45 85.5293 251.762 86.2402L251.105 85.2695C253.532 84.3057 254.872 82.8018 255.111 80.8535H251.666V79.8008H256.451ZM261.469 78.9258V85.9668H260.238V78.9258H261.469ZM255.385 87.1016C255.371 88.1611 255.897 89.2686 257.012 89.9453C258.126 89.207 258.666 88.0176 258.68 87.1016V86.3633H259.938V87.1016C259.938 88.373 260.785 89.6309 262.371 90.1504L261.742 91.1074C260.525 90.6768 259.705 89.8564 259.281 88.8379C258.892 89.8223 258.167 90.7314 257.025 91.2031C255.856 90.7588 255.125 89.877 254.756 88.8652C254.312 89.8496 253.498 90.6699 252.35 91.1074L251.693 90.1504C253.266 89.5898 254.141 88.291 254.141 87.1016V86.3633H255.385V87.1016ZM265.439 86.2539V87.5527H271.195V86.2539H272.494V91.0117H264.154V86.2539H265.439ZM265.439 89.9727H271.195V88.5645H265.439V89.9727ZM273.943 84.4082V85.4883H262.773V84.4082H273.943ZM269.021 79.5684C269.021 80.9766 270.976 82.3438 273.328 82.6309L272.863 83.6562C270.874 83.376 269.144 82.4395 268.365 81.1406C267.565 82.4463 265.829 83.376 263.867 83.6562L263.375 82.6309C265.754 82.3301 267.695 81.0176 267.695 79.5684V79.0488H269.021V79.5684ZM284.695 78.9121V91.1621H283.396V78.9121H284.695ZM276.56 80.1016V86.9238C278.344 86.9102 280.224 86.7666 282.193 86.3633L282.37 87.457C280.196 87.8945 278.228 88.0449 276.3 88.0449H275.275V80.1016H276.56ZM295.815 78.9121V83.6562H297.784V84.7227H295.815V91.1895H294.516V78.9121H295.815ZM292.52 80.0879V81.1406H288.091V87.0605C290.148 87.0537 291.693 86.9648 293.436 86.6504L293.6 87.7441C291.686 88.0859 290.059 88.1543 287.776 88.1406H286.792V80.0879H292.52ZM299.416 90.0957C298.883 90.0957 298.432 89.6582 298.446 89.125C298.432 88.5918 298.883 88.1543 299.416 88.1543C299.936 88.1543 300.387 88.5918 300.387 89.125C300.387 89.6582 299.936 90.0957 299.416 90.0957ZM82.6352 100.088V101.291C82.6352 102.809 82.6352 104.504 82.1703 107.006L80.8578 106.869C81.3363 104.504 81.3363 102.768 81.3363 101.291V101.141H73.8988V100.088H82.6352ZM83.893 108.428V109.508H72.723V108.428H76.975V104.107H78.2602V108.428H83.893ZM94.918 98.9258V106.131H93.6875V102.986H92.2109V106.062H90.9805V99.1445H92.2109V101.906H93.6875V98.9258H94.918ZM94.918 106.664V111.162H93.6328V107.717H86.5508V106.664H94.918ZM89.832 99.8008C89.832 102.781 88.2324 104.941 85.1016 106.24L84.4727 105.27C86.9473 104.299 88.2871 102.774 88.5195 100.854H85.0059V99.8008H89.832ZM106.367 98.9121V105.83H105.082V98.9121H106.367ZM98.273 99.623V103.916C100.249 103.902 101.985 103.759 103.824 103.369L104.002 104.449C101.978 104.859 100.132 105.01 97.9859 105.01H96.9742V99.623H98.273ZM106.367 106.391V110.998H98.3414V106.391H106.367ZM99.6129 107.416V109.959H105.095V107.416H99.6129ZM111.964 99.7871C113.905 99.7734 115.286 100.977 115.3 102.699C115.286 104.422 113.905 105.625 111.964 105.625C110.036 105.625 108.614 104.422 108.628 102.699C108.614 100.977 110.036 99.7734 111.964 99.7871ZM111.964 100.908C110.775 100.908 109.9 101.619 109.913 102.699C109.9 103.779 110.775 104.49 111.964 104.49C113.154 104.49 114.029 103.779 114.029 102.699C114.029 101.619 113.154 100.908 111.964 100.908ZM118.103 98.9121V111.189H116.804V98.9121H118.103ZM108.04 107.471C110.269 107.471 113.359 107.443 116.038 107.061L116.134 108.004C113.359 108.537 110.392 108.551 108.204 108.551L108.04 107.471ZM134 108.537V109.604H122.789V108.537H127.698V105.625H128.983V108.537H134ZM129.01 100.621C129.01 102.562 131.143 104.381 133.508 104.777L132.948 105.844C130.965 105.447 129.14 104.224 128.327 102.535C127.52 104.217 125.715 105.461 123.746 105.844L123.172 104.777C125.524 104.381 127.643 102.562 127.643 100.621V99.6914H129.01V100.621ZM145.709 104.586V105.639H140.76V106.814C143.009 106.938 144.342 107.696 144.342 108.975C144.342 110.369 142.756 111.148 140.117 111.135C137.451 111.148 135.865 110.369 135.865 108.975C135.865 107.696 137.198 106.938 139.475 106.814V105.639H134.539V104.586H145.709ZM140.117 107.799C138.244 107.799 137.178 108.223 137.178 108.975C137.178 109.713 138.244 110.15 140.117 110.137C141.963 110.15 143.043 109.713 143.043 108.975C143.043 108.223 141.963 107.799 140.117 107.799ZM144.711 99.4727V100.512H140.992C141.177 101.694 142.899 102.699 145.135 102.918L144.67 103.943C142.551 103.697 140.794 102.802 140.131 101.496C139.447 102.802 137.697 103.697 135.578 103.943L135.127 102.918C137.328 102.699 139.058 101.694 139.242 100.512H135.564V99.4727H144.711ZM155.914 98.9258V102.863H157.691V103.943H155.914V108.086H154.615V98.9258H155.914ZM153.603 100.348V101.4H146.302V100.348H149.31V98.9121H150.609V100.348H153.603ZM149.953 101.988C151.716 101.988 152.92 102.904 152.92 104.299C152.92 105.693 151.716 106.596 149.953 106.596C148.175 106.596 146.972 105.693 146.972 104.299C146.972 102.904 148.175 101.988 149.953 101.988ZM149.953 102.986C148.914 102.986 148.216 103.492 148.23 104.299C148.216 105.092 148.914 105.584 149.953 105.584C150.992 105.584 151.689 105.092 151.703 104.299C151.689 103.492 150.992 102.986 149.953 102.986ZM156.433 109.85V110.902H148.148V107.361H149.447V109.85H156.433ZM165.098 99.7871C167.04 99.7734 168.421 100.977 168.434 102.699C168.421 104.422 167.04 105.625 165.098 105.625C163.171 105.625 161.749 104.422 161.762 102.699C161.749 100.977 163.171 99.7734 165.098 99.7871ZM165.098 100.908C163.909 100.908 163.034 101.619 163.048 102.699C163.034 103.779 163.909 104.49 165.098 104.49C166.288 104.49 167.163 103.779 167.163 102.699C167.163 101.619 166.288 100.908 165.098 100.908ZM171.237 98.9121V111.189H169.938V98.9121H171.237ZM161.175 107.471C163.403 107.471 166.493 107.443 169.173 107.061L169.268 108.004C166.493 108.537 163.526 108.551 161.339 108.551L161.175 107.471ZM183.069 98.9258V108.018H181.77V105.201H178.639V104.135H181.77V102.453H178.817C177.935 104.36 176.096 105.796 173.608 106.582L173.047 105.557C175.836 104.654 177.682 102.993 177.955 100.908H173.676V99.8691H179.364C179.364 100.402 179.295 100.915 179.172 101.4H181.77V98.9258H183.069ZM183.383 109.85V110.902H175.18V107.115H176.493V109.85H183.383ZM190.184 99.1172C192.945 99.1172 194.559 99.8555 194.559 101.223C194.559 102.59 192.945 103.342 190.184 103.342C187.422 103.342 185.809 102.59 185.809 101.223C185.809 99.8555 187.422 99.1172 190.184 99.1172ZM190.184 100.074C188.229 100.074 187.148 100.498 187.162 101.223C187.148 101.975 188.229 102.371 190.184 102.371C192.139 102.371 193.219 101.975 193.219 101.223C193.219 100.498 192.139 100.074 190.184 100.074ZM195.775 104.094V105.133H184.605V104.094H195.775ZM194.367 106.076V108.947H187.23V110.041H194.709V111.039H185.959V108.004H193.082V107.047H185.945V106.076H194.367ZM209.609 98.9121V111.162H208.296V98.9121H209.609ZM205.958 100.225C205.958 103.807 204.427 106.924 200.23 108.934L199.546 107.881C202.807 106.329 204.393 104.121 204.646 101.264H200.134V100.225H205.958ZM220.716 98.9121V103.656H222.684V104.723H220.716V111.189H219.417V98.9121H220.716ZM217.421 100.088V101.141H212.991V107.061C215.049 107.054 216.594 106.965 218.337 106.65L218.501 107.744C216.587 108.086 214.96 108.154 212.677 108.141H211.692V100.088H217.421ZM233.094 98.9121V111.189H231.795V98.9121H233.094ZM229.348 100.02V104.49H224.946V107.17C226.928 107.163 228.664 107.074 230.715 106.732L230.838 107.799C228.664 108.168 226.819 108.25 224.659 108.25H223.62V103.451H228.022V101.072H223.606V100.02H229.348ZM244.584 100.088V101.291C244.584 102.809 244.584 104.504 244.119 107.006L242.807 106.869C243.285 104.504 243.285 102.768 243.285 101.291V101.141H235.848V100.088H244.584ZM245.842 108.428V109.508H234.672V108.428H238.924V104.107H240.209V108.428H245.842ZM253.741 107.006C253.741 108.059 254.261 109.173 255.368 109.836C256.496 109.118 257.05 107.942 257.05 107.006V106.418H258.321V107.006C258.321 108.277 259.155 109.508 260.755 110.027L260.112 110.984C258.903 110.567 258.082 109.754 257.652 108.742C257.262 109.733 256.53 110.629 255.409 111.094C254.234 110.649 253.488 109.781 253.112 108.783C252.668 109.747 251.862 110.561 250.706 110.984L250.05 110.027C251.622 109.467 252.47 108.195 252.484 107.006V106.418H253.741V107.006ZM259.648 98.9258V105.898H258.349V98.9258H259.648ZM253.003 99.5957C254.876 99.5957 256.257 100.785 256.257 102.494C256.257 104.189 254.876 105.365 253.003 105.365C251.13 105.365 249.736 104.189 249.736 102.494C249.736 100.785 251.13 99.5957 253.003 99.5957ZM253.003 100.703C251.841 100.689 251.007 101.414 251.007 102.494C251.007 103.561 251.841 104.285 253.003 104.285C254.152 104.285 254.986 103.561 254.986 102.494C254.986 101.414 254.152 100.689 253.003 100.703ZM263.905 106.254V107.553H269.661V106.254H270.96V111.012H262.62V106.254H263.905ZM263.905 109.973H269.661V108.564H263.905V109.973ZM272.409 104.408V105.488H261.239V104.408H272.409ZM267.487 99.5684C267.487 100.977 269.442 102.344 271.794 102.631L271.329 103.656C269.34 103.376 267.61 102.439 266.831 101.141C266.031 102.446 264.295 103.376 262.333 103.656L261.841 102.631C264.22 102.33 266.161 101.018 266.161 99.5684V99.0488H267.487V99.5684ZM283.161 98.9121V111.162H281.862V98.9121H283.161ZM275.026 100.102V106.924C276.81 106.91 278.69 106.767 280.659 106.363L280.836 107.457C278.663 107.895 276.694 108.045 274.766 108.045H273.741V100.102H275.026ZM294.281 98.9121V103.656H296.25V104.723H294.281V111.189H292.982V98.9121H294.281ZM290.986 100.088V101.141H286.557V107.061C288.614 107.054 290.159 106.965 291.902 106.65L292.066 107.744C290.152 108.086 288.525 108.154 286.242 108.141H285.258V100.088H290.986ZM297.882 110.096C297.349 110.096 296.898 109.658 296.912 109.125C296.898 108.592 297.349 108.154 297.882 108.154C298.402 108.154 298.853 108.592 298.853 109.125C298.853 109.658 298.402 110.096 297.882 110.096Z" fill="#909090"/>
</g>
<defs>
<filter id="filter0_d_1148_16368" x="0" y="0" width="372" height="150" filterUnits="userSpaceOnUse" color-interpolation-filters="sRGB">
<feFlood flood-opacity="0" result="BackgroundImageFix"/>
<feColorMatrix in="SourceAlpha" type="matrix" values="0 0 0 0 0 0 0 0 0 0 0 0 0 0 0 0 0 0 127 0" result="hardAlpha"/>
<feOffset/>
<feGaussianBlur stdDeviation="5"/>
<feComposite in2="hardAlpha" operator="out"/>
<feColorMatrix type="matrix" values="0 0 0 0 0 0 0 0 0 0 0 0 0 0 0 0 0 0 0.15 0"/>
<feBlend mode="normal" in2="BackgroundImageFix" result="effect1_dropShadow_1148_16368"/>
<feBlend mode="normal" in="SourceGraphic" in2="effect1_dropShadow_1148_16368" result="shape"/>
</filter>
</defs>
</svg>
