<svg width="219" height="106" viewBox="0 0 219 106" fill="none" xmlns="http://www.w3.org/2000/svg">
<g filter="url(#filter0_ii_922_2283)">
<path d="M199.333 105.156C199.886 105.156 200.334 104.708 200.328 104.156C200.2 92.5675 197.856 81.1075 193.419 70.3952C188.854 59.3748 182.164 49.3614 173.729 40.9267C165.294 32.4921 155.281 25.8013 144.26 21.2365C133.24 16.6717 121.428 14.3223 109.5 14.3223C97.5717 14.3223 85.7601 16.6717 74.7397 21.2365C63.7193 25.8013 53.7059 32.4921 45.2712 40.9267C36.8366 49.3614 30.1458 59.3748 25.581 70.3952C21.1438 81.1075 18.7998 92.5675 18.6723 104.156C18.6662 104.708 19.1145 105.156 19.6667 105.156H44.9167C45.469 105.156 45.9159 104.708 45.9246 104.156C46.0506 96.1462 47.689 88.2295 50.7567 80.8233C53.9521 73.109 58.6356 66.0997 64.5399 60.1954C70.4441 54.2911 77.4535 49.6076 85.1678 46.4123C92.8821 43.2169 101.15 41.5723 109.5 41.5723C117.85 41.5723 126.118 43.2169 133.832 46.4123C141.547 49.6076 148.556 54.2911 154.46 60.1954C160.365 66.0996 165.048 73.109 168.243 80.8233C171.311 88.2295 172.95 96.1462 173.076 104.156C173.084 104.708 173.531 105.156 174.083 105.156H199.333Z" fill="#D6AC8A" fill-opacity="0.7"/>
</g>
<path d="M6.66784 93.4041L0.743896 92.1484" stroke="#D6AC8A" stroke-opacity="0.5" stroke-linecap="round" stroke-linejoin="round"/>
<path d="M19.1429 59.3208L14.0056 56.1147" stroke="#D6AC8A" stroke-opacity="0.5" stroke-linecap="round" stroke-linejoin="round"/>
<path d="M42.5227 31.5593L38.7917 26.7896" stroke="#D6AC8A" stroke-opacity="0.5" stroke-linecap="round" stroke-linejoin="round"/>
<path d="M73.9874 13.469L72.1128 7.71094" stroke="#D6AC8A" stroke-opacity="0.5" stroke-linecap="round" stroke-linejoin="round"/>
<path d="M109.742 7.2307L109.95 1.17871" stroke="#D6AC8A" stroke-opacity="0.5" stroke-linecap="round" stroke-linejoin="round"/>
<path d="M145.474 13.5983L147.739 7.98242" stroke="#D6AC8A" stroke-opacity="0.5" stroke-linecap="round" stroke-linejoin="round"/>
<path d="M176.872 31.8018L180.922 27.2993" stroke="#D6AC8A" stroke-opacity="0.5" stroke-linecap="round" stroke-linejoin="round"/>
<path d="M200.152 59.6468L205.497 56.8008" stroke="#D6AC8A" stroke-opacity="0.5" stroke-linecap="round" stroke-linejoin="round"/>
<path d="M212.504 93.7754L218.5 92.9292" stroke="#D6AC8A" stroke-opacity="0.5" stroke-linecap="round" stroke-linejoin="round"/>
<defs>
<filter id="filter0_ii_922_2283" x="16.6721" y="12.3223" width="185.656" height="94.8335" filterUnits="userSpaceOnUse" color-interpolation-filters="sRGB">
<feFlood flood-opacity="0" result="BackgroundImageFix"/>
<feBlend mode="normal" in="SourceGraphic" in2="BackgroundImageFix" result="shape"/>
<feColorMatrix in="SourceAlpha" type="matrix" values="0 0 0 0 0 0 0 0 0 0 0 0 0 0 0 0 0 0 127 0" result="hardAlpha"/>
<feOffset dx="2" dy="2"/>
<feGaussianBlur stdDeviation="2"/>
<feComposite in2="hardAlpha" operator="arithmetic" k2="-1" k3="1"/>
<feColorMatrix type="matrix" values="0 0 0 0 0 0 0 0 0 0 0 0 0 0 0 0 0 0 0.1 0"/>
<feBlend mode="normal" in2="shape" result="effect1_innerShadow_922_2283"/>
<feColorMatrix in="SourceAlpha" type="matrix" values="0 0 0 0 0 0 0 0 0 0 0 0 0 0 0 0 0 0 127 0" result="hardAlpha"/>
<feOffset dx="-2" dy="-2"/>
<feGaussianBlur stdDeviation="2"/>
<feComposite in2="hardAlpha" operator="arithmetic" k2="-1" k3="1"/>
<feColorMatrix type="matrix" values="0 0 0 0 1 0 0 0 0 1 0 0 0 0 1 0 0 0 0.1 0"/>
<feBlend mode="normal" in2="effect1_innerShadow_922_2283" result="effect2_innerShadow_922_2283"/>
</filter>
</defs>
</svg>
