<svg width="71" height="97" viewBox="0 0 71 97" fill="none" xmlns="http://www.w3.org/2000/svg">
<path d="M44.6892 4.06108C44.3742 4.06108 44.0149 3.96707 43.5805 3.77127C43.1416 3.57347 42.6928 3.30405 42.1808 2.995L42.1561 2.98005C41.672 2.68781 41.1277 2.35919 40.5693 2.10754C39.9969 1.84959 39.3447 1.64111 38.6388 1.64111H18.0888C14.0697 1.64111 10.3282 3.70669 8.1113 7.12615L5.41913 11.2786C5.20104 11.615 4.84314 11.8054 4.47242 11.8054C2.70869 11.8054 1.32617 13.2676 1.32617 15.0123V24.5373C1.32617 26.0685 2.54038 27.3577 4.09649 27.3577C4.45561 27.3577 4.79636 27.6319 4.8577 28.0524L13.1132 84.6454C13.9883 90.6444 19.0105 95.1193 24.9642 95.1193H45.5862C51.5399 95.1193 56.5621 90.6444 57.4372 84.6454L65.6927 28.0524C65.754 27.6319 66.0948 27.3577 66.4539 27.3577C68.01 27.3577 69.2242 26.0685 69.2242 24.5373V15.0123C69.2242 13.2676 67.8417 11.8054 66.0779 11.8054C65.7072 11.8054 65.3493 11.615 65.1312 11.2786L62.4391 7.12614C60.2221 3.70669 56.4806 1.64111 52.4616 1.64111H50.7397C50.0338 1.64111 49.3815 1.84959 48.8092 2.10754C48.2508 2.35919 47.7064 2.68783 47.2224 2.98008L47.1976 2.995C46.6857 3.30405 46.2369 3.57347 45.798 3.77127C45.3635 3.96707 45.0042 4.06108 44.6892 4.06108Z" stroke="#722A2A" stroke-width="2"/>
<path fill-rule="evenodd" clip-rule="evenodd" d="M58.948 67.362L56.4478 84.501C55.6414 90.0295 51.0229 94.1193 45.5864 94.1193H24.9644C19.5278 94.1193 14.9093 90.0295 14.1029 84.501L9.50147 52.9574C12.8958 50.9891 16.4522 49.6411 19.8264 49.6411C25.8446 49.6411 30.5879 53.9294 35.5071 58.3768C40.8052 63.1667 46.3075 68.1411 53.8264 68.1411C55.6199 68.1411 57.3293 67.8581 58.948 67.362Z" fill="#D6AC8A"/>
<path d="M45.1385 4.30034C44.8235 4.30034 44.4642 4.20632 44.0297 4.01052C43.5908 3.81273 43.142 3.54331 42.6301 3.23426L42.6053 3.21931C42.1212 2.92707 41.5769 2.59844 41.0185 2.34679C40.4462 2.08885 39.7939 1.88037 39.088 1.88037H18.538C14.5189 1.88037 10.7775 3.94595 8.56052 7.3654L5.86834 11.5179C5.65026 11.8542 5.29236 12.0446 4.92164 12.0446C3.15791 12.0446 1.77539 13.5069 1.77539 15.2516V24.7766C1.77539 26.3078 2.9896 27.597 4.54571 27.597C4.90483 27.597 5.24557 27.8711 5.30692 28.2917L13.5624 84.8846C14.4375 90.8837 19.4597 95.3586 25.4134 95.3586H46.0354C51.9891 95.3586 57.0113 90.8837 57.8864 84.8846L66.1419 28.2917C66.2032 27.8712 66.544 27.597 66.9031 27.597C68.4592 27.597 69.6734 26.3077 69.6734 24.7766V15.2516C69.6734 13.5069 68.2909 12.0446 66.5272 12.0446C66.1564 12.0446 65.7985 11.8542 65.5804 11.5179L62.8883 7.3654C60.6713 3.94595 56.9299 1.88037 52.9108 1.88037H51.1889C50.483 1.88037 49.8308 2.08885 49.2584 2.34679C48.7 2.59845 48.1556 2.92709 47.6716 3.21933L47.6469 3.23426C47.1349 3.54331 46.6861 3.81273 46.2472 4.01052C45.8127 4.20632 45.4535 4.30034 45.1385 4.30034Z" fill="#D6AC8A" stroke="#722A2A" stroke-width="2"/>
</svg>
