<svg width="24" height="24" viewBox="0 0 24 24" fill="none" xmlns="http://www.w3.org/2000/svg">
<rect x="0.35" y="0.35" width="23.3" height="22.6909" rx="11.3455" stroke="#722A2A" stroke-width="0.7"/>
<path fill-rule="evenodd" clip-rule="evenodd" d="M13.5216 8.96502L12 5.77634L10.4784 8.96502C10.2521 9.43938 9.80112 9.76702 9.28004 9.83571L5.77724 10.2974L8.33966 12.7299C8.72086 13.0917 8.89311 13.6219 8.79741 14.1387L8.15412 17.6127L11.2593 15.9274C11.7213 15.6767 12.2787 15.6767 12.7407 15.9274L15.8459 17.6127L15.2026 14.1387C15.1069 13.6219 15.2791 13.0917 15.6603 12.7299L18.2228 10.2974L14.72 9.83571C14.1989 9.76702 13.7479 9.43938 13.5216 8.96502ZM12.7007 5.442C12.4194 4.85267 11.5806 4.85266 11.2993 5.442L9.77778 8.63068C9.6646 8.86786 9.43912 9.03168 9.17858 9.06602L5.67578 9.52776C5.02838 9.6131 4.76915 10.4109 5.24275 10.8605L7.80517 13.2929C7.99577 13.4739 8.08189 13.7389 8.03405 13.9973L7.39076 17.4714C7.27186 18.1135 7.95053 18.6066 8.52445 18.2951L11.6297 16.6097C11.8606 16.4844 12.1394 16.4844 12.3703 16.6097L15.4756 18.2951C16.0495 18.6066 16.7281 18.1135 16.6092 17.4714L15.966 13.9973C15.9181 13.7389 16.0042 13.4739 16.1948 13.2929L18.7573 10.8605C19.2308 10.4109 18.9716 9.6131 18.3242 9.52776L14.8214 9.06603C14.5609 9.03168 14.3354 8.86786 14.2222 8.63068L12.7007 5.442Z" fill="#722A2A"/>
</svg>
