<svg width="98" height="34" viewBox="0 0 98 34" fill="none" xmlns="http://www.w3.org/2000/svg">
<rect x="0.5" width="97" height="34" rx="17" fill="white"/>
<rect x="1" y="0.5" width="96" height="33" rx="16.5" stroke="#909090" stroke-opacity="0.2"/>
<path d="M21.1803 14.366L22.5 11.6004L23.8197 14.366C24.0787 14.9087 24.5946 15.2836 25.1907 15.3621L28.2288 15.7626L26.0064 17.8724L26.6948 18.5976L26.0064 17.8724C25.5703 18.2863 25.3732 18.8929 25.4827 19.4841L26.0406 22.4973L23.3473 21.0355C22.8189 20.7487 22.1811 20.7487 21.6527 21.0355L18.9594 22.4973L19.5173 19.4841C19.6268 18.8929 19.4297 18.2863 18.9936 17.8724L16.7712 15.7626L19.8093 15.3621C20.4054 15.2836 20.9213 14.9087 21.1803 14.366ZM28.5688 15.4399L28.5685 15.4402L28.5688 15.4399ZM16.4312 15.4399C16.4313 15.44 16.4314 15.4401 16.4315 15.4401L16.4312 15.4399Z" fill="#909090" stroke="#909090" stroke-width="2"/>
<path d="M50.6719 15.9727V16.7344H41.1797V15.9727H50.6719ZM49.4531 17.6953V20.0508H43.2656V21.1055H49.7695V21.832H42.3516V19.3594H48.5508V18.3984H42.3281V17.6953H49.4531ZM49.8281 11.9414V12.6914H46.4648C46.5586 13.7637 48.3164 14.584 50.168 14.7305L49.8633 15.457C48.1582 15.2812 46.5527 14.6191 45.9375 13.5703C45.3047 14.6191 43.7051 15.2812 42 15.457L41.6953 14.7305C43.5352 14.584 45.2871 13.7637 45.4102 12.6914H42.0469V11.9414H49.8281ZM56.8359 12.668C56.8359 13.2598 56.7832 13.8398 56.6719 14.4023H59.2617V11.5195H60.1758V21.9492H59.2617V17.9414H56.3203V17.1797H59.2617V15.1523H56.4844C55.8809 17.0859 54.5039 18.7852 52.043 19.9805L51.5625 19.2305C54.3398 17.8887 55.7168 15.8789 55.9102 13.418H52.0195V12.668H56.8359ZM65.4727 13.7109C65.4727 14.9531 66.5273 16.1016 68.0625 16.5586L67.6289 17.2617C66.4277 16.9043 65.4902 16.1309 65.0391 15.1289C64.582 16.2305 63.6152 17.0684 62.3789 17.4727L61.9219 16.7461C63.4688 16.2773 64.5703 15.082 64.5703 13.7109V13.5117H62.2148V12.75H64.5703V11.4844H65.4961V12.75H67.8281V13.5117H65.4727V13.7109ZM70.0664 11.5312V14.1094H71.6367V14.8828H70.0664V17.5898H69.1523V11.5312H70.0664ZM70.2539 18.1523V18.9023H67.3008C67.4531 19.9922 68.9824 20.9297 70.6523 21.1992L70.3125 21.9141C68.7832 21.6621 67.4004 20.9062 66.8086 19.8633C66.2109 20.9004 64.8398 21.6387 63.3281 21.9023L62.9766 21.1992C64.6582 20.9297 66.1699 20.0098 66.3281 18.9023H63.3867V18.1523H70.2539ZM80.9062 11.5312V21.9492H79.9805V11.5312H80.9062ZM77.8242 12.668C77.8125 15.668 76.418 18.3164 72.9258 19.9922L72.4219 19.2422C75.2402 17.9062 76.6758 15.9082 76.8867 13.418H72.9023V12.668H77.8242Z" fill="#909090"/>
</svg>
