<svg width="393" height="250" viewBox="0 0 393 250" fill="none" xmlns="http://www.w3.org/2000/svg">
<g filter="url(#filter0_d_756_4379)">
<rect x="24" y="100" width="345" height="140" rx="20" fill="white"/>
<path d="M103.799 137.801V139.793C103.799 142.156 103.799 144.598 103.154 148.309L100.947 148.113C101.631 144.637 101.631 142.078 101.631 139.793V139.559H91.4551V137.801H103.799ZM105.85 149.539V151.316H89.7559V149.539H105.85ZM120.467 136.082V141.16H122.928V142.977H120.467V148.816H118.26V136.082H120.467ZM115.662 137.43C115.662 142.117 112.615 145.457 107.381 146.98L106.482 145.262C110.516 144.1 112.918 141.902 113.299 139.207H107.225V137.43H115.662ZM121.131 151.629V153.387H109.119V147.508H111.326V151.629H121.131ZM129.049 137.312C131.842 137.293 133.893 139.07 133.912 141.57C133.893 144.09 131.842 145.848 129.049 145.848C126.275 145.848 124.205 144.09 124.205 141.57C124.205 139.07 126.275 137.293 129.049 137.312ZM129.049 139.188C127.506 139.188 126.354 140.105 126.354 141.57C126.354 143.055 127.506 143.953 129.049 143.953C130.611 143.953 131.783 143.055 131.783 141.57C131.783 140.105 130.611 139.188 129.049 139.188ZM138.033 136.082V153.758H135.865V136.082H138.033ZM123.404 148.289C126.588 148.289 131.002 148.25 134.811 147.703L134.986 149.285C131.021 150.047 126.783 150.066 123.678 150.066L123.404 148.289ZM149.182 137.371C150.783 137.371 152.102 138.26 152.893 139.812H157.014V136.082H159.162V153.758H157.014V147.078H153.049C152.287 148.836 150.891 149.852 149.182 149.852C146.525 149.852 144.65 147.449 144.65 143.602C144.65 139.793 146.525 137.371 149.182 137.371ZM149.182 139.324C147.717 139.324 146.721 140.906 146.74 143.602C146.721 146.316 147.717 147.898 149.182 147.898C150.646 147.898 151.623 146.316 151.643 143.602C151.623 140.906 150.646 139.324 149.182 139.324ZM153.498 141.59C153.625 142.205 153.693 142.879 153.693 143.602C153.693 144.217 153.645 144.783 153.557 145.32H157.014V141.59H153.498ZM175.928 136.082V146.57H173.76V142.254H170.752V140.477H173.76V136.082H175.928ZM169.951 147.02C173.701 147.02 175.986 148.25 175.986 150.379C175.986 152.508 173.701 153.738 169.951 153.738C166.221 153.738 163.936 152.508 163.955 150.379C163.936 148.25 166.221 147.02 169.951 147.02ZM169.951 148.68C167.49 148.68 166.104 149.266 166.104 150.379C166.104 151.473 167.49 152.059 169.951 152.059C172.412 152.059 173.818 151.473 173.818 150.379C173.818 149.266 172.412 148.68 169.951 148.68ZM167.627 139.109C167.627 141.258 169.053 143.426 171.787 144.344L170.693 146.062C168.73 145.398 167.334 144.051 166.572 142.391C165.791 144.275 164.316 145.779 162.217 146.531L161.084 144.812C163.916 143.836 165.42 141.453 165.42 139.129V138.992H161.748V137.234H171.279V138.992H167.627V139.109ZM192.615 136.082V153.758H190.428V136.082H192.615ZM183.104 137.371C185.76 137.371 187.693 139.793 187.713 143.602C187.693 147.449 185.76 149.852 183.104 149.852C180.428 149.852 178.494 147.449 178.494 143.602C178.494 139.793 180.428 137.371 183.104 137.371ZM183.104 139.324C181.6 139.324 180.584 140.906 180.584 143.602C180.584 146.316 181.6 147.898 183.104 147.898C184.588 147.898 185.604 146.316 185.604 143.602C185.604 140.906 184.588 139.324 183.104 139.324ZM213.783 136.082V153.758H211.615V143.426H206.557V141.668H211.615V136.082H213.783ZM202.064 138.016V147.762C204.438 147.723 206.791 147.537 209.271 147.059L209.525 148.836C206.674 149.422 204.037 149.578 201.342 149.578H199.896V138.016H202.064ZM231.857 146.082V147.84H224.826V153.719H222.678V147.84H215.725V146.082H231.857ZM229.885 136.98V144.012H217.697V136.98H229.885ZM219.826 138.719V142.312H227.717V138.719H219.826ZM241.521 137.371C244.178 137.371 246.092 139.793 246.111 143.602C246.092 147.449 244.178 149.852 241.521 149.852C238.846 149.852 236.912 147.449 236.932 143.602C236.912 139.793 238.846 137.371 241.521 137.371ZM241.521 139.324C240.037 139.324 239.021 140.906 239.021 143.602C239.021 146.316 240.037 147.898 241.521 147.898C243.025 147.898 244.021 146.316 244.021 143.602C244.021 140.906 243.025 139.324 241.521 139.324ZM250.604 136.082V142.859H253.318V144.695H250.604V153.738H248.436V136.082H250.604ZM260.494 137.801C260.475 139.715 261.92 141.395 264.771 142.039L263.775 143.758C261.666 143.23 260.182 142.137 259.4 140.652C258.59 142.293 257.057 143.543 254.908 144.109L253.873 142.41C256.744 141.707 258.229 139.832 258.229 137.801V136.824H260.494V137.801ZM268.326 136.102V153.719H266.178V136.102H268.326ZM253.58 145.379C256.803 145.379 261.217 145.34 265.025 144.812L265.182 146.355C263.658 146.648 262.076 146.844 260.533 146.961V153.191H258.346V147.078C256.725 147.146 255.191 147.156 253.854 147.156L253.58 145.379ZM285.248 136.102V153.719H283.041V149.676H279.291V148.035H283.041V136.102H285.248ZM270.268 145.164C273.588 145.164 278.002 145.145 281.83 144.617L281.967 146.219C280.346 146.502 278.676 146.668 277.045 146.766V153.191H274.857V146.883C273.314 146.932 271.85 146.941 270.541 146.941L270.268 145.164ZM276.068 136.863C278.666 136.863 280.561 138.328 280.561 140.438C280.561 142.586 278.666 143.992 276.068 143.992C273.412 143.992 271.537 142.586 271.537 140.438C271.537 138.328 273.412 136.863 276.068 136.863ZM276.068 138.523C274.584 138.523 273.588 139.285 273.588 140.438C273.588 141.629 274.584 142.332 276.068 142.332C277.475 142.332 278.49 141.629 278.49 140.438C278.49 139.285 277.475 138.523 276.068 138.523ZM303.264 149.812V151.59H287.131V149.812H290.861V145.34C289.455 144.539 288.605 143.279 288.615 141.707C288.596 138.895 291.369 137.039 295.158 137.039C298.967 137.039 301.74 138.895 301.74 141.707C301.74 143.25 300.92 144.49 299.553 145.301V149.812H303.264ZM295.158 138.758C292.521 138.758 290.725 139.871 290.744 141.707C290.725 143.523 292.521 144.656 295.158 144.656C297.795 144.656 299.611 143.523 299.611 141.707C299.611 139.871 297.795 138.758 295.158 138.758ZM293.01 149.812H297.346V146.121C296.672 146.277 295.939 146.355 295.158 146.355C294.396 146.355 293.674 146.277 293.01 146.141V149.812Z" fill="#121212"/>
<path d="M70.1213 173.568V174.443H65.5959V175.756H69.8889V176.59H65.5959V177.998C68.0158 177.998 69.3352 177.95 70.9553 177.684L71.0647 178.545C69.3693 178.832 67.9885 178.873 65.4455 178.873H64.5295V173.568H70.1213ZM73.4572 172.953V175.619H75.2893V176.508H73.4572V179.311H72.3908V172.953H73.4572ZM73.4572 179.898V182.756H66.7854V184.109H73.9084V184.971H65.7326V181.936H72.3908V180.76H65.7053V179.898H73.4572ZM83.074 178.818V179.693H80.326V181.662C81.4949 181.607 82.6844 181.512 83.7986 181.348L83.8807 182.141C81.1053 182.646 78.1111 182.646 75.9236 182.66L75.7732 181.758C76.7918 181.751 77.9949 181.751 79.2596 181.703V179.693H76.7029V174.061H83.0193V174.936H77.783V176.426H82.7596V177.273H77.783V178.818H83.074ZM85.6717 172.953V185.135H84.6053V172.953H85.6717ZM98.5697 178.6V179.447H87.4408V178.6H98.5697ZM97.1752 180.418V183.002H89.8744V184.164H97.5717V184.943H88.7943V182.264H96.1088V181.225H88.7807V180.418H97.1752ZM97.1342 173.322V175.838H89.9564V176.904H97.3529V177.684H88.89V175.1H96.0541V174.102H88.849V173.322H97.1342ZM106.524 175.25C106.524 176.945 107.754 178.545 109.532 179.188L108.93 180.021C107.597 179.488 106.538 178.429 106.018 177.109C105.499 178.579 104.391 179.748 102.956 180.322L102.381 179.447C104.2 178.777 105.458 177.082 105.471 175.209V173.705H106.524V175.25ZM112.444 172.967V182.072H111.364V176.727H108.657V175.824H111.364V172.967H112.444ZM112.717 183.945V184.848H104.583V181.033H105.663V183.945H112.717ZM119.381 173.842V174.744H115.69V176.262H119.244V177.109H115.69V178.791C117.46 178.784 118.568 178.723 119.873 178.463L119.983 179.352C118.561 179.625 117.412 179.693 115.43 179.693H114.664V173.842H119.381ZM124.44 172.967V180.336H123.414V177.014H121.705V180.254H120.707V173.199H121.705V176.139H123.414V172.967H124.44ZM124.44 180.965V185.107H123.387V181.84H116.25V180.965H124.44ZM135.273 172.953V177.971H137.31V178.859H135.273V185.107H134.207V172.953H135.273ZM133.031 174.908V175.797H125.799V174.908H128.929V173.104H129.996V174.908H133.031ZM129.476 176.809C131.199 176.809 132.443 177.957 132.457 179.598C132.443 181.238 131.199 182.387 129.476 182.387C127.74 182.387 126.482 181.238 126.496 179.598C126.482 177.957 127.74 176.809 129.476 176.809ZM129.476 177.711C128.342 177.711 127.508 178.504 127.521 179.598C127.508 180.705 128.342 181.484 129.476 181.471C130.597 181.484 131.418 180.705 131.431 179.598C131.418 178.504 130.597 177.711 129.476 177.711ZM141.937 176.221C141.923 178.436 143.441 180.678 145.232 181.484L144.576 182.332C143.195 181.655 141.998 180.227 141.417 178.49C140.85 180.329 139.654 181.86 138.232 182.578L137.548 181.676C139.353 180.842 140.857 178.531 140.871 176.221V174.006H141.937V176.221ZM147.638 172.953V185.135H146.558V172.953H147.638ZM155.519 174.02V175.1H158.362V172.967H159.442V181.84H158.362V178.6H155.519V179.693H149.94V174.02H155.519ZM151.007 174.908V178.832H154.466V174.908H151.007ZM159.716 183.945V184.848H151.581V181.047H152.661V183.945H159.716ZM155.519 177.711H158.362V176.002H155.519V177.711ZM173.863 174.252V175.469C173.863 177 173.863 178.736 173.412 181.375L172.319 181.266C172.811 178.777 172.811 176.959 172.811 175.469V175.141H165.483V174.252H173.863ZM175.354 182.428V183.316H164.279V182.428H175.354ZM187.117 178.969V179.83H176.029V178.969H181.047V177.547H177.437V173.527H185.736V174.389H178.49V176.672H185.818V177.547H182.086V178.969H187.117ZM181.566 180.719C184.178 180.719 185.736 181.512 185.75 182.906C185.736 184.314 184.178 185.094 181.566 185.107C178.941 185.094 177.369 184.314 177.369 182.906C177.369 181.512 178.941 180.719 181.566 180.719ZM181.566 181.566C179.611 181.566 178.449 182.072 178.463 182.906C178.449 183.754 179.611 184.246 181.566 184.246C183.494 184.246 184.67 183.754 184.67 182.906C184.67 182.072 183.494 181.566 181.566 181.566ZM197.281 172.953V176.658H199.113V177.561H197.281V181.922H196.214V172.953H197.281ZM197.841 183.945V184.848H189.679V180.992H190.732V183.945H197.841ZM191.197 173.814C193.015 173.814 194.382 175.045 194.396 176.809C194.382 178.572 193.015 179.803 191.197 179.803C189.378 179.803 187.997 178.572 188.011 176.809C187.997 175.045 189.378 173.814 191.197 173.814ZM191.197 174.758C189.994 174.758 189.05 175.605 189.064 176.809C189.05 178.012 189.994 178.859 191.197 178.859C192.427 178.859 193.343 178.012 193.343 176.809C193.343 175.605 192.427 174.758 191.197 174.758ZM212.768 172.953V185.135H211.688V178.271H209.022V177.383H211.688V172.953H212.768ZM206.903 176.562C206.903 178.586 208.352 180.787 210.13 181.594L209.487 182.455C208.099 181.778 206.93 180.309 206.383 178.613C205.823 180.411 204.627 181.97 203.239 182.701L202.583 181.867C204.346 181.006 205.809 178.723 205.823 176.562V175.1H203.047V174.211H209.692V175.1H206.903V176.562ZM218.557 175.264C218.557 176.85 219.746 178.271 221.537 178.859L221.031 179.707C219.63 179.249 218.571 178.278 218.051 177.055C217.525 178.449 216.404 179.536 214.947 180.062L214.401 179.201C216.219 178.586 217.49 177.014 217.504 175.264V174.744H214.729V173.855H221.291V174.744H218.557V175.264ZM223.944 172.953V176.057H225.776V176.959H223.944V180.295H222.877V172.953H223.944ZM220.047 180.623C222.549 180.623 224.053 181.443 224.053 182.838C224.053 184.26 222.549 185.08 220.047 185.08C217.545 185.08 216.014 184.26 216.014 182.838C216.014 181.443 217.545 180.623 220.047 180.623ZM220.047 181.484C218.215 181.484 217.08 181.99 217.094 182.838C217.08 183.713 218.215 184.219 220.047 184.219C221.893 184.219 223.014 183.713 223.014 182.838C223.014 181.99 221.893 181.484 220.047 181.484ZM233.26 176.945V177.82H230.799V179.516C231.933 179.468 233.068 179.386 234.121 179.27L234.203 180.062C231.592 180.418 228.693 180.5 226.41 180.5L226.246 179.625C227.312 179.618 228.509 179.604 229.732 179.557V177.82H227.353V173.746H233.164V174.635H228.433V176.945H233.26ZM236.213 172.967V182.059H235.133V172.967H236.213ZM236.609 183.945V184.848H228.324V181.43H229.39V183.945H236.609ZM247.243 173.787V178.982H241.624V173.787H247.243ZM242.677 174.662V178.107H246.204V174.662H242.677ZM250.606 172.953V175.879H252.438V176.781H250.606V179.898H249.54V172.953H250.606ZM250.825 180.609V181.484H247.38C247.496 182.783 249.308 183.918 251.29 184.232L250.894 185.066C249.116 184.772 247.503 183.891 246.806 182.674C246.115 183.897 244.516 184.766 242.745 185.053L242.335 184.232C244.345 183.918 246.122 182.804 246.259 181.484H242.813V180.609H250.825ZM263.928 178.969V179.844H258.911V181.184H262.575V184.943H254.208V181.184H257.858V179.844H252.854V178.969H263.928ZM258.911 172.885V174.102H262.807V174.963H258.979C259.054 176.316 260.989 177.226 263.272 177.438L262.958 178.244C260.934 178.032 259.13 177.335 258.391 176.125C257.646 177.335 255.841 178.032 253.825 178.244L253.497 177.438C255.794 177.226 257.714 176.316 257.803 174.963H254.003V174.102H257.858V172.885H258.911ZM255.274 182.045V184.068H261.522V182.045H255.274ZM273.304 173.227C275.943 173.227 277.597 174.074 277.597 175.537C277.597 176.973 275.943 177.807 273.304 177.807C270.666 177.807 268.998 176.973 268.998 175.537C268.998 174.074 270.666 173.227 273.304 173.227ZM273.304 174.088C271.336 174.088 270.092 174.635 270.105 175.537C270.092 176.426 271.336 176.945 273.304 176.959C275.246 176.945 276.504 176.426 276.504 175.537C276.504 174.635 275.246 174.088 273.304 174.088ZM277.488 180.951V184.943H269.121V180.951H277.488ZM270.187 181.812V184.068H276.435V181.812H270.187ZM278.842 178.859V179.748H267.767V178.859H278.842ZM290.646 182.701V183.604H279.517V182.701H282.648V180.391H280.912V176.645H288.185V174.744H280.884V173.855H289.238V177.533H281.978V179.502H289.525V180.391H287.624V182.701H290.646ZM283.701 182.701H286.572V180.391H283.701V182.701ZM304.479 172.953V185.107H303.399V172.953H304.479ZM300.883 174.279C300.87 177.779 299.243 180.869 295.169 182.824L294.581 181.949C297.869 180.391 299.544 178.06 299.79 175.154H295.141V174.279H300.883ZM317.295 179.652V180.541H306.166V179.652H311.197V178.367H307.615V175.4H314.779V174.143H307.574V173.268H315.86V176.207H308.682V177.506H316.119V178.367H312.25V179.652H317.295ZM315.928 181.471V184.998H314.848V182.346H307.41V181.471H315.928ZM324.67 174.307V174.936C324.656 175.893 324.656 177.506 324.314 179.762L323.234 179.666C323.562 177.629 323.59 176.152 323.59 175.182H318.49V174.307H324.67ZM321.484 177.779V181.471C322.831 181.423 324.212 181.334 325.476 181.184L325.531 181.99C322.974 182.387 320.117 182.441 317.943 182.428L317.806 181.539C318.606 181.532 319.495 181.525 320.431 181.498V177.779H321.484ZM327.308 172.953V178.039H329.277V178.969H327.308V185.107H326.242V172.953H327.308ZM125.171 200.309V201.211H120.154V205.135H119.101V201.211H114.097V200.309H125.171ZM120.167 195.359C120.167 196.877 122.286 198.203 124.46 198.504L124.064 199.365C122.184 199.078 120.413 198.135 119.648 196.809C118.868 198.148 117.071 199.078 115.191 199.365L114.794 198.504C116.954 198.203 119.101 196.891 119.101 195.359V195.346H115.177V194.471H119.101V192.953H120.154V194.471H124.105V195.346H120.167V195.359ZM129.989 195.865C129.989 197.479 131.274 198.9 133.079 199.461L132.546 200.322C131.138 199.864 130.03 198.9 129.483 197.656C128.957 198.989 127.856 200.021 126.421 200.527L125.888 199.693C127.679 199.092 128.936 197.574 128.936 195.865V195.469H126.188V194.594H128.936V193.035H130.016V194.594H132.737V195.469H129.989V195.865ZM135.923 192.967V202.045H134.843V197.602H132.313V196.713H134.843V192.967H135.923ZM136.264 203.945V204.848H128.116V201.225H129.196V203.945H136.264ZM151.164 192.953V205.107H150.125V192.953H151.164ZM148.676 193.254V204.479H147.65V198.504H144.998V197.602H147.65V193.254H148.676ZM145.818 194.457V195.346H142.277V201.279C144.027 201.272 145.135 201.197 146.447 200.91L146.557 201.826C145.148 202.113 143.959 202.168 142.004 202.182H141.238V194.457H145.818ZM162.531 192.953V205.135H161.451V192.953H162.531ZM156.064 193.896C157.869 193.91 159.168 195.551 159.168 198.135C159.168 200.719 157.869 202.359 156.064 202.359C154.246 202.359 152.961 200.719 152.961 198.135C152.961 195.551 154.246 193.91 156.064 193.896ZM156.064 194.854C154.847 194.867 154 196.152 154 198.135C154 200.117 154.847 201.402 156.064 201.402C157.281 201.402 158.129 200.117 158.129 198.135C158.129 196.152 157.281 194.867 156.064 194.854ZM174.335 192.953V205.135H173.269V198.436H170.698V197.547H173.269V192.953H174.335ZM170.493 194.074V194.963H165.9V197.492H169.96V198.367H165.9V201.307C168.135 201.307 169.557 201.231 171.232 200.938L171.355 201.826C169.591 202.113 168.101 202.195 165.749 202.195H164.82V194.074H170.493ZM185.415 192.953V197.902H187.384V198.805H185.415V205.107H184.348V192.953H185.415ZM182.27 194.266C182.27 197.711 180.657 200.842 176.692 202.797L176.091 201.949C179.235 200.384 180.944 198.046 181.19 195.168H176.651V194.266H182.27ZM202.051 202.646V203.549H190.922V202.646H195.926V199.68H192.234V193.979H200.67V199.68H196.979V202.646H202.051ZM193.287 194.84V198.818H199.631V194.84H193.287ZM212.365 197.506V198.367H204.203V193.678H212.201V194.566H205.296V197.506H212.365ZM213.787 199.98V200.855H208.714V205.066H207.662V200.855H202.658V199.98H213.787ZM221.673 194.908C221.659 196.562 222.917 198.08 224.708 198.695L224.147 199.543C222.773 199.051 221.7 198.019 221.167 196.727C220.654 198.155 219.56 199.256 218.118 199.789L217.557 198.928C219.389 198.271 220.606 196.686 220.62 194.84V193.582H221.673V194.908ZM227.087 192.953V196.18H228.919V197.096H227.087V200.322H226.02V192.953H227.087ZM227.087 200.924V205.107H226.02V201.799H219.13V200.924H227.087ZM239.725 192.953V205.107H238.7V192.953H239.725ZM237.264 193.254V204.479H236.252V198.217H234.202V197.342H236.252V193.254H237.264ZM232.903 196.426C232.903 198.531 233.846 200.623 235.528 201.594L234.871 202.387C233.675 201.669 232.828 200.356 232.411 198.805C231.966 200.479 231.084 201.908 229.868 202.674L229.184 201.867C230.879 200.855 231.864 198.641 231.864 196.426V195.277H229.526V194.389H235.131V195.277H232.903V196.426ZM251.119 192.967V199.953H250.039V192.967H251.119ZM241.125 198.764C242.157 198.764 243.36 198.757 244.611 198.709V197.41H242.232V193.568H248.002V194.457H243.312V196.549H248.111V197.41H245.691V198.668C246.819 198.62 247.961 198.524 249.027 198.381L249.096 199.16C246.43 199.611 243.477 199.652 241.289 199.652L241.125 198.764ZM244.174 200.5V201.799H250.066V200.5H251.119V204.943H243.107V200.5H244.174ZM244.174 204.068H250.066V202.633H244.174V204.068ZM262.855 192.953V205.107H261.789V192.953H262.855ZM254.679 194.156V201.047C256.532 201.04 258.453 200.89 260.49 200.459L260.64 201.375C258.48 201.826 256.552 201.977 254.611 201.977H253.627V194.156H254.679ZM273.989 192.953V197.766H276.027V198.668H273.989V205.135H272.923V192.953H273.989ZM270.79 194.143V195.031H266.183V201.184C268.384 201.184 269.943 201.081 271.747 200.746L271.884 201.676C269.984 202.018 268.384 202.086 266.073 202.086H265.116V194.143H270.79ZM277.618 204.082C277.139 204.082 276.729 203.686 276.743 203.193C276.729 202.715 277.139 202.318 277.618 202.318C278.096 202.318 278.493 202.715 278.493 203.193C278.493 203.686 278.096 204.082 277.618 204.082Z" fill="#121212" fill-opacity="0.5"/>
<path fill-rule="evenodd" clip-rule="evenodd" d="M272.413 106C273.778 100.222 274.5 94.1952 274.5 88C274.5 44.9218 239.578 10 196.5 10C153.422 10 118.5 44.9218 118.5 88C118.5 94.1952 119.222 100.222 120.587 106H272.413Z" fill="white"/>
<g filter="url(#filter1_ii_756_4379)">
<path d="M165.975 51.9672C165.975 44.2533 172.228 38 179.942 38H212.066C219.78 38 226.034 44.2533 226.034 51.9672V84.0918C226.034 91.8057 219.78 98.059 212.066 98.059H179.942C172.228 98.059 165.975 91.8057 165.975 84.0918V51.9672Z" fill="#F9F9F9"/>
</g>
<g filter="url(#filter2_ii_756_4379)">
<path d="M189.245 95.6676C189.245 101.098 186.508 105.5 183.132 105.5C179.757 105.5 177.02 101.098 177.02 95.6676C177.02 90.2372 179.757 85.835 183.132 85.835C186.508 85.835 189.245 90.2372 189.245 95.6676Z" fill="#202020"/>
</g>
<g filter="url(#filter3_ii_756_4379)">
<path d="M212.63 95.6676C212.63 101.098 209.894 105.5 206.518 105.5C203.143 105.5 200.406 101.098 200.406 95.6676C200.406 90.2372 203.143 85.835 206.518 85.835C209.894 85.835 212.63 90.2372 212.63 95.6676Z" fill="#202020"/>
</g>
<g filter="url(#filter4_ii_756_4379)">
<path d="M181.105 65.6364C181.105 65.6364 183.052 65.7266 184.714 66.9497C186.375 68.1727 186.364 69.7767 186.364 69.7767C186.364 69.7767 184.54 68.5688 183.221 68.1794C181.621 67.7072 180.437 68.2796 180.437 68.2796" stroke="#202020" stroke-linecap="round" stroke-linejoin="round"/>
</g>
<g filter="url(#filter5_ii_756_4379)">
<path d="M209.879 65.6364C209.879 65.6364 207.932 65.7266 206.271 66.9497C204.61 68.1727 204.621 69.7767 204.621 69.7767C204.621 69.7767 206.444 68.5688 207.764 68.1794C209.363 67.7072 210.547 68.2796 210.547 68.2796" stroke="#202020" stroke-linecap="round" stroke-linejoin="round"/>
</g>
<g filter="url(#filter6_dii_756_4379)">
<path d="M186.23 73.1366C186.23 75.8478 182.933 78.0457 178.865 78.0457C174.797 78.0457 171.5 75.8478 171.5 73.1366C171.5 70.4254 174.797 68.2275 178.865 68.2275C182.933 68.2275 186.23 70.4254 186.23 73.1366Z" fill="#202020"/>
</g>
<g filter="url(#filter7_ii_756_4379)">
<path d="M153.706 58.5207C156.998 58.6501 160.62 62.6386 162.434 64.9255C162.942 65.5657 162.46 66.4739 161.643 66.4826C160.155 66.4984 158.093 66.5798 156.457 66.8694C153.449 67.4017 151.514 68.4295 149.53 68.0254C146.691 67.4473 145.786 64.7267 146.943 62.0708C148.22 59.14 150.512 58.3952 153.706 58.5207Z" fill="#7FA1F0"/>
</g>
<g filter="url(#filter8_ii_756_4379)">
<path d="M154.281 69.4533C155.653 68.209 158.484 68.2162 160.398 68.3934C161.211 68.4688 161.509 69.4505 160.944 70.0411C160.369 70.6424 159.729 71.3599 159.257 72.0215C158.127 73.6056 157.706 74.9362 156.624 75.6379C155.075 76.6417 153.45 75.8088 152.791 74.085C152.064 72.1828 152.773 70.8216 154.281 69.4533Z" fill="#7FA1F0"/>
</g>
<g filter="url(#filter9_ii_756_4379)">
<path d="M234.419 64.4586C233.387 64.0854 231.912 64.5813 230.769 65.1186C230.03 65.4664 230.124 66.4848 230.86 66.8399C231.226 67.0166 231.595 67.2112 231.911 67.4095C233.05 68.1261 233.669 68.8668 234.546 69.0312C235.8 69.2666 236.622 68.3064 236.59 67.0303C236.556 65.6222 235.744 64.9377 234.419 64.4586Z" fill="#7FA1F0"/>
</g>
<g filter="url(#filter10_ii_756_4379)">
<path d="M232.134 57.5067C230.47 58.3194 229.427 60.951 228.882 62.7945C228.651 63.5782 229.452 64.2184 230.21 63.9128C230.982 63.6017 231.886 63.2729 232.675 63.0798C234.565 62.6176 235.957 62.7198 237.01 61.9747C238.516 60.9086 238.345 59.0902 236.988 57.8392C235.491 56.4586 233.964 56.6131 232.134 57.5067Z" fill="#7FA1F0"/>
</g>
<g filter="url(#filter11_ii_756_4379)">
<path d="M201.35 78.9271C201.306 77.6956 200.036 76.3543 199.038 75.4862C198.498 75.0156 197.696 75.3333 197.559 76.0369C197.421 76.7475 197.263 77.5711 197.155 78.1663C196.916 79.4908 196.918 79.8926 197.155 80.7526C197.5 82.0004 198.603 82.4073 199.775 81.9015C201.068 81.3434 201.4 80.3349 201.35 78.9271Z" fill="#7FA1F0"/>
</g>
<g filter="url(#filter12_dii_756_4379)">
<path d="M219.227 73.1366C219.227 75.8478 215.93 78.0457 211.864 78.0457C207.797 78.0457 204.5 75.8478 204.5 73.1366C204.5 70.4254 207.797 68.2275 211.864 68.2275C215.93 68.2275 219.227 70.4254 219.227 73.1366Z" fill="#202020"/>
</g>
</g>
<defs>
<filter id="filter0_d_756_4379" x="-10" y="0" width="413" height="250" filterUnits="userSpaceOnUse" color-interpolation-filters="sRGB">
<feFlood flood-opacity="0" result="BackgroundImageFix"/>
<feColorMatrix in="SourceAlpha" type="matrix" values="0 0 0 0 0 0 0 0 0 0 0 0 0 0 0 0 0 0 127 0" result="hardAlpha"/>
<feOffset/>
<feGaussianBlur stdDeviation="5"/>
<feComposite in2="hardAlpha" operator="out"/>
<feColorMatrix type="matrix" values="0 0 0 0 0 0 0 0 0 0 0 0 0 0 0 0 0 0 0.15 0"/>
<feBlend mode="normal" in2="BackgroundImageFix" result="effect1_dropShadow_756_4379"/>
<feBlend mode="normal" in="SourceGraphic" in2="effect1_dropShadow_756_4379" result="shape"/>
</filter>
<filter id="filter1_ii_756_4379" x="160.975" y="33" width="70.0591" height="70.0586" filterUnits="userSpaceOnUse" color-interpolation-filters="sRGB">
<feFlood flood-opacity="0" result="BackgroundImageFix"/>
<feBlend mode="normal" in="SourceGraphic" in2="BackgroundImageFix" result="shape"/>
<feColorMatrix in="SourceAlpha" type="matrix" values="0 0 0 0 0 0 0 0 0 0 0 0 0 0 0 0 0 0 127 0" result="hardAlpha"/>
<feOffset dx="-5" dy="-5"/>
<feGaussianBlur stdDeviation="2.5"/>
<feComposite in2="hardAlpha" operator="arithmetic" k2="-1" k3="1"/>
<feColorMatrix type="matrix" values="0 0 0 0 0 0 0 0 0 0 0 0 0 0 0 0 0 0 0.2 0"/>
<feBlend mode="normal" in2="shape" result="effect1_innerShadow_756_4379"/>
<feColorMatrix in="SourceAlpha" type="matrix" values="0 0 0 0 0 0 0 0 0 0 0 0 0 0 0 0 0 0 127 0" result="hardAlpha"/>
<feOffset dx="5" dy="5"/>
<feGaussianBlur stdDeviation="2.5"/>
<feComposite in2="hardAlpha" operator="arithmetic" k2="-1" k3="1"/>
<feColorMatrix type="matrix" values="0 0 0 0 1 0 0 0 0 1 0 0 0 0 1 0 0 0 0.2 0"/>
<feBlend mode="normal" in2="effect1_innerShadow_756_4379" result="effect2_innerShadow_756_4379"/>
</filter>
<filter id="filter2_ii_756_4379" x="175.02" y="83.835" width="16.2244" height="23.665" filterUnits="userSpaceOnUse" color-interpolation-filters="sRGB">
<feFlood flood-opacity="0" result="BackgroundImageFix"/>
<feBlend mode="normal" in="SourceGraphic" in2="BackgroundImageFix" result="shape"/>
<feColorMatrix in="SourceAlpha" type="matrix" values="0 0 0 0 0 0 0 0 0 0 0 0 0 0 0 0 0 0 127 0" result="hardAlpha"/>
<feOffset dx="-2" dy="-2"/>
<feGaussianBlur stdDeviation="1"/>
<feComposite in2="hardAlpha" operator="arithmetic" k2="-1" k3="1"/>
<feColorMatrix type="matrix" values="0 0 0 0 0 0 0 0 0 0 0 0 0 0 0 0 0 0 0.2 0"/>
<feBlend mode="normal" in2="shape" result="effect1_innerShadow_756_4379"/>
<feColorMatrix in="SourceAlpha" type="matrix" values="0 0 0 0 0 0 0 0 0 0 0 0 0 0 0 0 0 0 127 0" result="hardAlpha"/>
<feOffset dx="2" dy="2"/>
<feGaussianBlur stdDeviation="1"/>
<feComposite in2="hardAlpha" operator="arithmetic" k2="-1" k3="1"/>
<feColorMatrix type="matrix" values="0 0 0 0 1 0 0 0 0 1 0 0 0 0 1 0 0 0 0.2 0"/>
<feBlend mode="normal" in2="effect1_innerShadow_756_4379" result="effect2_innerShadow_756_4379"/>
</filter>
<filter id="filter3_ii_756_4379" x="198.406" y="83.835" width="16.2244" height="23.665" filterUnits="userSpaceOnUse" color-interpolation-filters="sRGB">
<feFlood flood-opacity="0" result="BackgroundImageFix"/>
<feBlend mode="normal" in="SourceGraphic" in2="BackgroundImageFix" result="shape"/>
<feColorMatrix in="SourceAlpha" type="matrix" values="0 0 0 0 0 0 0 0 0 0 0 0 0 0 0 0 0 0 127 0" result="hardAlpha"/>
<feOffset dx="-2" dy="-2"/>
<feGaussianBlur stdDeviation="1"/>
<feComposite in2="hardAlpha" operator="arithmetic" k2="-1" k3="1"/>
<feColorMatrix type="matrix" values="0 0 0 0 0 0 0 0 0 0 0 0 0 0 0 0 0 0 0.2 0"/>
<feBlend mode="normal" in2="shape" result="effect1_innerShadow_756_4379"/>
<feColorMatrix in="SourceAlpha" type="matrix" values="0 0 0 0 0 0 0 0 0 0 0 0 0 0 0 0 0 0 127 0" result="hardAlpha"/>
<feOffset dx="2" dy="2"/>
<feGaussianBlur stdDeviation="1"/>
<feComposite in2="hardAlpha" operator="arithmetic" k2="-1" k3="1"/>
<feColorMatrix type="matrix" values="0 0 0 0 1 0 0 0 0 1 0 0 0 0 1 0 0 0 0.2 0"/>
<feBlend mode="normal" in2="effect1_innerShadow_756_4379" result="effect2_innerShadow_756_4379"/>
</filter>
<filter id="filter4_ii_756_4379" x="178.937" y="64.1367" width="8.92627" height="7.13965" filterUnits="userSpaceOnUse" color-interpolation-filters="sRGB">
<feFlood flood-opacity="0" result="BackgroundImageFix"/>
<feBlend mode="normal" in="SourceGraphic" in2="BackgroundImageFix" result="shape"/>
<feColorMatrix in="SourceAlpha" type="matrix" values="0 0 0 0 0 0 0 0 0 0 0 0 0 0 0 0 0 0 127 0" result="hardAlpha"/>
<feOffset dx="-1" dy="-1"/>
<feGaussianBlur stdDeviation="0.5"/>
<feComposite in2="hardAlpha" operator="arithmetic" k2="-1" k3="1"/>
<feColorMatrix type="matrix" values="0 0 0 0 1 0 0 0 0 1 0 0 0 0 1 0 0 0 0.2 0"/>
<feBlend mode="normal" in2="shape" result="effect1_innerShadow_756_4379"/>
<feColorMatrix in="SourceAlpha" type="matrix" values="0 0 0 0 0 0 0 0 0 0 0 0 0 0 0 0 0 0 127 0" result="hardAlpha"/>
<feOffset dx="1" dy="1"/>
<feGaussianBlur stdDeviation="0.5"/>
<feComposite in2="hardAlpha" operator="arithmetic" k2="-1" k3="1"/>
<feColorMatrix type="matrix" values="0 0 0 0 0 0 0 0 0 0 0 0 0 0 0 0 0 0 0.2 0"/>
<feBlend mode="normal" in2="effect1_innerShadow_756_4379" result="effect2_innerShadow_756_4379"/>
</filter>
<filter id="filter5_ii_756_4379" x="203.121" y="64.1367" width="8.92627" height="7.13965" filterUnits="userSpaceOnUse" color-interpolation-filters="sRGB">
<feFlood flood-opacity="0" result="BackgroundImageFix"/>
<feBlend mode="normal" in="SourceGraphic" in2="BackgroundImageFix" result="shape"/>
<feColorMatrix in="SourceAlpha" type="matrix" values="0 0 0 0 0 0 0 0 0 0 0 0 0 0 0 0 0 0 127 0" result="hardAlpha"/>
<feOffset dx="-1" dy="-1"/>
<feGaussianBlur stdDeviation="0.5"/>
<feComposite in2="hardAlpha" operator="arithmetic" k2="-1" k3="1"/>
<feColorMatrix type="matrix" values="0 0 0 0 1 0 0 0 0 1 0 0 0 0 1 0 0 0 0.2 0"/>
<feBlend mode="normal" in2="shape" result="effect1_innerShadow_756_4379"/>
<feColorMatrix in="SourceAlpha" type="matrix" values="0 0 0 0 0 0 0 0 0 0 0 0 0 0 0 0 0 0 127 0" result="hardAlpha"/>
<feOffset dx="1" dy="1"/>
<feGaussianBlur stdDeviation="0.5"/>
<feComposite in2="hardAlpha" operator="arithmetic" k2="-1" k3="1"/>
<feColorMatrix type="matrix" values="0 0 0 0 0 0 0 0 0 0 0 0 0 0 0 0 0 0 0.2 0"/>
<feBlend mode="normal" in2="effect1_innerShadow_756_4379" result="effect2_innerShadow_756_4379"/>
</filter>
<filter id="filter6_dii_756_4379" x="170.5" y="67.2275" width="19.73" height="13.8184" filterUnits="userSpaceOnUse" color-interpolation-filters="sRGB">
<feFlood flood-opacity="0" result="BackgroundImageFix"/>
<feColorMatrix in="SourceAlpha" type="matrix" values="0 0 0 0 0 0 0 0 0 0 0 0 0 0 0 0 0 0 127 0" result="hardAlpha"/>
<feOffset dx="2" dy="1"/>
<feGaussianBlur stdDeviation="1"/>
<feComposite in2="hardAlpha" operator="out"/>
<feColorMatrix type="matrix" values="0 0 0 0 0 0 0 0 0 0 0 0 0 0 0 0 0 0 0.1 0"/>
<feBlend mode="normal" in2="BackgroundImageFix" result="effect1_dropShadow_756_4379"/>
<feBlend mode="normal" in="SourceGraphic" in2="effect1_dropShadow_756_4379" result="shape"/>
<feColorMatrix in="SourceAlpha" type="matrix" values="0 0 0 0 0 0 0 0 0 0 0 0 0 0 0 0 0 0 127 0" result="hardAlpha"/>
<feOffset dx="-1" dy="-1"/>
<feGaussianBlur stdDeviation="0.5"/>
<feComposite in2="hardAlpha" operator="arithmetic" k2="-1" k3="1"/>
<feColorMatrix type="matrix" values="0 0 0 0 0 0 0 0 0 0 0 0 0 0 0 0 0 0 0.2 0"/>
<feBlend mode="normal" in2="shape" result="effect2_innerShadow_756_4379"/>
<feColorMatrix in="SourceAlpha" type="matrix" values="0 0 0 0 0 0 0 0 0 0 0 0 0 0 0 0 0 0 127 0" result="hardAlpha"/>
<feOffset dx="1" dy="1"/>
<feGaussianBlur stdDeviation="0.5"/>
<feComposite in2="hardAlpha" operator="arithmetic" k2="-1" k3="1"/>
<feColorMatrix type="matrix" values="0 0 0 0 1 0 0 0 0 1 0 0 0 0 1 0 0 0 0.2 0"/>
<feBlend mode="normal" in2="effect2_innerShadow_756_4379" result="effect3_innerShadow_756_4379"/>
</filter>
<filter id="filter7_ii_756_4379" x="145.453" y="57.5078" width="18.189" height="11.6094" filterUnits="userSpaceOnUse" color-interpolation-filters="sRGB">
<feFlood flood-opacity="0" result="BackgroundImageFix"/>
<feBlend mode="normal" in="SourceGraphic" in2="BackgroundImageFix" result="shape"/>
<feColorMatrix in="SourceAlpha" type="matrix" values="0 0 0 0 0 0 0 0 0 0 0 0 0 0 0 0 0 0 127 0" result="hardAlpha"/>
<feOffset dx="-1" dy="-1"/>
<feGaussianBlur stdDeviation="0.5"/>
<feComposite in2="hardAlpha" operator="arithmetic" k2="-1" k3="1"/>
<feColorMatrix type="matrix" values="0 0 0 0 1 0 0 0 0 1 0 0 0 0 1 0 0 0 0.2 0"/>
<feBlend mode="normal" in2="shape" result="effect1_innerShadow_756_4379"/>
<feColorMatrix in="SourceAlpha" type="matrix" values="0 0 0 0 0 0 0 0 0 0 0 0 0 0 0 0 0 0 127 0" result="hardAlpha"/>
<feOffset dx="1" dy="1"/>
<feGaussianBlur stdDeviation="0.5"/>
<feComposite in2="hardAlpha" operator="arithmetic" k2="-1" k3="1"/>
<feColorMatrix type="matrix" values="0 0 0 0 0 0 0 0 0 0 0 0 0 0 0 0 0 0 0.2 0"/>
<feBlend mode="normal" in2="effect1_innerShadow_756_4379" result="effect2_innerShadow_756_4379"/>
</filter>
<filter id="filter8_ii_756_4379" x="151.503" y="67.3086" width="10.7317" height="9.7627" filterUnits="userSpaceOnUse" color-interpolation-filters="sRGB">
<feFlood flood-opacity="0" result="BackgroundImageFix"/>
<feBlend mode="normal" in="SourceGraphic" in2="BackgroundImageFix" result="shape"/>
<feColorMatrix in="SourceAlpha" type="matrix" values="0 0 0 0 0 0 0 0 0 0 0 0 0 0 0 0 0 0 127 0" result="hardAlpha"/>
<feOffset dx="-1" dy="-1"/>
<feGaussianBlur stdDeviation="0.5"/>
<feComposite in2="hardAlpha" operator="arithmetic" k2="-1" k3="1"/>
<feColorMatrix type="matrix" values="0 0 0 0 1 0 0 0 0 1 0 0 0 0 1 0 0 0 0.2 0"/>
<feBlend mode="normal" in2="shape" result="effect1_innerShadow_756_4379"/>
<feColorMatrix in="SourceAlpha" type="matrix" values="0 0 0 0 0 0 0 0 0 0 0 0 0 0 0 0 0 0 127 0" result="hardAlpha"/>
<feOffset dx="1" dy="1"/>
<feGaussianBlur stdDeviation="0.5"/>
<feComposite in2="hardAlpha" operator="arithmetic" k2="-1" k3="1"/>
<feColorMatrix type="matrix" values="0 0 0 0 0 0 0 0 0 0 0 0 0 0 0 0 0 0 0.2 0"/>
<feBlend mode="normal" in2="effect1_innerShadow_756_4379" result="effect2_innerShadow_756_4379"/>
</filter>
<filter id="filter9_ii_756_4379" x="229.259" y="63.3291" width="8.33179" height="6.7373" filterUnits="userSpaceOnUse" color-interpolation-filters="sRGB">
<feFlood flood-opacity="0" result="BackgroundImageFix"/>
<feBlend mode="normal" in="SourceGraphic" in2="BackgroundImageFix" result="shape"/>
<feColorMatrix in="SourceAlpha" type="matrix" values="0 0 0 0 0 0 0 0 0 0 0 0 0 0 0 0 0 0 127 0" result="hardAlpha"/>
<feOffset dx="-1" dy="-1"/>
<feGaussianBlur stdDeviation="0.5"/>
<feComposite in2="hardAlpha" operator="arithmetic" k2="-1" k3="1"/>
<feColorMatrix type="matrix" values="0 0 0 0 1 0 0 0 0 1 0 0 0 0 1 0 0 0 0.2 0"/>
<feBlend mode="normal" in2="shape" result="effect1_innerShadow_756_4379"/>
<feColorMatrix in="SourceAlpha" type="matrix" values="0 0 0 0 0 0 0 0 0 0 0 0 0 0 0 0 0 0 127 0" result="hardAlpha"/>
<feOffset dx="1" dy="1"/>
<feGaussianBlur stdDeviation="0.5"/>
<feComposite in2="hardAlpha" operator="arithmetic" k2="-1" k3="1"/>
<feColorMatrix type="matrix" values="0 0 0 0 0 0 0 0 0 0 0 0 0 0 0 0 0 0 0.2 0"/>
<feBlend mode="normal" in2="effect1_innerShadow_756_4379" result="effect2_innerShadow_756_4379"/>
</filter>
<filter id="filter10_ii_756_4379" x="227.842" y="55.8184" width="11.2319" height="9.17188" filterUnits="userSpaceOnUse" color-interpolation-filters="sRGB">
<feFlood flood-opacity="0" result="BackgroundImageFix"/>
<feBlend mode="normal" in="SourceGraphic" in2="BackgroundImageFix" result="shape"/>
<feColorMatrix in="SourceAlpha" type="matrix" values="0 0 0 0 0 0 0 0 0 0 0 0 0 0 0 0 0 0 127 0" result="hardAlpha"/>
<feOffset dx="-1" dy="-1"/>
<feGaussianBlur stdDeviation="0.5"/>
<feComposite in2="hardAlpha" operator="arithmetic" k2="-1" k3="1"/>
<feColorMatrix type="matrix" values="0 0 0 0 1 0 0 0 0 1 0 0 0 0 1 0 0 0 0.2 0"/>
<feBlend mode="normal" in2="shape" result="effect1_innerShadow_756_4379"/>
<feColorMatrix in="SourceAlpha" type="matrix" values="0 0 0 0 0 0 0 0 0 0 0 0 0 0 0 0 0 0 127 0" result="hardAlpha"/>
<feOffset dx="1" dy="1"/>
<feGaussianBlur stdDeviation="0.5"/>
<feComposite in2="hardAlpha" operator="arithmetic" k2="-1" k3="1"/>
<feColorMatrix type="matrix" values="0 0 0 0 0 0 0 0 0 0 0 0 0 0 0 0 0 0 0.2 0"/>
<feBlend mode="normal" in2="effect1_innerShadow_756_4379" result="effect2_innerShadow_756_4379"/>
</filter>
<filter id="filter11_ii_756_4379" x="195.977" y="74.2637" width="6.37793" height="8.84961" filterUnits="userSpaceOnUse" color-interpolation-filters="sRGB">
<feFlood flood-opacity="0" result="BackgroundImageFix"/>
<feBlend mode="normal" in="SourceGraphic" in2="BackgroundImageFix" result="shape"/>
<feColorMatrix in="SourceAlpha" type="matrix" values="0 0 0 0 0 0 0 0 0 0 0 0 0 0 0 0 0 0 127 0" result="hardAlpha"/>
<feOffset dx="-1" dy="-1"/>
<feGaussianBlur stdDeviation="0.5"/>
<feComposite in2="hardAlpha" operator="arithmetic" k2="-1" k3="1"/>
<feColorMatrix type="matrix" values="0 0 0 0 1 0 0 0 0 1 0 0 0 0 1 0 0 0 0.2 0"/>
<feBlend mode="normal" in2="shape" result="effect1_innerShadow_756_4379"/>
<feColorMatrix in="SourceAlpha" type="matrix" values="0 0 0 0 0 0 0 0 0 0 0 0 0 0 0 0 0 0 127 0" result="hardAlpha"/>
<feOffset dx="1" dy="1"/>
<feGaussianBlur stdDeviation="0.5"/>
<feComposite in2="hardAlpha" operator="arithmetic" k2="-1" k3="1"/>
<feColorMatrix type="matrix" values="0 0 0 0 0 0 0 0 0 0 0 0 0 0 0 0 0 0 0.2 0"/>
<feBlend mode="normal" in2="effect1_innerShadow_756_4379" result="effect2_innerShadow_756_4379"/>
</filter>
<filter id="filter12_dii_756_4379" x="203.5" y="67.2275" width="19.7273" height="13.8184" filterUnits="userSpaceOnUse" color-interpolation-filters="sRGB">
<feFlood flood-opacity="0" result="BackgroundImageFix"/>
<feColorMatrix in="SourceAlpha" type="matrix" values="0 0 0 0 0 0 0 0 0 0 0 0 0 0 0 0 0 0 127 0" result="hardAlpha"/>
<feOffset dx="2" dy="1"/>
<feGaussianBlur stdDeviation="1"/>
<feComposite in2="hardAlpha" operator="out"/>
<feColorMatrix type="matrix" values="0 0 0 0 0 0 0 0 0 0 0 0 0 0 0 0 0 0 0.1 0"/>
<feBlend mode="normal" in2="BackgroundImageFix" result="effect1_dropShadow_756_4379"/>
<feBlend mode="normal" in="SourceGraphic" in2="effect1_dropShadow_756_4379" result="shape"/>
<feColorMatrix in="SourceAlpha" type="matrix" values="0 0 0 0 0 0 0 0 0 0 0 0 0 0 0 0 0 0 127 0" result="hardAlpha"/>
<feOffset dx="-1" dy="-1"/>
<feGaussianBlur stdDeviation="0.5"/>
<feComposite in2="hardAlpha" operator="arithmetic" k2="-1" k3="1"/>
<feColorMatrix type="matrix" values="0 0 0 0 0 0 0 0 0 0 0 0 0 0 0 0 0 0 0.2 0"/>
<feBlend mode="normal" in2="shape" result="effect2_innerShadow_756_4379"/>
<feColorMatrix in="SourceAlpha" type="matrix" values="0 0 0 0 0 0 0 0 0 0 0 0 0 0 0 0 0 0 127 0" result="hardAlpha"/>
<feOffset dx="1" dy="1"/>
<feGaussianBlur stdDeviation="0.5"/>
<feComposite in2="hardAlpha" operator="arithmetic" k2="-1" k3="1"/>
<feColorMatrix type="matrix" values="0 0 0 0 1 0 0 0 0 1 0 0 0 0 1 0 0 0 0.2 0"/>
<feBlend mode="normal" in2="effect2_innerShadow_756_4379" result="effect3_innerShadow_756_4379"/>
</filter>
</defs>
</svg>
