<svg width="393" height="256" viewBox="0 0 393 256" fill="none" xmlns="http://www.w3.org/2000/svg">
<g filter="url(#filter0_d_546_1905)">
<rect x="24" y="105.293" width="345" height="140" rx="20" fill="white"/>
<path d="M65.2939 141.715V144.059C65.2939 146.891 65.2939 149.967 64.4883 154.63L62.1201 154.41C62.999 150.04 62.999 146.818 62.999 144.059V143.619H50.1084V141.715H65.2939ZM67.9062 156.339V158.268H47.96V156.339H67.9062ZM86.1289 139.493V145.963H89.3027V147.892H86.1289V155.387H83.7852V139.493H86.1289ZM80.1963 141.153C80.1963 146.891 76.29 151.066 69.8936 152.994L68.917 151.139C74.0317 149.601 77.2178 146.695 77.6816 143.082H69.8447V141.153H80.1963ZM87.0322 159.025V160.904H72.2373V153.751H74.5811V159.025H87.0322ZM97.0518 141.056C100.519 141.031 102.984 143.18 103.009 146.256C102.984 149.332 100.519 151.481 97.0518 151.481C93.6094 151.481 91.0703 149.332 91.0947 146.256C91.0703 143.18 93.6094 141.031 97.0518 141.056ZM97.0518 143.058C94.9277 143.058 93.3652 144.327 93.3896 146.256C93.3652 148.185 94.9277 149.454 97.0518 149.454C99.1758 149.454 100.738 148.185 100.738 146.256C100.738 144.327 99.1758 143.058 97.0518 143.058ZM108.014 139.493V161.417H105.694V139.493H108.014ZM90.0449 154.776C94.0244 154.776 99.542 154.728 104.327 154.044L104.498 155.729C99.542 156.681 94.2441 156.705 90.3379 156.705L90.0449 154.776ZM122.315 141.129C124.305 141.129 125.953 142.276 126.93 144.254H132.325V139.493H134.62V161.417H132.325V153.019H127.076C126.136 155.216 124.415 156.485 122.315 156.485C119.044 156.485 116.749 153.507 116.773 148.795C116.749 144.108 119.044 141.129 122.315 141.129ZM122.315 143.204C120.338 143.204 118.971 145.353 118.971 148.795C118.971 152.262 120.338 154.41 122.315 154.41C124.293 154.41 125.66 152.262 125.66 148.795C125.66 145.353 124.293 143.204 122.315 143.204ZM127.589 146.158C127.748 146.964 127.857 147.843 127.857 148.795C127.857 149.625 127.784 150.394 127.638 151.114H132.325V146.158H127.589ZM155.602 139.493V152.506H153.282V146.964H149.205V145.06H153.282V139.493H155.602ZM148.277 153.116C152.867 153.116 155.675 154.63 155.675 157.242C155.675 159.855 152.867 161.344 148.277 161.368C143.688 161.344 140.855 159.855 140.88 157.242C140.855 154.63 143.688 153.116 148.277 153.116ZM148.277 154.923C145.079 154.923 143.175 155.753 143.175 157.242C143.175 158.707 145.079 159.562 148.277 159.537C151.476 159.562 153.38 158.707 153.38 157.242C153.38 155.753 151.476 154.923 148.277 154.923ZM145.201 143.351C145.201 146.134 147.179 148.819 150.475 149.943L149.278 151.774C146.825 150.919 145.018 149.173 144.078 147.013C143.114 149.466 141.197 151.432 138.585 152.384L137.364 150.528C140.758 149.357 142.833 146.402 142.833 143.375V142.887H138.097V141.007H149.889V142.887H145.201V143.351ZM176.461 139.493V161.417H174.142V139.493H176.461ZM164.767 141.129C168.014 141.129 170.406 144.108 170.406 148.795C170.406 153.507 168.014 156.485 164.767 156.485C161.471 156.485 159.103 153.507 159.103 148.795C159.103 144.108 161.471 141.129 164.767 141.129ZM164.767 143.204C162.74 143.204 161.349 145.353 161.349 148.795C161.349 152.262 162.74 154.41 164.767 154.41C166.769 154.41 168.16 152.262 168.16 148.795C168.16 145.353 166.769 143.204 164.767 143.204ZM203.067 139.493V161.417H200.748V148.453H194.229V146.549H200.748V139.493H203.067ZM188.321 141.91V154.215C191.446 154.166 194.4 153.983 197.574 153.336L197.867 155.24C194.352 155.973 191.178 156.144 187.735 156.144H185.978V141.91H188.321ZM225.782 152.042V153.922H216.847V161.344H214.576V153.922H205.763V152.042H225.782ZM223.268 140.665V149.259H208.277V140.665H223.268ZM210.548 142.521V147.452H220.948V142.521H210.548ZM238.106 141.129C241.378 141.129 243.697 144.108 243.722 148.795C243.697 153.507 241.378 156.485 238.106 156.485C234.835 156.485 232.491 153.507 232.516 148.795C232.491 144.108 234.835 141.129 238.106 141.129ZM238.106 143.204C236.104 143.204 234.737 145.353 234.737 148.795C234.737 152.262 236.104 154.41 238.106 154.41C240.133 154.41 241.5 152.262 241.5 148.795C241.5 145.353 240.133 143.204 238.106 143.204ZM249.288 139.493V148.063H252.804V150.016H249.288V161.368H246.969V139.493H249.288ZM261.627 141.691C261.603 144.156 263.604 146.256 267.022 147.037L265.948 148.868C263.348 148.197 261.432 146.805 260.455 144.889C259.466 147.013 257.501 148.624 254.84 149.357L253.692 147.55C257.159 146.647 259.234 144.327 259.234 141.691V140.421H261.627V141.691ZM271.417 139.518V161.368H269.122V139.518H271.417ZM253.204 151.114C257.281 151.139 262.823 151.066 267.608 150.406L267.779 152.067C265.777 152.445 263.714 152.677 261.7 152.799V160.685H259.381V152.945C257.269 153.031 255.267 153.043 253.521 153.043L253.204 151.114ZM292.496 139.518V161.368H290.152V156.144H285.318V154.386H290.152V139.518H292.496ZM274.112 150.895C278.263 150.87 283.78 150.846 288.565 150.187L288.688 151.896C286.612 152.262 284.452 152.482 282.34 152.604V160.685H280.021V152.726C278.019 152.811 276.114 152.823 274.43 152.823L274.112 150.895ZM281.314 140.519C284.537 140.519 286.856 142.301 286.856 144.889C286.856 147.526 284.537 149.234 281.314 149.234C278.019 149.234 275.724 147.526 275.724 144.889C275.724 142.301 278.019 140.519 281.314 140.519ZM281.314 142.301C279.288 142.301 277.896 143.351 277.921 144.889C277.896 146.451 279.288 147.452 281.314 147.452C283.268 147.452 284.659 146.451 284.659 144.889C284.659 143.351 283.268 142.301 281.314 142.301ZM315.211 156.705V158.634H295.191V156.705H299.977V150.992C298.182 150.004 297.096 148.429 297.096 146.476C297.096 143.033 300.465 140.763 305.152 140.763C309.864 140.763 313.233 143.033 313.233 146.476C313.233 148.404 312.184 149.955 310.426 150.943V156.705H315.211ZM305.152 142.618C301.71 142.618 299.342 144.108 299.342 146.476C299.342 148.819 301.71 150.358 305.152 150.358C308.57 150.358 310.987 148.819 310.987 146.476C310.987 144.108 308.57 142.618 305.152 142.618ZM302.271 156.705H308.082V151.822C307.191 152.054 306.202 152.164 305.152 152.164C304.127 152.164 303.15 152.054 302.271 151.847V156.705ZM320.846 161.043H345.846V136.043H320.846V161.043Z" fill="#121212"/>
<path d="M70.1213 178.861V179.736H65.5959V181.049H69.8889V181.883H65.5959V183.291C68.0158 183.291 69.3352 183.243 70.9553 182.977L71.0647 183.838C69.3693 184.125 67.9885 184.166 65.4455 184.166H64.5295V178.861H70.1213ZM73.4572 178.246V180.912H75.2893V181.801H73.4572V184.604H72.3908V178.246H73.4572ZM73.4572 185.192V188.049H66.7854V189.402H73.9084V190.264H65.7326V187.229H72.3908V186.053H65.7053V185.192H73.4572ZM83.074 184.111V184.986H80.326V186.955C81.4949 186.901 82.6844 186.805 83.7986 186.641L83.8807 187.434C81.1053 187.94 78.1111 187.94 75.9236 187.953L75.7732 187.051C76.7918 187.044 77.9949 187.044 79.2596 186.996V184.986H76.7029V179.354H83.0193V180.229H77.783V181.719H82.7596V182.567H77.783V184.111H83.074ZM85.6717 178.246V190.428H84.6053V178.246H85.6717ZM98.5697 183.893V184.74H87.4408V183.893H98.5697ZM97.1752 185.711V188.295H89.8744V189.457H97.5717V190.236H88.7943V187.557H96.1088V186.518H88.7807V185.711H97.1752ZM97.1342 178.615V181.131H89.9564V182.197H97.3529V182.977H88.89V180.393H96.0541V179.395H88.849V178.615H97.1342ZM106.524 180.543C106.524 182.238 107.754 183.838 109.532 184.481L108.93 185.315C107.597 184.781 106.538 183.722 106.018 182.402C105.499 183.872 104.391 185.041 102.956 185.615L102.381 184.74C104.2 184.07 105.458 182.375 105.471 180.502V178.998H106.524V180.543ZM112.444 178.26V187.365H111.364V182.02H108.657V181.117H111.364V178.26H112.444ZM112.717 189.238V190.141H104.583V186.326H105.663V189.238H112.717ZM119.381 179.135V180.037H115.69V181.555H119.244V182.402H115.69V184.084C117.46 184.077 118.568 184.016 119.873 183.756L119.983 184.645C118.561 184.918 117.412 184.986 115.43 184.986H114.664V179.135H119.381ZM124.44 178.26V185.629H123.414V182.307H121.705V185.547H120.707V178.492H121.705V181.432H123.414V178.26H124.44ZM124.44 186.258V190.401H123.387V187.133H116.25V186.258H124.44ZM135.273 178.246V183.264H137.31V184.152H135.273V190.401H134.207V178.246H135.273ZM133.031 180.201V181.09H125.799V180.201H128.929V178.397H129.996V180.201H133.031ZM129.476 182.102C131.199 182.102 132.443 183.25 132.457 184.891C132.443 186.531 131.199 187.68 129.476 187.68C127.74 187.68 126.482 186.531 126.496 184.891C126.482 183.25 127.74 182.102 129.476 182.102ZM129.476 183.004C128.342 183.004 127.508 183.797 127.521 184.891C127.508 185.998 128.342 186.777 129.476 186.764C130.597 186.777 131.418 185.998 131.431 184.891C131.418 183.797 130.597 183.004 129.476 183.004ZM141.937 181.514C141.923 183.729 143.441 185.971 145.232 186.777L144.576 187.625C143.195 186.948 141.998 185.52 141.417 183.783C140.85 185.622 139.654 187.153 138.232 187.871L137.548 186.969C139.353 186.135 140.857 183.824 140.871 181.514V179.299H141.937V181.514ZM147.638 178.246V190.428H146.558V178.246H147.638ZM155.519 179.313V180.393H158.362V178.26H159.442V187.133H158.362V183.893H155.519V184.986H149.94V179.313H155.519ZM151.007 180.201V184.125H154.466V180.201H151.007ZM159.716 189.238V190.141H151.581V186.34H152.661V189.238H159.716ZM155.519 183.004H158.362V181.295H155.519V183.004ZM173.863 179.545V180.762C173.863 182.293 173.863 184.029 173.412 186.668L172.319 186.559C172.811 184.07 172.811 182.252 172.811 180.762V180.434H165.483V179.545H173.863ZM175.354 187.721V188.609H164.279V187.721H175.354ZM187.117 184.262V185.123H176.029V184.262H181.047V182.84H177.437V178.82H185.736V179.682H178.49V181.965H185.818V182.84H182.086V184.262H187.117ZM181.566 186.012C184.178 186.012 185.736 186.805 185.75 188.199C185.736 189.608 184.178 190.387 181.566 190.401C178.941 190.387 177.369 189.608 177.369 188.199C177.369 186.805 178.941 186.012 181.566 186.012ZM181.566 186.859C179.611 186.859 178.449 187.365 178.463 188.199C178.449 189.047 179.611 189.539 181.566 189.539C183.494 189.539 184.67 189.047 184.67 188.199C184.67 187.365 183.494 186.859 181.566 186.859ZM197.281 178.246V181.951H199.113V182.854H197.281V187.215H196.214V178.246H197.281ZM197.841 189.238V190.141H189.679V186.285H190.732V189.238H197.841ZM191.197 179.108C193.015 179.108 194.382 180.338 194.396 182.102C194.382 183.865 193.015 185.096 191.197 185.096C189.378 185.096 187.997 183.865 188.011 182.102C187.997 180.338 189.378 179.108 191.197 179.108ZM191.197 180.051C189.994 180.051 189.05 180.899 189.064 182.102C189.05 183.305 189.994 184.152 191.197 184.152C192.427 184.152 193.343 183.305 193.343 182.102C193.343 180.899 192.427 180.051 191.197 180.051ZM212.768 178.246V190.428H211.688V183.565H209.022V182.676H211.688V178.246H212.768ZM206.903 181.856C206.903 183.879 208.352 186.08 210.13 186.887L209.487 187.748C208.099 187.071 206.93 185.602 206.383 183.906C205.823 185.704 204.627 187.263 203.239 187.994L202.583 187.16C204.346 186.299 205.809 184.016 205.823 181.856V180.393H203.047V179.504H209.692V180.393H206.903V181.856ZM218.557 180.557C218.557 182.143 219.746 183.565 221.537 184.152L221.031 185C219.63 184.542 218.571 183.571 218.051 182.348C217.525 183.742 216.404 184.829 214.947 185.356L214.401 184.494C216.219 183.879 217.49 182.307 217.504 180.557V180.037H214.729V179.149H221.291V180.037H218.557V180.557ZM223.944 178.246V181.35H225.776V182.252H223.944V185.588H222.877V178.246H223.944ZM220.047 185.916C222.549 185.916 224.053 186.736 224.053 188.131C224.053 189.553 222.549 190.373 220.047 190.373C217.545 190.373 216.014 189.553 216.014 188.131C216.014 186.736 217.545 185.916 220.047 185.916ZM220.047 186.777C218.215 186.777 217.08 187.283 217.094 188.131C217.08 189.006 218.215 189.512 220.047 189.512C221.893 189.512 223.014 189.006 223.014 188.131C223.014 187.283 221.893 186.777 220.047 186.777ZM233.26 182.238V183.113H230.799V184.809C231.933 184.761 233.068 184.679 234.121 184.563L234.203 185.356C231.592 185.711 228.693 185.793 226.41 185.793L226.246 184.918C227.312 184.911 228.509 184.898 229.732 184.85V183.113H227.353V179.039H233.164V179.928H228.433V182.238H233.26ZM236.213 178.26V187.352H235.133V178.26H236.213ZM236.609 189.238V190.141H228.324V186.723H229.39V189.238H236.609ZM247.243 179.08V184.276H241.624V179.08H247.243ZM242.677 179.955V183.401H246.204V179.955H242.677ZM250.606 178.246V181.172H252.438V182.074H250.606V185.192H249.54V178.246H250.606ZM250.825 185.902V186.777H247.38C247.496 188.076 249.308 189.211 251.29 189.526L250.894 190.359C249.116 190.066 247.503 189.184 246.806 187.967C246.115 189.191 244.516 190.059 242.745 190.346L242.335 189.526C244.345 189.211 246.122 188.097 246.259 186.777H242.813V185.902H250.825ZM263.928 184.262V185.137H258.911V186.477H262.575V190.236H254.208V186.477H257.858V185.137H252.854V184.262H263.928ZM258.911 178.178V179.395H262.807V180.256H258.979C259.054 181.609 260.989 182.519 263.272 182.731L262.958 183.537C260.934 183.325 259.13 182.628 258.391 181.418C257.646 182.628 255.841 183.325 253.825 183.537L253.497 182.731C255.794 182.519 257.714 181.609 257.803 180.256H254.003V179.395H257.858V178.178H258.911ZM255.274 187.338V189.361H261.522V187.338H255.274ZM273.304 178.52C275.943 178.52 277.597 179.367 277.597 180.83C277.597 182.266 275.943 183.1 273.304 183.1C270.666 183.1 268.998 182.266 268.998 180.83C268.998 179.367 270.666 178.52 273.304 178.52ZM273.304 179.381C271.336 179.381 270.092 179.928 270.105 180.83C270.092 181.719 271.336 182.238 273.304 182.252C275.246 182.238 276.504 181.719 276.504 180.83C276.504 179.928 275.246 179.381 273.304 179.381ZM277.488 186.244V190.236H269.121V186.244H277.488ZM270.187 187.106V189.361H276.435V187.106H270.187ZM278.842 184.152V185.041H267.767V184.152H278.842ZM290.646 187.994V188.897H279.517V187.994H282.648V185.684H280.912V181.938H288.185V180.037H280.884V179.149H289.238V182.826H281.978V184.795H289.525V185.684H287.624V187.994H290.646ZM283.701 187.994H286.572V185.684H283.701V187.994ZM304.479 178.246V190.401H303.399V178.246H304.479ZM300.883 179.572C300.87 183.072 299.243 186.162 295.169 188.117L294.581 187.242C297.869 185.684 299.544 183.353 299.79 180.447H295.141V179.572H300.883ZM317.295 184.945V185.834H306.166V184.945H311.197V183.66H307.615V180.693H314.779V179.436H307.574V178.561H315.86V181.5H308.682V182.799H316.119V183.66H312.25V184.945H317.295ZM315.928 186.764V190.291H314.848V187.639H307.41V186.764H315.928ZM324.67 179.6V180.229C324.656 181.186 324.656 182.799 324.314 185.055L323.234 184.959C323.562 182.922 323.59 181.445 323.59 180.475H318.49V179.6H324.67ZM321.484 183.072V186.764C322.831 186.716 324.212 186.627 325.476 186.477L325.531 187.283C322.974 187.68 320.117 187.734 317.943 187.721L317.806 186.832C318.606 186.825 319.495 186.818 320.431 186.791V183.072H321.484ZM327.308 178.246V183.332H329.277V184.262H327.308V190.401H326.242V178.246H327.308ZM125.171 205.602V206.504H120.154V210.428H119.101V206.504H114.097V205.602H125.171ZM120.167 200.652C120.167 202.17 122.286 203.496 124.46 203.797L124.064 204.658C122.184 204.371 120.413 203.428 119.648 202.102C118.868 203.442 117.071 204.371 115.191 204.658L114.794 203.797C116.954 203.496 119.101 202.184 119.101 200.652V200.639H115.177V199.764H119.101V198.246H120.154V199.764H124.105V200.639H120.167V200.652ZM129.989 201.158C129.989 202.772 131.274 204.193 133.079 204.754L132.546 205.615C131.138 205.157 130.03 204.193 129.483 202.949C128.957 204.282 127.856 205.315 126.421 205.82L125.888 204.986C127.679 204.385 128.936 202.867 128.936 201.158V200.762H126.188V199.887H128.936V198.328H130.016V199.887H132.737V200.762H129.989V201.158ZM135.923 198.26V207.338H134.843V202.895H132.313V202.006H134.843V198.26H135.923ZM136.264 209.238V210.141H128.116V206.518H129.196V209.238H136.264ZM151.164 198.246V210.401H150.125V198.246H151.164ZM148.676 198.547V209.772H147.65V203.797H144.998V202.895H147.65V198.547H148.676ZM145.818 199.75V200.639H142.277V206.572C144.027 206.566 145.135 206.49 146.447 206.203L146.557 207.119C145.148 207.406 143.959 207.461 142.004 207.475H141.238V199.75H145.818ZM162.531 198.246V210.428H161.451V198.246H162.531ZM156.064 199.19C157.869 199.203 159.168 200.844 159.168 203.428C159.168 206.012 157.869 207.652 156.064 207.652C154.246 207.652 152.961 206.012 152.961 203.428C152.961 200.844 154.246 199.203 156.064 199.19ZM156.064 200.147C154.847 200.16 154 201.445 154 203.428C154 205.41 154.847 206.695 156.064 206.695C157.281 206.695 158.129 205.41 158.129 203.428C158.129 201.445 157.281 200.16 156.064 200.147ZM174.335 198.246V210.428H173.269V203.729H170.698V202.84H173.269V198.246H174.335ZM170.493 199.367V200.256H165.9V202.785H169.96V203.66H165.9V206.6C168.135 206.6 169.557 206.525 171.232 206.231L171.355 207.119C169.591 207.406 168.101 207.488 165.749 207.488H164.82V199.367H170.493ZM185.415 198.246V203.195H187.384V204.098H185.415V210.401H184.348V198.246H185.415ZM182.27 199.559C182.27 203.004 180.657 206.135 176.692 208.09L176.091 207.242C179.235 205.677 180.944 203.339 181.19 200.461H176.651V199.559H182.27ZM202.051 207.94V208.842H190.922V207.94H195.926V204.973H192.234V199.272H200.67V204.973H196.979V207.94H202.051ZM193.287 200.133V204.111H199.631V200.133H193.287ZM212.365 202.799V203.66H204.203V198.971H212.201V199.859H205.296V202.799H212.365ZM213.787 205.274V206.149H208.714V210.359H207.662V206.149H202.658V205.274H213.787ZM221.673 200.201C221.659 201.856 222.917 203.373 224.708 203.988L224.147 204.836C222.773 204.344 221.7 203.312 221.167 202.02C220.654 203.448 219.56 204.549 218.118 205.082L217.557 204.221C219.389 203.565 220.606 201.979 220.62 200.133V198.875H221.673V200.201ZM227.087 198.246V201.473H228.919V202.389H227.087V205.615H226.02V198.246H227.087ZM227.087 206.217V210.401H226.02V207.092H219.13V206.217H227.087ZM239.725 198.246V210.401H238.7V198.246H239.725ZM237.264 198.547V209.772H236.252V203.51H234.202V202.635H236.252V198.547H237.264ZM232.903 201.719C232.903 203.824 233.846 205.916 235.528 206.887L234.871 207.68C233.675 206.962 232.828 205.65 232.411 204.098C231.966 205.773 231.084 207.201 229.868 207.967L229.184 207.16C230.879 206.149 231.864 203.934 231.864 201.719V200.57H229.526V199.682H235.131V200.57H232.903V201.719ZM251.119 198.26V205.246H250.039V198.26H251.119ZM241.125 204.057C242.157 204.057 243.36 204.05 244.611 204.002V202.703H242.232V198.861H248.002V199.75H243.312V201.842H248.111V202.703H245.691V203.961C246.819 203.913 247.961 203.818 249.027 203.674L249.096 204.453C246.43 204.904 243.477 204.945 241.289 204.945L241.125 204.057ZM244.174 205.793V207.092H250.066V205.793H251.119V210.236H243.107V205.793H244.174ZM244.174 209.361H250.066V207.926H244.174V209.361ZM262.855 198.246V210.401H261.789V198.246H262.855ZM254.679 199.449V206.34C256.532 206.333 258.453 206.183 260.49 205.752L260.64 206.668C258.48 207.119 256.552 207.27 254.611 207.27H253.627V199.449H254.679ZM273.989 198.246V203.059H276.027V203.961H273.989V210.428H272.923V198.246H273.989ZM270.79 199.436V200.324H266.183V206.477C268.384 206.477 269.943 206.374 271.747 206.039L271.884 206.969C269.984 207.311 268.384 207.379 266.073 207.379H265.116V199.436H270.79ZM277.618 209.375C277.139 209.375 276.729 208.979 276.743 208.486C276.729 208.008 277.139 207.611 277.618 207.611C278.096 207.611 278.493 208.008 278.493 208.486C278.493 208.979 278.096 209.375 277.618 209.375Z" fill="#121212" fill-opacity="0.5"/>
<path fill-rule="evenodd" clip-rule="evenodd" d="M272.413 106C273.778 100.222 274.5 94.1952 274.5 88C274.5 44.9218 239.578 10 196.5 10C153.422 10 118.5 44.9218 118.5 88C118.5 94.1952 119.222 100.222 120.587 106H272.413Z" fill="white"/>
<g filter="url(#filter1_ii_546_1905)">
<path fill-rule="evenodd" clip-rule="evenodd" d="M193.886 33.482C186.394 31.4745 178.693 35.9207 176.686 43.4127L168.326 74.6136C167.277 78.5267 167.989 82.4969 169.976 85.683C169.861 85.783 169.744 85.8872 169.627 85.9955C169.428 86.1793 169.219 86.3719 169.001 86.5726C164 91.1772 154.347 100.066 158.521 104.664C161.063 107.465 163.507 106.405 166.426 105.139C168.322 104.317 170.42 103.407 172.874 103.413C177.463 103.423 179.291 105.391 181.117 107.357C182.946 109.326 184.774 111.293 189.371 111.293C193.968 111.293 195.448 108.303 196.931 105.307C197.837 103.477 198.743 101.646 200.362 100.493C203.547 98.2231 204.639 99.4556 206.276 101.302C207.978 103.223 210.269 105.808 216.116 105.808C218.443 105.808 221.316 102.517 223.494 100.022C224.151 99.2707 224.744 98.5915 225.24 98.0962C226.508 96.8301 228.332 96.4023 229.997 96.0121C232.276 95.4779 234.255 95.0139 234.096 92.5664C233.965 90.5471 231.086 89.9133 226.736 89.952L235.018 59.0427C237.025 51.5507 232.579 43.8498 225.087 41.8423L193.886 33.482Z" fill="#F9F9F9"/>
</g>
<g filter="url(#filter2_dii_546_1905)">
<path d="M176.012 72.489C176.012 75.2151 173.801 77.4251 171.075 77.4251C168.348 77.4251 166.138 75.2151 166.138 72.489C166.138 69.7628 168.348 67.5529 171.075 67.5529C173.801 67.5529 176.012 69.7628 176.012 72.489Z" fill="#202020"/>
</g>
<g filter="url(#filter3_dii_546_1905)">
<path d="M220.435 84.8293C220.435 87.5555 218.225 89.7654 215.499 89.7654C212.773 89.7654 210.563 87.5555 210.563 84.8293C210.563 82.1032 212.773 79.8932 215.499 79.8932C218.225 79.8932 220.435 82.1032 220.435 84.8293Z" fill="#202020"/>
</g>
<g filter="url(#filter4_ii_546_1905)">
<path d="M172.26 89.78C172.26 95.2403 169.508 99.6668 166.114 99.6668C162.72 99.6668 159.968 95.2403 159.968 89.78C159.968 84.3197 162.72 79.8932 166.114 79.8932C169.508 79.8932 172.26 84.3197 172.26 89.78Z" fill="#202020"/>
</g>
<g filter="url(#filter5_ii_546_1905)">
<path d="M195.774 89.78C195.774 95.2403 193.023 99.6668 189.629 99.6668C186.234 99.6668 183.483 95.2403 183.483 89.78C183.483 84.3197 186.234 79.8932 189.629 79.8932C193.023 79.8932 195.774 84.3197 195.774 89.78Z" fill="#202020"/>
</g>
<g filter="url(#filter6_ii_546_1905)">
<path d="M188.018 62.4688C187.33 65.0346 185.848 66.867 184.708 66.5614C183.568 66.2558 183.201 63.9281 183.888 61.3622C184.576 58.7964 186.057 56.964 187.198 57.2696C188.338 57.5751 188.705 59.9029 188.018 62.4688Z" fill="#202020"/>
</g>
<g filter="url(#filter7_ii_546_1905)">
<path d="M210.731 68.5548C210.044 71.1207 208.562 72.953 207.421 72.6475C206.281 72.3419 205.914 70.0141 206.601 67.4483C207.289 64.8824 208.771 63.0501 209.911 63.3556C211.051 63.6612 211.419 65.989 210.731 68.5548Z" fill="#202020"/>
</g>
</g>
<defs>
<filter id="filter0_d_546_1905" x="-10" y="0" width="413" height="255.293" filterUnits="userSpaceOnUse" color-interpolation-filters="sRGB">
<feFlood flood-opacity="0" result="BackgroundImageFix"/>
<feColorMatrix in="SourceAlpha" type="matrix" values="0 0 0 0 0 0 0 0 0 0 0 0 0 0 0 0 0 0 127 0" result="hardAlpha"/>
<feOffset/>
<feGaussianBlur stdDeviation="5"/>
<feComposite in2="hardAlpha" operator="out"/>
<feColorMatrix type="matrix" values="0 0 0 0 0 0 0 0 0 0 0 0 0 0 0 0 0 0 0.15 0"/>
<feBlend mode="normal" in2="BackgroundImageFix" result="effect1_dropShadow_546_1905"/>
<feBlend mode="normal" in="SourceGraphic" in2="effect1_dropShadow_546_1905" result="shape"/>
</filter>
<filter id="filter1_ii_546_1905" x="152.5" y="28" width="88" height="88.2931" filterUnits="userSpaceOnUse" color-interpolation-filters="sRGB">
<feFlood flood-opacity="0" result="BackgroundImageFix"/>
<feBlend mode="normal" in="SourceGraphic" in2="BackgroundImageFix" result="shape"/>
<feColorMatrix in="SourceAlpha" type="matrix" values="0 0 0 0 0 0 0 0 0 0 0 0 0 0 0 0 0 0 127 0" result="hardAlpha"/>
<feOffset dx="-5" dy="-5"/>
<feGaussianBlur stdDeviation="2.5"/>
<feComposite in2="hardAlpha" operator="arithmetic" k2="-1" k3="1"/>
<feColorMatrix type="matrix" values="0 0 0 0 0 0 0 0 0 0 0 0 0 0 0 0 0 0 0.2 0"/>
<feBlend mode="normal" in2="shape" result="effect1_innerShadow_546_1905"/>
<feColorMatrix in="SourceAlpha" type="matrix" values="0 0 0 0 0 0 0 0 0 0 0 0 0 0 0 0 0 0 127 0" result="hardAlpha"/>
<feOffset dx="5" dy="5"/>
<feGaussianBlur stdDeviation="2.5"/>
<feComposite in2="hardAlpha" operator="arithmetic" k2="-1" k3="1"/>
<feColorMatrix type="matrix" values="0 0 0 0 1 0 0 0 0 1 0 0 0 0 1 0 0 0 0.2 0"/>
<feBlend mode="normal" in2="effect1_innerShadow_546_1905" result="effect2_innerShadow_546_1905"/>
</filter>
<filter id="filter2_dii_546_1905" x="165.138" y="66.5529" width="14.8734" height="13.8722" filterUnits="userSpaceOnUse" color-interpolation-filters="sRGB">
<feFlood flood-opacity="0" result="BackgroundImageFix"/>
<feColorMatrix in="SourceAlpha" type="matrix" values="0 0 0 0 0 0 0 0 0 0 0 0 0 0 0 0 0 0 127 0" result="hardAlpha"/>
<feOffset dx="2" dy="1"/>
<feGaussianBlur stdDeviation="1"/>
<feComposite in2="hardAlpha" operator="out"/>
<feColorMatrix type="matrix" values="0 0 0 0 0 0 0 0 0 0 0 0 0 0 0 0 0 0 0.1 0"/>
<feBlend mode="normal" in2="BackgroundImageFix" result="effect1_dropShadow_546_1905"/>
<feBlend mode="normal" in="SourceGraphic" in2="effect1_dropShadow_546_1905" result="shape"/>
<feColorMatrix in="SourceAlpha" type="matrix" values="0 0 0 0 0 0 0 0 0 0 0 0 0 0 0 0 0 0 127 0" result="hardAlpha"/>
<feOffset dx="-1" dy="-1"/>
<feGaussianBlur stdDeviation="0.5"/>
<feComposite in2="hardAlpha" operator="arithmetic" k2="-1" k3="1"/>
<feColorMatrix type="matrix" values="0 0 0 0 0 0 0 0 0 0 0 0 0 0 0 0 0 0 0.2 0"/>
<feBlend mode="normal" in2="shape" result="effect2_innerShadow_546_1905"/>
<feColorMatrix in="SourceAlpha" type="matrix" values="0 0 0 0 0 0 0 0 0 0 0 0 0 0 0 0 0 0 127 0" result="hardAlpha"/>
<feOffset dx="1" dy="1"/>
<feGaussianBlur stdDeviation="0.5"/>
<feComposite in2="hardAlpha" operator="arithmetic" k2="-1" k3="1"/>
<feColorMatrix type="matrix" values="0 0 0 0 1 0 0 0 0 1 0 0 0 0 1 0 0 0 0.2 0"/>
<feBlend mode="normal" in2="effect2_innerShadow_546_1905" result="effect3_innerShadow_546_1905"/>
</filter>
<filter id="filter3_dii_546_1905" x="206.563" y="78.8932" width="14.8722" height="13.8722" filterUnits="userSpaceOnUse" color-interpolation-filters="sRGB">
<feFlood flood-opacity="0" result="BackgroundImageFix"/>
<feColorMatrix in="SourceAlpha" type="matrix" values="0 0 0 0 0 0 0 0 0 0 0 0 0 0 0 0 0 0 127 0" result="hardAlpha"/>
<feOffset dx="-2" dy="1"/>
<feGaussianBlur stdDeviation="1"/>
<feComposite in2="hardAlpha" operator="out"/>
<feColorMatrix type="matrix" values="0 0 0 0 0 0 0 0 0 0 0 0 0 0 0 0 0 0 0.1 0"/>
<feBlend mode="normal" in2="BackgroundImageFix" result="effect1_dropShadow_546_1905"/>
<feBlend mode="normal" in="SourceGraphic" in2="effect1_dropShadow_546_1905" result="shape"/>
<feColorMatrix in="SourceAlpha" type="matrix" values="0 0 0 0 0 0 0 0 0 0 0 0 0 0 0 0 0 0 127 0" result="hardAlpha"/>
<feOffset dx="-1" dy="-1"/>
<feGaussianBlur stdDeviation="0.5"/>
<feComposite in2="hardAlpha" operator="arithmetic" k2="-1" k3="1"/>
<feColorMatrix type="matrix" values="0 0 0 0 0 0 0 0 0 0 0 0 0 0 0 0 0 0 0.2 0"/>
<feBlend mode="normal" in2="shape" result="effect2_innerShadow_546_1905"/>
<feColorMatrix in="SourceAlpha" type="matrix" values="0 0 0 0 0 0 0 0 0 0 0 0 0 0 0 0 0 0 127 0" result="hardAlpha"/>
<feOffset dx="1" dy="1"/>
<feGaussianBlur stdDeviation="0.5"/>
<feComposite in2="hardAlpha" operator="arithmetic" k2="-1" k3="1"/>
<feColorMatrix type="matrix" values="0 0 0 0 1 0 0 0 0 1 0 0 0 0 1 0 0 0 0.2 0"/>
<feBlend mode="normal" in2="effect2_innerShadow_546_1905" result="effect3_innerShadow_546_1905"/>
</filter>
<filter id="filter4_ii_546_1905" x="157.968" y="77.8932" width="16.2917" height="23.7737" filterUnits="userSpaceOnUse" color-interpolation-filters="sRGB">
<feFlood flood-opacity="0" result="BackgroundImageFix"/>
<feBlend mode="normal" in="SourceGraphic" in2="BackgroundImageFix" result="shape"/>
<feColorMatrix in="SourceAlpha" type="matrix" values="0 0 0 0 0 0 0 0 0 0 0 0 0 0 0 0 0 0 127 0" result="hardAlpha"/>
<feOffset dx="-2" dy="-2"/>
<feGaussianBlur stdDeviation="1"/>
<feComposite in2="hardAlpha" operator="arithmetic" k2="-1" k3="1"/>
<feColorMatrix type="matrix" values="0 0 0 0 0 0 0 0 0 0 0 0 0 0 0 0 0 0 0.2 0"/>
<feBlend mode="normal" in2="shape" result="effect1_innerShadow_546_1905"/>
<feColorMatrix in="SourceAlpha" type="matrix" values="0 0 0 0 0 0 0 0 0 0 0 0 0 0 0 0 0 0 127 0" result="hardAlpha"/>
<feOffset dx="2" dy="2"/>
<feGaussianBlur stdDeviation="1"/>
<feComposite in2="hardAlpha" operator="arithmetic" k2="-1" k3="1"/>
<feColorMatrix type="matrix" values="0 0 0 0 1 0 0 0 0 1 0 0 0 0 1 0 0 0 0.2 0"/>
<feBlend mode="normal" in2="effect1_innerShadow_546_1905" result="effect2_innerShadow_546_1905"/>
</filter>
<filter id="filter5_ii_546_1905" x="181.483" y="77.8932" width="16.2917" height="23.7737" filterUnits="userSpaceOnUse" color-interpolation-filters="sRGB">
<feFlood flood-opacity="0" result="BackgroundImageFix"/>
<feBlend mode="normal" in="SourceGraphic" in2="BackgroundImageFix" result="shape"/>
<feColorMatrix in="SourceAlpha" type="matrix" values="0 0 0 0 0 0 0 0 0 0 0 0 0 0 0 0 0 0 127 0" result="hardAlpha"/>
<feOffset dx="-2" dy="-2"/>
<feGaussianBlur stdDeviation="1"/>
<feComposite in2="hardAlpha" operator="arithmetic" k2="-1" k3="1"/>
<feColorMatrix type="matrix" values="0 0 0 0 0 0 0 0 0 0 0 0 0 0 0 0 0 0 0.2 0"/>
<feBlend mode="normal" in2="shape" result="effect1_innerShadow_546_1905"/>
<feColorMatrix in="SourceAlpha" type="matrix" values="0 0 0 0 0 0 0 0 0 0 0 0 0 0 0 0 0 0 127 0" result="hardAlpha"/>
<feOffset dx="2" dy="2"/>
<feGaussianBlur stdDeviation="1"/>
<feComposite in2="hardAlpha" operator="arithmetic" k2="-1" k3="1"/>
<feColorMatrix type="matrix" values="0 0 0 0 1 0 0 0 0 1 0 0 0 0 1 0 0 0 0.2 0"/>
<feBlend mode="normal" in2="effect1_innerShadow_546_1905" result="effect2_innerShadow_546_1905"/>
</filter>
<filter id="filter6_ii_546_1905" x="182.542" y="56.2363" width="6.82288" height="11.3584" filterUnits="userSpaceOnUse" color-interpolation-filters="sRGB">
<feFlood flood-opacity="0" result="BackgroundImageFix"/>
<feBlend mode="normal" in="SourceGraphic" in2="BackgroundImageFix" result="shape"/>
<feColorMatrix in="SourceAlpha" type="matrix" values="0 0 0 0 0 0 0 0 0 0 0 0 0 0 0 0 0 0 127 0" result="hardAlpha"/>
<feOffset dx="-1" dy="-1"/>
<feGaussianBlur stdDeviation="0.5"/>
<feComposite in2="hardAlpha" operator="arithmetic" k2="-1" k3="1"/>
<feColorMatrix type="matrix" values="0 0 0 0 1 0 0 0 0 1 0 0 0 0 1 0 0 0 0.2 0"/>
<feBlend mode="normal" in2="shape" result="effect1_innerShadow_546_1905"/>
<feColorMatrix in="SourceAlpha" type="matrix" values="0 0 0 0 0 0 0 0 0 0 0 0 0 0 0 0 0 0 127 0" result="hardAlpha"/>
<feOffset dx="1" dy="1"/>
<feGaussianBlur stdDeviation="0.5"/>
<feComposite in2="hardAlpha" operator="arithmetic" k2="-1" k3="1"/>
<feColorMatrix type="matrix" values="0 0 0 0 0 0 0 0 0 0 0 0 0 0 0 0 0 0 0.2 0"/>
<feBlend mode="normal" in2="effect1_innerShadow_546_1905" result="effect2_innerShadow_546_1905"/>
</filter>
<filter id="filter7_ii_546_1905" x="205.255" y="62.3224" width="6.82288" height="11.3584" filterUnits="userSpaceOnUse" color-interpolation-filters="sRGB">
<feFlood flood-opacity="0" result="BackgroundImageFix"/>
<feBlend mode="normal" in="SourceGraphic" in2="BackgroundImageFix" result="shape"/>
<feColorMatrix in="SourceAlpha" type="matrix" values="0 0 0 0 0 0 0 0 0 0 0 0 0 0 0 0 0 0 127 0" result="hardAlpha"/>
<feOffset dx="-1" dy="-1"/>
<feGaussianBlur stdDeviation="0.5"/>
<feComposite in2="hardAlpha" operator="arithmetic" k2="-1" k3="1"/>
<feColorMatrix type="matrix" values="0 0 0 0 1 0 0 0 0 1 0 0 0 0 1 0 0 0 0.2 0"/>
<feBlend mode="normal" in2="shape" result="effect1_innerShadow_546_1905"/>
<feColorMatrix in="SourceAlpha" type="matrix" values="0 0 0 0 0 0 0 0 0 0 0 0 0 0 0 0 0 0 127 0" result="hardAlpha"/>
<feOffset dx="1" dy="1"/>
<feGaussianBlur stdDeviation="0.5"/>
<feComposite in2="hardAlpha" operator="arithmetic" k2="-1" k3="1"/>
<feColorMatrix type="matrix" values="0 0 0 0 0 0 0 0 0 0 0 0 0 0 0 0 0 0 0.2 0"/>
<feBlend mode="normal" in2="effect1_innerShadow_546_1905" result="effect2_innerShadow_546_1905"/>
</filter>
</defs>
</svg>
