<svg width="345" height="141" viewBox="0 0 345 141" fill="none" xmlns="http://www.w3.org/2000/svg">
<rect y="0.293091" width="345" height="140" rx="20" fill="white"/>
<path d="M41.2939 36.715V39.0587C41.2939 41.8907 41.2939 44.9669 40.4883 49.63L38.1201 49.4103C38.999 45.0402 38.999 41.8175 38.999 39.0587V38.6193H26.1084V36.715H41.2939ZM43.9062 51.339V53.2677H23.96V51.339H43.9062ZM62.1289 34.4933V40.963H65.3027V42.8917H62.1289V50.3868H59.7852V34.4933H62.1289ZM56.1963 36.1534C56.1963 41.8907 52.29 46.0656 45.8936 47.9943L44.917 46.1388C50.0317 44.6007 53.2178 41.6954 53.6816 38.0822H45.8447V36.1534H56.1963ZM63.0322 54.0245V55.9044H48.2373V48.7511H50.5811V54.0245H63.0322ZM73.0518 36.0558C76.5186 36.0314 78.9844 38.1798 79.0088 41.256C78.9844 44.3322 76.5186 46.4806 73.0518 46.4806C69.6094 46.4806 67.0703 44.3322 67.0947 41.256C67.0703 38.1798 69.6094 36.0314 73.0518 36.0558ZM73.0518 38.0577C70.9277 38.0577 69.3652 39.3273 69.3896 41.256C69.3652 43.1847 70.9277 44.4542 73.0518 44.4542C75.1758 44.4542 76.7383 43.1847 76.7383 41.256C76.7383 39.3273 75.1758 38.0577 73.0518 38.0577ZM84.0137 34.4933V56.4171H81.6943V34.4933H84.0137ZM66.0449 49.7765C70.0244 49.7765 75.542 49.7277 80.3271 49.0441L80.498 50.7286C75.542 51.6808 70.2441 51.7052 66.3379 51.7052L66.0449 49.7765ZM98.3154 36.129C100.305 36.129 101.953 37.2765 102.93 39.254H108.325V34.4933H110.62V56.4171H108.325V48.0187H103.076C102.136 50.2159 100.415 51.4855 98.3154 51.4855C95.0439 51.4855 92.749 48.507 92.7734 43.795C92.749 39.1075 95.0439 36.129 98.3154 36.129ZM98.3154 38.2042C96.3379 38.2042 94.9707 40.3527 94.9707 43.795C94.9707 47.2618 96.3379 49.4103 98.3154 49.4103C100.293 49.4103 101.66 47.2618 101.66 43.795C101.66 40.3527 100.293 38.2042 98.3154 38.2042ZM103.589 41.1583C103.748 41.964 103.857 42.8429 103.857 43.795C103.857 44.6251 103.784 45.3942 103.638 46.1144H108.325V41.1583H103.589ZM131.602 34.4933V47.506H129.282V41.964H125.205V40.0597H129.282V34.4933H131.602ZM124.277 48.1163C128.867 48.1163 131.675 49.63 131.675 52.2423C131.675 54.8546 128.867 56.3439 124.277 56.3683C119.688 56.3439 116.855 54.8546 116.88 52.2423C116.855 49.63 119.688 48.1163 124.277 48.1163ZM124.277 49.923C121.079 49.923 119.175 50.7531 119.175 52.2423C119.175 53.7072 121.079 54.5616 124.277 54.5372C127.476 54.5616 129.38 53.7072 129.38 52.2423C129.38 50.7531 127.476 49.923 124.277 49.923ZM121.201 38.3507C121.201 41.1339 123.179 43.8195 126.475 44.9425L125.278 46.7736C122.825 45.9191 121.018 44.1735 120.078 42.0128C119.114 44.4664 117.197 46.4318 114.585 47.3839L113.364 45.5284C116.758 44.3566 118.833 41.4025 118.833 38.3751V37.8868H114.097V36.007H125.889V37.8868H121.201V38.3507ZM152.461 34.4933V56.4171H150.142V34.4933H152.461ZM140.767 36.129C144.014 36.129 146.406 39.1075 146.406 43.795C146.406 48.507 144.014 51.4855 140.767 51.4855C137.471 51.4855 135.103 48.507 135.103 43.795C135.103 39.1075 137.471 36.129 140.767 36.129ZM140.767 38.2042C138.74 38.2042 137.349 40.3527 137.349 43.795C137.349 47.2618 138.74 49.4103 140.767 49.4103C142.769 49.4103 144.16 47.2618 144.16 43.795C144.16 40.3527 142.769 38.2042 140.767 38.2042ZM179.067 34.4933V56.4171H176.748V43.4532H170.229V41.549H176.748V34.4933H179.067ZM164.321 36.9103V49.215C167.446 49.1661 170.4 48.983 173.574 48.3361L173.867 50.2404C170.352 50.9728 167.178 51.1437 163.735 51.1437H161.978V36.9103H164.321ZM201.782 47.0421V48.922H192.847V56.3439H190.576V48.922H181.763V47.0421H201.782ZM199.268 35.6652V44.2589H184.277V35.6652H199.268ZM186.548 37.5206V42.4523H196.948V37.5206H186.548ZM214.106 36.129C217.378 36.129 219.697 39.1075 219.722 43.795C219.697 48.507 217.378 51.4855 214.106 51.4855C210.835 51.4855 208.491 48.507 208.516 43.795C208.491 39.1075 210.835 36.129 214.106 36.129ZM214.106 38.2042C212.104 38.2042 210.737 40.3527 210.737 43.795C210.737 47.2618 212.104 49.4103 214.106 49.4103C216.133 49.4103 217.5 47.2618 217.5 43.795C217.5 40.3527 216.133 38.2042 214.106 38.2042ZM225.288 34.4933V43.0626H228.804V45.0157H225.288V56.3683H222.969V34.4933H225.288ZM237.627 36.6906C237.603 39.1564 239.604 41.256 243.022 42.0372L241.948 43.8683C239.348 43.1969 237.432 41.8053 236.455 39.8888C235.466 42.0128 233.501 43.6241 230.84 44.3566L229.692 42.5499C233.159 41.6466 235.234 39.3273 235.234 36.6906V35.421H237.627V36.6906ZM247.417 34.5177V56.3683H245.122V34.5177H247.417ZM229.204 46.1144C233.281 46.1388 238.823 46.0656 243.608 45.4064L243.779 47.0665C241.777 47.4449 239.714 47.6769 237.7 47.799V55.6847H235.381V47.9454C233.269 48.0309 231.267 48.0431 229.521 48.0431L229.204 46.1144ZM268.496 34.5177V56.3683H266.152V51.1437H261.318V49.3859H266.152V34.5177H268.496ZM250.112 45.8947C254.263 45.8702 259.78 45.8458 264.565 45.1866L264.688 46.8956C262.612 47.2618 260.452 47.4816 258.34 47.6036V55.6847H256.021V47.7257C254.019 47.8112 252.114 47.8234 250.43 47.8234L250.112 45.8947ZM257.314 35.5187C260.537 35.5187 262.856 37.3009 262.856 39.8888C262.856 42.5255 260.537 44.2345 257.314 44.2345C254.019 44.2345 251.724 42.5255 251.724 39.8888C251.724 37.3009 254.019 35.5187 257.314 35.5187ZM257.314 37.3009C255.288 37.3009 253.896 38.3507 253.921 39.8888C253.896 41.4513 255.288 42.4523 257.314 42.4523C259.268 42.4523 260.659 41.4513 260.659 39.8888C260.659 38.3507 259.268 37.3009 257.314 37.3009ZM291.211 51.7052V53.6339H271.191V51.7052H275.977V45.9923C274.182 45.0035 273.096 43.4288 273.096 41.4757C273.096 38.0333 276.465 35.7628 281.152 35.7628C285.864 35.7628 289.233 38.0333 289.233 41.4757C289.233 43.4044 288.184 44.9547 286.426 45.9435V51.7052H291.211ZM281.152 37.6183C277.71 37.6183 275.342 39.1075 275.342 41.4757C275.342 43.8195 277.71 45.3575 281.152 45.3575C284.57 45.3575 286.987 43.8195 286.987 41.4757C286.987 39.1075 284.57 37.6183 281.152 37.6183ZM278.271 51.7052H284.082V46.8224C283.191 47.0543 282.202 47.1642 281.152 47.1642C280.127 47.1642 279.15 47.0543 278.271 46.8468V51.7052ZM296.846 56.0431H321.846V31.0431H296.846V56.0431Z" fill="#121212"/>
<path d="M46.1213 73.8615V74.7365H41.5959V76.049H45.8889V76.8829H41.5959V78.2911C44.0158 78.2911 45.3352 78.2433 46.9553 77.9767L47.0647 78.838C45.3693 79.1251 43.9885 79.1661 41.4455 79.1661H40.5295V73.8615H46.1213ZM49.4572 73.2462V75.9122H51.2893V76.8009H49.4572V79.6036H48.3908V73.2462H49.4572ZM49.4572 80.1915V83.049H42.7854V84.4025H49.9084V85.2638H41.7326V82.2286H48.3908V81.0529H41.7053V80.1915H49.4572ZM59.074 79.1115V79.9865H56.326V81.9552C57.4949 81.9005 58.6844 81.8048 59.7986 81.6407L59.8807 82.4337C57.1053 82.9396 54.1111 82.9396 51.9236 82.9532L51.7732 82.0509C52.7918 82.0441 53.9949 82.0441 55.2596 81.9962V79.9865H52.7029V74.3536H59.0193V75.2286H53.783V76.7189H58.7596V77.5665H53.783V79.1115H59.074ZM61.6717 73.2462V85.4279H60.6053V73.2462H61.6717ZM74.5697 78.8927V79.7404H63.4408V78.8927H74.5697ZM73.1752 80.7111V83.295H65.8744V84.4572H73.5717V85.2365H64.7943V82.5568H72.1088V81.5177H64.7807V80.7111H73.1752ZM73.1342 73.6154V76.131H65.9564V77.1974H73.3529V77.9767H64.89V75.3927H72.0541V74.3947H64.849V73.6154H73.1342ZM82.524 75.5431C82.524 77.2384 83.7545 78.838 85.5318 79.4806L84.9303 80.3146C83.5973 79.7814 82.5377 78.7218 82.0182 77.4025C81.4986 78.8722 80.3912 80.0411 78.9557 80.6154L78.3814 79.7404C80.1998 79.0704 81.4576 77.3751 81.4713 75.5021V73.9982H82.524V75.5431ZM88.4439 73.2599V82.3654H87.3639V77.0197H84.6568V76.1173H87.3639V73.2599H88.4439ZM88.7174 84.2384V85.1407H80.5826V81.3263H81.6627V84.2384H88.7174ZM95.3811 74.1349V75.0372H91.6897V76.5548H95.2443V77.4025H91.6897V79.0841C93.4602 79.0773 94.5676 79.0157 95.8732 78.756L95.9826 79.6447C94.5607 79.9181 93.4123 79.9865 91.4299 79.9865H90.6643V74.1349H95.3811ZM100.44 73.2599V80.629H99.4143V77.3068H97.7053V80.547H96.7072V73.4923H97.7053V76.4318H99.4143V73.2599H100.44ZM100.44 81.2579V85.4005H99.3869V82.1329H92.2502V81.2579H100.44ZM111.273 73.2462V78.2638H113.31V79.1525H111.273V85.4005H110.207V73.2462H111.273ZM109.031 75.2013V76.09H101.799V75.2013H104.929V73.3966H105.996V75.2013H109.031ZM105.476 77.1017C107.199 77.1017 108.443 78.2501 108.457 79.8907C108.443 81.5314 107.199 82.6798 105.476 82.6798C103.74 82.6798 102.482 81.5314 102.496 79.8907C102.482 78.2501 103.74 77.1017 105.476 77.1017ZM105.476 78.004C104.342 78.004 103.508 78.797 103.521 79.8907C103.508 80.9982 104.342 81.7775 105.476 81.7638C106.597 81.7775 107.418 80.9982 107.431 79.8907C107.418 78.797 106.597 78.004 105.476 78.004ZM117.937 76.5138C117.923 78.7286 119.441 80.9708 121.232 81.7775L120.576 82.6251C119.195 81.9484 117.998 80.5197 117.417 78.7833C116.85 80.6222 115.654 82.1534 114.232 82.8712L113.548 81.9689C115.353 81.1349 116.857 78.8243 116.871 76.5138V74.299H117.937V76.5138ZM123.638 73.2462V85.4279H122.558V73.2462H123.638ZM131.519 74.3126V75.3927H134.362V73.2599H135.442V82.1329H134.362V78.8927H131.519V79.9865H125.94V74.3126H131.519ZM127.007 75.2013V79.1251H130.466V75.2013H127.007ZM135.716 84.2384V85.1407H127.581V81.34H128.661V84.2384H135.716ZM131.519 78.004H134.362V76.295H131.519V78.004ZM149.863 74.545V75.7618C149.863 77.2931 149.863 79.0294 149.412 81.6681L148.319 81.5587C148.811 79.0704 148.811 77.2521 148.811 75.7618V75.4337H141.483V74.545H149.863ZM151.354 82.7208V83.6095H140.279V82.7208H151.354ZM163.117 79.2618V80.1232H152.029V79.2618H157.047V77.84H153.437V73.8204H161.736V74.6818H154.49V76.965H161.818V77.84H158.086V79.2618H163.117ZM157.566 81.0118C160.178 81.0118 161.736 81.8048 161.75 83.1993C161.736 84.6075 160.178 85.3868 157.566 85.4005C154.941 85.3868 153.369 84.6075 153.369 83.1993C153.369 81.8048 154.941 81.0118 157.566 81.0118ZM157.566 81.8595C155.611 81.8595 154.449 82.3654 154.463 83.1993C154.449 84.047 155.611 84.5392 157.566 84.5392C159.494 84.5392 160.67 84.047 160.67 83.1993C160.67 82.3654 159.494 81.8595 157.566 81.8595ZM173.281 73.2462V76.9513H175.113V77.8536H173.281V82.215H172.214V73.2462H173.281ZM173.841 84.2384V85.1407H165.679V81.2853H166.732V84.2384H173.841ZM167.197 74.1075C169.015 74.1075 170.382 75.338 170.396 77.1017C170.382 78.8654 169.015 80.0958 167.197 80.0958C165.378 80.0958 163.997 78.8654 164.011 77.1017C163.997 75.338 165.378 74.1075 167.197 74.1075ZM167.197 75.0509C165.994 75.0509 165.05 75.8986 165.064 77.1017C165.05 78.3048 165.994 79.1525 167.197 79.1525C168.427 79.1525 169.343 78.3048 169.343 77.1017C169.343 75.8986 168.427 75.0509 167.197 75.0509ZM188.768 73.2462V85.4279H187.688V78.5646H185.022V77.6759H187.688V73.2462H188.768ZM182.903 76.8556C182.903 78.879 184.352 81.0802 186.13 81.8868L185.487 82.7482C184.099 82.0714 182.93 80.6017 182.383 78.9064C181.823 80.7042 180.627 82.2628 179.239 82.9943L178.583 82.1603C180.346 81.299 181.809 79.0157 181.823 76.8556V75.3927H179.047V74.504H185.692V75.3927H182.903V76.8556ZM194.557 75.5568C194.557 77.1427 195.746 78.5646 197.537 79.1525L197.031 80.0001C195.63 79.5421 194.571 78.5714 194.051 77.3478C193.525 78.7423 192.404 79.8292 190.947 80.3556L190.401 79.4943C192.219 78.879 193.49 77.3068 193.504 75.5568V75.0372H190.729V74.1486H197.291V75.0372H194.557V75.5568ZM199.944 73.2462V76.3497H201.776V77.2521H199.944V80.588H198.877V73.2462H199.944ZM196.047 80.9161C198.549 80.9161 200.053 81.7365 200.053 83.131C200.053 84.5529 198.549 85.3732 196.047 85.3732C193.545 85.3732 192.014 84.5529 192.014 83.131C192.014 81.7365 193.545 80.9161 196.047 80.9161ZM196.047 81.7775C194.215 81.7775 193.08 82.2833 193.094 83.131C193.08 84.006 194.215 84.5118 196.047 84.5118C197.893 84.5118 199.014 84.006 199.014 83.131C199.014 82.2833 197.893 81.7775 196.047 81.7775ZM209.26 77.2384V78.1134H206.799V79.8087C207.933 79.7609 209.068 79.6788 210.121 79.5626L210.203 80.3556C207.592 80.7111 204.693 80.7931 202.41 80.7931L202.246 79.9181C203.312 79.9113 204.509 79.8976 205.732 79.8497V78.1134H203.353V74.0392H209.164V74.9279H204.433V77.2384H209.26ZM212.213 73.2599V82.3517H211.133V73.2599H212.213ZM212.609 84.2384V85.1407H204.324V81.7228H205.39V84.2384H212.609ZM223.243 74.0802V79.2755H217.624V74.0802H223.243ZM218.677 74.9552V78.4005H222.204V74.9552H218.677ZM226.606 73.2462V76.172H228.438V77.0743H226.606V80.1915H225.54V73.2462H226.606ZM226.825 80.9025V81.7775H223.38C223.496 83.0763 225.308 84.2111 227.29 84.5255L226.894 85.3595C225.116 85.0656 223.503 84.1837 222.806 82.9669C222.115 84.1906 220.516 85.0587 218.745 85.3458L218.335 84.5255C220.345 84.2111 222.122 83.0968 222.259 81.7775H218.813V80.9025H226.825ZM239.928 79.2618V80.1368H234.911V81.4767H238.575V85.2365H230.208V81.4767H233.858V80.1368H228.854V79.2618H239.928ZM234.911 73.1779V74.3947H238.807V75.256H234.979C235.054 76.6095 236.989 77.5187 239.272 77.7306L238.958 78.5372C236.934 78.3253 235.13 77.6281 234.391 76.4181C233.646 77.6281 231.841 78.3253 229.825 78.5372L229.497 77.7306C231.794 77.5187 233.714 76.6095 233.803 75.256H230.003V74.3947H233.858V73.1779H234.911ZM231.274 82.338V84.3615H237.522V82.338H231.274ZM249.304 73.5197C251.943 73.5197 253.597 74.3673 253.597 75.8302C253.597 77.2657 251.943 78.0997 249.304 78.0997C246.666 78.0997 244.998 77.2657 244.998 75.8302C244.998 74.3673 246.666 73.5197 249.304 73.5197ZM249.304 74.381C247.336 74.381 246.092 74.9279 246.105 75.8302C246.092 76.7189 247.336 77.2384 249.304 77.2521C251.246 77.2384 252.504 76.7189 252.504 75.8302C252.504 74.9279 251.246 74.381 249.304 74.381ZM253.488 81.2443V85.2365H245.121V81.2443H253.488ZM246.187 82.1056V84.3615H252.435V82.1056H246.187ZM254.842 79.1525V80.0411H243.767V79.1525H254.842ZM266.646 82.9943V83.8966H255.517V82.9943H258.648V80.6837H256.912V76.9376H264.185V75.0372H256.884V74.1486H265.238V77.8263H257.978V79.795H265.525V80.6837H263.624V82.9943H266.646ZM259.701 82.9943H262.572V80.6837H259.701V82.9943ZM280.479 73.2462V85.4005H279.399V73.2462H280.479ZM276.883 74.5724C276.87 78.0724 275.243 81.1622 271.169 83.1173L270.581 82.2423C273.869 80.6837 275.544 78.3527 275.79 75.4474H271.141V74.5724H276.883ZM293.295 79.9454V80.8341H282.166V79.9454H287.197V78.6603H283.615V75.6935H290.779V74.4357H283.574V73.5607H291.86V76.5001H284.682V77.799H292.119V78.6603H288.25V79.9454H293.295ZM291.928 81.7638V85.2911H290.848V82.6388H283.41V81.7638H291.928ZM300.67 74.5997V75.2286C300.656 76.1857 300.656 77.799 300.314 80.0548L299.234 79.9591C299.562 77.922 299.59 76.4454 299.59 75.4747H294.49V74.5997H300.67ZM297.484 78.0724V81.7638C298.831 81.7159 300.212 81.6271 301.476 81.4767L301.531 82.2833C298.974 82.6798 296.117 82.7345 293.943 82.7208L293.806 81.8322C294.606 81.8253 295.495 81.8185 296.431 81.7911V78.0724H297.484ZM303.308 73.2462V78.3322H305.277V79.2618H303.308V85.4005H302.242V73.2462H303.308ZM101.171 100.602V101.504H96.1535V105.428H95.1008V101.504H90.0969V100.602H101.171ZM96.1672 95.6525C96.1672 97.17 98.2863 98.4962 100.46 98.797L100.064 99.6583C98.1838 99.3712 96.4133 98.4279 95.6477 97.1017C94.8684 98.4415 93.0705 99.3712 91.1906 99.6583L90.7941 98.797C92.9543 98.4962 95.1008 97.1837 95.1008 95.6525V95.6388H91.177V94.7638H95.1008V93.2462H96.1535V94.7638H100.105V95.6388H96.1672V95.6525ZM105.989 96.1583C105.989 97.7716 107.274 99.1935 109.079 99.754L108.546 100.615C107.138 100.157 106.03 99.1935 105.483 97.9493C104.957 99.2823 103.856 100.315 102.421 100.82L101.888 99.9865C103.679 99.3849 104.936 97.8673 104.936 96.1583V95.7618H102.188V94.8868H104.936V93.3282H106.016V94.8868H108.737V95.7618H105.989V96.1583ZM111.923 93.2599V102.338H110.843V97.8947H108.313V97.006H110.843V93.2599H111.923ZM112.264 104.238V105.141H104.116V101.518H105.196V104.238H112.264ZM127.164 93.2462V105.401H126.125V93.2462H127.164ZM124.676 93.547V104.772H123.65V98.797H120.998V97.8947H123.65V93.547H124.676ZM121.818 94.7501V95.6388H118.277V101.572C120.027 101.566 121.135 101.49 122.447 101.203L122.557 102.119C121.148 102.406 119.959 102.461 118.004 102.475H117.238V94.7501H121.818ZM138.531 93.2462V105.428H137.451V93.2462H138.531ZM132.064 94.1896C133.869 94.2032 135.168 95.8439 135.168 98.4279C135.168 101.012 133.869 102.652 132.064 102.652C130.246 102.652 128.961 101.012 128.961 98.4279C128.961 95.8439 130.246 94.2032 132.064 94.1896ZM132.064 95.1466C130.847 95.1603 130 96.4454 130 98.4279C130 100.41 130.847 101.695 132.064 101.695C133.281 101.695 134.129 100.41 134.129 98.4279C134.129 96.4454 133.281 95.1603 132.064 95.1466ZM150.335 93.2462V105.428H149.269V98.7286H146.698V97.84H149.269V93.2462H150.335ZM146.493 94.3673V95.256H141.9V97.7853H145.96V98.6603H141.9V101.6C144.135 101.6 145.557 101.525 147.232 101.231L147.355 102.119C145.591 102.406 144.101 102.488 141.749 102.488H140.82V94.3673H146.493ZM161.415 93.2462V98.1954H163.384V99.0978H161.415V105.401H160.348V93.2462H161.415ZM158.27 94.5587C158.27 98.004 156.657 101.135 152.692 103.09L152.091 102.242C155.235 100.677 156.944 98.339 157.19 95.4611H152.651V94.5587H158.27ZM178.051 102.94V103.842H166.922V102.94H171.926V99.9728H168.234V94.2716H176.67V99.9728H172.979V102.94H178.051ZM169.287 95.1329V99.1115H175.631V95.1329H169.287ZM188.365 97.799V98.6603H180.203V93.9708H188.201V94.8595H181.296V97.799H188.365ZM189.787 100.274V101.149H184.714V105.359H183.662V101.149H178.658V100.274H189.787ZM197.673 95.2013C197.659 96.8556 198.917 98.3732 200.708 98.9884L200.147 99.8361C198.773 99.3439 197.7 98.3116 197.167 97.0197C196.654 98.4484 195.56 99.549 194.118 100.082L193.557 99.2208C195.389 98.5646 196.606 96.9786 196.62 95.1329V93.8751H197.673V95.2013ZM203.087 93.2462V96.4728H204.919V97.3888H203.087V100.615H202.02V93.2462H203.087ZM203.087 101.217V105.401H202.02V102.092H195.13V101.217H203.087ZM215.725 93.2462V105.401H214.7V93.2462H215.725ZM213.264 93.547V104.772H212.252V98.5099H210.202V97.6349H212.252V93.547H213.264ZM208.903 96.7189C208.903 98.8243 209.846 100.916 211.528 101.887L210.871 102.68C209.675 101.962 208.828 100.65 208.411 99.0978C207.966 100.773 207.084 102.201 205.868 102.967L205.184 102.16C206.879 101.149 207.864 98.9337 207.864 96.7189V95.5704H205.526V94.6818H211.131V95.5704H208.903V96.7189ZM227.119 93.2599V100.246H226.039V93.2599H227.119ZM217.125 99.0568C218.157 99.0568 219.36 99.0499 220.611 99.0021V97.7032H218.232V93.8615H224.002V94.7501H219.312V96.8419H224.111V97.7032H221.691V98.9611C222.819 98.9132 223.961 98.8175 225.027 98.674L225.096 99.4532C222.43 99.9044 219.477 99.9454 217.289 99.9454L217.125 99.0568ZM220.174 100.793V102.092H226.066V100.793H227.119V105.236H219.107V100.793H220.174ZM220.174 104.361H226.066V102.926H220.174V104.361ZM238.855 93.2462V105.401H237.789V93.2462H238.855ZM230.679 94.4493V101.34C232.532 101.333 234.453 101.183 236.49 100.752L236.64 101.668C234.48 102.119 232.552 102.27 230.611 102.27H229.627V94.4493H230.679ZM249.989 93.2462V98.0587H252.027V98.9611H249.989V105.428H248.923V93.2462H249.989ZM246.79 94.4357V95.3243H242.183V101.477C244.384 101.477 245.943 101.374 247.747 101.039L247.884 101.969C245.984 102.311 244.384 102.379 242.073 102.379H241.116V94.4357H246.79ZM253.618 104.375C253.139 104.375 252.729 103.979 252.743 103.486C252.729 103.008 253.139 102.611 253.618 102.611C254.096 102.611 254.493 103.008 254.493 103.486C254.493 103.979 254.096 104.375 253.618 104.375Z" fill="#121212" fill-opacity="0.5"/>
</svg>
