<svg width="393" height="241" viewBox="0 0 393 241" fill="none" xmlns="http://www.w3.org/2000/svg">
<g filter="url(#filter0_d_756_4342)">
<rect x="24" y="110.896" width="345" height="120" rx="20" fill="white"/>
<path d="M111.459 147.057V151.588H113.998V153.17H111.459V157.604H109.604V147.057H111.459ZM111.459 158.521V164.342H100.287V158.521H111.459ZM102.104 159.986V162.838H109.623V159.986H102.104ZM108.158 148.834V150.318H97.7285V148.834H102.025V146.92H103.881V148.834H108.158ZM102.943 151.08C105.463 151.08 107.182 152.33 107.182 154.205C107.182 156.1 105.463 157.33 102.943 157.35C100.385 157.33 98.6855 156.1 98.6855 154.205C98.6855 152.33 100.385 151.08 102.943 151.08ZM102.943 152.506C101.459 152.486 100.463 153.15 100.482 154.205C100.463 155.299 101.459 155.943 102.943 155.943C104.428 155.943 105.424 155.299 105.443 154.205C105.424 153.15 104.428 152.486 102.943 152.506ZM118.83 149.127C118.811 153.053 118.322 157.096 115.881 160.533L114.436 159.713C116.477 156.979 117.092 153.951 117.229 150.65H114.846V149.127H118.83ZM122.717 149.127C122.717 150.602 122.688 152.213 122.502 153.834H124.553V147.506H126.311V163.697H124.553V155.338H122.287C121.887 157.516 121.154 159.674 119.807 161.588L118.361 160.748C120.627 157.711 121.037 154.029 121.115 150.65H119.357V149.127H122.717ZM129.631 147.057V164.557H127.854V147.057H129.631ZM144.314 149.947V151.451H135.623V149.947H139.061V147.564H140.896V149.947H144.314ZM139.979 152.506C142.205 152.506 143.768 154.166 143.787 156.529C143.768 158.912 142.205 160.592 139.979 160.592C137.791 160.592 136.17 158.912 136.189 156.529C136.17 154.166 137.791 152.506 139.979 152.506ZM139.979 154.049C138.709 154.049 137.83 155.084 137.83 156.529C137.83 158.014 138.709 159.01 139.979 159.01C141.229 159.01 142.146 158.014 142.146 156.529C142.146 155.084 141.229 154.049 139.979 154.049ZM150.643 147.057V164.557H148.885V155.865H146.873V163.736H145.115V147.447H146.873V154.342H148.885V147.057H150.643ZM168.404 156.92V158.424H161.295V164.537H159.479V158.424H152.447V156.92H168.404ZM166.9 148.092V149.576H161.49C161.52 151.744 164.215 153.678 167.525 154.127L166.842 155.592C163.971 155.143 161.49 153.727 160.436 151.725C159.352 153.727 156.881 155.143 154.049 155.592L153.346 154.127C156.617 153.678 159.312 151.744 159.381 149.576H153.932V148.092H166.9ZM183.822 147.057V164.596H181.967V156.627H178.295V155.064H181.967V152.311H178.295V150.787H181.967V147.057H183.822ZM175.541 151.51C175.541 154.732 177.338 157.955 180.014 159.186L178.881 160.67C176.889 159.684 175.385 157.662 174.623 155.221C173.842 157.74 172.299 159.85 170.307 160.885L169.135 159.42C171.85 158.131 173.666 154.752 173.666 151.51V148.521H175.541V151.51ZM192.326 151.51C192.326 154.713 194.123 157.896 196.799 159.107L195.666 160.592C193.674 159.596 192.18 157.613 191.408 155.221C190.637 157.74 189.104 159.869 187.092 160.924L185.92 159.42C188.635 158.131 190.451 154.752 190.451 151.51V148.521H192.326V151.51ZM200.607 147.057V164.596H198.771V154.381H194.865V152.877H198.771V147.057H200.607ZM220.936 147.057V151.178H223.475V152.721H220.936V156.939H219.08V147.057H220.936ZM216.111 148.15C216.092 152.643 213.064 155.787 207.85 157.193L207.107 155.709C211.287 154.605 213.758 152.408 214.1 149.674H207.928V148.15H216.111ZM220.936 157.682V164.322H209.725V157.682H220.936ZM211.58 159.225V162.838H219.1V159.225H211.58ZM230.045 151.51C230.025 154.615 231.822 157.779 234.439 159.049L233.287 160.533C231.383 159.547 229.908 157.584 229.146 155.24C228.355 157.74 226.822 159.83 224.83 160.865L223.678 159.361C226.373 158.072 228.189 154.713 228.189 151.51V148.521H230.045V151.51ZM237.604 147.057V154.029H240.416V155.611H237.604V164.557H235.748V147.057H237.604ZM254.506 147.057V151.451H257.045V153.014H254.506V157.252H252.65V147.057H254.506ZM245.15 157.975V159.674H252.65V157.975H254.506V164.342H243.314V157.975H245.15ZM245.15 162.857H252.65V161.119H245.15V162.857ZM251.205 148.775V150.26H240.775V148.775H245.072V146.9H246.928V148.775H251.205ZM245.99 150.982C248.51 150.982 250.229 152.174 250.229 154.049C250.229 155.904 248.51 157.135 245.99 157.115C243.432 157.135 241.732 155.904 241.732 154.049C241.732 152.174 243.432 150.982 245.99 150.982ZM245.99 152.369C244.506 152.35 243.51 153.033 243.529 154.049C243.51 155.084 244.506 155.748 245.99 155.748C247.475 155.748 248.471 155.084 248.49 154.049C248.471 153.033 247.475 152.35 245.99 152.369ZM272.072 147.057V164.557H270.217V147.057H272.072ZM260.451 148.756V158.502C263 158.482 265.686 158.277 268.498 157.701L268.752 159.264C265.646 159.889 262.834 160.104 260.08 160.104H258.615V148.756H260.451ZM287.959 147.057V153.834H290.771V155.357H287.959V164.596H286.104V147.057H287.959ZM283.252 148.736V150.24H276.924V158.697C279.863 158.688 282.07 158.561 284.561 158.111L284.795 159.674C282.061 160.162 279.736 160.26 276.475 160.24H275.068V148.736H283.252ZM294.334 148.756L294.158 158.814H292.225L292.049 148.756H294.334ZM293.201 163.033C292.439 163.033 291.795 162.408 291.814 161.646C291.795 160.885 292.439 160.26 293.201 160.26C293.943 160.26 294.588 160.885 294.588 161.646C294.588 162.408 293.943 163.033 293.201 163.033Z" fill="#121212"/>
<path d="M78.2068 184.055V185.217H84.2225V184.055H85.2889V188.047H77.1404V184.055H78.2068ZM78.2068 187.213H84.2225V186.037H78.2068V187.213ZM86.7381 189.059V189.947H81.7205V191.137H85.3162V193.83H78.0975V195.02H85.6853V195.867H77.0311V193.037H84.2635V191.957H77.0037V191.137H80.6541V189.947H75.6639V189.059H86.7381ZM97.4896 183.85V192.9H96.4096V189.373H94.3314V188.471H96.4096V187.062H94.3314V186.174H96.4096V183.85H97.4896ZM94.2357 184.848V185.723H92.9916V189.975C93.559 189.94 94.1059 189.899 94.6322 189.838L94.6869 190.645C92.3217 191.014 89.5463 191.055 87.5775 191.055L87.4408 190.139L89.0131 190.125V185.723H87.7826V184.848H94.2357ZM97.8178 194.842V195.744H89.6557V192.148H90.7357V194.842H97.8178ZM90.0521 190.098C90.6742 190.091 91.3168 190.07 91.9525 190.043V185.723H90.0521V190.098ZM108.665 183.863V187.869H110.497V188.771H108.665V192.969H107.599V183.863H108.665ZM106.437 185.354V186.229H99.1904V185.354H102.28V183.863H103.347V185.354H106.437ZM102.813 186.898C104.55 186.898 105.726 187.787 105.739 189.168C105.726 190.535 104.55 191.41 102.813 191.41C101.063 191.41 99.874 190.535 99.8877 189.168C99.874 187.787 101.063 186.898 102.813 186.898ZM102.813 187.746C101.665 187.746 100.899 188.307 100.913 189.168C100.899 190.029 101.665 190.576 102.813 190.562C103.948 190.576 104.714 190.029 104.728 189.168C104.714 188.307 103.948 187.746 102.813 187.746ZM109.226 194.842V195.744H101.063V192.244H102.116V194.842H109.226ZM124.153 183.85V190.973H123.072V187.801H120.612V186.898H123.072V183.85H124.153ZM124.153 191.574V195.84H116.209V191.574H124.153ZM117.276 192.436V194.965H123.1V192.436H117.276ZM118.301 186.01C118.301 187.582 119.518 189.1 121.295 189.729L120.735 190.576C119.361 190.084 118.301 189.059 117.781 187.801C117.255 189.202 116.134 190.323 114.692 190.85L114.131 190.002C115.922 189.359 117.221 187.746 117.221 186.01V185.531H114.473V184.643H121.022V185.531H118.301V186.01ZM135.847 183.85V196.031H134.767V183.85H135.847ZM129.381 184.793C131.185 184.807 132.484 186.447 132.484 189.031C132.484 191.615 131.185 193.256 129.381 193.256C127.562 193.256 126.277 191.615 126.277 189.031C126.277 186.447 127.562 184.807 129.381 184.793ZM129.381 185.75C128.164 185.764 127.316 187.049 127.316 189.031C127.316 191.014 128.164 192.299 129.381 192.299C130.597 192.299 131.445 191.014 131.445 189.031C131.445 187.049 130.597 185.764 129.381 185.75ZM144.854 192.012C144.854 193.085 145.429 194.227 146.591 194.883C147.739 194.165 148.354 192.955 148.354 192.012V191.342H149.407V192.012C149.407 193.256 150.323 194.514 151.882 195.047L151.349 195.84C150.132 195.409 149.277 194.562 148.86 193.543C148.484 194.527 147.739 195.457 146.618 195.936C145.436 195.484 144.684 194.589 144.321 193.57C143.891 194.555 143.05 195.402 141.888 195.84L141.341 195.047C142.872 194.473 143.802 193.174 143.815 192.012V191.342H144.854V192.012ZM150.774 183.863V190.809H149.708V183.863H150.774ZM144.212 184.574C146.058 184.574 147.397 185.723 147.397 187.418C147.397 189.086 146.058 190.234 144.212 190.234C142.366 190.234 141.026 189.086 141.026 187.418C141.026 185.723 142.366 184.574 144.212 184.574ZM144.212 185.49C142.968 185.477 142.065 186.283 142.079 187.418C142.065 188.539 142.968 189.332 144.212 189.346C145.442 189.332 146.345 188.539 146.345 187.418C146.345 186.283 145.442 185.477 144.212 185.49ZM161.895 183.85V188.662H163.932V189.564H161.895V196.031H160.829V183.85H161.895ZM158.696 185.039V185.928H154.088V192.08C156.29 192.08 157.848 191.978 159.653 191.643L159.79 192.572C157.889 192.914 156.29 192.982 153.979 192.982H153.022V185.039H158.696ZM170.391 184.916V185.996H173.235V183.863H174.315V192.736H173.235V189.496H170.391V190.59H164.813V184.916H170.391ZM165.879 185.805V189.729H169.338V185.805H165.879ZM174.588 194.842V195.744H166.453V191.943H167.533V194.842H174.588ZM170.391 188.607H173.235V186.898H170.391V188.607ZM189.228 183.863V192.818H188.148V188.129H185.605C185.366 189.626 184.108 190.645 182.501 190.645C180.683 190.645 179.343 189.4 179.343 187.637C179.343 185.873 180.683 184.643 182.501 184.643C184.142 184.643 185.42 185.688 185.619 187.24H188.148V183.863H189.228ZM189.57 194.842V195.744H181.421V191.902H182.501V194.842H189.57ZM182.501 185.586C181.285 185.6 180.369 186.434 180.369 187.637C180.369 188.84 181.285 189.701 182.501 189.715C183.691 189.701 184.607 188.84 184.607 187.637C184.607 186.434 183.691 185.6 182.501 185.586ZM201.292 183.85V196.004H200.267V183.85H201.292ZM198.831 184.15V195.375H197.819V189.113H195.769V188.238H197.819V184.15H198.831ZM194.47 187.322C194.47 189.428 195.413 191.52 197.095 192.49L196.438 193.283C195.242 192.565 194.395 191.253 193.978 189.701C193.533 191.376 192.651 192.805 191.435 193.57L190.751 192.764C192.446 191.752 193.431 189.537 193.431 187.322V186.174H191.093V185.285H196.698V186.174H194.47V187.322ZM213.739 189.988V190.863H202.651V189.988H213.739ZM212.467 187.76V188.648H204.059V184.383H212.358V185.258H205.126V187.76H212.467ZM212.563 194.828V195.73H204.087V192.176H205.153V194.828H212.563ZM221.543 184.738C223.457 184.738 224.81 185.9 224.81 187.596C224.81 189.291 223.457 190.453 221.543 190.453C219.629 190.453 218.248 189.291 218.262 187.596C218.248 185.9 219.629 184.738 221.543 184.738ZM221.543 185.682C220.244 185.682 219.301 186.461 219.314 187.596C219.301 188.73 220.244 189.51 221.543 189.51C222.828 189.51 223.758 188.73 223.758 187.596C223.758 186.461 222.828 185.682 221.543 185.682ZM227.531 183.85V196.031H226.465V183.85H227.531ZM217.633 192.436C219.875 192.436 222.965 192.422 225.658 192.025L225.74 192.818C222.965 193.338 219.971 193.352 217.783 193.352L217.633 192.436ZM239.39 183.863V192.928H238.31V189.988H235.042V189.1H238.31V187.254H235.206C234.352 189.175 232.486 190.638 229.997 191.438L229.519 190.576C232.363 189.64 234.318 187.89 234.55 185.695H230.12V184.807H235.726C235.726 185.354 235.651 185.88 235.521 186.379H238.31V183.863H239.39ZM239.704 194.842V195.744H231.652V192.025H232.745V194.842H239.704ZM246.601 184.068C249.308 184.068 250.894 184.807 250.894 186.16C250.894 187.541 249.308 188.279 246.601 188.293C243.894 188.279 242.294 187.541 242.294 186.16C242.294 184.807 243.894 184.068 246.601 184.068ZM246.601 184.875C244.577 184.875 243.401 185.367 243.415 186.16C243.401 187.008 244.577 187.473 246.601 187.473C248.61 187.473 249.8 187.008 249.8 186.16C249.8 185.367 248.61 184.875 246.601 184.875ZM252.138 189.113V189.988H241.063V189.113H252.138ZM250.716 191.041V193.762H243.497V195.02H251.085V195.867H242.431V192.969H249.663V191.861H242.403V191.041H250.716ZM265.479 183.863V186.652H267.324V187.555H265.479V190.727H264.412V183.863H265.479ZM265.479 191.396V195.84H257.781V191.396H265.479ZM258.834 192.244V194.965H264.44V192.244H258.834ZM257.645 184.479V188.895C259.374 188.888 261.158 188.751 263.127 188.348L263.264 189.25C261.199 189.66 259.367 189.797 257.535 189.797H256.565V184.479H257.645ZM273.892 185.176C273.892 185.866 273.831 186.543 273.701 187.199H276.722V183.836H277.789V196.004H276.722V191.328H273.291V190.439H276.722V188.074H273.482C272.778 190.33 271.172 192.312 268.301 193.707L267.74 192.832C270.98 191.267 272.587 188.922 272.812 186.051H268.273V185.176H273.892ZM285.615 185.572C285.601 187.199 287.775 188.58 289.894 188.895L289.497 189.742C287.597 189.421 285.751 188.409 285.013 186.939C284.275 188.409 282.422 189.421 280.556 189.742L280.132 188.895C282.238 188.58 284.412 187.199 284.412 185.572V185.49H280.515V184.615H289.497V185.49H285.615V185.572ZM290.55 190.781V191.67H285.519V196.004H284.466V191.67H279.476V190.781H290.55ZM294.835 187.309C294.835 189.236 295.778 191.328 297.392 192.285L296.776 193.119C295.607 192.408 294.767 191.109 294.343 189.633C293.892 191.246 292.989 192.634 291.772 193.379L291.089 192.572C292.771 191.588 293.796 189.428 293.796 187.35V184.998H294.835V187.309ZM301.644 183.85V196.004H300.604V183.85H301.644ZM299.128 184.109V195.389H298.116V189.127H296.052V188.211H298.116V184.109H299.128ZM314.104 193.543V194.445H302.975V193.543H305.737V190.262C304.698 189.722 304.069 188.847 304.069 187.746C304.069 185.859 305.915 184.629 308.512 184.615C311.11 184.629 312.956 185.859 312.956 187.746C312.956 188.826 312.347 189.694 311.342 190.234V193.543H314.104ZM308.512 185.504C306.516 185.49 305.108 186.393 305.108 187.746C305.108 189.1 306.516 190.016 308.512 190.016C310.495 190.016 311.917 189.1 311.917 187.746C311.917 186.393 310.495 185.49 308.512 185.504ZM306.79 193.543H310.262V190.645C309.736 190.788 309.148 190.863 308.512 190.863C307.89 190.863 307.309 190.795 306.79 190.658V193.543ZM316.694 184.998L316.598 192.107H315.449L315.354 184.998H316.694ZM316.024 194.979C315.545 194.979 315.135 194.582 315.149 194.09C315.135 193.611 315.545 193.215 316.024 193.215C316.502 193.215 316.899 193.611 316.899 194.09C316.899 194.582 316.502 194.979 316.024 194.979Z" fill="#121212" fill-opacity="0.5"/>
<path fill-rule="evenodd" clip-rule="evenodd" d="M272.413 116.396C273.778 110.618 274.5 104.592 274.5 98.3965C274.5 55.3183 239.578 20.3965 196.5 20.3965C153.422 20.3965 118.5 55.3183 118.5 98.3965C118.5 104.592 119.222 110.618 120.587 116.396H272.413Z" fill="white"/>
<g filter="url(#filter1_f_756_4342)">
<circle cx="196" cy="79.8965" r="29.5" fill="#F0807F" fill-opacity="0.5"/>
</g>
<g filter="url(#filter2_ii_756_4342)">
<path d="M165.5 63.3637C165.5 55.6498 171.753 49.3965 179.467 49.3965H211.592C219.306 49.3965 225.559 55.6498 225.559 63.3637V95.4883C225.559 103.202 219.306 109.456 211.592 109.456H179.467C171.753 109.456 165.5 103.202 165.5 95.4883V63.3637Z" fill="#F9F9F9"/>
</g>
<g filter="url(#filter3_ii_756_4342)">
<path d="M185.752 78.1799C185.752 80.8218 184.8 82.9634 183.626 82.9634C182.452 82.9634 181.5 80.8218 181.5 78.1799C181.5 75.5381 182.452 73.3965 183.626 73.3965C184.8 73.3965 185.752 75.5381 185.752 78.1799Z" fill="#202020"/>
</g>
<g filter="url(#filter4_ii_756_4342)">
<path d="M209.138 78.1799C209.138 80.8218 208.186 82.9634 207.012 82.9634C205.838 82.9634 204.886 80.8218 204.886 78.1799C204.886 75.5381 205.838 73.3965 207.012 73.3965C208.186 73.3965 209.138 75.5381 209.138 78.1799Z" fill="#202020"/>
</g>
<g filter="url(#filter5_ii_756_4342)">
<path d="M188.245 107.064C188.245 112.495 185.508 116.897 182.133 116.897C178.757 116.897 176.021 112.495 176.021 107.064C176.021 101.634 178.757 97.2314 182.133 97.2314C185.508 97.2314 188.245 101.634 188.245 107.064Z" fill="#202020"/>
</g>
<g filter="url(#filter6_ii_756_4342)">
<path d="M211.631 107.064C211.631 112.495 208.894 116.897 205.518 116.897C202.143 116.897 199.406 112.495 199.406 107.064C199.406 101.634 202.143 97.2314 205.518 97.2314C208.894 97.2314 211.631 101.634 211.631 107.064Z" fill="#202020"/>
</g>
<g filter="url(#filter7_dii_756_4342)">
<path d="M212.751 93.6961C210.403 92.3405 210.148 88.3865 212.182 84.8645C214.215 81.3425 217.767 79.5863 220.115 80.9419C222.463 82.2975 222.718 86.2516 220.684 89.7736C218.651 93.2956 215.099 95.0517 212.751 93.6961Z" fill="#202020"/>
</g>
<g filter="url(#filter8_ii_756_4342)">
<ellipse cx="219" cy="51.3965" rx="4.5" ry="5" fill="#F0807F"/>
</g>
<g filter="url(#filter9_ii_756_4342)">
<circle cx="224.5" cy="55.3965" r="5" fill="#F0807F"/>
</g>
<g filter="url(#filter10_ii_756_4342)">
<circle cx="213.5" cy="55.3965" r="5" fill="#F0807F"/>
</g>
<g filter="url(#filter11_ii_756_4342)">
<circle cx="216.5" cy="61.3965" r="5" fill="#F0807F"/>
</g>
<g filter="url(#filter12_ii_756_4342)">
<circle cx="223.5" cy="61.3965" r="5" fill="#F0807F"/>
</g>
<g filter="url(#filter13_ii_756_4342)">
<circle cx="220.5" cy="55.3965" r="3" fill="#FFD572"/>
</g>
<g filter="url(#filter14_ii_756_4342)">
<path d="M161.138 53.6027C161.189 53.3277 161.525 53.3277 161.576 53.6027L162.157 56.7623C162.176 56.8627 162.243 56.9412 162.329 56.9628L165.037 57.6412C165.273 57.7003 165.273 58.0927 165.037 58.1517L162.329 58.8302C162.243 58.8518 162.176 58.9302 162.157 59.0306L161.576 62.1902C161.525 62.4652 161.189 62.4652 161.138 62.1902L160.557 59.0306C160.538 58.9302 160.471 58.8518 160.385 58.8302L157.677 58.1517C157.441 58.0927 157.441 57.7003 157.677 57.6412L160.385 56.9628C160.471 56.9412 160.538 56.8627 160.557 56.7623L161.138 53.6027Z" fill="#FFD572"/>
</g>
<g filter="url(#filter15_ii_756_4342)">
<path d="M227.068 105.557C227.104 105.343 227.341 105.343 227.377 105.557L227.787 108.014C227.8 108.092 227.848 108.153 227.908 108.17L229.82 108.698C229.986 108.744 229.986 109.049 229.82 109.095L227.908 109.623C227.848 109.639 227.8 109.701 227.787 109.779L227.377 112.236C227.341 112.45 227.104 112.45 227.068 112.236L226.657 109.779C226.644 109.701 226.597 109.639 226.536 109.623L224.625 109.095C224.458 109.049 224.458 108.744 224.625 108.698L226.536 108.17C226.597 108.153 226.644 108.092 226.657 108.014L227.068 105.557Z" fill="#FFD572"/>
</g>
<g filter="url(#filter16_dii_756_4342)">
<path d="M170.752 81.1854C173.1 79.8298 176.652 81.5865 178.686 85.1091C180.719 88.6317 180.465 92.5863 178.117 93.9419C175.769 95.2975 172.217 93.5408 170.183 90.0182C168.149 86.4956 168.404 82.541 170.752 81.1854Z" fill="#202020"/>
</g>
</g>
<defs>
<filter id="filter0_d_756_4342" x="-10" y="10.3965" width="413" height="230.5" filterUnits="userSpaceOnUse" color-interpolation-filters="sRGB">
<feFlood flood-opacity="0" result="BackgroundImageFix"/>
<feColorMatrix in="SourceAlpha" type="matrix" values="0 0 0 0 0 0 0 0 0 0 0 0 0 0 0 0 0 0 127 0" result="hardAlpha"/>
<feOffset/>
<feGaussianBlur stdDeviation="5"/>
<feComposite in2="hardAlpha" operator="out"/>
<feColorMatrix type="matrix" values="0 0 0 0 0 0 0 0 0 0 0 0 0 0 0 0 0 0 0.15 0"/>
<feBlend mode="normal" in2="BackgroundImageFix" result="effect1_dropShadow_756_4342"/>
<feBlend mode="normal" in="SourceGraphic" in2="effect1_dropShadow_756_4342" result="shape"/>
</filter>
<filter id="filter1_f_756_4342" x="116.5" y="0.396484" width="159" height="159" filterUnits="userSpaceOnUse" color-interpolation-filters="sRGB">
<feFlood flood-opacity="0" result="BackgroundImageFix"/>
<feBlend mode="normal" in="SourceGraphic" in2="BackgroundImageFix" result="shape"/>
<feGaussianBlur stdDeviation="25" result="effect1_foregroundBlur_756_4342"/>
</filter>
<filter id="filter2_ii_756_4342" x="160.5" y="44.3965" width="70.0591" height="70.0591" filterUnits="userSpaceOnUse" color-interpolation-filters="sRGB">
<feFlood flood-opacity="0" result="BackgroundImageFix"/>
<feBlend mode="normal" in="SourceGraphic" in2="BackgroundImageFix" result="shape"/>
<feColorMatrix in="SourceAlpha" type="matrix" values="0 0 0 0 0 0 0 0 0 0 0 0 0 0 0 0 0 0 127 0" result="hardAlpha"/>
<feOffset dx="-5" dy="-5"/>
<feGaussianBlur stdDeviation="2.5"/>
<feComposite in2="hardAlpha" operator="arithmetic" k2="-1" k3="1"/>
<feColorMatrix type="matrix" values="0 0 0 0 0 0 0 0 0 0 0 0 0 0 0 0 0 0 0.2 0"/>
<feBlend mode="normal" in2="shape" result="effect1_innerShadow_756_4342"/>
<feColorMatrix in="SourceAlpha" type="matrix" values="0 0 0 0 0 0 0 0 0 0 0 0 0 0 0 0 0 0 127 0" result="hardAlpha"/>
<feOffset dx="5" dy="5"/>
<feGaussianBlur stdDeviation="2.5"/>
<feComposite in2="hardAlpha" operator="arithmetic" k2="-1" k3="1"/>
<feColorMatrix type="matrix" values="0 0 0 0 1 0 0 0 0 1 0 0 0 0 1 0 0 0 0.2 0"/>
<feBlend mode="normal" in2="effect1_innerShadow_756_4342" result="effect2_innerShadow_756_4342"/>
</filter>
<filter id="filter3_ii_756_4342" x="180.5" y="72.3965" width="6.25195" height="11.5669" filterUnits="userSpaceOnUse" color-interpolation-filters="sRGB">
<feFlood flood-opacity="0" result="BackgroundImageFix"/>
<feBlend mode="normal" in="SourceGraphic" in2="BackgroundImageFix" result="shape"/>
<feColorMatrix in="SourceAlpha" type="matrix" values="0 0 0 0 0 0 0 0 0 0 0 0 0 0 0 0 0 0 127 0" result="hardAlpha"/>
<feOffset dx="-1" dy="-1"/>
<feGaussianBlur stdDeviation="0.5"/>
<feComposite in2="hardAlpha" operator="arithmetic" k2="-1" k3="1"/>
<feColorMatrix type="matrix" values="0 0 0 0 1 0 0 0 0 1 0 0 0 0 1 0 0 0 0.2 0"/>
<feBlend mode="normal" in2="shape" result="effect1_innerShadow_756_4342"/>
<feColorMatrix in="SourceAlpha" type="matrix" values="0 0 0 0 0 0 0 0 0 0 0 0 0 0 0 0 0 0 127 0" result="hardAlpha"/>
<feOffset dx="1" dy="1"/>
<feGaussianBlur stdDeviation="0.5"/>
<feComposite in2="hardAlpha" operator="arithmetic" k2="-1" k3="1"/>
<feColorMatrix type="matrix" values="0 0 0 0 0 0 0 0 0 0 0 0 0 0 0 0 0 0 0.2 0"/>
<feBlend mode="normal" in2="effect1_innerShadow_756_4342" result="effect2_innerShadow_756_4342"/>
</filter>
<filter id="filter4_ii_756_4342" x="203.886" y="72.3965" width="6.25195" height="11.5669" filterUnits="userSpaceOnUse" color-interpolation-filters="sRGB">
<feFlood flood-opacity="0" result="BackgroundImageFix"/>
<feBlend mode="normal" in="SourceGraphic" in2="BackgroundImageFix" result="shape"/>
<feColorMatrix in="SourceAlpha" type="matrix" values="0 0 0 0 0 0 0 0 0 0 0 0 0 0 0 0 0 0 127 0" result="hardAlpha"/>
<feOffset dx="-1" dy="-1"/>
<feGaussianBlur stdDeviation="0.5"/>
<feComposite in2="hardAlpha" operator="arithmetic" k2="-1" k3="1"/>
<feColorMatrix type="matrix" values="0 0 0 0 1 0 0 0 0 1 0 0 0 0 1 0 0 0 0.2 0"/>
<feBlend mode="normal" in2="shape" result="effect1_innerShadow_756_4342"/>
<feColorMatrix in="SourceAlpha" type="matrix" values="0 0 0 0 0 0 0 0 0 0 0 0 0 0 0 0 0 0 127 0" result="hardAlpha"/>
<feOffset dx="1" dy="1"/>
<feGaussianBlur stdDeviation="0.5"/>
<feComposite in2="hardAlpha" operator="arithmetic" k2="-1" k3="1"/>
<feColorMatrix type="matrix" values="0 0 0 0 0 0 0 0 0 0 0 0 0 0 0 0 0 0 0.2 0"/>
<feBlend mode="normal" in2="effect1_innerShadow_756_4342" result="effect2_innerShadow_756_4342"/>
</filter>
<filter id="filter5_ii_756_4342" x="174.021" y="95.2314" width="16.2246" height="23.6655" filterUnits="userSpaceOnUse" color-interpolation-filters="sRGB">
<feFlood flood-opacity="0" result="BackgroundImageFix"/>
<feBlend mode="normal" in="SourceGraphic" in2="BackgroundImageFix" result="shape"/>
<feColorMatrix in="SourceAlpha" type="matrix" values="0 0 0 0 0 0 0 0 0 0 0 0 0 0 0 0 0 0 127 0" result="hardAlpha"/>
<feOffset dx="-2" dy="-2"/>
<feGaussianBlur stdDeviation="1"/>
<feComposite in2="hardAlpha" operator="arithmetic" k2="-1" k3="1"/>
<feColorMatrix type="matrix" values="0 0 0 0 0 0 0 0 0 0 0 0 0 0 0 0 0 0 0.2 0"/>
<feBlend mode="normal" in2="shape" result="effect1_innerShadow_756_4342"/>
<feColorMatrix in="SourceAlpha" type="matrix" values="0 0 0 0 0 0 0 0 0 0 0 0 0 0 0 0 0 0 127 0" result="hardAlpha"/>
<feOffset dx="2" dy="2"/>
<feGaussianBlur stdDeviation="1"/>
<feComposite in2="hardAlpha" operator="arithmetic" k2="-1" k3="1"/>
<feColorMatrix type="matrix" values="0 0 0 0 1 0 0 0 0 1 0 0 0 0 1 0 0 0 0.2 0"/>
<feBlend mode="normal" in2="effect1_innerShadow_756_4342" result="effect2_innerShadow_756_4342"/>
</filter>
<filter id="filter6_ii_756_4342" x="197.406" y="95.2314" width="16.2246" height="23.6655" filterUnits="userSpaceOnUse" color-interpolation-filters="sRGB">
<feFlood flood-opacity="0" result="BackgroundImageFix"/>
<feBlend mode="normal" in="SourceGraphic" in2="BackgroundImageFix" result="shape"/>
<feColorMatrix in="SourceAlpha" type="matrix" values="0 0 0 0 0 0 0 0 0 0 0 0 0 0 0 0 0 0 127 0" result="hardAlpha"/>
<feOffset dx="-2" dy="-2"/>
<feGaussianBlur stdDeviation="1"/>
<feComposite in2="hardAlpha" operator="arithmetic" k2="-1" k3="1"/>
<feColorMatrix type="matrix" values="0 0 0 0 0 0 0 0 0 0 0 0 0 0 0 0 0 0 0.2 0"/>
<feBlend mode="normal" in2="shape" result="effect1_innerShadow_756_4342"/>
<feColorMatrix in="SourceAlpha" type="matrix" values="0 0 0 0 0 0 0 0 0 0 0 0 0 0 0 0 0 0 127 0" result="hardAlpha"/>
<feOffset dx="2" dy="2"/>
<feGaussianBlur stdDeviation="1"/>
<feComposite in2="hardAlpha" operator="arithmetic" k2="-1" k3="1"/>
<feColorMatrix type="matrix" values="0 0 0 0 1 0 0 0 0 1 0 0 0 0 1 0 0 0 0.2 0"/>
<feBlend mode="normal" in2="effect1_innerShadow_756_4342" result="effect2_innerShadow_756_4342"/>
</filter>
<filter id="filter7_dii_756_4342" x="209.809" y="79.4839" width="16.2485" height="17.6699" filterUnits="userSpaceOnUse" color-interpolation-filters="sRGB">
<feFlood flood-opacity="0" result="BackgroundImageFix"/>
<feColorMatrix in="SourceAlpha" type="matrix" values="0 0 0 0 0 0 0 0 0 0 0 0 0 0 0 0 0 0 127 0" result="hardAlpha"/>
<feOffset dx="2" dy="1"/>
<feGaussianBlur stdDeviation="1"/>
<feComposite in2="hardAlpha" operator="out"/>
<feColorMatrix type="matrix" values="0 0 0 0 0 0 0 0 0 0 0 0 0 0 0 0 0 0 0.1 0"/>
<feBlend mode="normal" in2="BackgroundImageFix" result="effect1_dropShadow_756_4342"/>
<feBlend mode="normal" in="SourceGraphic" in2="effect1_dropShadow_756_4342" result="shape"/>
<feColorMatrix in="SourceAlpha" type="matrix" values="0 0 0 0 0 0 0 0 0 0 0 0 0 0 0 0 0 0 127 0" result="hardAlpha"/>
<feOffset dx="-1" dy="-1"/>
<feGaussianBlur stdDeviation="0.5"/>
<feComposite in2="hardAlpha" operator="arithmetic" k2="-1" k3="1"/>
<feColorMatrix type="matrix" values="0 0 0 0 0 0 0 0 0 0 0 0 0 0 0 0 0 0 0.2 0"/>
<feBlend mode="normal" in2="shape" result="effect2_innerShadow_756_4342"/>
<feColorMatrix in="SourceAlpha" type="matrix" values="0 0 0 0 0 0 0 0 0 0 0 0 0 0 0 0 0 0 127 0" result="hardAlpha"/>
<feOffset dx="1" dy="1"/>
<feGaussianBlur stdDeviation="0.5"/>
<feComposite in2="hardAlpha" operator="arithmetic" k2="-1" k3="1"/>
<feColorMatrix type="matrix" values="0 0 0 0 1 0 0 0 0 1 0 0 0 0 1 0 0 0 0.2 0"/>
<feBlend mode="normal" in2="effect2_innerShadow_756_4342" result="effect3_innerShadow_756_4342"/>
</filter>
<filter id="filter8_ii_756_4342" x="213.5" y="45.3965" width="11" height="12" filterUnits="userSpaceOnUse" color-interpolation-filters="sRGB">
<feFlood flood-opacity="0" result="BackgroundImageFix"/>
<feBlend mode="normal" in="SourceGraphic" in2="BackgroundImageFix" result="shape"/>
<feColorMatrix in="SourceAlpha" type="matrix" values="0 0 0 0 0 0 0 0 0 0 0 0 0 0 0 0 0 0 127 0" result="hardAlpha"/>
<feOffset dx="-1" dy="1"/>
<feGaussianBlur stdDeviation="0.5"/>
<feComposite in2="hardAlpha" operator="arithmetic" k2="-1" k3="1"/>
<feColorMatrix type="matrix" values="0 0 0 0 1 0 0 0 0 1 0 0 0 0 1 0 0 0 0.2 0"/>
<feBlend mode="normal" in2="shape" result="effect1_innerShadow_756_4342"/>
<feColorMatrix in="SourceAlpha" type="matrix" values="0 0 0 0 0 0 0 0 0 0 0 0 0 0 0 0 0 0 127 0" result="hardAlpha"/>
<feOffset dx="1" dy="-1"/>
<feGaussianBlur stdDeviation="0.5"/>
<feComposite in2="hardAlpha" operator="arithmetic" k2="-1" k3="1"/>
<feColorMatrix type="matrix" values="0 0 0 0 0 0 0 0 0 0 0 0 0 0 0 0 0 0 0.2 0"/>
<feBlend mode="normal" in2="effect1_innerShadow_756_4342" result="effect2_innerShadow_756_4342"/>
</filter>
<filter id="filter9_ii_756_4342" x="218.5" y="49.3965" width="12" height="12" filterUnits="userSpaceOnUse" color-interpolation-filters="sRGB">
<feFlood flood-opacity="0" result="BackgroundImageFix"/>
<feBlend mode="normal" in="SourceGraphic" in2="BackgroundImageFix" result="shape"/>
<feColorMatrix in="SourceAlpha" type="matrix" values="0 0 0 0 0 0 0 0 0 0 0 0 0 0 0 0 0 0 127 0" result="hardAlpha"/>
<feOffset dx="-1" dy="1"/>
<feGaussianBlur stdDeviation="0.5"/>
<feComposite in2="hardAlpha" operator="arithmetic" k2="-1" k3="1"/>
<feColorMatrix type="matrix" values="0 0 0 0 1 0 0 0 0 1 0 0 0 0 1 0 0 0 0.2 0"/>
<feBlend mode="normal" in2="shape" result="effect1_innerShadow_756_4342"/>
<feColorMatrix in="SourceAlpha" type="matrix" values="0 0 0 0 0 0 0 0 0 0 0 0 0 0 0 0 0 0 127 0" result="hardAlpha"/>
<feOffset dx="1" dy="-1"/>
<feGaussianBlur stdDeviation="0.5"/>
<feComposite in2="hardAlpha" operator="arithmetic" k2="-1" k3="1"/>
<feColorMatrix type="matrix" values="0 0 0 0 0 0 0 0 0 0 0 0 0 0 0 0 0 0 0.2 0"/>
<feBlend mode="normal" in2="effect1_innerShadow_756_4342" result="effect2_innerShadow_756_4342"/>
</filter>
<filter id="filter10_ii_756_4342" x="207.5" y="49.3965" width="12" height="12" filterUnits="userSpaceOnUse" color-interpolation-filters="sRGB">
<feFlood flood-opacity="0" result="BackgroundImageFix"/>
<feBlend mode="normal" in="SourceGraphic" in2="BackgroundImageFix" result="shape"/>
<feColorMatrix in="SourceAlpha" type="matrix" values="0 0 0 0 0 0 0 0 0 0 0 0 0 0 0 0 0 0 127 0" result="hardAlpha"/>
<feOffset dx="-1" dy="1"/>
<feGaussianBlur stdDeviation="0.5"/>
<feComposite in2="hardAlpha" operator="arithmetic" k2="-1" k3="1"/>
<feColorMatrix type="matrix" values="0 0 0 0 1 0 0 0 0 1 0 0 0 0 1 0 0 0 0.2 0"/>
<feBlend mode="normal" in2="shape" result="effect1_innerShadow_756_4342"/>
<feColorMatrix in="SourceAlpha" type="matrix" values="0 0 0 0 0 0 0 0 0 0 0 0 0 0 0 0 0 0 127 0" result="hardAlpha"/>
<feOffset dx="1" dy="-1"/>
<feGaussianBlur stdDeviation="0.5"/>
<feComposite in2="hardAlpha" operator="arithmetic" k2="-1" k3="1"/>
<feColorMatrix type="matrix" values="0 0 0 0 0 0 0 0 0 0 0 0 0 0 0 0 0 0 0.2 0"/>
<feBlend mode="normal" in2="effect1_innerShadow_756_4342" result="effect2_innerShadow_756_4342"/>
</filter>
<filter id="filter11_ii_756_4342" x="210.5" y="55.3965" width="12" height="12" filterUnits="userSpaceOnUse" color-interpolation-filters="sRGB">
<feFlood flood-opacity="0" result="BackgroundImageFix"/>
<feBlend mode="normal" in="SourceGraphic" in2="BackgroundImageFix" result="shape"/>
<feColorMatrix in="SourceAlpha" type="matrix" values="0 0 0 0 0 0 0 0 0 0 0 0 0 0 0 0 0 0 127 0" result="hardAlpha"/>
<feOffset dx="-1" dy="1"/>
<feGaussianBlur stdDeviation="0.5"/>
<feComposite in2="hardAlpha" operator="arithmetic" k2="-1" k3="1"/>
<feColorMatrix type="matrix" values="0 0 0 0 1 0 0 0 0 1 0 0 0 0 1 0 0 0 0.2 0"/>
<feBlend mode="normal" in2="shape" result="effect1_innerShadow_756_4342"/>
<feColorMatrix in="SourceAlpha" type="matrix" values="0 0 0 0 0 0 0 0 0 0 0 0 0 0 0 0 0 0 127 0" result="hardAlpha"/>
<feOffset dx="1" dy="-1"/>
<feGaussianBlur stdDeviation="0.5"/>
<feComposite in2="hardAlpha" operator="arithmetic" k2="-1" k3="1"/>
<feColorMatrix type="matrix" values="0 0 0 0 0 0 0 0 0 0 0 0 0 0 0 0 0 0 0.2 0"/>
<feBlend mode="normal" in2="effect1_innerShadow_756_4342" result="effect2_innerShadow_756_4342"/>
</filter>
<filter id="filter12_ii_756_4342" x="217.5" y="55.3965" width="12" height="12" filterUnits="userSpaceOnUse" color-interpolation-filters="sRGB">
<feFlood flood-opacity="0" result="BackgroundImageFix"/>
<feBlend mode="normal" in="SourceGraphic" in2="BackgroundImageFix" result="shape"/>
<feColorMatrix in="SourceAlpha" type="matrix" values="0 0 0 0 0 0 0 0 0 0 0 0 0 0 0 0 0 0 127 0" result="hardAlpha"/>
<feOffset dx="-1" dy="1"/>
<feGaussianBlur stdDeviation="0.5"/>
<feComposite in2="hardAlpha" operator="arithmetic" k2="-1" k3="1"/>
<feColorMatrix type="matrix" values="0 0 0 0 1 0 0 0 0 1 0 0 0 0 1 0 0 0 0.2 0"/>
<feBlend mode="normal" in2="shape" result="effect1_innerShadow_756_4342"/>
<feColorMatrix in="SourceAlpha" type="matrix" values="0 0 0 0 0 0 0 0 0 0 0 0 0 0 0 0 0 0 127 0" result="hardAlpha"/>
<feOffset dx="1" dy="-1"/>
<feGaussianBlur stdDeviation="0.5"/>
<feComposite in2="hardAlpha" operator="arithmetic" k2="-1" k3="1"/>
<feColorMatrix type="matrix" values="0 0 0 0 0 0 0 0 0 0 0 0 0 0 0 0 0 0 0.2 0"/>
<feBlend mode="normal" in2="effect1_innerShadow_756_4342" result="effect2_innerShadow_756_4342"/>
</filter>
<filter id="filter13_ii_756_4342" x="216.5" y="51.3965" width="8" height="8" filterUnits="userSpaceOnUse" color-interpolation-filters="sRGB">
<feFlood flood-opacity="0" result="BackgroundImageFix"/>
<feBlend mode="normal" in="SourceGraphic" in2="BackgroundImageFix" result="shape"/>
<feColorMatrix in="SourceAlpha" type="matrix" values="0 0 0 0 0 0 0 0 0 0 0 0 0 0 0 0 0 0 127 0" result="hardAlpha"/>
<feOffset dx="-1" dy="1"/>
<feGaussianBlur stdDeviation="0.5"/>
<feComposite in2="hardAlpha" operator="arithmetic" k2="-1" k3="1"/>
<feColorMatrix type="matrix" values="0 0 0 0 1 0 0 0 0 1 0 0 0 0 1 0 0 0 0.2 0"/>
<feBlend mode="normal" in2="shape" result="effect1_innerShadow_756_4342"/>
<feColorMatrix in="SourceAlpha" type="matrix" values="0 0 0 0 0 0 0 0 0 0 0 0 0 0 0 0 0 0 127 0" result="hardAlpha"/>
<feOffset dx="1" dy="-1"/>
<feGaussianBlur stdDeviation="0.5"/>
<feComposite in2="hardAlpha" operator="arithmetic" k2="-1" k3="1"/>
<feColorMatrix type="matrix" values="0 0 0 0 0 0 0 0 0 0 0 0 0 0 0 0 0 0 0.2 0"/>
<feBlend mode="normal" in2="effect1_innerShadow_756_4342" result="effect2_innerShadow_756_4342"/>
</filter>
<filter id="filter14_ii_756_4342" x="157.2" y="53.0965" width="8.31436" height="9.6" filterUnits="userSpaceOnUse" color-interpolation-filters="sRGB">
<feFlood flood-opacity="0" result="BackgroundImageFix"/>
<feBlend mode="normal" in="SourceGraphic" in2="BackgroundImageFix" result="shape"/>
<feColorMatrix in="SourceAlpha" type="matrix" values="0 0 0 0 0 0 0 0 0 0 0 0 0 0 0 0 0 0 127 0" result="hardAlpha"/>
<feOffset dx="-0.3" dy="-0.3"/>
<feGaussianBlur stdDeviation="0.5"/>
<feComposite in2="hardAlpha" operator="arithmetic" k2="-1" k3="1"/>
<feColorMatrix type="matrix" values="0 0 0 0 1 0 0 0 0 1 0 0 0 0 1 0 0 0 0.2 0"/>
<feBlend mode="normal" in2="shape" result="effect1_innerShadow_756_4342"/>
<feColorMatrix in="SourceAlpha" type="matrix" values="0 0 0 0 0 0 0 0 0 0 0 0 0 0 0 0 0 0 127 0" result="hardAlpha"/>
<feOffset dx="0.3" dy="0.3"/>
<feGaussianBlur stdDeviation="0.5"/>
<feComposite in2="hardAlpha" operator="arithmetic" k2="-1" k3="1"/>
<feColorMatrix type="matrix" values="0 0 0 0 0 0 0 0 0 0 0 0 0 0 0 0 0 0 0.1 0"/>
<feBlend mode="normal" in2="effect1_innerShadow_756_4342" result="effect2_innerShadow_756_4342"/>
</filter>
<filter id="filter15_ii_756_4342" x="224.2" y="105.096" width="6.04434" height="7.6" filterUnits="userSpaceOnUse" color-interpolation-filters="sRGB">
<feFlood flood-opacity="0" result="BackgroundImageFix"/>
<feBlend mode="normal" in="SourceGraphic" in2="BackgroundImageFix" result="shape"/>
<feColorMatrix in="SourceAlpha" type="matrix" values="0 0 0 0 0 0 0 0 0 0 0 0 0 0 0 0 0 0 127 0" result="hardAlpha"/>
<feOffset dx="-0.3" dy="-0.3"/>
<feGaussianBlur stdDeviation="0.5"/>
<feComposite in2="hardAlpha" operator="arithmetic" k2="-1" k3="1"/>
<feColorMatrix type="matrix" values="0 0 0 0 1 0 0 0 0 1 0 0 0 0 1 0 0 0 0.2 0"/>
<feBlend mode="normal" in2="shape" result="effect1_innerShadow_756_4342"/>
<feColorMatrix in="SourceAlpha" type="matrix" values="0 0 0 0 0 0 0 0 0 0 0 0 0 0 0 0 0 0 127 0" result="hardAlpha"/>
<feOffset dx="0.3" dy="0.3"/>
<feGaussianBlur stdDeviation="0.5"/>
<feComposite in2="hardAlpha" operator="arithmetic" k2="-1" k3="1"/>
<feColorMatrix type="matrix" values="0 0 0 0 0 0 0 0 0 0 0 0 0 0 0 0 0 0 0.1 0"/>
<feBlend mode="normal" in2="effect1_innerShadow_756_4342" result="effect2_innerShadow_756_4342"/>
</filter>
<filter id="filter16_dii_756_4342" x="167.81" y="79.7275" width="16.249" height="17.6724" filterUnits="userSpaceOnUse" color-interpolation-filters="sRGB">
<feFlood flood-opacity="0" result="BackgroundImageFix"/>
<feColorMatrix in="SourceAlpha" type="matrix" values="0 0 0 0 0 0 0 0 0 0 0 0 0 0 0 0 0 0 127 0" result="hardAlpha"/>
<feOffset dx="2" dy="1"/>
<feGaussianBlur stdDeviation="1"/>
<feComposite in2="hardAlpha" operator="out"/>
<feColorMatrix type="matrix" values="0 0 0 0 0 0 0 0 0 0 0 0 0 0 0 0 0 0 0.1 0"/>
<feBlend mode="normal" in2="BackgroundImageFix" result="effect1_dropShadow_756_4342"/>
<feBlend mode="normal" in="SourceGraphic" in2="effect1_dropShadow_756_4342" result="shape"/>
<feColorMatrix in="SourceAlpha" type="matrix" values="0 0 0 0 0 0 0 0 0 0 0 0 0 0 0 0 0 0 127 0" result="hardAlpha"/>
<feOffset dx="-1" dy="-1"/>
<feGaussianBlur stdDeviation="0.5"/>
<feComposite in2="hardAlpha" operator="arithmetic" k2="-1" k3="1"/>
<feColorMatrix type="matrix" values="0 0 0 0 0 0 0 0 0 0 0 0 0 0 0 0 0 0 0.2 0"/>
<feBlend mode="normal" in2="shape" result="effect2_innerShadow_756_4342"/>
<feColorMatrix in="SourceAlpha" type="matrix" values="0 0 0 0 0 0 0 0 0 0 0 0 0 0 0 0 0 0 127 0" result="hardAlpha"/>
<feOffset dx="1" dy="1"/>
<feGaussianBlur stdDeviation="0.5"/>
<feComposite in2="hardAlpha" operator="arithmetic" k2="-1" k3="1"/>
<feColorMatrix type="matrix" values="0 0 0 0 1 0 0 0 0 1 0 0 0 0 1 0 0 0 0.2 0"/>
<feBlend mode="normal" in2="effect2_innerShadow_756_4342" result="effect3_innerShadow_756_4342"/>
</filter>
</defs>
</svg>
