<svg width="393" height="251" viewBox="0 0 393 251" fill="none" xmlns="http://www.w3.org/2000/svg">
<g filter="url(#filter0_d_756_4379)">
<rect x="24" y="100.646" width="345" height="140" rx="20" fill="white"/>
<path d="M91.5352 138.584V140.459C91.5352 142.725 91.5352 145.186 90.8906 148.916L88.9961 148.74C89.6992 145.244 89.6992 142.666 89.6992 140.459V140.107H79.3867V138.584H91.5352ZM93.625 150.283V151.826H77.668V150.283H93.625ZM108.203 136.807V141.982H110.742V143.525H108.203V149.521H106.328V136.807H108.203ZM103.457 138.135C103.457 142.725 100.332 146.064 95.2148 147.607L94.4336 146.123C98.5254 144.893 101.074 142.568 101.445 139.678H95.1758V138.135H103.457ZM108.926 152.432V153.936H97.0898V148.213H98.9648V152.432H108.926ZM116.941 138.057C119.715 138.037 121.688 139.756 121.707 142.217C121.688 144.678 119.715 146.396 116.941 146.396C114.188 146.396 112.156 144.678 112.176 142.217C112.156 139.756 114.188 138.037 116.941 138.057ZM116.941 139.658C115.242 139.658 113.992 140.674 114.012 142.217C113.992 143.76 115.242 144.775 116.941 144.775C118.641 144.775 119.891 143.76 119.891 142.217C119.891 140.674 118.641 139.658 116.941 139.658ZM125.711 136.807V154.346H123.855V136.807H125.711ZM111.336 149.033C114.52 149.033 118.934 148.994 122.762 148.447L122.898 149.795C118.934 150.557 114.695 150.576 111.57 150.576L111.336 149.033ZM137.152 138.115C138.744 138.115 140.062 139.033 140.844 140.615H145.16V136.807H146.996V154.346H145.16V147.627H140.961C140.209 149.385 138.832 150.4 137.152 150.4C134.535 150.4 132.699 148.018 132.719 144.248C132.699 140.498 134.535 138.115 137.152 138.115ZM137.152 139.775C135.57 139.775 134.477 141.494 134.477 144.248C134.477 147.021 135.57 148.74 137.152 148.74C138.734 148.74 139.828 147.021 139.828 144.248C139.828 141.494 138.734 139.775 137.152 139.775ZM141.371 142.139C141.498 142.783 141.586 143.486 141.586 144.248C141.586 144.912 141.527 145.527 141.41 146.104H145.16V142.139H141.371ZM163.781 136.807V147.217H161.926V142.783H158.664V141.26H161.926V136.807H163.781ZM157.922 147.705C161.594 147.705 163.84 148.916 163.84 151.006C163.84 153.096 161.594 154.287 157.922 154.307C154.25 154.287 151.984 153.096 152.004 151.006C151.984 148.916 154.25 147.705 157.922 147.705ZM157.922 149.15C155.363 149.15 153.84 149.814 153.84 151.006C153.84 152.178 155.363 152.861 157.922 152.842C160.48 152.861 162.004 152.178 162.004 151.006C162.004 149.814 160.48 149.15 157.922 149.15ZM155.461 139.893C155.461 142.119 157.043 144.268 159.68 145.166L158.723 146.631C156.76 145.947 155.314 144.551 154.562 142.822C153.791 144.785 152.258 146.357 150.168 147.119L149.191 145.635C151.906 144.697 153.566 142.334 153.566 139.912V139.521H149.777V138.018H159.211V139.521H155.461V139.893ZM180.469 136.807V154.346H178.613V136.807H180.469ZM171.113 138.115C173.711 138.115 175.625 140.498 175.625 144.248C175.625 148.018 173.711 150.4 171.113 150.4C168.477 150.4 166.582 148.018 166.582 144.248C166.582 140.498 168.477 138.115 171.113 138.115ZM171.113 139.775C169.492 139.775 168.379 141.494 168.379 144.248C168.379 147.021 169.492 148.74 171.113 148.74C172.715 148.74 173.828 147.021 173.828 144.248C173.828 141.494 172.715 139.775 171.113 139.775ZM201.754 136.807V154.346H199.898V143.975H194.684V142.451H199.898V136.807H201.754ZM189.957 138.74V148.584C192.457 148.545 194.82 148.398 197.359 147.881L197.594 149.404C194.781 149.99 192.242 150.127 189.488 150.127H188.082V138.74H189.957ZM219.926 146.846V148.35H212.777V154.287H210.961V148.35H203.91V146.846H219.926ZM217.914 137.744V144.619H205.922V137.744H217.914ZM207.738 139.229V143.174H216.059V139.229H207.738ZM229.785 138.115C232.402 138.115 234.258 140.498 234.277 144.248C234.258 148.018 232.402 150.4 229.785 150.4C227.168 150.4 225.293 148.018 225.312 144.248C225.293 140.498 227.168 138.115 229.785 138.115ZM229.785 139.775C228.184 139.775 227.09 141.494 227.09 144.248C227.09 147.021 228.184 148.74 229.785 148.74C231.406 148.74 232.5 147.021 232.5 144.248C232.5 141.494 231.406 139.775 229.785 139.775ZM238.73 136.807V143.662H241.543V145.225H238.73V154.307H236.875V136.807H238.73ZM248.602 138.564C248.582 140.537 250.184 142.217 252.918 142.842L252.059 144.307C249.979 143.77 248.445 142.656 247.664 141.123C246.873 142.822 245.301 144.111 243.172 144.697L242.254 143.252C245.027 142.529 246.688 140.674 246.688 138.564V137.549H248.602V138.564ZM256.434 136.826V154.307H254.598V136.826H256.434ZM241.863 146.104C245.125 146.123 249.559 146.064 253.387 145.537L253.523 146.865C251.922 147.168 250.271 147.354 248.66 147.451V153.76H246.805V147.568C245.115 147.637 243.514 147.646 242.117 147.646L241.863 146.104ZM273.297 136.826V154.307H271.422V150.127H267.555V148.721H271.422V136.826H273.297ZM258.59 145.928C261.91 145.908 266.324 145.889 270.152 145.361L270.25 146.729C268.59 147.021 266.861 147.197 265.172 147.295V153.76H263.316V147.393C261.715 147.461 260.191 147.471 258.844 147.471L258.59 145.928ZM264.352 137.627C266.93 137.627 268.785 139.053 268.785 141.123C268.785 143.232 266.93 144.6 264.352 144.6C261.715 144.6 259.879 143.232 259.879 141.123C259.879 139.053 261.715 137.627 264.352 137.627ZM264.352 139.053C262.73 139.053 261.617 139.893 261.637 141.123C261.617 142.373 262.73 143.174 264.352 143.174C265.914 143.174 267.027 142.373 267.027 141.123C267.027 139.893 265.914 139.053 264.352 139.053ZM291.469 150.576V152.119H275.453V150.576H279.281V146.006C277.846 145.215 276.977 143.955 276.977 142.393C276.977 139.639 279.672 137.822 283.422 137.822C287.191 137.822 289.887 139.639 289.887 142.393C289.887 143.936 289.047 145.176 287.641 145.967V150.576H291.469ZM283.422 139.307C280.668 139.307 278.773 140.498 278.773 142.393C278.773 144.268 280.668 145.498 283.422 145.498C286.156 145.498 288.09 144.268 288.09 142.393C288.09 140.498 286.156 139.307 283.422 139.307ZM281.117 150.576H285.766V146.67C285.053 146.855 284.262 146.943 283.422 146.943C282.602 146.943 281.82 146.855 281.117 146.689V150.576ZM295.977 154.046H315.977V134.046H295.977V154.046Z" fill="#121212"/>
<path d="M70.1213 174.215V175.09H65.5959V176.402H69.8889V177.236H65.5959V178.645C68.0158 178.645 69.3352 178.597 70.9553 178.33L71.0647 179.191C69.3693 179.479 67.9885 179.52 65.4455 179.52H64.5295V174.215H70.1213ZM73.4572 173.6V176.266H75.2893V177.154H73.4572V179.957H72.3908V173.6H73.4572ZM73.4572 180.545V183.402H66.7854V184.756H73.9084V185.617H65.7326V182.582H72.3908V181.406H65.7053V180.545H73.4572ZM83.074 179.465V180.34H80.326V182.309C81.4949 182.254 82.6844 182.158 83.7986 181.994L83.8807 182.787C81.1053 183.293 78.1111 183.293 75.9236 183.307L75.7732 182.404C76.7918 182.397 77.9949 182.397 79.2596 182.35V180.34H76.7029V174.707H83.0193V175.582H77.783V177.072H82.7596V177.92H77.783V179.465H83.074ZM85.6717 173.6V185.781H84.6053V173.6H85.6717ZM98.5697 179.246V180.094H87.4408V179.246H98.5697ZM97.1752 181.064V183.648H89.8744V184.811H97.5717V185.59H88.7943V182.91H96.1088V181.871H88.7807V181.064H97.1752ZM97.1342 173.969V176.484H89.9564V177.551H97.3529V178.33H88.89V175.746H96.0541V174.748H88.849V173.969H97.1342ZM106.524 175.896C106.524 177.592 107.754 179.191 109.532 179.834L108.93 180.668C107.597 180.135 106.538 179.075 106.018 177.756C105.499 179.226 104.391 180.395 102.956 180.969L102.381 180.094C104.2 179.424 105.458 177.729 105.471 175.855V174.352H106.524V175.896ZM112.444 173.613V182.719H111.364V177.373H108.657V176.471H111.364V173.613H112.444ZM112.717 184.592V185.494H104.583V181.68H105.663V184.592H112.717ZM119.381 174.488V175.391H115.69V176.908H119.244V177.756H115.69V179.438C117.46 179.431 118.568 179.369 119.873 179.109L119.983 179.998C118.561 180.271 117.412 180.34 115.43 180.34H114.664V174.488H119.381ZM124.44 173.613V180.982H123.414V177.66H121.705V180.9H120.707V173.846H121.705V176.785H123.414V173.613H124.44ZM124.44 181.611V185.754H123.387V182.486H116.25V181.611H124.44ZM135.273 173.6V178.617H137.31V179.506H135.273V185.754H134.207V173.6H135.273ZM133.031 175.555V176.443H125.799V175.555H128.929V173.75H129.996V175.555H133.031ZM129.476 177.455C131.199 177.455 132.443 178.604 132.457 180.244C132.443 181.885 131.199 183.033 129.476 183.033C127.74 183.033 126.482 181.885 126.496 180.244C126.482 178.604 127.74 177.455 129.476 177.455ZM129.476 178.357C128.342 178.357 127.508 179.15 127.521 180.244C127.508 181.352 128.342 182.131 129.476 182.117C130.597 182.131 131.418 181.352 131.431 180.244C131.418 179.15 130.597 178.357 129.476 178.357ZM141.937 176.867C141.923 179.082 143.441 181.324 145.232 182.131L144.576 182.979C143.195 182.302 141.998 180.873 141.417 179.137C140.85 180.976 139.654 182.507 138.232 183.225L137.548 182.322C139.353 181.488 140.857 179.178 140.871 176.867V174.652H141.937V176.867ZM147.638 173.6V185.781H146.558V173.6H147.638ZM155.519 174.666V175.746H158.362V173.613H159.442V182.486H158.362V179.246H155.519V180.34H149.94V174.666H155.519ZM151.007 175.555V179.479H154.466V175.555H151.007ZM159.716 184.592V185.494H151.581V181.693H152.661V184.592H159.716ZM155.519 178.357H158.362V176.648H155.519V178.357ZM173.863 174.898V176.115C173.863 177.646 173.863 179.383 173.412 182.021L172.319 181.912C172.811 179.424 172.811 177.605 172.811 176.115V175.787H165.483V174.898H173.863ZM175.354 183.074V183.963H164.279V183.074H175.354ZM187.117 179.615V180.477H176.029V179.615H181.047V178.193H177.437V174.174H185.736V175.035H178.49V177.318H185.818V178.193H182.086V179.615H187.117ZM181.566 181.365C184.178 181.365 185.736 182.158 185.75 183.553C185.736 184.961 184.178 185.74 181.566 185.754C178.941 185.74 177.369 184.961 177.369 183.553C177.369 182.158 178.941 181.365 181.566 181.365ZM181.566 182.213C179.611 182.213 178.449 182.719 178.463 183.553C178.449 184.4 179.611 184.893 181.566 184.893C183.494 184.893 184.67 184.4 184.67 183.553C184.67 182.719 183.494 182.213 181.566 182.213ZM197.281 173.6V177.305H199.113V178.207H197.281V182.568H196.214V173.6H197.281ZM197.841 184.592V185.494H189.679V181.639H190.732V184.592H197.841ZM191.197 174.461C193.015 174.461 194.382 175.691 194.396 177.455C194.382 179.219 193.015 180.449 191.197 180.449C189.378 180.449 187.997 179.219 188.011 177.455C187.997 175.691 189.378 174.461 191.197 174.461ZM191.197 175.404C189.994 175.404 189.05 176.252 189.064 177.455C189.05 178.658 189.994 179.506 191.197 179.506C192.427 179.506 193.343 178.658 193.343 177.455C193.343 176.252 192.427 175.404 191.197 175.404ZM212.768 173.6V185.781H211.688V178.918H209.022V178.029H211.688V173.6H212.768ZM206.903 177.209C206.903 179.232 208.352 181.434 210.13 182.24L209.487 183.102C208.099 182.425 206.93 180.955 206.383 179.26C205.823 181.058 204.627 182.616 203.239 183.348L202.583 182.514C204.346 181.652 205.809 179.369 205.823 177.209V175.746H203.047V174.857H209.692V175.746H206.903V177.209ZM218.557 175.91C218.557 177.496 219.746 178.918 221.537 179.506L221.031 180.354C219.63 179.896 218.571 178.925 218.051 177.701C217.525 179.096 216.404 180.183 214.947 180.709L214.401 179.848C216.219 179.232 217.49 177.66 217.504 175.91V175.391H214.729V174.502H221.291V175.391H218.557V175.91ZM223.944 173.6V176.703H225.776V177.605H223.944V180.941H222.877V173.6H223.944ZM220.047 181.27C222.549 181.27 224.053 182.09 224.053 183.484C224.053 184.906 222.549 185.727 220.047 185.727C217.545 185.727 216.014 184.906 216.014 183.484C216.014 182.09 217.545 181.27 220.047 181.27ZM220.047 182.131C218.215 182.131 217.08 182.637 217.094 183.484C217.08 184.359 218.215 184.865 220.047 184.865C221.893 184.865 223.014 184.359 223.014 183.484C223.014 182.637 221.893 182.131 220.047 182.131ZM233.26 177.592V178.467H230.799V180.162C231.933 180.114 233.068 180.032 234.121 179.916L234.203 180.709C231.592 181.064 228.693 181.146 226.41 181.146L226.246 180.271C227.312 180.265 228.509 180.251 229.732 180.203V178.467H227.353V174.393H233.164V175.281H228.433V177.592H233.26ZM236.213 173.613V182.705H235.133V173.613H236.213ZM236.609 184.592V185.494H228.324V182.076H229.39V184.592H236.609ZM247.243 174.434V179.629H241.624V174.434H247.243ZM242.677 175.309V178.754H246.204V175.309H242.677ZM250.606 173.6V176.525H252.438V177.428H250.606V180.545H249.54V173.6H250.606ZM250.825 181.256V182.131H247.38C247.496 183.43 249.308 184.564 251.29 184.879L250.894 185.713C249.116 185.419 247.503 184.537 246.806 183.32C246.115 184.544 244.516 185.412 242.745 185.699L242.335 184.879C244.345 184.564 246.122 183.45 246.259 182.131H242.813V181.256H250.825ZM263.928 179.615V180.49H258.911V181.83H262.575V185.59H254.208V181.83H257.858V180.49H252.854V179.615H263.928ZM258.911 173.531V174.748H262.807V175.609H258.979C259.054 176.963 260.989 177.872 263.272 178.084L262.958 178.891C260.934 178.679 259.13 177.981 258.391 176.771C257.646 177.981 255.841 178.679 253.825 178.891L253.497 178.084C255.794 177.872 257.714 176.963 257.803 175.609H254.003V174.748H257.858V173.531H258.911ZM255.274 182.691V184.715H261.522V182.691H255.274ZM273.304 173.873C275.943 173.873 277.597 174.721 277.597 176.184C277.597 177.619 275.943 178.453 273.304 178.453C270.666 178.453 268.998 177.619 268.998 176.184C268.998 174.721 270.666 173.873 273.304 173.873ZM273.304 174.734C271.336 174.734 270.092 175.281 270.105 176.184C270.092 177.072 271.336 177.592 273.304 177.605C275.246 177.592 276.504 177.072 276.504 176.184C276.504 175.281 275.246 174.734 273.304 174.734ZM277.488 181.598V185.59H269.121V181.598H277.488ZM270.187 182.459V184.715H276.435V182.459H270.187ZM278.842 179.506V180.395H267.767V179.506H278.842ZM290.646 183.348V184.25H279.517V183.348H282.648V181.037H280.912V177.291H288.185V175.391H280.884V174.502H289.238V178.18H281.978V180.148H289.525V181.037H287.624V183.348H290.646ZM283.701 183.348H286.572V181.037H283.701V183.348ZM304.479 173.6V185.754H303.399V173.6H304.479ZM300.883 174.926C300.87 178.426 299.243 181.516 295.169 183.471L294.581 182.596C297.869 181.037 299.544 178.706 299.79 175.801H295.141V174.926H300.883ZM317.295 180.299V181.188H306.166V180.299H311.197V179.014H307.615V176.047H314.779V174.789H307.574V173.914H315.86V176.854H308.682V178.152H316.119V179.014H312.25V180.299H317.295ZM315.928 182.117V185.645H314.848V182.992H307.41V182.117H315.928ZM324.67 174.953V175.582C324.656 176.539 324.656 178.152 324.314 180.408L323.234 180.312C323.562 178.275 323.59 176.799 323.59 175.828H318.49V174.953H324.67ZM321.484 178.426V182.117C322.831 182.069 324.212 181.98 325.476 181.83L325.531 182.637C322.974 183.033 320.117 183.088 317.943 183.074L317.806 182.186C318.606 182.179 319.495 182.172 320.431 182.145V178.426H321.484ZM327.308 173.6V178.686H329.277V179.615H327.308V185.754H326.242V173.6H327.308ZM125.171 200.955V201.857H120.154V205.781H119.101V201.857H114.097V200.955H125.171ZM120.167 196.006C120.167 197.523 122.286 198.85 124.46 199.15L124.064 200.012C122.184 199.725 120.413 198.781 119.648 197.455C118.868 198.795 117.071 199.725 115.191 200.012L114.794 199.15C116.954 198.85 119.101 197.537 119.101 196.006V195.992H115.177V195.117H119.101V193.6H120.154V195.117H124.105V195.992H120.167V196.006ZM129.989 196.512C129.989 198.125 131.274 199.547 133.079 200.107L132.546 200.969C131.138 200.511 130.03 199.547 129.483 198.303C128.957 199.636 127.856 200.668 126.421 201.174L125.888 200.34C127.679 199.738 128.936 198.221 128.936 196.512V196.115H126.188V195.24H128.936V193.682H130.016V195.24H132.737V196.115H129.989V196.512ZM135.923 193.613V202.691H134.843V198.248H132.313V197.359H134.843V193.613H135.923ZM136.264 204.592V205.494H128.116V201.871H129.196V204.592H136.264ZM151.164 193.6V205.754H150.125V193.6H151.164ZM148.676 193.9V205.125H147.65V199.15H144.998V198.248H147.65V193.9H148.676ZM145.818 195.104V195.992H142.277V201.926C144.027 201.919 145.135 201.844 146.447 201.557L146.557 202.473C145.148 202.76 143.959 202.814 142.004 202.828H141.238V195.104H145.818ZM162.531 193.6V205.781H161.451V193.6H162.531ZM156.064 194.543C157.869 194.557 159.168 196.197 159.168 198.781C159.168 201.365 157.869 203.006 156.064 203.006C154.246 203.006 152.961 201.365 152.961 198.781C152.961 196.197 154.246 194.557 156.064 194.543ZM156.064 195.5C154.847 195.514 154 196.799 154 198.781C154 200.764 154.847 202.049 156.064 202.049C157.281 202.049 158.129 200.764 158.129 198.781C158.129 196.799 157.281 195.514 156.064 195.5ZM174.335 193.6V205.781H173.269V199.082H170.698V198.193H173.269V193.6H174.335ZM170.493 194.721V195.609H165.9V198.139H169.96V199.014H165.9V201.953C168.135 201.953 169.557 201.878 171.232 201.584L171.355 202.473C169.591 202.76 168.101 202.842 165.749 202.842H164.82V194.721H170.493ZM185.415 193.6V198.549H187.384V199.451H185.415V205.754H184.348V193.6H185.415ZM182.27 194.912C182.27 198.357 180.657 201.488 176.692 203.443L176.091 202.596C179.235 201.03 180.944 198.692 181.19 195.814H176.651V194.912H182.27ZM202.051 203.293V204.195H190.922V203.293H195.926V200.326H192.234V194.625H200.67V200.326H196.979V203.293H202.051ZM193.287 195.486V199.465H199.631V195.486H193.287ZM212.365 198.152V199.014H204.203V194.324H212.201V195.213H205.296V198.152H212.365ZM213.787 200.627V201.502H208.714V205.713H207.662V201.502H202.658V200.627H213.787ZM221.673 195.555C221.659 197.209 222.917 198.727 224.708 199.342L224.147 200.189C222.773 199.697 221.7 198.665 221.167 197.373C220.654 198.802 219.56 199.902 218.118 200.436L217.557 199.574C219.389 198.918 220.606 197.332 220.62 195.486V194.229H221.673V195.555ZM227.087 193.6V196.826H228.919V197.742H227.087V200.969H226.02V193.6H227.087ZM227.087 201.57V205.754H226.02V202.445H219.13V201.57H227.087ZM239.725 193.6V205.754H238.7V193.6H239.725ZM237.264 193.9V205.125H236.252V198.863H234.202V197.988H236.252V193.9H237.264ZM232.903 197.072C232.903 199.178 233.846 201.27 235.528 202.24L234.871 203.033C233.675 202.315 232.828 201.003 232.411 199.451C231.966 201.126 231.084 202.555 229.868 203.32L229.184 202.514C230.879 201.502 231.864 199.287 231.864 197.072V195.924H229.526V195.035H235.131V195.924H232.903V197.072ZM251.119 193.613V200.6H250.039V193.613H251.119ZM241.125 199.41C242.157 199.41 243.36 199.403 244.611 199.355V198.057H242.232V194.215H248.002V195.104H243.312V197.195H248.111V198.057H245.691V199.314C246.819 199.267 247.961 199.171 249.027 199.027L249.096 199.807C246.43 200.258 243.477 200.299 241.289 200.299L241.125 199.41ZM244.174 201.146V202.445H250.066V201.146H251.119V205.59H243.107V201.146H244.174ZM244.174 204.715H250.066V203.279H244.174V204.715ZM262.855 193.6V205.754H261.789V193.6H262.855ZM254.679 194.803V201.693C256.532 201.687 258.453 201.536 260.49 201.105L260.64 202.021C258.48 202.473 256.552 202.623 254.611 202.623H253.627V194.803H254.679ZM273.989 193.6V198.412H276.027V199.314H273.989V205.781H272.923V193.6H273.989ZM270.79 194.789V195.678H266.183V201.83C268.384 201.83 269.943 201.728 271.747 201.393L271.884 202.322C269.984 202.664 268.384 202.732 266.073 202.732H265.116V194.789H270.79ZM277.618 204.729C277.139 204.729 276.729 204.332 276.743 203.84C276.729 203.361 277.139 202.965 277.618 202.965C278.096 202.965 278.493 203.361 278.493 203.84C278.493 204.332 278.096 204.729 277.618 204.729Z" fill="#121212" fill-opacity="0.5"/>
<path fill-rule="evenodd" clip-rule="evenodd" d="M272.413 106.646C273.778 100.868 274.5 94.8417 274.5 88.6465C274.5 45.5683 239.578 10.6465 196.5 10.6465C153.422 10.6465 118.5 45.5683 118.5 88.6465C118.5 94.8417 119.222 100.868 120.587 106.646H272.413Z" fill="white"/>
<g filter="url(#filter1_ii_756_4379)">
<path d="M165.975 52.6137C165.975 44.8998 172.228 38.6465 179.942 38.6465H212.066C219.78 38.6465 226.034 44.8998 226.034 52.6137V84.7383C226.034 92.4522 219.78 98.7055 212.066 98.7055H179.942C172.228 98.7055 165.975 92.4522 165.975 84.7383V52.6137Z" fill="#F9F9F9"/>
</g>
<g filter="url(#filter2_ii_756_4379)">
<path d="M189.245 96.3141C189.245 101.745 186.508 106.147 183.133 106.147C179.757 106.147 177.021 101.745 177.021 96.3141C177.021 90.8837 179.757 86.4814 183.133 86.4814C186.508 86.4814 189.245 90.8837 189.245 96.3141Z" fill="#202020"/>
</g>
<g filter="url(#filter3_ii_756_4379)">
<path d="M212.631 96.3141C212.631 101.745 209.894 106.147 206.518 106.147C203.143 106.147 200.406 101.745 200.406 96.3141C200.406 90.8837 203.143 86.4814 206.518 86.4814C209.894 86.4814 212.631 90.8837 212.631 96.3141Z" fill="#202020"/>
</g>
<g filter="url(#filter4_ii_756_4379)">
<path d="M181.105 66.2829C181.105 66.2829 183.052 66.3731 184.714 67.5962C186.375 68.8192 186.364 70.4232 186.364 70.4232C186.364 70.4232 184.54 69.2152 183.221 68.8258C181.621 68.3536 180.437 68.9261 180.437 68.9261" stroke="#202020" stroke-linecap="round" stroke-linejoin="round"/>
</g>
<g filter="url(#filter5_ii_756_4379)">
<path d="M209.879 66.2829C209.879 66.2829 207.932 66.3731 206.271 67.5962C204.61 68.8192 204.621 70.4232 204.621 70.4232C204.621 70.4232 206.444 69.2152 207.764 68.8258C209.363 68.3536 210.547 68.9261 210.547 68.9261" stroke="#202020" stroke-linecap="round" stroke-linejoin="round"/>
</g>
<g filter="url(#filter6_dii_756_4379)">
<path d="M186.23 73.7831C186.23 76.4943 182.933 78.6922 178.865 78.6922C174.797 78.6922 171.5 76.4943 171.5 73.7831C171.5 71.0719 174.797 68.874 178.865 68.874C182.933 68.874 186.23 71.0719 186.23 73.7831Z" fill="#202020"/>
</g>
<g filter="url(#filter7_ii_756_4379)">
<path d="M153.706 59.1667C156.998 59.2961 160.62 63.2846 162.434 65.5715C162.942 66.2117 162.46 67.1199 161.643 67.1286C160.155 67.1444 158.093 67.2258 156.457 67.5154C153.449 68.0477 151.514 69.0755 149.53 68.6714C146.691 68.0933 145.786 65.3727 146.943 62.7168C148.22 59.786 150.512 59.0412 153.706 59.1667Z" fill="#7FA1F0"/>
</g>
<g filter="url(#filter8_ii_756_4379)">
<path d="M154.281 70.0998C155.653 68.8554 158.484 68.8627 160.398 69.0399C161.211 69.1153 161.509 70.097 160.944 70.6876C160.369 71.2889 159.729 72.0064 159.257 72.668C158.127 74.2521 157.706 75.5827 156.624 76.2844C155.075 77.2882 153.45 76.4552 152.791 74.7315C152.064 72.8293 152.773 71.4681 154.281 70.0998Z" fill="#7FA1F0"/>
</g>
<g filter="url(#filter9_ii_756_4379)">
<path d="M234.419 65.1046C233.387 64.7314 231.911 65.2273 230.769 65.7646C230.03 66.1124 230.124 67.1307 230.86 67.4859C231.226 67.6626 231.595 67.8571 231.91 68.0555C233.05 68.7721 233.669 69.5128 234.546 69.6772C235.8 69.9126 236.621 68.9524 236.59 67.6763C236.555 66.2682 235.744 65.5837 234.419 65.1046Z" fill="#7FA1F0"/>
</g>
<g filter="url(#filter10_ii_756_4379)">
<path d="M232.134 58.1532C230.47 58.9659 229.427 61.5975 228.882 63.441C228.651 64.2247 229.452 64.8648 230.21 64.5593C230.982 64.2482 231.886 63.9194 232.675 63.7263C234.565 63.2641 235.957 63.3663 237.01 62.6212C238.516 61.5551 238.345 59.7367 236.988 58.4857C235.491 57.1051 233.964 57.2595 232.134 58.1532Z" fill="#7FA1F0"/>
</g>
<g filter="url(#filter11_ii_756_4379)">
<path d="M201.35 79.5731C201.306 78.3415 200.036 77.0003 199.038 76.1322C198.498 75.6616 197.696 75.9793 197.559 76.6829C197.421 77.3935 197.263 78.2171 197.155 78.8123C196.916 80.1368 196.918 80.5386 197.155 81.3986C197.5 82.6464 198.603 83.0533 199.775 82.5475C201.068 81.9894 201.4 80.9809 201.35 79.5731Z" fill="#7FA1F0"/>
</g>
<g filter="url(#filter12_dii_756_4379)">
<path d="M219.227 73.7831C219.227 76.4943 215.93 78.6922 211.864 78.6922C207.797 78.6922 204.5 76.4943 204.5 73.7831C204.5 71.0719 207.797 68.874 211.864 68.874C215.93 68.874 219.227 71.0719 219.227 73.7831Z" fill="#202020"/>
</g>
</g>
<defs>
<filter id="filter0_d_756_4379" x="-10" y="0.646484" width="413" height="250" filterUnits="userSpaceOnUse" color-interpolation-filters="sRGB">
<feFlood flood-opacity="0" result="BackgroundImageFix"/>
<feColorMatrix in="SourceAlpha" type="matrix" values="0 0 0 0 0 0 0 0 0 0 0 0 0 0 0 0 0 0 127 0" result="hardAlpha"/>
<feOffset/>
<feGaussianBlur stdDeviation="5"/>
<feComposite in2="hardAlpha" operator="out"/>
<feColorMatrix type="matrix" values="0 0 0 0 0 0 0 0 0 0 0 0 0 0 0 0 0 0 0.15 0"/>
<feBlend mode="normal" in2="BackgroundImageFix" result="effect1_dropShadow_756_4379"/>
<feBlend mode="normal" in="SourceGraphic" in2="effect1_dropShadow_756_4379" result="shape"/>
</filter>
<filter id="filter1_ii_756_4379" x="160.975" y="33.6465" width="70.0591" height="70.0591" filterUnits="userSpaceOnUse" color-interpolation-filters="sRGB">
<feFlood flood-opacity="0" result="BackgroundImageFix"/>
<feBlend mode="normal" in="SourceGraphic" in2="BackgroundImageFix" result="shape"/>
<feColorMatrix in="SourceAlpha" type="matrix" values="0 0 0 0 0 0 0 0 0 0 0 0 0 0 0 0 0 0 127 0" result="hardAlpha"/>
<feOffset dx="-5" dy="-5"/>
<feGaussianBlur stdDeviation="2.5"/>
<feComposite in2="hardAlpha" operator="arithmetic" k2="-1" k3="1"/>
<feColorMatrix type="matrix" values="0 0 0 0 0 0 0 0 0 0 0 0 0 0 0 0 0 0 0.2 0"/>
<feBlend mode="normal" in2="shape" result="effect1_innerShadow_756_4379"/>
<feColorMatrix in="SourceAlpha" type="matrix" values="0 0 0 0 0 0 0 0 0 0 0 0 0 0 0 0 0 0 127 0" result="hardAlpha"/>
<feOffset dx="5" dy="5"/>
<feGaussianBlur stdDeviation="2.5"/>
<feComposite in2="hardAlpha" operator="arithmetic" k2="-1" k3="1"/>
<feColorMatrix type="matrix" values="0 0 0 0 1 0 0 0 0 1 0 0 0 0 1 0 0 0 0.2 0"/>
<feBlend mode="normal" in2="effect1_innerShadow_756_4379" result="effect2_innerShadow_756_4379"/>
</filter>
<filter id="filter2_ii_756_4379" x="175.021" y="84.4814" width="16.2246" height="23.6655" filterUnits="userSpaceOnUse" color-interpolation-filters="sRGB">
<feFlood flood-opacity="0" result="BackgroundImageFix"/>
<feBlend mode="normal" in="SourceGraphic" in2="BackgroundImageFix" result="shape"/>
<feColorMatrix in="SourceAlpha" type="matrix" values="0 0 0 0 0 0 0 0 0 0 0 0 0 0 0 0 0 0 127 0" result="hardAlpha"/>
<feOffset dx="-2" dy="-2"/>
<feGaussianBlur stdDeviation="1"/>
<feComposite in2="hardAlpha" operator="arithmetic" k2="-1" k3="1"/>
<feColorMatrix type="matrix" values="0 0 0 0 0 0 0 0 0 0 0 0 0 0 0 0 0 0 0.2 0"/>
<feBlend mode="normal" in2="shape" result="effect1_innerShadow_756_4379"/>
<feColorMatrix in="SourceAlpha" type="matrix" values="0 0 0 0 0 0 0 0 0 0 0 0 0 0 0 0 0 0 127 0" result="hardAlpha"/>
<feOffset dx="2" dy="2"/>
<feGaussianBlur stdDeviation="1"/>
<feComposite in2="hardAlpha" operator="arithmetic" k2="-1" k3="1"/>
<feColorMatrix type="matrix" values="0 0 0 0 1 0 0 0 0 1 0 0 0 0 1 0 0 0 0.2 0"/>
<feBlend mode="normal" in2="effect1_innerShadow_756_4379" result="effect2_innerShadow_756_4379"/>
</filter>
<filter id="filter3_ii_756_4379" x="198.406" y="84.4814" width="16.2246" height="23.6655" filterUnits="userSpaceOnUse" color-interpolation-filters="sRGB">
<feFlood flood-opacity="0" result="BackgroundImageFix"/>
<feBlend mode="normal" in="SourceGraphic" in2="BackgroundImageFix" result="shape"/>
<feColorMatrix in="SourceAlpha" type="matrix" values="0 0 0 0 0 0 0 0 0 0 0 0 0 0 0 0 0 0 127 0" result="hardAlpha"/>
<feOffset dx="-2" dy="-2"/>
<feGaussianBlur stdDeviation="1"/>
<feComposite in2="hardAlpha" operator="arithmetic" k2="-1" k3="1"/>
<feColorMatrix type="matrix" values="0 0 0 0 0 0 0 0 0 0 0 0 0 0 0 0 0 0 0.2 0"/>
<feBlend mode="normal" in2="shape" result="effect1_innerShadow_756_4379"/>
<feColorMatrix in="SourceAlpha" type="matrix" values="0 0 0 0 0 0 0 0 0 0 0 0 0 0 0 0 0 0 127 0" result="hardAlpha"/>
<feOffset dx="2" dy="2"/>
<feGaussianBlur stdDeviation="1"/>
<feComposite in2="hardAlpha" operator="arithmetic" k2="-1" k3="1"/>
<feColorMatrix type="matrix" values="0 0 0 0 1 0 0 0 0 1 0 0 0 0 1 0 0 0 0.2 0"/>
<feBlend mode="normal" in2="effect1_innerShadow_756_4379" result="effect2_innerShadow_756_4379"/>
</filter>
<filter id="filter4_ii_756_4379" x="178.937" y="64.7827" width="8.92676" height="7.14062" filterUnits="userSpaceOnUse" color-interpolation-filters="sRGB">
<feFlood flood-opacity="0" result="BackgroundImageFix"/>
<feBlend mode="normal" in="SourceGraphic" in2="BackgroundImageFix" result="shape"/>
<feColorMatrix in="SourceAlpha" type="matrix" values="0 0 0 0 0 0 0 0 0 0 0 0 0 0 0 0 0 0 127 0" result="hardAlpha"/>
<feOffset dx="-1" dy="-1"/>
<feGaussianBlur stdDeviation="0.5"/>
<feComposite in2="hardAlpha" operator="arithmetic" k2="-1" k3="1"/>
<feColorMatrix type="matrix" values="0 0 0 0 1 0 0 0 0 1 0 0 0 0 1 0 0 0 0.2 0"/>
<feBlend mode="normal" in2="shape" result="effect1_innerShadow_756_4379"/>
<feColorMatrix in="SourceAlpha" type="matrix" values="0 0 0 0 0 0 0 0 0 0 0 0 0 0 0 0 0 0 127 0" result="hardAlpha"/>
<feOffset dx="1" dy="1"/>
<feGaussianBlur stdDeviation="0.5"/>
<feComposite in2="hardAlpha" operator="arithmetic" k2="-1" k3="1"/>
<feColorMatrix type="matrix" values="0 0 0 0 0 0 0 0 0 0 0 0 0 0 0 0 0 0 0.2 0"/>
<feBlend mode="normal" in2="effect1_innerShadow_756_4379" result="effect2_innerShadow_756_4379"/>
</filter>
<filter id="filter5_ii_756_4379" x="203.121" y="64.7827" width="8.92676" height="7.14062" filterUnits="userSpaceOnUse" color-interpolation-filters="sRGB">
<feFlood flood-opacity="0" result="BackgroundImageFix"/>
<feBlend mode="normal" in="SourceGraphic" in2="BackgroundImageFix" result="shape"/>
<feColorMatrix in="SourceAlpha" type="matrix" values="0 0 0 0 0 0 0 0 0 0 0 0 0 0 0 0 0 0 127 0" result="hardAlpha"/>
<feOffset dx="-1" dy="-1"/>
<feGaussianBlur stdDeviation="0.5"/>
<feComposite in2="hardAlpha" operator="arithmetic" k2="-1" k3="1"/>
<feColorMatrix type="matrix" values="0 0 0 0 1 0 0 0 0 1 0 0 0 0 1 0 0 0 0.2 0"/>
<feBlend mode="normal" in2="shape" result="effect1_innerShadow_756_4379"/>
<feColorMatrix in="SourceAlpha" type="matrix" values="0 0 0 0 0 0 0 0 0 0 0 0 0 0 0 0 0 0 127 0" result="hardAlpha"/>
<feOffset dx="1" dy="1"/>
<feGaussianBlur stdDeviation="0.5"/>
<feComposite in2="hardAlpha" operator="arithmetic" k2="-1" k3="1"/>
<feColorMatrix type="matrix" values="0 0 0 0 0 0 0 0 0 0 0 0 0 0 0 0 0 0 0.2 0"/>
<feBlend mode="normal" in2="effect1_innerShadow_756_4379" result="effect2_innerShadow_756_4379"/>
</filter>
<filter id="filter6_dii_756_4379" x="170.5" y="67.874" width="19.73" height="13.8184" filterUnits="userSpaceOnUse" color-interpolation-filters="sRGB">
<feFlood flood-opacity="0" result="BackgroundImageFix"/>
<feColorMatrix in="SourceAlpha" type="matrix" values="0 0 0 0 0 0 0 0 0 0 0 0 0 0 0 0 0 0 127 0" result="hardAlpha"/>
<feOffset dx="2" dy="1"/>
<feGaussianBlur stdDeviation="1"/>
<feComposite in2="hardAlpha" operator="out"/>
<feColorMatrix type="matrix" values="0 0 0 0 0 0 0 0 0 0 0 0 0 0 0 0 0 0 0.1 0"/>
<feBlend mode="normal" in2="BackgroundImageFix" result="effect1_dropShadow_756_4379"/>
<feBlend mode="normal" in="SourceGraphic" in2="effect1_dropShadow_756_4379" result="shape"/>
<feColorMatrix in="SourceAlpha" type="matrix" values="0 0 0 0 0 0 0 0 0 0 0 0 0 0 0 0 0 0 127 0" result="hardAlpha"/>
<feOffset dx="-1" dy="-1"/>
<feGaussianBlur stdDeviation="0.5"/>
<feComposite in2="hardAlpha" operator="arithmetic" k2="-1" k3="1"/>
<feColorMatrix type="matrix" values="0 0 0 0 0 0 0 0 0 0 0 0 0 0 0 0 0 0 0.2 0"/>
<feBlend mode="normal" in2="shape" result="effect2_innerShadow_756_4379"/>
<feColorMatrix in="SourceAlpha" type="matrix" values="0 0 0 0 0 0 0 0 0 0 0 0 0 0 0 0 0 0 127 0" result="hardAlpha"/>
<feOffset dx="1" dy="1"/>
<feGaussianBlur stdDeviation="0.5"/>
<feComposite in2="hardAlpha" operator="arithmetic" k2="-1" k3="1"/>
<feColorMatrix type="matrix" values="0 0 0 0 1 0 0 0 0 1 0 0 0 0 1 0 0 0 0.2 0"/>
<feBlend mode="normal" in2="effect2_innerShadow_756_4379" result="effect3_innerShadow_756_4379"/>
</filter>
<filter id="filter7_ii_756_4379" x="145.453" y="58.1538" width="18.189" height="11.6094" filterUnits="userSpaceOnUse" color-interpolation-filters="sRGB">
<feFlood flood-opacity="0" result="BackgroundImageFix"/>
<feBlend mode="normal" in="SourceGraphic" in2="BackgroundImageFix" result="shape"/>
<feColorMatrix in="SourceAlpha" type="matrix" values="0 0 0 0 0 0 0 0 0 0 0 0 0 0 0 0 0 0 127 0" result="hardAlpha"/>
<feOffset dx="-1" dy="-1"/>
<feGaussianBlur stdDeviation="0.5"/>
<feComposite in2="hardAlpha" operator="arithmetic" k2="-1" k3="1"/>
<feColorMatrix type="matrix" values="0 0 0 0 1 0 0 0 0 1 0 0 0 0 1 0 0 0 0.2 0"/>
<feBlend mode="normal" in2="shape" result="effect1_innerShadow_756_4379"/>
<feColorMatrix in="SourceAlpha" type="matrix" values="0 0 0 0 0 0 0 0 0 0 0 0 0 0 0 0 0 0 127 0" result="hardAlpha"/>
<feOffset dx="1" dy="1"/>
<feGaussianBlur stdDeviation="0.5"/>
<feComposite in2="hardAlpha" operator="arithmetic" k2="-1" k3="1"/>
<feColorMatrix type="matrix" values="0 0 0 0 0 0 0 0 0 0 0 0 0 0 0 0 0 0 0.2 0"/>
<feBlend mode="normal" in2="effect1_innerShadow_756_4379" result="effect2_innerShadow_756_4379"/>
</filter>
<filter id="filter8_ii_756_4379" x="151.503" y="67.9546" width="10.7319" height="9.7627" filterUnits="userSpaceOnUse" color-interpolation-filters="sRGB">
<feFlood flood-opacity="0" result="BackgroundImageFix"/>
<feBlend mode="normal" in="SourceGraphic" in2="BackgroundImageFix" result="shape"/>
<feColorMatrix in="SourceAlpha" type="matrix" values="0 0 0 0 0 0 0 0 0 0 0 0 0 0 0 0 0 0 127 0" result="hardAlpha"/>
<feOffset dx="-1" dy="-1"/>
<feGaussianBlur stdDeviation="0.5"/>
<feComposite in2="hardAlpha" operator="arithmetic" k2="-1" k3="1"/>
<feColorMatrix type="matrix" values="0 0 0 0 1 0 0 0 0 1 0 0 0 0 1 0 0 0 0.2 0"/>
<feBlend mode="normal" in2="shape" result="effect1_innerShadow_756_4379"/>
<feColorMatrix in="SourceAlpha" type="matrix" values="0 0 0 0 0 0 0 0 0 0 0 0 0 0 0 0 0 0 127 0" result="hardAlpha"/>
<feOffset dx="1" dy="1"/>
<feGaussianBlur stdDeviation="0.5"/>
<feComposite in2="hardAlpha" operator="arithmetic" k2="-1" k3="1"/>
<feColorMatrix type="matrix" values="0 0 0 0 0 0 0 0 0 0 0 0 0 0 0 0 0 0 0.2 0"/>
<feBlend mode="normal" in2="effect1_innerShadow_756_4379" result="effect2_innerShadow_756_4379"/>
</filter>
<filter id="filter9_ii_756_4379" x="229.259" y="63.9746" width="8.33203" height="6.73828" filterUnits="userSpaceOnUse" color-interpolation-filters="sRGB">
<feFlood flood-opacity="0" result="BackgroundImageFix"/>
<feBlend mode="normal" in="SourceGraphic" in2="BackgroundImageFix" result="shape"/>
<feColorMatrix in="SourceAlpha" type="matrix" values="0 0 0 0 0 0 0 0 0 0 0 0 0 0 0 0 0 0 127 0" result="hardAlpha"/>
<feOffset dx="-1" dy="-1"/>
<feGaussianBlur stdDeviation="0.5"/>
<feComposite in2="hardAlpha" operator="arithmetic" k2="-1" k3="1"/>
<feColorMatrix type="matrix" values="0 0 0 0 1 0 0 0 0 1 0 0 0 0 1 0 0 0 0.2 0"/>
<feBlend mode="normal" in2="shape" result="effect1_innerShadow_756_4379"/>
<feColorMatrix in="SourceAlpha" type="matrix" values="0 0 0 0 0 0 0 0 0 0 0 0 0 0 0 0 0 0 127 0" result="hardAlpha"/>
<feOffset dx="1" dy="1"/>
<feGaussianBlur stdDeviation="0.5"/>
<feComposite in2="hardAlpha" operator="arithmetic" k2="-1" k3="1"/>
<feColorMatrix type="matrix" values="0 0 0 0 0 0 0 0 0 0 0 0 0 0 0 0 0 0 0.2 0"/>
<feBlend mode="normal" in2="effect1_innerShadow_756_4379" result="effect2_innerShadow_756_4379"/>
</filter>
<filter id="filter10_ii_756_4379" x="227.842" y="56.4653" width="11.2319" height="9.17188" filterUnits="userSpaceOnUse" color-interpolation-filters="sRGB">
<feFlood flood-opacity="0" result="BackgroundImageFix"/>
<feBlend mode="normal" in="SourceGraphic" in2="BackgroundImageFix" result="shape"/>
<feColorMatrix in="SourceAlpha" type="matrix" values="0 0 0 0 0 0 0 0 0 0 0 0 0 0 0 0 0 0 127 0" result="hardAlpha"/>
<feOffset dx="-1" dy="-1"/>
<feGaussianBlur stdDeviation="0.5"/>
<feComposite in2="hardAlpha" operator="arithmetic" k2="-1" k3="1"/>
<feColorMatrix type="matrix" values="0 0 0 0 1 0 0 0 0 1 0 0 0 0 1 0 0 0 0.2 0"/>
<feBlend mode="normal" in2="shape" result="effect1_innerShadow_756_4379"/>
<feColorMatrix in="SourceAlpha" type="matrix" values="0 0 0 0 0 0 0 0 0 0 0 0 0 0 0 0 0 0 127 0" result="hardAlpha"/>
<feOffset dx="1" dy="1"/>
<feGaussianBlur stdDeviation="0.5"/>
<feComposite in2="hardAlpha" operator="arithmetic" k2="-1" k3="1"/>
<feColorMatrix type="matrix" values="0 0 0 0 0 0 0 0 0 0 0 0 0 0 0 0 0 0 0.2 0"/>
<feBlend mode="normal" in2="effect1_innerShadow_756_4379" result="effect2_innerShadow_756_4379"/>
</filter>
<filter id="filter11_ii_756_4379" x="195.977" y="74.9092" width="6.37793" height="8.8501" filterUnits="userSpaceOnUse" color-interpolation-filters="sRGB">
<feFlood flood-opacity="0" result="BackgroundImageFix"/>
<feBlend mode="normal" in="SourceGraphic" in2="BackgroundImageFix" result="shape"/>
<feColorMatrix in="SourceAlpha" type="matrix" values="0 0 0 0 0 0 0 0 0 0 0 0 0 0 0 0 0 0 127 0" result="hardAlpha"/>
<feOffset dx="-1" dy="-1"/>
<feGaussianBlur stdDeviation="0.5"/>
<feComposite in2="hardAlpha" operator="arithmetic" k2="-1" k3="1"/>
<feColorMatrix type="matrix" values="0 0 0 0 1 0 0 0 0 1 0 0 0 0 1 0 0 0 0.2 0"/>
<feBlend mode="normal" in2="shape" result="effect1_innerShadow_756_4379"/>
<feColorMatrix in="SourceAlpha" type="matrix" values="0 0 0 0 0 0 0 0 0 0 0 0 0 0 0 0 0 0 127 0" result="hardAlpha"/>
<feOffset dx="1" dy="1"/>
<feGaussianBlur stdDeviation="0.5"/>
<feComposite in2="hardAlpha" operator="arithmetic" k2="-1" k3="1"/>
<feColorMatrix type="matrix" values="0 0 0 0 0 0 0 0 0 0 0 0 0 0 0 0 0 0 0.2 0"/>
<feBlend mode="normal" in2="effect1_innerShadow_756_4379" result="effect2_innerShadow_756_4379"/>
</filter>
<filter id="filter12_dii_756_4379" x="203.5" y="67.874" width="19.7271" height="13.8184" filterUnits="userSpaceOnUse" color-interpolation-filters="sRGB">
<feFlood flood-opacity="0" result="BackgroundImageFix"/>
<feColorMatrix in="SourceAlpha" type="matrix" values="0 0 0 0 0 0 0 0 0 0 0 0 0 0 0 0 0 0 127 0" result="hardAlpha"/>
<feOffset dx="2" dy="1"/>
<feGaussianBlur stdDeviation="1"/>
<feComposite in2="hardAlpha" operator="out"/>
<feColorMatrix type="matrix" values="0 0 0 0 0 0 0 0 0 0 0 0 0 0 0 0 0 0 0.1 0"/>
<feBlend mode="normal" in2="BackgroundImageFix" result="effect1_dropShadow_756_4379"/>
<feBlend mode="normal" in="SourceGraphic" in2="effect1_dropShadow_756_4379" result="shape"/>
<feColorMatrix in="SourceAlpha" type="matrix" values="0 0 0 0 0 0 0 0 0 0 0 0 0 0 0 0 0 0 127 0" result="hardAlpha"/>
<feOffset dx="-1" dy="-1"/>
<feGaussianBlur stdDeviation="0.5"/>
<feComposite in2="hardAlpha" operator="arithmetic" k2="-1" k3="1"/>
<feColorMatrix type="matrix" values="0 0 0 0 0 0 0 0 0 0 0 0 0 0 0 0 0 0 0.2 0"/>
<feBlend mode="normal" in2="shape" result="effect2_innerShadow_756_4379"/>
<feColorMatrix in="SourceAlpha" type="matrix" values="0 0 0 0 0 0 0 0 0 0 0 0 0 0 0 0 0 0 127 0" result="hardAlpha"/>
<feOffset dx="1" dy="1"/>
<feGaussianBlur stdDeviation="0.5"/>
<feComposite in2="hardAlpha" operator="arithmetic" k2="-1" k3="1"/>
<feColorMatrix type="matrix" values="0 0 0 0 1 0 0 0 0 1 0 0 0 0 1 0 0 0 0.2 0"/>
<feBlend mode="normal" in2="effect2_innerShadow_756_4379" result="effect3_innerShadow_756_4379"/>
</filter>
</defs>
</svg>
