<svg width="393" height="143" viewBox="0 0 393 143" fill="none" xmlns="http://www.w3.org/2000/svg">
<path d="M306.58 68.1114C304.724 68.1114 303.185 67.7427 301.965 67.0052C300.744 66.2423 299.829 65.2506 299.218 64.03C298.608 62.784 298.303 61.4489 298.303 60.0249C298.303 58.6772 298.557 57.3294 299.066 55.9817C299.6 54.6085 300.363 53.3625 301.354 52.2436C302.372 51.1247 303.592 50.222 305.016 49.5354C306.466 48.8488 308.093 48.5055 309.899 48.5055C312.136 48.5055 313.764 49.0141 314.781 50.0312C315.824 51.023 316.345 52.2309 316.345 53.6549C316.345 54.8755 316.014 56.0071 315.353 57.0497C314.718 58.0669 313.866 58.8933 312.798 59.529C311.73 60.1393 310.56 60.4445 309.288 60.4445C308.627 60.4445 307.953 60.3428 307.267 60.1393C306.58 59.9359 305.906 59.618 305.245 59.1857C305.372 60.7624 305.83 61.9067 306.618 62.6187C307.407 63.3307 308.348 63.6867 309.441 63.6867C310.204 63.6867 310.967 63.5468 311.73 63.2671C312.492 62.962 313.192 62.5805 313.827 62.1228C314.489 61.6397 314.997 61.1311 315.353 60.5971L315.62 60.7878C315.62 62.1101 315.341 63.2417 314.781 64.1826C314.247 65.098 313.535 65.8482 312.645 66.4331C311.755 67.0179 310.776 67.4502 309.708 67.7299C308.665 67.9842 307.623 68.1114 306.58 68.1114ZM307.457 57.8126C308.271 57.8126 308.932 57.5837 309.441 57.126C309.95 56.6428 310.331 56.0834 310.585 55.4477C310.84 54.8119 310.967 54.2525 310.967 53.7693C310.967 53.1845 310.801 52.7013 310.471 52.3199C310.14 51.913 309.683 51.7096 309.098 51.7096C308.64 51.7096 308.131 51.8749 307.572 52.2054C307.038 52.536 306.555 53.1082 306.122 53.9219C305.69 54.7102 305.41 55.8164 305.283 57.2404C306.097 57.6218 306.822 57.8126 307.457 57.8126Z" fill="white"/>
<path d="M288.032 68.1114C286.354 68.1114 284.93 67.7299 283.76 66.9671C282.616 66.2042 281.751 65.2125 281.166 63.9919C280.581 62.7458 280.289 61.4108 280.289 59.9868C280.289 58.639 280.543 57.2913 281.052 55.9435C281.586 54.5958 282.362 53.3625 283.379 52.2436C284.396 51.0993 285.629 50.1965 287.079 49.5354C288.554 48.8488 290.245 48.5055 292.152 48.5055C294.034 48.5055 295.432 48.8869 296.348 49.6498C297.263 50.3873 297.721 51.201 297.721 52.091C297.721 53.0319 297.25 53.8965 296.309 54.6848C295.369 55.4731 293.995 55.8672 292.19 55.8672C292.292 55.4858 292.368 55.1044 292.419 54.7229C292.495 54.3161 292.533 53.9346 292.533 53.5786C292.533 53.0446 292.419 52.5996 292.19 52.2436C291.961 51.8621 291.554 51.6714 290.969 51.6714C290.435 51.6714 289.863 51.913 289.253 52.3962C288.668 52.8793 288.159 53.5913 287.727 54.5322C287.32 55.4731 287.117 56.6301 287.117 58.0033C287.117 59.351 287.333 60.4445 287.765 61.2836C288.223 62.1228 288.808 62.7331 289.52 63.1145C290.232 63.4706 290.982 63.6486 291.77 63.6486C292.813 63.6486 293.817 63.3816 294.784 62.8475C295.75 62.2881 296.449 61.5252 296.882 60.5589L297.263 60.7115C297.263 62.0338 296.958 63.1654 296.348 64.1063C295.763 65.0217 295 65.7846 294.059 66.3949C293.118 66.9798 292.114 67.4121 291.046 67.6918C289.978 67.9715 288.973 68.1114 288.032 68.1114Z" fill="white"/>
<path d="M263.625 67.9597C262.684 67.9597 261.832 67.591 261.069 66.8536C260.307 66.0907 259.925 65.0354 259.925 63.6876C259.925 63.0265 260.014 62.2763 260.192 61.4371C260.37 60.598 260.561 59.7461 260.764 58.8815C260.993 58.0169 261.197 57.2032 261.375 56.4403C261.553 55.6774 261.642 55.0544 261.642 54.5713C261.642 54.0627 261.54 53.6685 261.336 53.3888C261.133 53.0837 260.866 52.9311 260.535 52.9311C260.103 52.9311 259.633 53.1854 259.124 53.694L258.895 53.5414C258.87 53.1345 258.959 52.6514 259.162 52.0919C259.366 51.5325 259.671 50.9985 260.078 50.4899C260.51 49.9559 261.057 49.5109 261.718 49.1549C262.379 48.7989 263.167 48.6208 264.083 48.6208C265.431 48.6208 266.422 49.015 267.058 49.8033C267.719 50.5662 268.05 51.5071 268.05 52.6259C268.05 53.0328 268.012 53.427 267.935 53.8084C268.469 53.0201 269.13 52.2318 269.919 51.4435C270.707 50.6298 271.572 49.9559 272.513 49.4219C273.479 48.8879 274.471 48.6208 275.488 48.6208C276.683 48.6208 277.497 49.0023 277.929 49.7652C278.361 50.528 278.577 51.4816 278.577 52.6259C278.577 53.694 278.463 54.8383 278.234 56.0589C278.005 57.2795 277.776 58.4619 277.548 59.6062C277.319 60.7251 277.204 61.666 277.204 62.4289C277.204 63.4461 277.497 63.9546 278.082 63.9546C278.387 63.9546 278.654 63.8656 278.883 63.6876C279.111 63.4842 279.264 63.2935 279.34 63.1155L279.607 63.2299C279.607 64.1708 279.34 64.9972 278.806 65.7092C278.298 66.4213 277.649 66.9807 276.861 67.3876C276.073 67.769 275.272 67.9597 274.458 67.9597C273.466 67.9597 272.589 67.6164 271.826 66.9298C271.063 66.2433 270.682 65.1244 270.682 63.5732C270.682 62.6577 270.796 61.666 271.025 60.598C271.279 59.53 271.521 58.5001 271.75 57.5083C271.979 56.5166 272.093 55.7029 272.093 55.0671C272.093 54.6857 272.017 54.3933 271.864 54.1898C271.737 53.961 271.495 53.8465 271.139 53.8465C270.555 53.8465 269.906 54.1135 269.194 54.6476C268.507 55.1816 267.91 55.8936 267.401 56.7836C266.918 57.6736 266.677 58.6527 266.677 59.7207C266.677 60.4073 266.753 61.0684 266.905 61.7042C267.083 62.3399 267.172 63.0265 267.172 63.7639C267.172 65.1371 266.816 66.1797 266.104 66.8917C265.392 67.6037 264.566 67.9597 263.625 67.9597Z" fill="white"/>
<path d="M252.47 68.0347C251.58 68.0347 250.804 67.7422 250.143 67.1574C249.482 66.5725 249.151 65.6189 249.151 64.2966C249.151 64.1694 249.151 64.0423 249.151 63.9151C249.151 63.788 249.164 63.6609 249.19 63.5337C248.427 65.0595 247.562 66.1911 246.596 66.9285C245.655 67.6405 244.701 67.9965 243.735 67.9965C242.845 67.9965 242.006 67.6914 241.217 67.0811C240.429 66.4453 239.793 65.5172 239.31 64.2966C238.827 63.076 238.586 61.6011 238.586 59.8719C238.586 58.0919 238.827 56.5025 239.31 55.1039C239.819 53.7053 240.48 52.5229 241.294 51.5566C242.108 50.5903 242.998 49.8655 243.964 49.3824C244.93 48.8738 245.871 48.6195 246.786 48.6195C247.804 48.6195 248.719 48.9374 249.533 49.5731C250.347 50.1834 250.906 51.1624 251.211 52.5102C251.287 52.0779 251.338 51.6837 251.364 51.3277C251.415 50.9717 251.44 50.7301 251.44 50.603C251.465 49.9164 251.809 49.4078 252.47 49.0772C253.156 48.7466 253.907 48.5814 254.72 48.5814C255.432 48.5814 256.106 48.7212 256.742 49.0009C257.378 49.2807 257.81 49.7511 258.039 50.4123L258.115 50.6411C257.81 51.3277 257.505 52.1542 257.2 53.1205C256.895 54.0868 256.615 55.1039 256.361 56.172C256.106 57.2146 255.903 58.2444 255.75 59.2616C255.598 60.2533 255.521 61.1307 255.521 61.8935C255.521 62.7327 255.61 63.3176 255.788 63.6481C255.966 63.9533 256.183 64.1059 256.437 64.1059C256.869 64.1059 257.263 63.8007 257.619 63.1904L257.924 63.343C257.924 64.2076 257.645 64.9959 257.085 65.7079C256.526 66.4199 255.827 66.9921 254.987 67.4244C254.148 67.8312 253.309 68.0347 252.47 68.0347ZM246.252 63.1904C246.914 63.1904 247.638 62.6055 248.427 61.4358C249.24 60.2406 249.94 58.5369 250.525 56.3245C250.575 56.0957 250.626 55.8795 250.677 55.6761C250.728 55.4472 250.766 55.2311 250.792 55.0277C250.385 54.0868 249.952 53.4256 249.495 53.0442C249.062 52.6373 248.63 52.4339 248.198 52.4339C247.562 52.4339 246.964 52.7772 246.405 53.4638C245.871 54.1249 245.426 54.9641 245.07 55.9812C244.739 56.9984 244.574 58.0156 244.574 59.0327C244.574 60.4313 244.727 61.4739 245.032 62.1605C245.362 62.8471 245.769 63.1904 246.252 63.1904Z" fill="white"/>
<path d="M232.414 67.9968C231.728 67.9968 231.054 67.8315 230.393 67.5009C229.757 67.1449 229.236 66.5855 228.829 65.8226C228.422 65.0597 228.219 64.0807 228.219 62.8855C228.219 61.8175 228.358 60.5715 228.638 59.1475C228.943 57.698 229.274 56.1977 229.63 54.6465C230.011 53.0953 230.342 51.5823 230.622 50.1074C230.901 48.6325 231.029 47.3229 231.003 46.1786C231.003 45.0851 230.876 44.3095 230.622 43.8518L230.584 43.7374C230.863 42.9237 231.359 42.2879 232.071 41.8302C232.783 41.3725 233.533 41.1436 234.322 41.1436C235.212 41.1436 236 41.4869 236.687 42.1735C237.399 42.8347 237.755 43.9535 237.755 45.5301C237.755 46.3693 237.653 47.3738 237.449 48.5435C237.246 49.6878 237.004 50.9211 236.725 52.2434C236.445 53.5403 236.153 54.8245 235.847 56.096C235.568 57.3674 235.326 58.5372 235.123 59.6052C234.919 60.6732 234.818 61.5505 234.818 62.2371C234.818 62.9491 234.919 63.445 235.123 63.7247C235.326 63.979 235.555 64.1061 235.809 64.1061C236.089 64.1061 236.356 64.0044 236.61 63.801C236.865 63.5721 237.03 63.3687 237.106 63.1907L237.411 63.267C237.386 64.1824 237.119 64.9962 236.61 65.7082C236.127 66.4202 235.504 66.9796 234.741 67.3865C234.004 67.7934 233.228 67.9968 232.414 67.9968Z" fill="white"/>
<path d="M221.374 68.0347C220.484 68.0347 219.708 67.7422 219.047 67.1574C218.386 66.5725 218.055 65.6189 218.055 64.2966C218.055 64.1694 218.055 64.0423 218.055 63.9151C218.055 63.788 218.068 63.6609 218.093 63.5337C217.33 65.0595 216.466 66.1911 215.499 66.9285C214.559 67.6405 213.605 67.9965 212.639 67.9965C211.749 67.9965 210.909 67.6914 210.121 67.0811C209.333 66.4453 208.697 65.5172 208.214 64.2966C207.731 63.076 207.489 61.6011 207.489 59.8719C207.489 58.0919 207.731 56.5025 208.214 55.1039C208.723 53.7053 209.384 52.5229 210.197 51.5566C211.011 50.5903 211.901 49.8655 212.868 49.3824C213.834 48.8738 214.775 48.6195 215.69 48.6195C216.707 48.6195 217.623 48.9374 218.437 49.5731C219.25 50.1834 219.81 51.1624 220.115 52.5102C220.191 52.0779 220.242 51.6837 220.267 51.3277C220.318 50.9717 220.344 50.7301 220.344 50.603C220.369 49.9164 220.712 49.4078 221.374 49.0772C222.06 48.7466 222.81 48.5814 223.624 48.5814C224.336 48.5814 225.01 48.7212 225.646 49.0009C226.281 49.2807 226.714 49.7511 226.943 50.4123L227.019 50.6411C226.714 51.3277 226.409 52.1542 226.103 53.1205C225.798 54.0868 225.519 55.1039 225.264 56.172C225.01 57.2146 224.807 58.2444 224.654 59.2616C224.501 60.2533 224.425 61.1307 224.425 61.8935C224.425 62.7327 224.514 63.3176 224.692 63.6481C224.87 63.9533 225.086 64.1059 225.341 64.1059C225.773 64.1059 226.167 63.8007 226.523 63.1904L226.828 63.343C226.828 64.2076 226.548 64.9959 225.989 65.7079C225.43 66.4199 224.73 66.9921 223.891 67.4244C223.052 67.8312 222.213 68.0347 221.374 68.0347ZM215.156 63.1904C215.817 63.1904 216.542 62.6055 217.33 61.4358C218.144 60.2406 218.843 58.5369 219.428 56.3245C219.479 56.0957 219.53 55.8795 219.581 55.6761C219.632 55.4472 219.67 55.2311 219.695 55.0277C219.288 54.0868 218.856 53.4256 218.398 53.0442C217.966 52.6373 217.534 52.4339 217.101 52.4339C216.466 52.4339 215.868 52.7772 215.309 53.4638C214.775 54.1249 214.33 54.9641 213.974 55.9812C213.643 56.9984 213.478 58.0156 213.478 59.0327C213.478 60.4313 213.63 61.4739 213.936 62.1605C214.266 62.8471 214.673 63.1904 215.156 63.1904Z" fill="white"/>
<path d="M192.489 68.1119C190.175 68.1119 188.28 67.6796 186.805 66.8151C185.33 65.9505 184.593 64.5391 184.593 62.5811C184.593 62.3777 184.593 62.1997 184.593 62.0471C184.618 61.8691 184.644 61.7292 184.669 61.6275C184.771 60.9155 184.987 60.0382 185.318 58.9956C185.648 57.953 186.03 56.8468 186.462 55.6771C186.894 54.4819 187.314 53.3122 187.721 52.1679C188.128 51.0235 188.471 49.9809 188.751 49.0401C189.03 48.0738 189.17 47.2982 189.17 46.7133C189.17 46.0521 188.954 45.7216 188.522 45.7216C188.039 45.7216 187.441 46.0903 186.729 46.8277C186.017 47.5397 185.267 48.5442 184.479 49.8411L184.25 49.7267C184.25 48.0483 184.58 46.5989 185.242 45.3783C185.903 44.1577 186.78 43.1532 187.873 42.3649C188.967 41.5512 190.187 40.9536 191.535 40.5722C192.883 40.1907 194.243 40 195.617 40C197.32 40 198.922 40.2797 200.423 40.8392C201.923 41.3732 203.144 42.1488 204.085 43.1659C205.051 44.1831 205.534 45.4291 205.534 46.904C205.534 49.5486 203.919 51.6084 200.69 53.0833C202.597 53.5156 203.996 54.2403 204.886 55.2575C205.776 56.2747 206.221 57.4063 206.221 58.6523C206.221 59.7457 205.89 60.8519 205.229 61.9708C204.593 63.0643 203.678 64.0814 202.482 65.0223C201.287 65.9377 199.838 66.6879 198.134 67.2728C196.456 67.8322 194.574 68.1119 192.489 68.1119ZM193.976 51.939C195.146 51.9644 196.163 51.7864 197.028 51.405C197.918 50.9981 198.605 50.4895 199.088 49.8792C199.596 49.2435 199.851 48.5951 199.851 47.9339C199.851 47.0693 199.393 46.3064 198.477 45.6453C197.562 44.9587 196.125 44.6154 194.167 44.6154C194.269 45.0985 194.332 45.5817 194.358 46.0649C194.409 46.548 194.434 47.0184 194.434 47.4762C194.434 48.2136 194.383 48.9511 194.282 49.6885C194.205 50.426 194.104 51.1761 193.976 51.939ZM193.557 63.4584C194.65 63.4584 195.617 63.2423 196.456 62.81C197.295 62.3522 197.956 61.7801 198.439 61.0935C198.922 60.3815 199.164 59.6567 199.164 58.9193C199.164 57.9021 198.681 56.9613 197.715 56.0967C196.748 55.2321 195.235 54.6981 193.175 54.4946C193.074 55.2829 192.858 56.1221 192.527 57.0121C192.222 57.9021 191.929 58.754 191.65 59.5677C191.37 60.3815 191.23 61.0935 191.23 61.7038C191.23 62.2378 191.395 62.6701 191.726 63.0007C192.057 63.3058 192.667 63.4584 193.557 63.4584Z" fill="white"/>
<path d="M170.471 67.9975C169.657 67.9975 168.882 67.8195 168.144 67.4634C167.432 67.082 166.848 66.4971 166.39 65.7088C165.958 64.9205 165.741 63.9161 165.741 62.6955C165.741 62.0343 165.805 61.1697 165.932 60.1017C166.059 59.0337 166.225 57.8639 166.428 56.5925C166.657 55.321 166.886 54.0496 167.115 52.7781C166.606 52.8035 166.11 52.8544 165.627 52.9307C165.169 53.007 164.712 53.096 164.254 53.1977L164.177 52.9307C164.686 52.3204 165.22 51.7991 165.78 51.3668C166.339 50.9345 166.924 50.5785 167.534 50.2988C167.865 48.6204 168.144 47.171 168.373 45.9504C168.602 44.7043 168.717 43.9669 168.717 43.738C168.717 43.3057 169.047 42.9497 169.708 42.67C170.395 42.3903 171.158 42.2504 171.997 42.2504C172.734 42.2504 173.421 42.3903 174.057 42.67C174.718 42.9497 175.163 43.4202 175.392 44.0813C175.239 44.2339 175.023 44.8061 174.743 45.7978C174.464 46.7641 174.171 47.9466 173.866 49.3452C174.349 49.3706 174.845 49.396 175.354 49.4214C175.862 49.4469 176.383 49.485 176.918 49.5359C176.968 49.6885 177.007 49.8537 177.032 50.0317C177.057 50.2098 177.07 50.4005 177.07 50.6039C177.07 50.9853 177.007 51.4049 176.879 51.8626C176.778 52.2949 176.65 52.6891 176.498 53.0451C175.888 52.9942 175.315 52.9434 174.781 52.8925C174.247 52.8162 173.726 52.7654 173.218 52.74C173.014 53.8334 172.823 54.9269 172.645 56.0203C172.493 57.1138 172.366 58.1055 172.264 58.9955C172.188 59.8856 172.15 60.5849 172.15 61.0934C172.15 62.1615 172.34 62.8735 172.722 63.2295C173.129 63.5855 173.612 63.7635 174.171 63.7635C174.68 63.7635 175.137 63.6618 175.544 63.4583C175.951 63.2549 176.244 63.0133 176.422 62.7336L176.803 62.848C176.65 63.8906 176.244 64.8061 175.582 65.5944C174.921 66.3573 174.133 66.9549 173.218 67.3872C172.302 67.794 171.387 67.9975 170.471 67.9975Z" fill="white"/>
<path d="M154.131 68.1114C152.275 68.1114 150.737 67.7427 149.516 67.0052C148.295 66.2423 147.38 65.2506 146.77 64.03C146.159 62.784 145.854 61.4489 145.854 60.0249C145.854 58.6772 146.108 57.3294 146.617 55.9817C147.151 54.6085 147.914 53.3625 148.906 52.2436C149.923 51.1247 151.143 50.222 152.567 49.5354C154.017 48.8488 155.644 48.5055 157.45 48.5055C159.688 48.5055 161.315 49.0141 162.332 50.0312C163.375 51.023 163.896 52.2309 163.896 53.6549C163.896 54.8755 163.566 56.0071 162.904 57.0497C162.269 58.0669 161.417 58.8933 160.349 59.529C159.281 60.1393 158.111 60.4445 156.84 60.4445C156.178 60.4445 155.504 60.3428 154.818 60.1393C154.131 59.9359 153.457 59.618 152.796 59.1857C152.923 60.7624 153.381 61.9067 154.169 62.6187C154.958 63.3307 155.899 63.6867 156.992 63.6867C157.755 63.6867 158.518 63.5468 159.281 63.2671C160.044 62.962 160.743 62.5805 161.379 62.1228C162.04 61.6397 162.548 61.1311 162.904 60.5971L163.171 60.7878C163.171 62.1101 162.892 63.2417 162.332 64.1826C161.798 65.098 161.086 65.8482 160.196 66.4331C159.306 67.0179 158.327 67.4502 157.259 67.7299C156.217 67.9842 155.174 68.1114 154.131 68.1114ZM155.009 57.8126C155.822 57.8126 156.484 57.5837 156.992 57.126C157.501 56.6428 157.882 56.0834 158.136 55.4477C158.391 54.8119 158.518 54.2525 158.518 53.7693C158.518 53.1845 158.353 52.7013 158.022 52.3199C157.691 51.913 157.234 51.7096 156.649 51.7096C156.191 51.7096 155.682 51.8749 155.123 52.2054C154.589 52.536 154.106 53.1082 153.674 53.9219C153.241 54.7102 152.962 55.8164 152.834 57.2404C153.648 57.6218 154.373 57.8126 155.009 57.8126Z" fill="white"/>
<path d="M135.194 68.1114C133.337 68.1114 131.799 67.7427 130.578 67.0052C129.358 66.2423 128.442 65.2506 127.832 64.03C127.222 62.784 126.916 61.4489 126.916 60.0249C126.916 58.6772 127.171 57.3294 127.679 55.9817C128.213 54.6085 128.976 53.3625 129.968 52.2436C130.985 51.1247 132.206 50.222 133.63 49.5354C135.079 48.8488 136.707 48.5055 138.512 48.5055C140.75 48.5055 142.377 49.0141 143.394 50.0312C144.437 51.023 144.958 52.2309 144.958 53.6549C144.958 54.8755 144.628 56.0071 143.967 57.0497C143.331 58.0669 142.479 58.8933 141.411 59.529C140.343 60.1393 139.173 60.4445 137.902 60.4445C137.241 60.4445 136.567 60.3428 135.88 60.1393C135.194 59.9359 134.52 59.618 133.859 59.1857C133.986 60.7624 134.443 61.9067 135.232 62.6187C136.02 63.3307 136.961 63.6867 138.054 63.6867C138.817 63.6867 139.58 63.5468 140.343 63.2671C141.106 62.962 141.805 62.5805 142.441 62.1228C143.102 61.6397 143.611 61.1311 143.967 60.5971L144.234 60.7878C144.234 62.1101 143.954 63.2417 143.394 64.1826C142.86 65.098 142.148 65.8482 141.258 66.4331C140.368 67.0179 139.389 67.4502 138.321 67.7299C137.279 67.9842 136.236 68.1114 135.194 68.1114ZM136.071 57.8126C136.885 57.8126 137.546 57.5837 138.054 57.126C138.563 56.6428 138.944 56.0834 139.199 55.4477C139.453 54.8119 139.58 54.2525 139.58 53.7693C139.58 53.1845 139.415 52.7013 139.084 52.3199C138.754 51.913 138.296 51.7096 137.711 51.7096C137.253 51.7096 136.745 51.8749 136.185 52.2054C135.651 52.536 135.168 53.1082 134.736 53.9219C134.304 54.7102 134.024 55.8164 133.897 57.2404C134.71 57.6218 135.435 57.8126 136.071 57.8126Z" fill="white"/>
<path d="M101.998 67.9966C100.675 67.9966 99.5945 67.6152 98.7554 66.8523C97.9416 66.064 97.5348 64.8561 97.5348 63.2287C97.5348 62.4149 97.6238 61.5631 97.8018 60.673C98.0052 59.7576 98.2214 58.8676 98.4502 58.003C98.7045 57.113 98.9207 56.3119 99.0987 55.5999C99.2767 54.8879 99.3657 54.3157 99.3657 53.8835C99.3657 53.4512 99.2767 53.146 99.0987 52.968C98.9207 52.7646 98.7045 52.6629 98.4502 52.6629C98.1959 52.6629 97.9416 52.7519 97.6874 52.9299C97.4331 53.0824 97.2169 53.324 97.0389 53.6546L96.7338 53.5402C96.7846 52.4976 97.0771 51.6075 97.6111 50.8701C98.1451 50.1326 98.8062 49.5732 99.5945 49.1918C100.408 48.8103 101.222 48.6196 102.036 48.6196C102.697 48.6196 103.333 48.7595 103.943 49.0392C104.553 49.2935 105.036 49.7004 105.392 50.2598C105.774 50.7938 105.952 51.4804 105.926 52.3196C105.901 52.879 105.799 53.5656 105.621 54.3793C105.443 55.1931 105.227 56.0704 104.973 57.0112C104.744 57.9267 104.541 58.8167 104.363 59.6813C104.185 60.5459 104.096 61.3088 104.096 61.9699C104.096 62.5294 104.172 62.9744 104.324 63.305C104.502 63.6355 104.795 63.8008 105.202 63.8008C105.634 63.8008 106.206 63.572 106.918 63.1142C107.63 62.6565 108.342 61.9954 109.054 61.1308C108.902 59.7067 108.825 58.448 108.825 57.3545C108.825 54.5573 109.232 52.5357 110.046 51.2897C110.885 50.0436 111.928 49.4206 113.174 49.4206C114.089 49.4206 114.712 49.7258 115.043 50.3361C115.373 50.9464 115.539 51.7601 115.539 52.7773C115.539 54.2776 115.284 55.6889 114.776 57.0112C114.267 58.3336 113.67 59.3889 112.983 60.1772C113.034 61.3215 113.263 62.2115 113.67 62.8472C114.102 63.483 114.61 63.8008 115.195 63.8008C115.78 63.8008 116.378 63.4702 116.988 62.8091C117.624 62.1479 118.171 61.1308 118.628 59.7576C119.086 58.3844 119.353 56.6425 119.429 54.5319C119.455 52.8281 119.34 51.5821 119.086 50.7938V50.6031C119.442 50.0182 120.001 49.5223 120.764 49.1155C121.553 48.6832 122.341 48.467 123.129 48.467C123.689 48.467 124.197 48.6323 124.655 48.9629C125.138 49.2681 125.52 49.8529 125.799 50.7175C126.079 51.5567 126.181 52.7773 126.104 54.3793C126.028 56.6171 125.659 58.5878 124.998 60.2916C124.337 61.9699 123.485 63.3812 122.443 64.5256C121.425 65.6699 120.319 66.5345 119.124 67.1193C117.929 67.7042 116.747 67.9966 115.577 67.9966C114.254 67.9966 113.047 67.6406 111.953 66.9286C110.86 66.1912 110.033 65.1613 109.474 63.839C108.329 65.0341 107.147 66.0259 105.926 66.8142C104.731 67.6025 103.422 67.9966 101.998 67.9966Z" fill="white"/>
<path d="M84.1313 68.0724C82.4276 68.0724 81.0163 67.78 79.8974 67.1951C78.8039 66.6102 77.9902 65.8601 77.4562 64.9446C76.9222 64.0292 76.6552 63.0883 76.6552 62.122C76.6552 61.1811 76.884 60.2911 77.3417 59.4519C77.7995 58.5873 78.4479 57.8753 79.2871 57.3159C80.1517 56.7564 81.1688 56.4767 82.3386 56.4767C82.3131 56.7056 82.3004 56.9217 82.3004 57.1251C82.3004 57.3032 82.3004 57.3922 82.3004 57.3922C82.3004 59.0959 82.4657 60.4437 82.7963 61.4354C83.1269 62.4017 83.5465 63.101 84.055 63.5333C84.5636 63.9402 85.0849 64.1436 85.6189 64.1436C86.4327 64.1436 87.1574 63.8257 87.7931 63.19C88.4289 62.5288 88.7467 61.766 88.7467 60.9014C88.7467 59.9351 88.3271 59.0832 87.488 58.3457C86.6742 57.6083 85.6316 56.7946 84.3602 55.9045C83.6482 55.3705 82.8853 54.773 82.0716 54.1118C81.2833 53.4252 80.6094 52.6242 80.0499 51.7087C79.4905 50.7679 79.2108 49.6617 79.2108 48.3902C79.2108 47.0679 79.5159 45.8982 80.1262 44.881C80.762 43.8638 81.5884 43.012 82.6056 42.3254C83.6482 41.6134 84.7798 41.0793 86.0004 40.7233C87.2464 40.3419 88.4797 40.1512 89.7003 40.1512C91.2006 40.1512 92.4339 40.3928 93.4003 40.8759C94.3666 41.3591 95.0913 41.9821 95.5744 42.745C96.0576 43.5078 96.2992 44.2961 96.2992 45.1099C96.2992 45.8727 96.083 46.6102 95.6507 47.3222C95.2439 48.0088 94.6336 48.5682 93.8198 49.0005C93.0061 49.4328 92.0016 49.649 90.8065 49.649C90.8828 49.293 90.9336 48.9751 90.9591 48.6954C90.9845 48.3902 90.9972 48.1232 90.9972 47.8944C90.9972 46.6229 90.7175 45.7202 90.158 45.1862C89.624 44.6267 89.0264 44.347 88.3653 44.347C87.7295 44.347 87.1193 44.5886 86.5344 45.0717C85.9495 45.5295 85.6571 46.2796 85.6571 47.3222C85.6571 48.2122 85.8859 48.9751 86.3437 49.6108C86.8268 50.2466 87.4371 50.806 88.1746 51.2892C88.9374 51.7723 89.7385 52.2427 90.5776 52.7005C91.4422 53.1582 92.2687 53.6668 93.057 54.2262C93.8707 54.7602 94.5446 55.396 95.0786 56.1334C95.6126 56.8709 95.8796 57.799 95.8796 58.9179C95.8796 60.0876 95.5617 61.232 94.926 62.3508C94.2903 63.4443 93.4257 64.4233 92.3322 65.2879C91.2388 66.1271 89.98 66.8009 88.556 67.3095C87.1574 67.8181 85.6825 68.0724 84.1313 68.0724Z" fill="white"/>
<path d="M83.9 90.4244C83.9 92.7057 86.3375 94.8619 89.025 95.3463L88.3375 96.5807C86.1031 96.0963 84.0406 94.6276 83.1344 92.6588C82.2125 94.6119 80.1578 96.0807 77.9156 96.5807L77.2594 95.3463C79.9156 94.8463 82.3375 92.7057 82.3375 90.4244V89.3619H83.9V90.4244ZM89.6031 99.3619V100.596H76.7906V99.3619H89.6031ZM97.2969 89.8307V98.9244H90.75V89.8307H97.2969ZM92.2031 91.0026V97.7213H95.8281V91.0026H92.2031ZM101.125 88.4401V93.9244H103.375V95.1744H101.125V102.44H99.6406V88.4401H101.125ZM115.006 95.8932V97.0807H105.256V89.5963H114.866V90.7994H106.756V92.6901H114.569V93.8619H106.756V95.8932H115.006ZM116.459 99.4557V100.674H103.647V99.4557H116.459ZM128.075 88.4557V92.9557H130.106V94.1901H128.075V98.9244H126.591V88.4557H128.075ZM125.434 90.0807V91.2838H117.091V90.0807H120.528V88.4401H122.013V90.0807H125.434ZM121.263 91.9557C123.278 91.9557 124.653 93.0026 124.653 94.5963C124.653 96.1901 123.278 97.2213 121.263 97.2213C119.231 97.2213 117.856 96.1901 117.856 94.5963C117.856 93.0026 119.231 91.9557 121.263 91.9557ZM121.263 93.0963C120.075 93.0963 119.278 93.6744 119.294 94.5963C119.278 95.5026 120.075 96.0651 121.263 96.0651C122.45 96.0651 123.247 95.5026 123.263 94.5963C123.247 93.6744 122.45 93.0963 121.263 93.0963ZM128.669 100.94V102.143H119.2V98.0963H120.684V100.94H128.669ZM145.025 88.4401V91.9869H147.041V93.2057H145.025V96.7057H143.525V88.4401H145.025ZM140.494 96.9713C143.353 96.9713 145.134 97.9713 145.134 99.6901C145.134 101.409 143.353 102.424 140.494 102.409C137.603 102.424 135.791 101.409 135.791 99.6901C135.791 97.9713 137.603 96.9713 140.494 96.9713ZM140.494 98.1744C138.463 98.1588 137.244 98.7213 137.259 99.6901C137.244 100.659 138.463 101.221 140.494 101.221C142.478 101.221 143.697 100.659 143.713 99.6901C143.697 98.7213 142.478 98.1588 140.494 98.1744ZM140.853 89.4713V90.6744H136.072V94.4869C138.83 94.4791 140.384 94.3932 142.15 94.0338L142.291 95.2369C140.416 95.6276 138.744 95.6901 135.713 95.6901H134.603V89.4713H140.853ZM158.741 89.5026V90.2838C158.725 91.2213 158.725 92.6119 158.381 94.4244L156.912 94.2838C157.217 92.7291 157.264 91.6041 157.287 90.7213H151.678V89.5026H158.741ZM155.162 92.6432V95.5338C156.662 95.4869 158.209 95.3776 159.616 95.1744L159.709 96.2526C156.787 96.7682 153.444 96.8151 150.975 96.8307L150.834 95.6276C151.694 95.6198 152.67 95.6119 153.694 95.5807V92.6432H155.162ZM162.022 88.4401V92.8932H163.944V94.1432H162.022V98.9557H160.506V88.4401H162.022ZM162.475 100.94V102.143H152.959V98.0026H154.444V100.94H162.475ZM175.997 88.4401V102.471H174.513V88.4401H175.997ZM171.716 89.7057V94.8151H166.684V97.8776C168.95 97.8698 170.934 97.7682 173.278 97.3776L173.419 98.5963C170.934 99.0182 168.825 99.1119 166.356 99.1119H165.169V93.6276H170.2V90.9088H165.153V89.7057H171.716ZM180.316 100.034L179.066 104.346H177.738L178.566 100.034H180.316ZM190.156 92.5651C190.156 94.9088 191.688 97.3307 193.844 98.2526L193.031 99.4088C191.383 98.6823 190.07 97.1432 189.422 95.2682C188.773 97.2682 187.453 98.9713 185.828 99.7682L184.969 98.5963C187.078 97.6119 188.641 94.9713 188.656 92.5651V91.0807H185.453V89.8463H193.344V91.0807H190.156V92.5651ZM196.594 88.4401V102.44H195.109V88.4401H196.594ZM209.616 89.1432V90.2057C209.616 91.3073 209.616 92.5573 209.256 94.2526H211.241V95.4713H198.428V94.2526H207.756C208.131 92.6198 208.147 91.4244 208.147 90.3619H200.037V89.1432H209.616ZM209.631 97.2526V102.268H199.991V97.2526H209.631ZM201.444 98.4244V101.065H208.162V98.4244H201.444ZM226.269 88.4401V93.8619H228.519V95.1119H226.269V102.44H224.784V88.4401H226.269ZM217.362 89.6119V93.2057H221.066V89.6119H222.534V99.1119H215.894V89.6119H217.362ZM217.362 97.8932H221.066V94.3776H217.362V97.8932ZM241.603 99.5182V100.768H228.791V99.5182H234.431V97.0651H230.353V92.6119H238.572V90.6432H230.322V89.4244H240.041V93.7994H231.822V95.8463H240.369V97.0651H235.9V99.5182H241.603ZM250.866 92.0026C250.85 94.5651 252.397 97.1276 254.569 98.0963L253.678 99.2682C252.069 98.5026 250.795 96.9323 250.147 95.0182C249.491 97.0651 248.202 98.7604 246.522 99.5807L245.616 98.3307C247.819 97.3463 249.366 94.6744 249.366 92.0026V89.6119H250.866V92.0026ZM257.319 88.4401V102.471H255.834V88.4401H257.319ZM264.044 90.9557C264.044 92.7369 265.278 94.4401 267.419 95.1588L266.669 96.3151C265.083 95.7682 263.919 94.6744 263.309 93.2994C262.7 94.8151 261.489 96.0026 259.841 96.5807L259.044 95.4244C261.231 94.6744 262.544 92.8776 262.559 90.9401V90.5651H259.481V89.3619H267.059V90.5651H264.044V90.9557ZM270.153 88.4401V92.0338H272.184V93.2838H270.153V96.8776H268.669V88.4401H270.153ZM270.153 97.5651V102.44H268.669V98.7682H260.903V97.5651H270.153ZM283.487 88.4401V94.1119H285.737V95.3463H283.487V102.44H282.019V88.4401H283.487ZM280.8 90.6276V91.8463H272.503V90.6276H275.956V88.6276H277.441V90.6276H280.8ZM276.706 92.8776C278.706 92.8776 280.175 94.2213 280.191 96.1276C280.175 98.0494 278.706 99.3776 276.706 99.3932C274.691 99.3776 273.222 98.0494 273.222 96.1276C273.222 94.2213 274.691 92.8776 276.706 92.8776ZM276.706 94.0963C275.519 94.0963 274.628 94.9244 274.644 96.1276C274.628 97.3463 275.519 98.1588 276.706 98.1432C277.894 98.1588 278.769 97.3463 278.769 96.1276C278.769 94.9244 277.894 94.0963 276.706 94.0963ZM290.275 92.2682C290.275 94.5026 291.212 96.8932 293.087 98.0338L292.259 99.1744C290.947 98.3854 290.056 96.9869 289.587 95.3619C289.064 97.1432 288.103 98.6588 286.744 99.4869L285.822 98.3776C287.806 97.1901 288.837 94.7213 288.837 92.3307V89.7213H290.275V92.2682ZM298.056 88.4401V102.44H296.634V88.4401H298.056ZM295.15 88.7057V101.753H293.744V94.5963H291.572V93.3619H293.744V88.7057H295.15ZM312.25 99.4557V100.69H299.438V99.4557H302.5V95.7994C301.352 95.1666 300.656 94.1588 300.656 92.9088C300.656 90.7057 302.812 89.2526 305.812 89.2526C308.828 89.2526 310.984 90.7057 310.984 92.9088C310.984 94.1432 310.312 95.1354 309.188 95.7682V99.4557H312.25ZM305.812 90.4401C303.609 90.4401 302.094 91.3932 302.094 92.9088C302.094 94.4088 303.609 95.3932 305.812 95.3932C308 95.3932 309.547 94.4088 309.547 92.9088C309.547 91.3932 308 90.4401 305.812 90.4401ZM303.969 99.4557H307.688V96.3307C307.117 96.4791 306.484 96.5494 305.812 96.5494C305.156 96.5494 304.531 96.4791 303.969 96.3463V99.4557ZM315.444 89.7994L315.303 97.8463H313.756L313.616 89.7994H315.444ZM314.538 101.221C313.928 101.221 313.413 100.721 313.428 100.112C313.413 99.5026 313.928 99.0026 314.538 99.0026C315.131 99.0026 315.647 99.5026 315.647 100.112C315.647 100.721 315.131 101.221 314.538 101.221Z" fill="white"/>
</svg>
