<svg width="220" height="106" viewBox="0 0 220 106" fill="none" xmlns="http://www.w3.org/2000/svg">
<g filter="url(#filter0_ii_1114_5195)">
<path d="M20.4106 105.156C19.8583 105.156 19.41 104.708 19.4161 104.156C19.5437 92.5675 21.8877 81.1075 26.3249 70.3952C30.8897 59.3748 37.5804 49.3614 46.0151 40.9267C54.4497 32.4921 64.4631 25.8013 75.4835 21.2365C86.5039 16.6717 98.3155 14.3223 110.244 14.3223C122.172 14.3223 133.984 16.6717 145.004 21.2365C156.025 25.8013 166.038 32.4921 174.473 40.9267C182.907 49.3614 189.598 59.3748 194.163 70.3952C198.6 81.1075 200.944 92.5675 201.072 104.156C201.078 104.708 200.63 105.156 200.077 105.156H174.827C174.275 105.156 173.828 104.708 173.819 104.156C173.693 96.1462 172.055 88.2295 168.987 80.8233C165.792 73.109 161.108 66.0997 155.204 60.1954C149.3 54.2911 142.291 49.6076 134.576 46.4123C126.862 43.2169 118.594 41.5723 110.244 41.5723C101.894 41.5723 93.6259 43.2169 85.9116 46.4123C78.1974 49.6076 71.188 54.2911 65.2837 60.1954C59.3795 66.0996 54.696 73.109 51.5006 80.8233C48.4328 88.2295 46.7944 96.1462 46.6685 104.156C46.6598 104.708 46.2129 105.156 45.6606 105.156H20.4106Z" fill="#D6AC8A" fill-opacity="0.7"/>
</g>
<g filter="url(#filter1_ii_1114_5195)">
<path d="M36.148 83.1928C28.934 81.0523 24.7304 73.4065 27.925 66.5934C35.1803 51.1201 46.6998 37.917 61.2554 28.6155C75.811 19.3141 92.6318 14.4069 109.721 14.3231C117.246 14.2863 122.419 21.3129 121.331 28.7587C120.243 36.2045 113.278 41.2039 105.771 41.7243C95.2269 42.4551 84.9555 45.8092 75.9288 51.5776C66.902 57.3459 59.5433 65.2579 54.4506 74.5195C50.8248 81.1133 43.362 85.3334 36.148 83.1928Z" fill="#F0807F" fill-opacity="0.5"/>
</g>
<path d="M213.076 93.4041L219 92.1484" stroke="#D6AC8A" stroke-opacity="0.5" stroke-linecap="round" stroke-linejoin="round"/>
<path d="M200.601 59.3208L205.738 56.1147" stroke="#D6AC8A" stroke-opacity="0.5" stroke-linecap="round" stroke-linejoin="round"/>
<path d="M177.221 31.5593L180.952 26.7896" stroke="#D6AC8A" stroke-opacity="0.5" stroke-linecap="round" stroke-linejoin="round"/>
<path d="M145.757 13.4688L147.631 7.71069" stroke="#D6AC8A" stroke-opacity="0.5" stroke-linecap="round" stroke-linejoin="round"/>
<path d="M110.002 7.23094L109.794 1.17896" stroke="#D6AC8A" stroke-opacity="0.5" stroke-linecap="round" stroke-linejoin="round"/>
<path d="M74.2705 13.5981L72.0052 7.98218" stroke="#D6AC8A" stroke-opacity="0.5" stroke-linecap="round" stroke-linejoin="round"/>
<path d="M42.8715 31.8015L38.8221 27.2991" stroke="#D6AC8A" stroke-opacity="0.5" stroke-linecap="round" stroke-linejoin="round"/>
<path d="M19.5918 59.647L14.2467 56.801" stroke="#D6AC8A" stroke-opacity="0.5" stroke-linecap="round" stroke-linejoin="round"/>
<path d="M7.24004 93.7756L1.2439 92.9294" stroke="#D6AC8A" stroke-opacity="0.5" stroke-linecap="round" stroke-linejoin="round"/>
<defs>
<filter id="filter0_ii_1114_5195" x="17.416" y="12.3223" width="185.656" height="94.8333" filterUnits="userSpaceOnUse" color-interpolation-filters="sRGB">
<feFlood flood-opacity="0" result="BackgroundImageFix"/>
<feBlend mode="normal" in="SourceGraphic" in2="BackgroundImageFix" result="shape"/>
<feColorMatrix in="SourceAlpha" type="matrix" values="0 0 0 0 0 0 0 0 0 0 0 0 0 0 0 0 0 0 127 0" result="hardAlpha"/>
<feOffset dx="2" dy="2"/>
<feGaussianBlur stdDeviation="2"/>
<feComposite in2="hardAlpha" operator="arithmetic" k2="-1" k3="1"/>
<feColorMatrix type="matrix" values="0 0 0 0 0 0 0 0 0 0 0 0 0 0 0 0 0 0 0.1 0"/>
<feBlend mode="normal" in2="shape" result="effect1_innerShadow_1114_5195"/>
<feColorMatrix in="SourceAlpha" type="matrix" values="0 0 0 0 0 0 0 0 0 0 0 0 0 0 0 0 0 0 127 0" result="hardAlpha"/>
<feOffset dx="-2" dy="-2"/>
<feGaussianBlur stdDeviation="2"/>
<feComposite in2="hardAlpha" operator="arithmetic" k2="-1" k3="1"/>
<feColorMatrix type="matrix" values="0 0 0 0 1 0 0 0 0 1 0 0 0 0 1 0 0 0 0.1 0"/>
<feBlend mode="normal" in2="effect1_innerShadow_1114_5195" result="effect2_innerShadow_1114_5195"/>
</filter>
<filter id="filter1_ii_1114_5195" x="24.8414" y="12.323" width="98.6338" height="73.4307" filterUnits="userSpaceOnUse" color-interpolation-filters="sRGB">
<feFlood flood-opacity="0" result="BackgroundImageFix"/>
<feBlend mode="normal" in="SourceGraphic" in2="BackgroundImageFix" result="shape"/>
<feColorMatrix in="SourceAlpha" type="matrix" values="0 0 0 0 0 0 0 0 0 0 0 0 0 0 0 0 0 0 127 0" result="hardAlpha"/>
<feOffset dx="2" dy="2"/>
<feGaussianBlur stdDeviation="2"/>
<feComposite in2="hardAlpha" operator="arithmetic" k2="-1" k3="1"/>
<feColorMatrix type="matrix" values="0 0 0 0 0 0 0 0 0 0 0 0 0 0 0 0 0 0 0.1 0"/>
<feBlend mode="normal" in2="shape" result="effect1_innerShadow_1114_5195"/>
<feColorMatrix in="SourceAlpha" type="matrix" values="0 0 0 0 0 0 0 0 0 0 0 0 0 0 0 0 0 0 127 0" result="hardAlpha"/>
<feOffset dx="-2" dy="-2"/>
<feGaussianBlur stdDeviation="2"/>
<feComposite in2="hardAlpha" operator="arithmetic" k2="-1" k3="1"/>
<feColorMatrix type="matrix" values="0 0 0 0 1 0 0 0 0 1 0 0 0 0 1 0 0 0 0.1 0"/>
<feBlend mode="normal" in2="effect1_innerShadow_1114_5195" result="effect2_innerShadow_1114_5195"/>
</filter>
</defs>
</svg>
