<svg width="220" height="106" viewBox="0 0 220 106" fill="none" xmlns="http://www.w3.org/2000/svg">
<g filter="url(#filter0_ii_1114_5181)">
<path d="M20.1667 105.156C19.6144 105.156 19.1661 104.708 19.1722 104.156C19.2998 92.5675 21.6438 81.1075 26.081 70.3952C30.6458 59.3748 37.3365 49.3614 45.7712 40.9267C54.2058 32.4921 64.2192 25.8013 75.2396 21.2365C86.26 16.6717 98.0716 14.3223 110 14.3223C121.928 14.3223 133.74 16.6717 144.76 21.2365C155.781 25.8013 165.794 32.4921 174.229 40.9267C182.664 49.3614 189.354 59.3748 193.919 70.3952C198.356 81.1075 200.7 92.5675 200.828 104.156C200.834 104.708 200.386 105.156 199.833 105.156H174.583C174.031 105.156 173.584 104.708 173.576 104.156C173.45 96.1462 171.811 88.2295 168.743 80.8233C165.548 73.109 160.865 66.0997 154.96 60.1954C149.056 54.2911 142.047 49.6076 134.332 46.4123C126.618 43.2169 118.35 41.5723 110 41.5723C101.65 41.5723 93.382 43.2169 85.6677 46.4123C77.9535 49.6076 70.9441 54.2911 65.0398 60.1954C59.1356 66.0996 54.4521 73.109 51.2567 80.8233C48.1889 88.2295 46.5505 96.1462 46.4246 104.156C46.4159 104.708 45.969 105.156 45.4167 105.156H20.1667Z" fill="#D6AC8A" fill-opacity="0.7"/>
</g>
<g filter="url(#filter1_ii_1114_5181)">
<path d="M122.693 28.9978C123.93 21.5754 118.9 14.4467 111.376 14.3327C99.9186 14.1591 88.489 16.1547 77.7023 20.2583C66.9156 24.3618 57.0497 30.4677 48.6046 38.2129C43.0589 43.2991 44.0388 51.9686 49.8966 56.692C55.7544 61.4153 64.2614 60.351 70.1224 55.6316C75.3013 51.4615 81.1244 48.1117 87.3916 45.7275C93.6588 43.3432 100.236 41.9756 106.877 41.649C114.393 41.2794 121.456 36.4203 122.693 28.9978Z" fill="#F0807F" fill-opacity="0.5"/>
</g>
<path d="M212.832 93.4041L218.756 92.1484" stroke="#D6AC8A" stroke-opacity="0.5" stroke-linecap="round" stroke-linejoin="round"/>
<path d="M200.357 59.3208L205.495 56.1147" stroke="#D6AC8A" stroke-opacity="0.5" stroke-linecap="round" stroke-linejoin="round"/>
<path d="M176.977 31.5593L180.708 26.7896" stroke="#D6AC8A" stroke-opacity="0.5" stroke-linecap="round" stroke-linejoin="round"/>
<path d="M145.513 13.4688L147.387 7.71069" stroke="#D6AC8A" stroke-opacity="0.5" stroke-linecap="round" stroke-linejoin="round"/>
<path d="M109.758 7.23094L109.55 1.17896" stroke="#D6AC8A" stroke-opacity="0.5" stroke-linecap="round" stroke-linejoin="round"/>
<path d="M74.0265 13.5981L71.7612 7.98218" stroke="#D6AC8A" stroke-opacity="0.5" stroke-linecap="round" stroke-linejoin="round"/>
<path d="M42.6275 31.8015L38.5781 27.2991" stroke="#D6AC8A" stroke-opacity="0.5" stroke-linecap="round" stroke-linejoin="round"/>
<path d="M19.3478 59.647L14.0027 56.801" stroke="#D6AC8A" stroke-opacity="0.5" stroke-linecap="round" stroke-linejoin="round"/>
<path d="M6.99614 93.7756L1 92.9294" stroke="#D6AC8A" stroke-opacity="0.5" stroke-linecap="round" stroke-linejoin="round"/>
<defs>
<filter id="filter0_ii_1114_5181" x="17.1721" y="12.3223" width="185.656" height="94.8333" filterUnits="userSpaceOnUse" color-interpolation-filters="sRGB">
<feFlood flood-opacity="0" result="BackgroundImageFix"/>
<feBlend mode="normal" in="SourceGraphic" in2="BackgroundImageFix" result="shape"/>
<feColorMatrix in="SourceAlpha" type="matrix" values="0 0 0 0 0 0 0 0 0 0 0 0 0 0 0 0 0 0 127 0" result="hardAlpha"/>
<feOffset dx="2" dy="2"/>
<feGaussianBlur stdDeviation="2"/>
<feComposite in2="hardAlpha" operator="arithmetic" k2="-1" k3="1"/>
<feColorMatrix type="matrix" values="0 0 0 0 0 0 0 0 0 0 0 0 0 0 0 0 0 0 0.1 0"/>
<feBlend mode="normal" in2="shape" result="effect1_innerShadow_1114_5181"/>
<feColorMatrix in="SourceAlpha" type="matrix" values="0 0 0 0 0 0 0 0 0 0 0 0 0 0 0 0 0 0 127 0" result="hardAlpha"/>
<feOffset dx="-2" dy="-2"/>
<feGaussianBlur stdDeviation="2"/>
<feComposite in2="hardAlpha" operator="arithmetic" k2="-1" k3="1"/>
<feColorMatrix type="matrix" values="0 0 0 0 1 0 0 0 0 1 0 0 0 0 1 0 0 0 0.1 0"/>
<feBlend mode="normal" in2="effect1_innerShadow_1114_5181" result="effect2_innerShadow_1114_5181"/>
</filter>
<filter id="filter1_ii_1114_5181" x="42.9321" y="12.3223" width="81.9481" height="49.425" filterUnits="userSpaceOnUse" color-interpolation-filters="sRGB">
<feFlood flood-opacity="0" result="BackgroundImageFix"/>
<feBlend mode="normal" in="SourceGraphic" in2="BackgroundImageFix" result="shape"/>
<feColorMatrix in="SourceAlpha" type="matrix" values="0 0 0 0 0 0 0 0 0 0 0 0 0 0 0 0 0 0 127 0" result="hardAlpha"/>
<feOffset dx="2" dy="2"/>
<feGaussianBlur stdDeviation="2"/>
<feComposite in2="hardAlpha" operator="arithmetic" k2="-1" k3="1"/>
<feColorMatrix type="matrix" values="0 0 0 0 0 0 0 0 0 0 0 0 0 0 0 0 0 0 0.1 0"/>
<feBlend mode="normal" in2="shape" result="effect1_innerShadow_1114_5181"/>
<feColorMatrix in="SourceAlpha" type="matrix" values="0 0 0 0 0 0 0 0 0 0 0 0 0 0 0 0 0 0 127 0" result="hardAlpha"/>
<feOffset dx="-2" dy="-2"/>
<feGaussianBlur stdDeviation="2"/>
<feComposite in2="hardAlpha" operator="arithmetic" k2="-1" k3="1"/>
<feColorMatrix type="matrix" values="0 0 0 0 1 0 0 0 0 1 0 0 0 0 1 0 0 0 0.1 0"/>
<feBlend mode="normal" in2="effect1_innerShadow_1114_5181" result="effect2_innerShadow_1114_5181"/>
</filter>
</defs>
</svg>
