<svg width="220" height="106" viewBox="0 0 220 106" fill="none" xmlns="http://www.w3.org/2000/svg">
<g filter="url(#filter0_ii_1114_5139)">
<path d="M199.833 105.156C200.386 105.156 200.834 104.708 200.828 104.156C200.7 92.5675 198.356 81.1075 193.919 70.3952C189.354 59.3748 182.663 49.3614 174.229 40.9267C165.794 32.4921 155.781 25.8013 144.76 21.2365C133.74 16.6717 121.928 14.3223 110 14.3223C98.0716 14.3223 86.26 16.6717 75.2395 21.2365C64.2191 25.8013 54.2057 32.4921 45.7711 40.9267C37.3364 49.3614 30.6457 59.3748 26.0809 70.3952C21.6437 81.1075 19.2997 92.5675 19.1721 104.156C19.1661 104.708 19.6143 105.156 20.1666 105.156H45.4166C45.9689 105.156 46.4158 104.708 46.4245 104.156C46.5505 96.1462 48.1889 88.2295 51.2566 80.8233C54.452 73.109 59.1355 66.0997 65.0397 60.1954C70.944 54.2911 77.9534 49.6076 85.6677 46.4123C93.382 43.2169 101.65 41.5723 110 41.5723C118.35 41.5723 126.618 43.2169 134.332 46.4123C142.047 49.6076 149.056 54.2911 154.96 60.1954C160.864 66.0996 165.548 73.109 168.743 80.8233C171.811 88.2295 173.449 96.1462 173.575 104.156C173.584 104.708 174.031 105.156 174.583 105.156H199.833Z" fill="#D6AC8A" fill-opacity="0.7"/>
</g>
<g filter="url(#filter1_ii_1114_5139)">
<path d="M97.3067 28.9978C96.0695 21.5754 101.1 14.4467 108.624 14.3327C117.203 14.2027 125.78 15.2885 134.096 17.5767C146.806 21.0735 158.602 27.2945 168.665 35.8079C178.729 44.3213 186.819 54.923 192.374 66.8769C196.009 74.6991 198.501 82.9778 199.795 91.4594C200.93 98.8983 194.733 105.04 187.208 105.051C179.683 105.061 173.721 98.9007 172.111 91.5501C171.118 87.0173 169.629 82.5934 167.662 78.3605C163.773 69.9928 158.11 62.5716 151.066 56.6122C144.021 50.6528 135.764 46.2981 126.867 43.8504C122.367 42.6121 117.758 41.8769 113.123 41.649C105.607 41.2794 98.5438 36.4203 97.3067 28.9978Z" fill="#F0807F" fill-opacity="0.5"/>
</g>
<path d="M7.16784 93.4041L1.2439 92.1484" stroke="#D6AC8A" stroke-opacity="0.5" stroke-linecap="round" stroke-linejoin="round"/>
<path d="M19.6427 59.3208L14.5055 56.1147" stroke="#D6AC8A" stroke-opacity="0.5" stroke-linecap="round" stroke-linejoin="round"/>
<path d="M43.0225 31.5593L39.2916 26.7896" stroke="#D6AC8A" stroke-opacity="0.5" stroke-linecap="round" stroke-linejoin="round"/>
<path d="M74.4874 13.4688L72.6128 7.71069" stroke="#D6AC8A" stroke-opacity="0.5" stroke-linecap="round" stroke-linejoin="round"/>
<path d="M110.242 7.23094L110.45 1.17896" stroke="#D6AC8A" stroke-opacity="0.5" stroke-linecap="round" stroke-linejoin="round"/>
<path d="M145.974 13.5981L148.239 7.98218" stroke="#D6AC8A" stroke-opacity="0.5" stroke-linecap="round" stroke-linejoin="round"/>
<path d="M177.372 31.8015L181.422 27.2991" stroke="#D6AC8A" stroke-opacity="0.5" stroke-linecap="round" stroke-linejoin="round"/>
<path d="M200.652 59.647L205.997 56.801" stroke="#D6AC8A" stroke-opacity="0.5" stroke-linecap="round" stroke-linejoin="round"/>
<path d="M213.004 93.7756L219 92.9294" stroke="#D6AC8A" stroke-opacity="0.5" stroke-linecap="round" stroke-linejoin="round"/>
<defs>
<filter id="filter0_ii_1114_5139" x="17.1721" y="12.3223" width="185.656" height="94.8333" filterUnits="userSpaceOnUse" color-interpolation-filters="sRGB">
<feFlood flood-opacity="0" result="BackgroundImageFix"/>
<feBlend mode="normal" in="SourceGraphic" in2="BackgroundImageFix" result="shape"/>
<feColorMatrix in="SourceAlpha" type="matrix" values="0 0 0 0 0 0 0 0 0 0 0 0 0 0 0 0 0 0 127 0" result="hardAlpha"/>
<feOffset dx="2" dy="2"/>
<feGaussianBlur stdDeviation="2"/>
<feComposite in2="hardAlpha" operator="arithmetic" k2="-1" k3="1"/>
<feColorMatrix type="matrix" values="0 0 0 0 0 0 0 0 0 0 0 0 0 0 0 0 0 0 0.1 0"/>
<feBlend mode="normal" in2="shape" result="effect1_innerShadow_1114_5139"/>
<feColorMatrix in="SourceAlpha" type="matrix" values="0 0 0 0 0 0 0 0 0 0 0 0 0 0 0 0 0 0 127 0" result="hardAlpha"/>
<feOffset dx="-2" dy="-2"/>
<feGaussianBlur stdDeviation="2"/>
<feComposite in2="hardAlpha" operator="arithmetic" k2="-1" k3="1"/>
<feColorMatrix type="matrix" values="0 0 0 0 1 0 0 0 0 1 0 0 0 0 1 0 0 0 0.1 0"/>
<feBlend mode="normal" in2="effect1_innerShadow_1114_5139" result="effect2_innerShadow_1114_5139"/>
</filter>
<filter id="filter1_ii_1114_5139" x="95.1198" y="12.3223" width="106.81" height="94.7283" filterUnits="userSpaceOnUse" color-interpolation-filters="sRGB">
<feFlood flood-opacity="0" result="BackgroundImageFix"/>
<feBlend mode="normal" in="SourceGraphic" in2="BackgroundImageFix" result="shape"/>
<feColorMatrix in="SourceAlpha" type="matrix" values="0 0 0 0 0 0 0 0 0 0 0 0 0 0 0 0 0 0 127 0" result="hardAlpha"/>
<feOffset dx="2" dy="2"/>
<feGaussianBlur stdDeviation="2"/>
<feComposite in2="hardAlpha" operator="arithmetic" k2="-1" k3="1"/>
<feColorMatrix type="matrix" values="0 0 0 0 0 0 0 0 0 0 0 0 0 0 0 0 0 0 0.1 0"/>
<feBlend mode="normal" in2="shape" result="effect1_innerShadow_1114_5139"/>
<feColorMatrix in="SourceAlpha" type="matrix" values="0 0 0 0 0 0 0 0 0 0 0 0 0 0 0 0 0 0 127 0" result="hardAlpha"/>
<feOffset dx="-2" dy="-2"/>
<feGaussianBlur stdDeviation="2"/>
<feComposite in2="hardAlpha" operator="arithmetic" k2="-1" k3="1"/>
<feColorMatrix type="matrix" values="0 0 0 0 1 0 0 0 0 1 0 0 0 0 1 0 0 0 0.1 0"/>
<feBlend mode="normal" in2="effect1_innerShadow_1114_5139" result="effect2_innerShadow_1114_5139"/>
</filter>
</defs>
</svg>
 